<?xml version="1.0" encoding="UTF-8" standalone="no"?>
<!-- Created with Inkscape (http://www.inkscape.org/) -->

<svg
   xmlns:dc="http://purl.org/dc/elements/1.1/"
   xmlns:cc="http://creativecommons.org/ns#"
   xmlns:rdf="http://www.w3.org/1999/02/22-rdf-syntax-ns#"
   xmlns:svg="http://www.w3.org/2000/svg"
   xmlns="http://www.w3.org/2000/svg"
   xmlns:sodipodi="http://sodipodi.sourceforge.net/DTD/sodipodi-0.dtd"
   xmlns:inkscape="http://www.inkscape.org/namespaces/inkscape"
   version="1.1"
   id="svg2"
   width="139.8131"
   height="59.786217"
   viewBox="0 0 139.81309 59.786217"
   sodipodi:docname="metrogas.svg"
   inkscape:version="0.92.1 r">
  <metadata
     id="metadata8">
    <rdf:RDF>
      <cc:Work
         rdf:about="">
        <dc:format>image/svg+xml</dc:format>
        <dc:type
           rdf:resource="http://purl.org/dc/dcmitype/StillImage" />
        <dc:title></dc:title>
      </cc:Work>
    </rdf:RDF>
  </metadata>
  <defs
     id="defs6" />
  <sodipodi:namedview
     pagecolor="#ffffff"
     bordercolor="#666666"
     borderopacity="1"
     objecttolerance="10"
     gridtolerance="10"
     guidetolerance="10"
     inkscape:pageopacity="0"
     inkscape:pageshadow="2"
     inkscape:window-width="1364"
     inkscape:window-height="734"
     id="namedview4"
     showgrid="false"
     fit-margin-top="0"
     fit-margin-left="0"
     fit-margin-right="0"
     fit-margin-bottom="0"
     inkscape:zoom="1.3079268"
     inkscape:cx="93.053119"
     inkscape:cy="157.03354"
     inkscape:window-x="0"
     inkscape:window-y="33"
     inkscape:window-maximized="0"
     inkscape:current-layer="svg2" />
  <g
     id="g4509"
     transform="matrix(0.42628335,0,0,0.42628335,-0.32592315,-0.12962447)">
    <g
       transform="translate(0.76456927,2.4941731e-6)"
       id="g4487">
      <path
         inkscape:connector-curvature="0"
         id="path4493"
         d="m 75.907284,108.67978 c -5.91827,-3.11568 -9.040652,-8.78841 -9.66088,-17.551833 -0.604011,-8.534286 1.001417,-14.289613 5.319194,-19.068877 6.202577,-6.865511 17.157107,-7.509152 23.66773,-1.390614 3.580911,3.365259 5.322532,7.130483 6.286412,13.590628 C 102.60537,91.535237 101.81986,92 88.436572,92 c -6.624378,0 -11.580316,0.423566 -11.949736,1.021301 -0.34716,0.561715 0.188783,2.699215 1.190983,4.75 1.384833,2.833759 2.832015,4.077799 6.029593,5.183189 3.747213,1.29541 4.765454,1.27604 9.309378,-0.17705 5.582224,-1.78512 6.473063,-1.26404 5.812291,3.39983 -0.705525,4.97975 -15.208595,6.56314 -22.921797,2.50251 z M 91.270335,83.737902 C 91.536707,83.043747 91.247352,80.921434 90.627324,79.021649 88.251319,71.741497 80.36185,71.496385 77.389437,78.610372 75.065222,84.173001 75.902907,85 83.861626,85 c 4.652428,0 7.083305,-0.414108 7.408709,-1.262098 z m 25.598235,25.752248 c -1.44728,-0.78637 -3.01256,-2.23086 -3.47839,-3.20996 -0.46584,-0.9791 -1.0817,-8.301855 -1.36858,-16.272778 L 111.5,75.514824 l -3,-0.511905 c -2.62165,-0.447345 -3.03863,-0.975759 -3.30634,-4.189852 -0.2919,-3.504598 -0.1505,-3.692914 3,-3.995507 3.1054,-0.29826 3.3248,-0.571252 3.61014,-4.49189 0.29009,-3.985989 0.51206,-4.24529 4.91958,-5.747084 2.53868,-0.865015 4.86708,-1.321456 5.17423,-1.014313 0.30714,0.307143 0.79333,2.893331 1.08041,5.747084 C 123.48521,66.352936 123.5992,66.514172 127,67 c 3.2381,0.462585 3.5,0.761905 3.5,4 0,3.322602 -0.19007,3.515731 -3.75,3.810365 L 123,75.120731 V 87.860365 C 123,101.59982 123.47014,103 128.08342,103 c 2.08401,0 2.79259,0.57105 3.17212,2.55645 0.28437,1.48756 -0.11487,3.16002 -0.95485,4 -1.86134,1.86134 -9.95794,1.82138 -13.43212,-0.0663 z M 175.5,109.11927 c -7.53698,-3.461 -10.72222,-9.642354 -10.72222,-20.807828 0,-12.036587 4.4045,-18.667804 14.14062,-21.289468 9.00714,-2.425372 17.6977,1.450101 21.72904,9.689853 2.33155,4.765526 2.55596,6.191342 2.16044,13.726913 -0.3707,7.06286 -0.8815,9.07411 -3.19076,12.56364 -4.88624,7.38361 -15.49759,10.07499 -24.11712,6.11689 z m 13.3499,-8.18853 C 191.08627,98.530273 192,94.733979 192,87.842881 c 0,-11.475369 -7.09216,-17.631489 -13.03035,-11.310575 -4.12752,4.393544 -4.07143,20.365919 0.0861,24.523474 2.55773,2.55773 7.35176,2.49653 9.79412,-0.12504 z m 36.91414,9.07355 c -11.14584,-3.35606 -17.29686,-14.303751 -14.79845,-26.338526 2.36531,-11.393657 9.08144,-16.724141 21.9676,-17.435334 4.18439,-0.230939 8.82442,0.07094 10.38022,0.675333 2.39834,0.931706 2.76717,1.572518 2.5,4.343593 L 245.5,74.5 H 238 c -9.08432,0 -12.1424,1.687549 -14.56811,8.039161 -2.15452,5.641548 -1.253,12.33155 2.21756,16.456085 2.01267,2.391914 3.32215,3.004754 6.42039,3.004754 3.28668,0 3.98683,-0.37763 4.5014,-2.427828 C 237.53749,95.722317 236.21241,93 233.37225,93 c -2.26929,0 -2.46513,-0.336486 -2.18262,-3.75 L 231.5,85.5 h 7.5 7.5 l 0.28125,11.694366 0.28126,11.694364 -3.78126,1.05006 c -4.39431,1.2203 -13.56805,1.2546 -17.51721,0.0655 z M 302,110.11102 c -1.85388,-0.51139 -2.56733,-1.4548 -2.76052,-3.65032 -0.42737,-4.85692 0.78764,-5.79976 5.7515,-4.46313 5.39793,1.45351 8.76663,0.62852 10.19005,-2.495544 1.49554,-3.282354 0.24129,-4.647929 -7.66887,-8.349542 C 300.33698,87.794813 298.63928,85.472605 298.62783,79 c -0.0151,-8.527678 5.90258,-13 17.20128,-13 7.04538,0 9.4683,1.492845 9.00668,5.549314 -0.33561,2.949104 -0.33904,2.950505 -6.39107,2.6136 -4.54007,-0.252737 -6.3749,0.04803 -7.33258,1.201961 -2.3451,2.82568 -0.69696,5.023588 6.89618,9.196522 7.98183,4.386541 9.95562,6.848262 9.9732,12.438603 0.0256,8.14971 -7.58702,14.02524 -17.98152,13.87836 -3.025,-0.0427 -6.625,-0.38805 -8,-0.76734 z M 0,80.961067 V 51.922134 L 8.746405,52.211067 17.49281,52.5 22.683502,71.353764 c 5.192765,18.861292 5.783561,20.512506 6.929322,19.366746 0.513558,-0.513559 6.771779,-21.470631 10.454766,-35.010157 l 1.03085,-3.789647 8.20078,0.289647 L 57.5,52.5 V 81 109.5 l -4.75,0.30479 -4.75,0.30479 -0.01531,-20.304789 c -0.0145,-19.233068 -0.834869,-25.964744 -2.602777,-21.357649 -0.399124,1.0401 -3.471229,10.702489 -6.8269,21.471975 L 32.453789,109.5 H 28.607504 24.761219 L 21.331646,98 C 13.495423,71.723682 11.874151,66.959745 10.960198,67.524599 10.396061,67.873255 10,76.755745 10,89.059017 V 110 H 5 0 Z m 139.44674,27.760723 c -0.26978,-0.70302 -0.36815,-10.265516 -0.21862,-21.25 L 139.5,67.5 l 4.32759,-0.311289 c 3.66967,-0.263964 4.40954,0.0021 4.86663,1.75 0.57965,2.216553 2.75798,2.756659 3.86884,0.959255 0.3746,-0.606118 2.24048,-1.753586 4.14639,-2.549928 C 160.75466,65.657844 163,66.797415 163,70.540657 163,74.465322 161.90803,76 159.11552,76 c -7.02311,0 -9.10179,5.076941 -9.10994,22.25 L 150,110 h -5.03138 c -3.16185,0 -5.21365,-0.47495 -5.52188,-1.27821 z M 254.07196,108.25 c 0.0396,-0.9625 3.07708,-10.525 6.75,-21.25 L 267.5,67.5 l 6.75,-0.29569 c 3.7125,-0.162629 6.75,-0.06822 6.75,0.209791 0,0.278014 2.92367,9.636075 6.49705,20.79569 3.57338,11.159615 6.49838,20.650169 6.5,21.090109 0.002,0.43995 -2.572,0.66495 -5.71916,0.5 l -5.72212,-0.2999 -1.11813,-4 -1.11813,-4 h -6.30077 c -6.64661,0 -7.04752,0.25629 -8.99459,5.75 -0.88811,2.50583 -1.4208,2.75 -5.9994,2.75 -4.14622,0 -5.01217,-0.30597 -4.95279,-1.75 z m 23.16576,-16.5 C 277.88266,89.965207 275.03878,78 273.96962,78 272.91971,78 270,87.327414 270,90.681501 270,92.650622 270.5113,93 273.39301,93 c 1.86616,0 3.59627,-0.5625 3.84471,-1.25 z M 183.57934,41.263986 C 171.52298,34.230619 161.50413,28.012385 161.31523,27.445688 161.06894,26.706829 197.88953,4.4349369 206.17136,0.31328542 207.31561,-0.25617431 251.48468,25.77382 251.75465,27.176713 c 0.24875,1.292627 -41.24893,26.023381 -44.63298,26.59925 -0.89192,0.151779 -11.48597,-5.47861 -23.54233,-12.511977 z"
         style="fill:#00b3e3;fill-opacity:1" />
      <path
         inkscape:connector-curvature="0"
         id="path4491"
         d="m 75.907284,108.67978 c -5.91827,-3.11568 -9.040652,-8.78841 -9.66088,-17.551833 -0.604011,-8.534286 1.001417,-14.289613 5.319194,-19.068877 6.202577,-6.865511 17.157107,-7.509152 23.66773,-1.390614 3.580911,3.365259 5.322532,7.130483 6.286412,13.590628 C 102.60537,91.535237 101.81986,92 88.436572,92 c -6.624378,0 -11.580316,0.423566 -11.949736,1.021301 -0.34716,0.561715 0.188783,2.699215 1.190983,4.75 1.384833,2.833759 2.832015,4.077799 6.029593,5.183189 3.747213,1.29541 4.765454,1.27604 9.309378,-0.17705 5.582224,-1.78512 6.473063,-1.26404 5.812291,3.39983 -0.705525,4.97975 -15.208595,6.56314 -22.921797,2.50251 z M 91.270335,83.737902 C 91.536707,83.043747 91.247352,80.921434 90.627324,79.021649 88.251319,71.741497 80.36185,71.496385 77.389437,78.610372 75.065222,84.173001 75.902907,85 83.861626,85 c 4.652428,0 7.083305,-0.414108 7.408709,-1.262098 z m 25.598235,25.752248 c -1.44728,-0.78637 -3.01256,-2.23086 -3.47839,-3.20996 -0.46584,-0.9791 -1.0817,-8.301855 -1.36858,-16.272778 L 111.5,75.514824 l -3,-0.511905 c -2.62165,-0.447345 -3.03863,-0.975759 -3.30634,-4.189852 -0.2919,-3.504598 -0.1505,-3.692914 3,-3.995507 3.1054,-0.29826 3.3248,-0.571252 3.61014,-4.49189 0.29009,-3.985989 0.51206,-4.24529 4.91958,-5.747084 2.53868,-0.865015 4.86708,-1.321456 5.17423,-1.014313 0.30714,0.307143 0.79333,2.893331 1.08041,5.747084 C 123.48521,66.352936 123.5992,66.514172 127,67 c 3.2381,0.462585 3.5,0.761905 3.5,4 0,3.322602 -0.19007,3.515731 -3.75,3.810365 L 123,75.120731 V 87.860365 C 123,101.59982 123.47014,103 128.08342,103 c 2.08401,0 2.79259,0.57105 3.17212,2.55645 0.28437,1.48756 -0.11487,3.16002 -0.95485,4 -1.86134,1.86134 -9.95794,1.82138 -13.43212,-0.0663 z M 175.5,109.11927 c -7.53698,-3.461 -10.72222,-9.642354 -10.72222,-20.807828 0,-12.036587 4.4045,-18.667804 14.14062,-21.289468 9.00714,-2.425372 17.6977,1.450101 21.72904,9.689853 2.33155,4.765526 2.55596,6.191342 2.16044,13.726913 -0.3707,7.06286 -0.8815,9.07411 -3.19076,12.56364 -4.88624,7.38361 -15.49759,10.07499 -24.11712,6.11689 z m 13.3499,-8.18853 C 191.08627,98.530273 192,94.733979 192,87.842881 c 0,-11.475369 -7.09216,-17.631489 -13.03035,-11.310575 -4.12752,4.393544 -4.07143,20.365919 0.0861,24.523474 2.55773,2.55773 7.35176,2.49653 9.79412,-0.12504 z m 36.91414,9.07355 c -11.14584,-3.35606 -17.29686,-14.303751 -14.79845,-26.338526 2.36531,-11.393657 9.08144,-16.724141 21.9676,-17.435334 4.18439,-0.230939 8.82442,0.07094 10.38022,0.675333 2.39834,0.931706 2.76717,1.572518 2.5,4.343593 L 245.5,74.5 H 238 c -9.08432,0 -12.1424,1.687549 -14.56811,8.039161 -2.15452,5.641548 -1.253,12.33155 2.21756,16.456085 2.01267,2.391914 3.32215,3.004754 6.42039,3.004754 3.28668,0 3.98683,-0.37763 4.5014,-2.427828 C 237.53749,95.722317 236.21241,93 233.37225,93 c -2.26929,0 -2.46513,-0.336486 -2.18262,-3.75 L 231.5,85.5 h 7.5 7.5 l 0.28125,11.694366 0.28126,11.694364 -3.78126,1.05006 c -4.39431,1.2203 -13.56805,1.2546 -17.51721,0.0655 z M 302,110.11102 c -1.85388,-0.51139 -2.56733,-1.4548 -2.76052,-3.65032 -0.42737,-4.85692 0.78764,-5.79976 5.7515,-4.46313 5.39793,1.45351 8.76663,0.62852 10.19005,-2.495544 1.49554,-3.282354 0.24129,-4.647929 -7.66887,-8.349542 C 300.33698,87.794813 298.63928,85.472605 298.62783,79 c -0.0151,-8.527678 5.90258,-13 17.20128,-13 7.04538,0 9.4683,1.492845 9.00668,5.549314 -0.33561,2.949104 -0.33904,2.950505 -6.39107,2.6136 -4.54007,-0.252737 -6.3749,0.04803 -7.33258,1.201961 -2.3451,2.82568 -0.69696,5.023588 6.89618,9.196522 7.98183,4.386541 9.95562,6.848262 9.9732,12.438603 0.0256,8.14971 -7.58702,14.02524 -17.98152,13.87836 -3.025,-0.0427 -6.625,-0.38805 -8,-0.76734 z M 0,80.961067 V 51.922134 L 8.746405,52.211067 17.49281,52.5 22.683502,71.353764 c 5.192765,18.861292 5.783561,20.512506 6.929322,19.366746 0.513558,-0.513559 6.771779,-21.470631 10.454766,-35.010157 l 1.03085,-3.789647 8.20078,0.289647 L 57.5,52.5 V 81 109.5 l -4.75,0.30479 -4.75,0.30479 -0.01531,-20.304789 c -0.0145,-19.233068 -0.834869,-25.964744 -2.602777,-21.357649 -0.399124,1.0401 -3.471229,10.702489 -6.8269,21.471975 L 32.453789,109.5 H 28.607504 24.761219 L 21.331646,98 C 13.495423,71.723682 11.874151,66.959745 10.960198,67.524599 10.396061,67.873255 10,76.755745 10,89.059017 V 110 H 5 0 Z m 139.44674,27.760723 c -0.26978,-0.70302 -0.36815,-10.265516 -0.21862,-21.25 L 139.5,67.5 l 4.32759,-0.311289 c 3.66967,-0.263964 4.40954,0.0021 4.86663,1.75 0.57965,2.216553 2.75798,2.756659 3.86884,0.959255 0.3746,-0.606118 2.24048,-1.753586 4.14639,-2.549928 C 160.75466,65.657844 163,66.797415 163,70.540657 163,74.465322 161.90803,76 159.11552,76 c -7.02311,0 -9.10179,5.076941 -9.10994,22.25 L 150,110 h -5.03138 c -3.16185,0 -5.21365,-0.47495 -5.52188,-1.27821 z M 254.07196,108.25 c 0.0396,-0.9625 3.07708,-10.525 6.75,-21.25 L 267.5,67.5 l 6.75,-0.29569 c 3.7125,-0.162629 6.75,-0.06822 6.75,0.209791 0,0.278014 2.92367,9.636075 6.49705,20.79569 3.57338,11.159615 6.49838,20.650169 6.5,21.090109 0.002,0.43995 -2.572,0.66495 -5.71916,0.5 l -5.72212,-0.2999 -1.11813,-4 -1.11813,-4 h -6.30077 c -6.64661,0 -7.04752,0.25629 -8.99459,5.75 -0.88811,2.50583 -1.4208,2.75 -5.9994,2.75 -4.14622,0 -5.01217,-0.30597 -4.95279,-1.75 z m 23.16576,-16.5 C 277.88266,89.965207 275.03878,78 273.96962,78 272.91971,78 270,87.327414 270,90.681501 270,92.650622 270.5113,93 273.39301,93 c 1.86616,0 3.59627,-0.5625 3.84471,-1.25 z m -93.6554,-51.577636 c -10.95473,-6.423148 -20.07458,-12.149131 -20.26633,-12.724407 -0.19176,-0.575276 4.27119,-3.703346 9.91768,-6.951267 5.64648,-3.247921 15.40804,-8.963371 21.69235,-12.7010002 C 201.21033,4.0580604 206.46953,1 206.61314,1 c 0.1436,0 0.30246,11.475 0.35303,25.5 0.0859,23.838537 -0.024,25.49514 -1.68712,25.425407 -0.97848,-0.04103 -10.74201,-5.329896 -21.69673,-11.753043 z"
         style="fill:#035eb9" />
      <path
         inkscape:connector-curvature="0"
         id="path4489"
         d="m 75.907284,108.67978 c -5.91827,-3.11568 -9.040652,-8.78841 -9.66088,-17.551833 -0.604011,-8.534286 1.001417,-14.289613 5.319194,-19.068877 6.202577,-6.865511 17.157107,-7.509152 23.66773,-1.390614 3.580911,3.365259 5.322532,7.130483 6.286412,13.590628 C 102.60537,91.535237 101.81986,92 88.436572,92 c -6.624378,0 -11.580316,0.423566 -11.949736,1.021301 -0.34716,0.561715 0.188783,2.699215 1.190983,4.75 1.384833,2.833759 2.832015,4.077799 6.029593,5.183189 3.747213,1.29541 4.765454,1.27604 9.309378,-0.17705 5.582224,-1.78512 6.473063,-1.26404 5.812291,3.39983 -0.705525,4.97975 -15.208595,6.56314 -22.921797,2.50251 z M 91.270335,83.737902 C 91.536707,83.043747 91.247352,80.921434 90.627324,79.021649 88.251319,71.741497 80.36185,71.496385 77.389437,78.610372 75.065222,84.173001 75.902907,85 83.861626,85 c 4.652428,0 7.083305,-0.414108 7.408709,-1.262098 z m 25.598235,25.752248 c -1.44728,-0.78637 -3.01256,-2.23086 -3.47839,-3.20996 -0.46584,-0.9791 -1.0817,-8.301855 -1.36858,-16.272778 L 111.5,75.514824 l -3,-0.511905 c -2.62165,-0.447345 -3.03863,-0.975759 -3.30634,-4.189852 -0.2919,-3.504598 -0.1505,-3.692914 3,-3.995507 3.1054,-0.29826 3.3248,-0.571252 3.61014,-4.49189 0.29009,-3.985989 0.51206,-4.24529 4.91958,-5.747084 2.53868,-0.865015 4.86708,-1.321456 5.17423,-1.014313 0.30714,0.307143 0.79333,2.893331 1.08041,5.747084 C 123.48521,66.352936 123.5992,66.514172 127,67 c 3.2381,0.462585 3.5,0.761905 3.5,4 0,3.322602 -0.19007,3.515731 -3.75,3.810365 L 123,75.120731 V 87.860365 C 123,101.59982 123.47014,103 128.08342,103 c 2.08401,0 2.79259,0.57105 3.17212,2.55645 0.28437,1.48756 -0.11487,3.16002 -0.95485,4 -1.86134,1.86134 -9.95794,1.82138 -13.43212,-0.0663 z M 175.5,109.11927 c -7.53698,-3.461 -10.72222,-9.642354 -10.72222,-20.807828 0,-12.036587 4.4045,-18.667804 14.14062,-21.289468 9.00714,-2.425372 17.6977,1.450101 21.72904,9.689853 2.33155,4.765526 2.55596,6.191342 2.16044,13.726913 -0.3707,7.06286 -0.8815,9.07411 -3.19076,12.56364 -4.88624,7.38361 -15.49759,10.07499 -24.11712,6.11689 z m 13.3499,-8.18853 C 191.08627,98.530273 192,94.733979 192,87.842881 c 0,-11.475369 -7.09216,-17.631489 -13.03035,-11.310575 -4.12752,4.393544 -4.07143,20.365919 0.0861,24.523474 2.55773,2.55773 7.35176,2.49653 9.79412,-0.12504 z m 36.91414,9.07355 c -11.14584,-3.35606 -17.29686,-14.303751 -14.79845,-26.338526 2.36531,-11.393657 9.08144,-16.724141 21.9676,-17.435334 4.18439,-0.230939 8.82442,0.07094 10.38022,0.675333 2.39834,0.931706 2.76717,1.572518 2.5,4.343593 L 245.5,74.5 H 238 c -9.08432,0 -12.1424,1.687549 -14.56811,8.039161 -2.15452,5.641548 -1.253,12.33155 2.21756,16.456085 2.01267,2.391914 3.32215,3.004754 6.42039,3.004754 3.28668,0 3.98683,-0.37763 4.5014,-2.427828 C 237.53749,95.722317 236.21241,93 233.37225,93 c -2.26929,0 -2.46513,-0.336486 -2.18262,-3.75 L 231.5,85.5 h 7.5 7.5 l 0.28125,11.694366 0.28126,11.694364 -3.78126,1.05006 c -4.39431,1.2203 -13.56805,1.2546 -17.51721,0.0655 z M 302,110.11102 c -1.85388,-0.51139 -2.56733,-1.4548 -2.76052,-3.65032 -0.42737,-4.85692 0.78764,-5.79976 5.7515,-4.46313 5.39793,1.45351 8.76663,0.62852 10.19005,-2.495544 1.49554,-3.282354 0.24129,-4.647929 -7.66887,-8.349542 C 300.33698,87.794813 298.63928,85.472605 298.62783,79 c -0.0151,-8.527678 5.90258,-13 17.20128,-13 7.04538,0 9.4683,1.492845 9.00668,5.549314 -0.33561,2.949104 -0.33904,2.950505 -6.39107,2.6136 -4.54007,-0.252737 -6.3749,0.04803 -7.33258,1.201961 -2.3451,2.82568 -0.69696,5.023588 6.89618,9.196522 7.98183,4.386541 9.95562,6.848262 9.9732,12.438603 0.0256,8.14971 -7.58702,14.02524 -17.98152,13.87836 -3.025,-0.0427 -6.625,-0.38805 -8,-0.76734 z M 0,80.961067 V 51.922134 L 8.746405,52.211067 17.49281,52.5 22.683502,71.353764 c 5.192765,18.861292 5.783561,20.512506 6.929322,19.366746 0.513558,-0.513559 6.771779,-21.470631 10.454766,-35.010157 l 1.03085,-3.789647 8.20078,0.289647 L 57.5,52.5 V 81 109.5 l -4.75,0.30479 -4.75,0.30479 -0.01531,-20.304789 c -0.0145,-19.233068 -0.834869,-25.964744 -2.602777,-21.357649 -0.399124,1.0401 -3.471229,10.702489 -6.8269,21.471975 L 32.453789,109.5 H 28.607504 24.761219 L 21.331646,98 C 13.495423,71.723682 11.874151,66.959745 10.960198,67.524599 10.396061,67.873255 10,76.755745 10,89.059017 V 110 H 5 0 Z m 139.44674,27.760723 c -0.26978,-0.70302 -0.36815,-10.265516 -0.21862,-21.25 L 139.5,67.5 l 4.32759,-0.311289 c 3.66967,-0.263964 4.40954,0.0021 4.86663,1.75 0.57965,2.216553 2.75798,2.756659 3.86884,0.959255 0.3746,-0.606118 2.24048,-1.753586 4.14639,-2.549928 C 160.75466,65.657844 163,66.797415 163,70.540657 163,74.465322 161.90803,76 159.11552,76 c -7.02311,0 -9.10179,5.076941 -9.10994,22.25 L 150,110 h -5.03138 c -3.16185,0 -5.21365,-0.47495 -5.52188,-1.27821 z M 254.07196,108.25 c 0.0396,-0.9625 3.07708,-10.525 6.75,-21.25 L 267.5,67.5 l 6.75,-0.29569 c 3.7125,-0.162629 6.75,-0.06822 6.75,0.209791 0,0.278014 2.92367,9.636075 6.49705,20.79569 3.57338,11.159615 6.49838,20.650169 6.5,21.090109 0.002,0.43995 -2.572,0.66495 -5.71916,0.5 l -5.72212,-0.2999 -1.11813,-4 -1.11813,-4 h -6.30077 c -6.64661,0 -7.04752,0.25629 -8.99459,5.75 -0.88811,2.50583 -1.4208,2.75 -5.9994,2.75 -4.14622,0 -5.01217,-0.30597 -4.95279,-1.75 z m 23.16576,-16.5 C 277.88266,89.965207 275.03878,78 273.96962,78 272.91971,78 270,87.327414 270,90.681501 270,92.650622 270.5113,93 273.39301,93 c 1.86616,0 3.59627,-0.5625 3.84471,-1.25 z"
         style="fill:#231f20;fill-opacity:1" />
    </g>
    <g
       aria-label="damos calor"
       style="font-style:normal;font-variant:normal;font-weight:normal;font-stretch:normal;font-size:28.28216934px;line-height:31.42463303px;font-family:'Noto Color Emoji';-inkscape-font-specification:'Noto Color Emoji';text-align:start;letter-spacing:-0.66999996px;word-spacing:0px;writing-mode:lr-tb;text-anchor:start;fill:#fd6b0d;fill-opacity:0.98431373;stroke:none;stroke-width:1.25698531px;stroke-linecap:butt;stroke-linejoin:miter;stroke-opacity:1"
       id="text4501">
      <path
         d="m 125.12404,127.03438 v -8.36865 h 2.54098 v 21.48782 h -2.54098 v -2.32002 q -0.80096,1.38096 -2.03001,2.05764 -1.21525,0.66286 -2.92765,0.66286 -2.80336,0 -4.571,-2.23716 -1.75382,-2.23717 -1.75382,-5.88292 0,-3.64575 1.75382,-5.88291 1.76764,-2.23716 4.571,-2.23716 1.7124,0 2.92765,0.67667 1.22905,0.66286 2.03001,2.04383 z m -8.65865,5.39957 q 0,2.80336 1.1462,4.40528 1.16001,1.58811 3.17622,1.58811 2.01621,0 3.17622,-1.58811 1.16001,-1.60192 1.16001,-4.40528 0,-2.80336 -1.16001,-4.39147 -1.16001,-1.60192 -3.17622,-1.60192 -2.01621,0 -3.17622,1.60192 -1.1462,1.58811 -1.1462,4.39147 z"
         style="letter-spacing:-0.66999996px;fill:#fd6b0d;fill-opacity:0.98431373;stroke-width:1.25698531px"
         id="path4488"
         inkscape:connector-curvature="0" />
      <path
         d="m 139.25799,132.37871 q -3.07955,0 -4.26718,0.7043 -1.18763,0.70429 -1.18763,2.40288 0,1.35334 0.88382,2.1543 0.89762,0.78715 2.4305,0.78715 2.11287,0 3.38336,-1.49144 1.2843,-1.50525 1.2843,-3.99099 v -0.5662 z m 5.06814,-1.04953 v 8.82437 h -2.54097 v -2.34764 q -0.87001,1.40858 -2.16812,2.08526 -1.2981,0.66286 -3.17622,0.66286 -2.37526,0 -3.78384,-1.32573 -1.39478,-1.33953 -1.39478,-3.5767 0,-2.61002 1.74002,-3.93575 1.75383,-1.32573 5.22005,-1.32573 h 3.56289 v -0.24857 q 0,-1.75383 -1.16001,-2.70669 -1.1462,-0.96668 -3.23146,-0.96668 -1.32573,0 -2.58241,0.31763 -1.25667,0.31762 -2.41669,0.95286 v -2.34764 q 1.39478,-0.53858 2.7067,-0.80096 1.31191,-0.27619 2.55478,-0.27619 3.35575,0 5.01291,1.74001 1.65715,1.74002 1.65715,5.27529 z"
         style="letter-spacing:-0.66999996px;fill:#fd6b0d;fill-opacity:0.98431373;stroke-width:1.25698531px"
         id="path4490"
         inkscape:connector-curvature="0" />
      <path
         d="m 160.94582,127.65581 q 0.95287,-1.71239 2.27859,-2.52716 1.32573,-0.81477 3.12099,-0.81477 2.41668,0 3.7286,1.69858 1.31192,1.68478 1.31192,4.80576 v 9.33533 h -2.55479 v -9.25247 q 0,-2.22335 -0.78715,-3.30051 -0.78715,-1.07715 -2.40288,-1.07715 -1.97478,0 -3.12098,1.31192 -1.1462,1.31192 -1.1462,3.5767 v 8.74151 h -2.55479 v -9.25247 q 0,-2.23716 -0.78715,-3.30051 -0.78715,-1.07715 -2.43049,-1.07715 -1.94717,0 -3.09337,1.32573 -1.1462,1.31192 -1.1462,3.56289 v 8.74151 h -2.55478 v -15.46681 h 2.55478 v 2.40288 q 0.87001,-1.4224 2.08526,-2.09907 1.21525,-0.67667 2.88622,-0.67667 1.68477,0 2.8586,0.8562 1.18763,0.85619 1.75382,2.48573 z"
         style="letter-spacing:-0.66999996px;fill:#fd6b0d;fill-opacity:0.98431373;stroke-width:1.25698531px"
         id="path4492"
         inkscape:connector-curvature="0" />
      <path
         d="m 181.79126,126.46818 q -2.04383,0 -3.23146,1.60192 -1.18763,1.58811 -1.18763,4.36385 0,2.77574 1.17382,4.37766 1.18763,1.58811 3.24527,1.58811 2.03002,0 3.21765,-1.60192 1.18763,-1.60192 1.18763,-4.36385 0,-2.74812 -1.18763,-4.35004 -1.18763,-1.61573 -3.21765,-1.61573 z m 0,-2.1543 q 3.31432,0 5.20624,2.1543 1.89192,2.15431 1.89192,5.96577 0,3.79766 -1.89192,5.96577 -1.89192,2.15431 -5.20624,2.15431 -3.32812,0 -5.22005,-2.15431 -1.87811,-2.16811 -1.87811,-5.96577 0,-3.81146 1.87811,-5.96577 1.89193,-2.1543 5.22005,-2.1543 z"
         style="letter-spacing:-0.66999996px;fill:#fd6b0d;fill-opacity:0.98431373;stroke-width:1.25698531px"
         id="path4494"
         inkscape:connector-curvature="0" />
      <path
         d="m 202.27765,125.14246 v 2.40288 q -1.07715,-0.55239 -2.23716,-0.82858 -1.16001,-0.2762 -2.40288,-0.2762 -1.89192,0 -2.84479,0.58001 -0.93906,0.58 -0.93906,1.74002 0,0.88381 0.67668,1.39477 0.67667,0.49715 2.7205,0.95287 l 0.87001,0.19333 q 2.70669,0.58001 3.83908,1.64335 1.1462,1.04953 1.1462,2.94146 0,2.1543 -1.7124,3.41098 -1.69858,1.25668 -4.68147,1.25668 -1.24287,0 -2.59621,-0.24857 -1.33954,-0.23477 -2.83098,-0.71811 v -2.62383 q 1.40858,0.73191 2.77574,1.10477 1.36715,0.35905 2.70669,0.35905 1.79526,0 2.76193,-0.60762 0.96668,-0.62144 0.96668,-1.74002 0,-1.03572 -0.7043,-1.58811 -0.69048,-0.55238 -3.05193,-1.06334 l -0.88382,-0.20715 q -2.36145,-0.49714 -3.41098,-1.51906 -1.04953,-1.03572 -1.04953,-2.83098 0,-2.18192 1.54668,-3.36955 1.54668,-1.18763 4.39147,-1.18763 1.40858,0 2.65145,0.20714 1.24287,0.20715 2.2924,0.62144 z"
         style="letter-spacing:-0.66999996px;fill:#fd6b0d;fill-opacity:0.98431373;stroke-width:1.25698531px"
         id="path4496"
         inkscape:connector-curvature="0" />
      <path
         d="m 225.96075,125.28055 v 2.37526 q -1.07716,-0.59381 -2.16812,-0.88381 -1.07715,-0.30382 -2.18193,-0.30382 -2.47192,0 -3.83908,1.5743 -1.36715,1.56049 -1.36715,4.39147 0,2.83098 1.36715,4.40528 1.36716,1.56049 3.83908,1.56049 1.10478,0 2.18193,-0.29 1.09096,-0.30381 2.16812,-0.89763 v 2.34764 q -1.06335,0.49715 -2.20955,0.74573 -1.13239,0.24857 -2.41669,0.24857 -3.49384,0 -5.55148,-2.19574 -2.05764,-2.19573 -2.05764,-5.92434 0,-3.78384 2.07145,-5.95196 2.08526,-2.16811 5.70339,-2.16811 1.17382,0 2.2924,0.24857 1.11858,0.23477 2.16812,0.7181 z"
         style="letter-spacing:-0.66999996px;fill:#fd6b0d;fill-opacity:0.98431373;stroke-width:1.25698531px"
         id="path4498"
         inkscape:connector-curvature="0" />
      <path
         d="m 236.76657,132.37871 q -3.07956,0 -4.26719,0.7043 -1.18763,0.70429 -1.18763,2.40288 0,1.35334 0.88382,2.1543 0.89763,0.78715 2.4305,0.78715 2.11288,0 3.38336,-1.49144 1.2843,-1.50525 1.2843,-3.99099 v -0.5662 z m 5.06814,-1.04953 v 8.82437 h -2.54098 v -2.34764 q -0.87001,1.40858 -2.16811,2.08526 -1.29811,0.66286 -3.17622,0.66286 -2.37526,0 -3.78385,-1.32573 -1.39477,-1.33953 -1.39477,-3.5767 0,-2.61002 1.74001,-3.93575 1.75383,-1.32573 5.22005,-1.32573 h 3.56289 v -0.24857 q 0,-1.75383 -1.16001,-2.70669 -1.1462,-0.96668 -3.23146,-0.96668 -1.32572,0 -2.5824,0.31763 -1.25668,0.31762 -2.41669,0.95286 v -2.34764 q 1.39477,-0.53858 2.70669,-0.80096 1.31192,-0.27619 2.55479,-0.27619 3.35574,0 5.0129,1.74001 1.65716,1.74002 1.65716,5.27529 z"
         style="letter-spacing:-0.66999996px;fill:#fd6b0d;fill-opacity:0.98431373;stroke-width:1.25698531px"
         id="path4500"
         inkscape:connector-curvature="0" />
      <path
         d="m 246.41238,118.66573 h 2.54098 v 21.48782 h -2.54098 z"
         style="letter-spacing:-0.66999996px;fill:#fd6b0d;fill-opacity:0.98431373;stroke-width:1.25698531px"
         id="path4502"
         inkscape:connector-curvature="0" />
      <path
         d="m 259.57964,126.46818 q -2.04383,0 -3.23146,1.60192 -1.18763,1.58811 -1.18763,4.36385 0,2.77574 1.17382,4.37766 1.18763,1.58811 3.24527,1.58811 2.03002,0 3.21765,-1.60192 1.18763,-1.60192 1.18763,-4.36385 0,-2.74812 -1.18763,-4.35004 -1.18763,-1.61573 -3.21765,-1.61573 z m 0,-2.1543 q 3.31432,0 5.20624,2.1543 1.89192,2.15431 1.89192,5.96577 0,3.79766 -1.89192,5.96577 -1.89192,2.15431 -5.20624,2.15431 -3.32812,0 -5.22005,-2.15431 -1.87811,-2.16811 -1.87811,-5.96577 0,-3.81146 1.87811,-5.96577 1.89193,-2.1543 5.22005,-2.1543 z"
         style="letter-spacing:-0.66999996px;fill:#fd6b0d;fill-opacity:0.98431373;stroke-width:1.25698531px"
         id="path4504"
         inkscape:connector-curvature="0" />
      <path
         d="m 279.16841,127.062 q -0.4281,-0.24858 -0.93906,-0.35905 -0.49715,-0.12429 -1.10477,-0.12429 -2.15431,0 -3.31432,1.40858 -1.1462,1.39478 -1.1462,4.01861 v 8.1477 h -2.55478 v -15.46681 h 2.55478 v 2.40288 q 0.80096,-1.40859 2.08526,-2.08526 1.2843,-0.69048 3.12098,-0.69048 0.26238,0 0.58001,0.0414 0.31762,0.0276 0.70429,0.0967 z"
         style="letter-spacing:-0.66999996px;fill:#fd6b0d;fill-opacity:0.98431373;stroke-width:1.25698531px"
         id="path4506"
         inkscape:connector-curvature="0" />
    </g>
  </g>
</svg>
