<?xml version="1.0" encoding="UTF-8" standalone="no"?>
<!-- Created with Inkscape (http://www.inkscape.org/) -->

<svg
   xmlns:dc="http://purl.org/dc/elements/1.1/"
   xmlns:cc="http://creativecommons.org/ns#"
   xmlns:rdf="http://www.w3.org/1999/02/22-rdf-syntax-ns#"
   xmlns:svg="http://www.w3.org/2000/svg"
   xmlns="http://www.w3.org/2000/svg"
   xmlns:sodipodi="http://sodipodi.sourceforge.net/DTD/sodipodi-0.dtd"
   xmlns:inkscape="http://www.inkscape.org/namespaces/inkscape"
   version="1.1"
   id="svg2"
   width="59.599174"
   height="62.514435"
   viewBox="0 0 59.599176 62.514436"
   sodipodi:docname="norgas.svg"
   inkscape:version="0.92.1 r">
  <metadata
     id="metadata8">
    <rdf:RDF>
      <cc:Work
         rdf:about="">
        <dc:format>image/svg+xml</dc:format>
        <dc:type
           rdf:resource="http://purl.org/dc/dcmitype/StillImage" />
        <dc:title></dc:title>
      </cc:Work>
    </rdf:RDF>
  </metadata>
  <defs
     id="defs6" />
  <sodipodi:namedview
     pagecolor="#ffffff"
     bordercolor="#666666"
     borderopacity="1"
     objecttolerance="10"
     gridtolerance="10"
     guidetolerance="10"
     inkscape:pageopacity="0"
     inkscape:pageshadow="2"
     inkscape:window-width="1364"
     inkscape:window-height="734"
     id="namedview4"
     showgrid="false"
     fit-margin-top="0"
     fit-margin-left="0"
     fit-margin-right="0"
     fit-margin-bottom="0"
     inkscape:zoom="1.1304129"
     inkscape:cx="-118.88418"
     inkscape:cy="78.662277"
     inkscape:window-x="0"
     inkscape:window-y="33"
     inkscape:window-maximized="0"
     inkscape:current-layer="svg2" />
  <g
     id="g4487"
     transform="matrix(0.05328354,0,0,0.05328354,-0.24021399,-0.25419394)">
    <path
       style="fill:#039fe2"
       d="M 762,1172.1765 C 674.22703,1118.6929 609.105,1033.2519 572.46205,923.5 c -13.68833,-40.99887 -21.66114,-77.84623 -26.61401,-123 -3.17677,-28.96166 -3.18511,-81.69522 -0.0172,-108.5 3.69844,-31.29341 8.17844,-54.7643 15.21667,-79.72057 6.25762,-22.18838 18.74703,-55.39569 19.72787,-52.45317 0.20466,0.61398 -1.43024,8.89175 -3.63312,18.39504 -11.02389,47.55748 -16.23571,86.81981 -13.3241,100.3747 3.1319,14.58039 10.29702,24.85779 20.99165,30.10969 5.28123,2.5935 6.55252,2.79263 17.69015,2.77098 11.33081,-0.022 12.43017,-0.20763 19.71388,-3.32828 4.24264,-1.81772 11.35894,-5.74473 15.814,-8.72667 C 642.48295,696.43977 646.3242,694 646.564,694 c 0.95586,0 0.29847,5.17162 -2.47872,19.5 -4.34924,22.43901 -7.45664,30.39323 -13.74816,35.19207 -3.15348,2.40531 -4.78543,2.85813 -11.38144,3.15801 -7.37213,0.33517 -7.84348,0.22198 -11.06628,-2.6576 -3.21452,-2.87217 -3.38274,-3.37226 -3.73367,-11.10008 L 603.78823,730 H 576.36936 548.9505 l -1.05923,2.75 c -0.62554,1.62405 -0.89325,7.66325 -0.65385,14.75 0.31594,9.3523 0.89793,13.25802 2.63773,17.70163 4.50246,11.49969 14.93526,19.62638 30.8109,24.00033 6.77566,1.86678 10.40505,2.1506 27.31395,2.13596 17.9231,-0.0155 20.30798,-0.23233 29.49149,-2.68106 29.54442,-7.87785 47.26477,-23.68407 56.95848,-50.80588 3.98846,-11.15924 7.92235,-28.57281 14.08566,-62.35098 2.50889,-13.75 7.04499,-38.5 10.08022,-55 3.03524,-16.5 6.58703,-35.85 7.89288,-43 1.30585,-7.15 4.67224,-25.49544 7.48088,-40.76765 2.80863,-15.27221 4.8334,-28.20971 4.49948,-28.75 -0.72897,-1.1795 -48.38286,-1.33676 -50.22658,-0.16575 -0.68061,0.43228 -2.03687,5.03789 -3.01389,10.23468 -0.99,5.26584 -2.2734,9.44872 -2.89907,9.44872 -0.61746,0 -3.26157,-2.84538 -5.8758,-6.32308 C 667.5835,509.35028 656.71319,503.21645 643,502.28855 c -12.03374,-0.81425 -22.75141,2.64382 -33.82651,10.91418 -2.92958,2.18767 -5.58529,3.7188 -5.90159,3.40251 -2.20569,-2.2057 32.2995,-46.42992 78.19488,-100.21994 67.71935,-79.36801 97.77423,-117.81016 127.98469,-163.70078 57.8507,-87.877 83.49817,-162.981063 79.45402,-232.667024 -0.46227,-7.965377 -0.51761,-14.8030317 -0.12299,-15.1947879 0.72896,-0.7236572 15.95317,6.1957539 31.00642,14.0924339 19.86375,10.420178 46.0885,29.554615 66.77047,48.717924 25.01571,23.178828 51.55031,57.858134 71.05631,92.866934 62.3772,111.95258 82.0605,268.4204 50.7596,403.5 -7.8045,33.68046 -19.7389,68.01517 -32.0855,92.30878 -4.9641,9.76761 -6.1481,9.786 -4.3516,0.0676 1.5267,-8.25878 1.3073,-21.00751 -0.4805,-27.91623 -4.1535,-16.05037 -16.4149,-27.42526 -46.9566,-43.5616 -18.3585,-9.69953 -26.01561,-18.54138 -23.9113,-27.61103 1.2869,-5.5462 5.3943,-11.1938 10.1868,-14.0064 3.8824,-2.27853 5.9115,-2.77288 11.3965,-2.77657 11.6573,-0.008 15.409,5.18496 14.5377,20.12197 l -0.4741,8.12646 23.9724,0.73285 c 13.8618,0.42377 24.3495,0.35561 24.8667,-0.1616 1.5,-1.49996 2.9249,-11.14363 2.9123,-19.71067 -0.036,-24.70378 -13.2148,-40.52916 -38.4881,-46.21776 -11.6586,-2.62417 -32.0954,-2.40835 -43.877,0.46335 -23.95415,5.83869 -42.13848,20.02414 -52.09754,40.6409 -5.78807,11.98216 -7.84467,20.62491 -7.85257,33 -0.0171,26.82849 11.03747,40.41528 50.82711,62.46967 18.7007,10.36532 23.6727,15.9659 22.0156,24.799 -2.1708,11.5711 -11.2201,19.45761 -22.51752,19.62411 C 988.801,684.49885 984.2356,681.90551 981.25,676.01523 979.39678,672.35902 979,669.9383 979,662.28811 V 653 H 953.97525 928.9505 l -1.09504,2.75 c -1.73258,4.35105 -2.31387,26.1459 -0.86343,32.37333 1.94237,8.33949 7.6352,18.35618 13.35537,23.4991 10.04306,9.02958 21.95973,13.20517 40.1526,14.06942 21.2059,1.00739 40.1986,-3.15479 56.8498,-12.45841 0.4673,-0.26114 0.3878,0.38828 -0.1767,1.44316 -1.4175,2.64849 -13.6942,14.22125 -32.6731,30.79961 -47.09195,41.13544 -74.06544,67.14847 -95.42151,92.02379 -73.48459,85.59404 -116.30415,189.6386 -133.04098,323.2678 -1.12063,8.9473 -2.03751,16.4848 -2.03751,16.75 0,1.4046 -3.44733,-0.1298 -12,-5.3413 z m 43.10889,-451.20479 c 8.35523,-2.80371 17.9347,-7.89372 25.3775,-13.48423 3.29252,-2.4731 6.44252,-4.34442 7,-4.15847 0.57098,0.19044 1.01361,3.79506 1.01361,8.25453 V 719.5 l 29.03874,0.26477 29.03873,0.26477 0.0373,-14.76477 c 0.0389,-15.39262 0.58412,-19.48608 7.89395,-59.26477 16.61045,-90.3909 17.02004,-93.05384 16.19718,-105.30417 -1.63248,-24.30364 -21.86344,-37.741 -59.27942,-39.37325 -42.58853,-1.85791 -71.39049,11.2403 -87.24762,39.67742 -3.4952,6.26806 -8.87075,21.7838 -9.35436,27 l -0.3245,3.5 28.17455,0.26545 28.17455,0.26544 1.66731,-5.73535 c 3.56598,-12.26652 8.65118,-18.41627 17.30974,-20.93338 7.58091,-2.20383 13.58303,-1.15298 17.86357,3.12756 3.03502,3.03502 3.31028,3.82573 3.31028,9.50915 0,7.84266 -1.86402,11.79445 -8.28745,17.56967 -6.2839,5.64976 -16.16375,10.42689 -39.21255,18.96014 -20.87528,7.72855 -30.95739,12.7145 -41.46675,20.50671 -10.3355,7.66332 -17.12913,15.62099 -22.51647,26.37454 -10.0072,19.97515 -12.21477,44.46429 -5.43418,60.28277 4.09784,9.55987 13.25572,17.92936 22.40202,20.47347 10.74793,2.98961 27.71953,2.46476 38.62427,-1.19446 z m 2.91104,-42.66036 C 806.1059,677.31511 803.47539,674.925 802.17437,673 c -2.10189,-3.10997 -2.31797,-4.35643 -1.93905,-11.18533 1.01856,-18.35631 14.37018,-32.24971 39.20259,-40.79331 7.49829,-2.57979 9.56209,-2.58581 9.56209,-0.0279 0,4.36978 -5.22041,28.96487 -7.6806,36.18584 -4.77132,14.00445 -12.76408,21.34966 -24.41668,22.43854 -4.02426,0.37604 -6.29063,0.0427 -8.88279,-1.30649 z M 291,724.47833 c -27.71949,-4.33061 -46.01077,-19.45088 -51.45084,-42.53122 -4.04177,-17.14783 0.41366,-54.43322 11.93645,-99.89032 12.13422,-47.86921 28.96914,-70.11413 59.17244,-78.18782 9.7956,-2.61848 38.31652,-3.75624 48.97479,-1.95371 27.90294,4.71896 45.49507,19.4993 50.98353,42.83472 4.27681,18.18381 -1.35721,60.75514 -14.25996,107.75002 -6.63797,24.17709 -12.01009,36.2473 -21.36347,48 -5.69821,7.15991 -10.57257,11.2112 -19.13189,15.90134 -15.08759,8.26736 -42.10641,11.63195 -64.86105,8.07699 z m 32.23547,-45.09439 c 7.3628,-4.71689 11.19136,-16.2977 21.11974,-63.88394 10.67749,-51.1767 11.40145,-58.30356 6.69598,-65.91718 -2.12879,-3.44444 -8.01776,-6.58801 -12.32143,-6.57724 -4.08058,0.0102 -9.63118,2.04059 -12.74787,4.66311 -6.53211,5.49641 -9.49658,14.67158 -19.45501,60.21406 -9.76819,44.67246 -11.4596,58.55583 -8.11041,66.57159 3.39335,8.12143 15.94519,10.6145 24.819,4.9296 z M 4.5204537,719.03309 C 4.1917846,718.5013 10.5271,686.8888 18.598933,648.78309 26.670766,610.67739 40.096648,547.325 48.434226,508 l 15.159233,-71.5 33.389558,-0.26371 c 18.364253,-0.14504 33.785203,0.13193 34.268763,0.61549 1.53173,1.53173 13.6326,95.73434 16.71829,130.14822 2.55226,28.46467 3.05764,32.38231 4.04339,31.34333 0.44006,-0.46383 1.99276,-9.84333 3.45044,-20.84333 5.57163,-42.0449 7.72644,-54.64449 16.5129,-96.55421 4.97985,-23.75287 9.29883,-43.58275 9.59775,-44.06641 C 181.87347,436.39572 196.04148,436 213.05902,436 H 244 v 2.33981 c 0,1.2869 -4.46078,23.2244 -9.91285,48.75 -5.45206,25.52561 -16.7167,78.36019 -25.03253,117.41019 -8.31584,39.05 -17.24255,80.9 -19.83716,93 l -4.71746,22 -33.11651,0.26331 c -25.73483,0.20463 -33.34212,-0.0183 -34.12871,-1 C 115.52048,716.59877 100.48387,590.2227 98.483626,561 c -1.256369,-18.35497 -2.644065,-17.56677 -4.841637,2.75 -4.551488,42.07897 -7.079097,58.05976 -16.664431,105.36074 -5.461743,26.95221 -10.192602,49.42819 -10.513018,49.94663 -0.791621,1.28088 -61.1520808,1.25722 -61.9440863,-0.0243 z m 415.0850563,0.13763 c -0.29208,-0.47259 1.28403,-9.36684 3.50247,-19.76499 2.21844,-10.39815 12.30875,-57.79309 22.42292,-105.32208 10.92471,-51.33794 18.91298,-86.74854 19.67925,-87.23469 0.70942,-0.45008 12.21647,-0.82523 25.57123,-0.83365 21.66118,-0.0137 24.34979,0.16293 24.91522,1.63644 0.34861,0.90846 -0.60385,7.69512 -2.11658,15.08146 -1.51273,7.38635 -2.53384,13.6463 -2.26913,13.91101 0.2647,0.26471 2.93393,-3.28142 5.93162,-7.88027 9.20588,-14.12307 18.37854,-21.92818 30.45069,-25.91081 6.53883,-2.15717 19.77761,-3.51841 20.64045,-2.12229 0.65991,1.06775 -11.81471,61.81472 -13.19791,64.26915 -0.63539,1.12749 -3.55108,1.64561 -11.74053,2.08634 -18.94714,1.01968 -26.6323,5.29063 -32.82369,18.24144 -4.99212,10.44225 -7.408,19.81171 -18.99605,73.67222 -5.7391,26.675 -11.03909,51.2 -11.77774,54.5 l -1.343,6 -29.15908,0.265 c -16.03749,0.14574 -29.39806,-0.12168 -29.69014,-0.59428 z m 207.91853,-56.55577 c -4.10502,-4.10502 -4.93955,-9.51154 -3.64509,-23.61495 1.11112,-12.10588 6.56312,-45.21697 9.79715,-59.5 4.11901,-18.19151 11.75963,-27.48326 22.60908,-27.49488 11.93613,-0.0128 14.81457,8.32929 11.21242,32.49488 -4.59266,30.81054 -10.56107,57.5903 -14.99236,67.26952 C 648.02426,661.55727 643.47028,665 635.00421,665 c -4.03598,0 -5.59091,-0.49579 -7.48017,-2.38505 z"
       id="path4491"
       inkscape:connector-curvature="0" />
    <path
       style="fill:#024f99"
       d="M 296,724.39263 C 278.33037,722.20877 262.59968,715.46195 253.92431,706.34656 242.82584,694.68517 239,683.80272 239,663.89489 c 0,-30.04452 14.62969,-96.22863 26.52093,-119.97956 10.81479,-21.60091 24.63054,-33.55434 45.13712,-39.05279 12.02984,-3.22557 40.32967,-3.7774 53.55566,-1.0443 24.13176,4.98673 39.76693,18.76268 45.20111,39.8261 4.29761,16.65801 0.81394,48.50226 -10.37693,94.85566 -9.23803,38.26461 -16.65681,54.43944 -31.20332,68.03122 -13.06571,12.20817 -28.25407,17.31333 -53.33457,17.92698 -8.25,0.20185 -16.575,0.17234 -18.5,-0.0656 z m 25.28212,-42.76375 c 9.81547,-4.18232 13.18004,-13.90821 25.81701,-74.62888 5.76112,-27.68216 7.20185,-36.37738 7.29045,-44 0.0969,-8.34095 -0.17587,-9.96048 -2.23612,-13.27424 -5.48732,-8.82595 -18.22881,-9.98129 -26.83945,-2.43368 -4.54606,3.98482 -8.45385,12.43868 -11.70461,25.32092 -3.29861,13.07192 -13.07596,58.09777 -15.6048,71.86197 -2.19447,11.94425 -2.60742,24.80382 -0.93799,29.20993 1.2853,3.39227 4.69626,7.22892 7.43339,8.36107 3.20487,1.32563 13.2798,1.07523 16.78212,-0.41709 z M 5,718.39437 C 5,717.68524 11.494716,686.67734 23.514522,630 c 4.723954,-22.275 11.270367,-53.25663 14.547584,-68.84806 3.277217,-15.59143 6.621007,-31.34143 7.430645,-35 0.809638,-3.65857 5.313912,-24.82186 10.009498,-47.02953 4.695586,-22.20768 8.780059,-40.77018 9.076607,-41.25 C 64.875404,437.39258 79.921085,437 98.013704,437 h 32.895666 l 0.52884,3.25 c 1.06219,6.5277 7.91306,58.46926 11.50792,87.25 1.09916,8.8 3.18342,29.05 4.6317,45 1.44827,15.95 3.01901,29.41078 3.49054,29.91284 1.18057,1.25703 2.5194,-2.68319 3.36825,-9.91284 4.39691,-37.44864 10.25695,-72.87953 18.49991,-111.85386 C 177.92144,457.07652 182,437.61402 182,437.39614 182,437.17826 195.725,437 212.5,437 c 29.82366,0 30.5,0.0443 30.5,1.9981 0,1.88708 -2.5792,14.17349 -25.50601,121.5019 -5.16945,24.2 -13.03503,61.1 -17.47907,82 -14.1949,66.75757 -16.002,74.88708 -16.83076,75.71584 -0.4468,0.4468 -15.40851,0.69351 -33.24826,0.54826 L 117.5,718.5 l -1.20937,-9 C 110.11259,663.52375 100.67775,580.56378 99.402066,561 99.0255,555.225 98.312492,549.40956 97.817604,548.07681 95.748901,542.5057 94.29167,548.4231 91.556836,573.5 c -1.499546,13.75 -3.573312,30.85 -4.608369,38 -1.497607,10.34522 -14.399054,76.36348 -19.98194,102.25 L 65.834272,719 H 35.417136 C 18.687711,719 5,718.72747 5,718.39437 Z m 415.63266,-0.17972 c -0.26696,-0.43195 0.82241,-6.84445 2.42081,-14.25 4.64666,-21.52842 32.50031,-152.49235 38.16887,-179.46465 1.73384,-8.25 3.57321,-15.5625 4.08749,-16.25 0.70335,-0.94024 6.97593,-1.25 25.31261,-1.25 H 515 v 2.46505 c 0,1.35578 -1.36042,8.84536 -3.02315,16.64352 -1.66273,7.79816 -2.749,14.45138 -2.41392,14.78495 0.79911,0.79551 3.13378,-2.33964 7.43707,-9.987 4.98645,-8.8614 15.61287,-19.88853 22.91781,-23.78203 8.3768,-4.46479 25.87727,-7.8944 27.42472,-5.37449 0.38056,0.6197 -2.42248,14.48482 -12.18043,60.25 l -0.74626,3.5 -11.45792,0.64775 c -24.52598,1.38652 -32.0514,8.63286 -40.34853,38.85225 -1.33013,4.84453 -11.89547,53.17283 -20.76549,94.98622 -1.69016,7.96741 -3.46033,15.50491 -3.93371,16.75 L 477.0495,719 h -27.96573 c -15.38116,0 -28.18416,-0.35341 -28.45111,-0.78535 z"
       id="path4489"
       inkscape:connector-curvature="0" />
  </g>
</svg>
