<?xml version="1.0" encoding="UTF-8" standalone="no"?>
<!-- Created with Inkscape (http://www.inkscape.org/) -->

<svg
   xmlns:dc="http://purl.org/dc/elements/1.1/"
   xmlns:cc="http://creativecommons.org/ns#"
   xmlns:rdf="http://www.w3.org/1999/02/22-rdf-syntax-ns#"
   xmlns:svg="http://www.w3.org/2000/svg"
   xmlns="http://www.w3.org/2000/svg"
   xmlns:sodipodi="http://sodipodi.sourceforge.net/DTD/sodipodi-0.dtd"
   xmlns:inkscape="http://www.inkscape.org/namespaces/inkscape"
   version="1.1"
   id="svg2"
   width="200"
   height="50"
   viewBox="0 0 200 50"
   sodipodi:docname="terpel.svg"
   inkscape:version="0.92.1 r">
  <metadata
     id="metadata8">
    <rdf:RDF>
      <cc:Work
         rdf:about="">
        <dc:format>image/svg+xml</dc:format>
        <dc:type
           rdf:resource="http://purl.org/dc/dcmitype/StillImage" />
        <dc:title></dc:title>
      </cc:Work>
    </rdf:RDF>
  </metadata>
  <defs
     id="defs6" />
  <sodipodi:namedview
     pagecolor="#ffffff"
     bordercolor="#666666"
     borderopacity="1"
     objecttolerance="10"
     gridtolerance="10"
     guidetolerance="10"
     inkscape:pageopacity="0"
     inkscape:pageshadow="2"
     inkscape:window-width="1364"
     inkscape:window-height="734"
     id="namedview4"
     showgrid="false"
     fit-margin-top="0"
     fit-margin-left="0"
     fit-margin-right="0"
     fit-margin-bottom="0"
     inkscape:zoom="1.668772"
     inkscape:cx="42.842256"
     inkscape:cy="58.783964"
     inkscape:window-x="0"
     inkscape:window-y="33"
     inkscape:window-maximized="0"
     inkscape:current-layer="svg2" />
  <g
     id="g4487"
     transform="matrix(0.05865156,0,0,0.05865156,80.903808,1.8802688)">
    <path
       style="fill:#fcdb0f;stroke-width:1.33333337"
       d="m 329.33333,709.49659 c 0,-70.78287 0.36316,-90.80204 1.66667,-91.87396 5.45941,-4.4895 35.89241,-9.79016 56.33333,-9.81187 30.39382,-0.0323 47.29131,9.21329 57.46911,31.44453 7.24929,15.83452 9.11568,46.88268 3.96165,65.90343 -8.13548,30.02363 -29.02836,44.48125 -61.09742,42.27871 l -13,-0.89286 v 24.61867 c 0,13.54027 -0.36419,25.56773 -0.80932,26.72771 C 373.16489,799.69544 369.89173,800 351.19068,800 h -21.85735 z m 65.35414,2.67942 c 16.94417,-9.08377 17.01132,-59.05169 0.0924,-68.7383 -4.48888,-2.57002 -15.50075,-3.4643 -18.65483,-1.51498 -0.99504,0.61495 -1.45837,11.90404 -1.45837,35.53226 v 34.63094 l 3,1.20586 c 4.95998,1.99366 12.09289,1.52608 17.0208,-1.11578 z M 28.666667,746.12569 C 15.591604,742.89447 7.1908167,736.11407 3.080742,725.47492 0.91974436,719.88107 0.67210613,712.28484 0.30402493,640.30007 L -0.10009744,561.2668 21.616617,561.6334 43.333333,562 l 0.746763,23.33333 c 0.410719,12.83334 0.860719,23.48334 1,23.66667 0.13928,0.18333 8.653237,0.33333 18.919904,0.33333 21.089013,0 21.17984,0.0573 14.49848,9.14251 -2.292503,3.11732 -5.845967,9.98553 -7.896588,15.26268 l -3.728403,9.59481 -9.710501,0.39727 c -5.340776,0.21851 -10.487311,1.04197 -11.436745,1.82993 -1.310007,1.08722 -1.719182,7.90359 -1.69696,28.26939 0.02551,23.37876 0.352261,27.54803 2.535853,32.35684 2.681729,5.90583 8.330076,8.93036 15.761497,8.43981 6.240096,-0.4119 6.751086,-0.10773 8.4454,5.02603 0.905027,2.74225 3.395014,7.82924 5.533303,11.3044 2.138289,3.47516 3.503633,6.94007 3.0341,7.69979 -1.582809,2.56104 -10.703989,6.42393 -18.626615,7.8885 -10.062094,1.86008 -23.535338,1.68367 -32.046154,-0.4196 z m 109.128923,0.5052 c -30.30985,-5.46337 -46.235583,-24.21577 -48.069566,-56.60145 -1.470199,-25.96177 4.726088,-45.43173 19.413546,-61.00121 13.58274,-14.39842 26.29306,-19.65116 47.61843,-19.67907 20.9686,-0.0275 33.64932,6.08633 41.04084,19.78711 5.36393,9.94246 6.31429,24.4422 2.29759,35.05422 -5.28836,13.97171 -20.72123,24.77324 -42.35964,29.64771 -5.2781,1.18899 -11.61342,2.1618 -14.0785,2.1618 -2.46506,0 -5.5732,0.79795 -6.90696,1.77321 -2.32901,1.70302 -2.33166,1.96992 -0.0672,6.74194 1.29679,2.73278 4.4786,6.58484 7.07068,8.56012 4.31679,3.28957 5.72972,3.5914 16.81236,3.5914 10.90932,0 13.00862,-0.43052 21.34186,-4.3767 7.43416,-3.52042 9.54762,-4.04214 10.80273,-2.66666 2.00457,2.19681 9.97151,22.3599 9.96208,25.2125 -0.0247,7.4415 -44.33705,15.49764 -64.87825,11.79508 z M 146.50892,667 c 14.61628,-4.60253 21.25467,-15.18908 14.72764,-23.48685 -8.37539,-10.64758 -27.90323,4.12657 -27.90323,21.11069 0,5.62911 1.8091,5.95537 13.17559,2.37616 z m 370.75855,79.67679 C 483.41608,741.27495 466.23241,717.10528 468.44104,678 c 2.09896,-37.16377 24.62241,-64.29657 56.9152,-68.56271 33.87339,-4.47493 56.00311,11.45238 55.96407,40.27874 -0.03,22.1887 -13.78156,36.06326 -43.20026,43.58678 C 532.31941,694.78627 525.38409,696 522.70823,696 c -2.67587,0 -5.97406,0.8108 -7.3293,1.80179 -2.37466,1.73638 -2.34749,2.01314 0.74894,7.62636 1.91682,3.47481 5.36309,7.07594 8.54258,8.92642 4.68996,2.72959 6.68963,3.04258 16.66288,2.60807 9.58824,-0.41773 12.64376,-1.16249 19.84379,-4.8368 7.06427,-3.60503 8.80447,-4.04137 10.24073,-2.56777 2.27898,2.3382 9.91548,21.75498 9.91548,25.21134 0,7.58714 -42.10196,15.41226 -64.06586,11.90738 z m 8.15012,-79.62266 c 9.52797,-3.0772 17.24908,-10.43094 17.24908,-16.42841 0,-8.92925 -8.50858,-13.18917 -17.28182,-8.65236 C 518.23081,645.67285 512,656.31268 512,664.82949 c 0,3.85739 0.45647,4.50384 3.18023,4.50384 1.74912,0 6.35593,-1.02564 10.23736,-2.2792 z m 105.91574,80.11232 c -1.46666,-0.3862 -4.97105,-1.29441 -7.78752,-2.01825 -6.95812,-1.78825 -16.18306,-10.58479 -19.14237,-18.2534 C 602.18445,721.14465 602,714.57809 602,641.33333 V 562 h 21.33333 21.33334 l 0.66666,72.4496 0.66667,72.44961 3.89643,3.35074 c 4.00736,3.44613 4.38964,3.47008 17.4369,1.09185 3.89571,-0.71011 4.14775,-0.42219 9.66667,11.04252 3.11667,6.47441 5.66667,12.41755 5.66667,13.20699 0,2.14756 -4.98515,4.97996 -14.66667,8.3331 -8.52899,2.95399 -30.4124,4.8889 -36.66667,3.24204 z m -404.36689,-4.73334 c -2.40232,-2.40232 -2.35581,-127.60175 0.0487,-130.89 1.45937,-1.99582 3.79522,-2.24988 17.66666,-1.92151 l 15.9849,0.3784 0.42244,5.33333 c 0.62028,7.83122 2.09808,8.37796 8.06768,2.98479 7.83306,-7.07671 10.58778,-8.16176 20.84321,-8.20991 9.94544,-0.0467 19.47483,3.5294 21.16889,7.94404 1.44424,3.76366 0.9429,32.38795 -0.5838,33.3315 -0.77818,0.48094 -4.52818,-0.4673 -8.33333,-2.1072 -8.37485,-3.60935 -19.31676,-3.96603 -24.16735,-0.7878 -7.67717,5.03028 -8.0255,7.13374 -8.75108,52.84458 l -0.66666,42 -20.03356,0.36644 c -14.45322,0.26438 -20.48846,-0.0884 -21.66667,-1.26666 z M 318.98417,502.50316 C 257.38291,497.43467 196.19668,466.53633 154.07444,419.22567 119.83476,380.76849 98.337341,332.9488 91.940144,281.01169 89.834521,263.91672 90.957711,223.40261 94.001244,206.66667 110.14273,117.90698 172.3876,44.740912 257.94601,13.956907 293.90741,1.0179618 338.9904,-3.3991588 378.71801,2.1239623 471.83152,15.069041 550.43639,80.732933 580.47695,170.66667 c 8.49852,25.4424 11.48062,42.54789 12.44969,71.41214 1.20741,35.96319 -3.65833,69.72746 -13.56012,94.09587 -1.85159,4.55679 -3.36652,8.98483 -3.36652,9.84007 0,2.68148 -12.70761,27.68081 -20.03756,39.41937 -9.99781,16.011 -19.52789,27.98632 -34.19225,42.96536 -42.9318,43.85309 -98.12676,69.56933 -159.33959,74.23893 -19.71505,1.50395 -23.67372,1.49163 -43.44643,-0.13525 z m 32.34916,-146.42967 c 21.59292,-4.59101 39.2304,-14.63708 55.18402,-31.43209 20.62532,-21.71311 30.61305,-48.68259 29.0726,-78.50361 -0.91084,-17.63262 -3.2832,-27.14804 -10.33946,-41.47112 -6.83944,-13.88299 -14.48433,-23.9071 -25.95877,-34.0376 -11.26207,-9.943 -22.60833,-16.4587 -37.74793,-21.6771 -9.29995,-3.20556 -14.31654,-4.04773 -27.46119,-4.61016 -18.11844,-0.77524 -30.68184,1.18422 -45.81593,7.14572 -13.5465,5.33612 -16.27263,8.62174 -25.9814,31.31351 -19.87239,46.44664 -18.72734,97.65401 3.21684,143.85835 3.65512,7.69598 7.87878,15.30529 9.38592,16.90957 3.38629,3.60455 20.17022,10.44765 31.77864,12.95672 12.58013,2.71909 30.60962,2.53656 44.66666,-0.45219 z"
       id="path4493"
       inkscape:connector-curvature="0"
       sodipodi:nodetypes="scsssscscscscscscccssscccscscscccssccssssssscsssscccssccssssssssccscccsscsscssssccscscccccscssccccscccscscsscsccssssssssssssssssssssssscsss" />
    <path
       style="fill:#f7a50c;stroke-width:1.33333337"
       d="m 329.33333,709.49659 c 0,-70.78287 0.36316,-90.80204 1.66667,-91.87396 5.45941,-4.4895 35.89241,-9.79016 56.33333,-9.81187 30.39382,-0.0323 47.29131,9.21329 57.46911,31.44453 7.24929,15.83452 9.11568,46.88268 3.96165,65.90343 -8.13548,30.02363 -29.02836,44.48125 -61.09742,42.27871 l -13,-0.89286 v 24.61867 c 0,13.54027 -0.36419,25.56773 -0.80932,26.72771 C 373.16489,799.69544 369.89173,800 351.19068,800 h -21.85735 z m 65.35414,2.67942 c 16.94417,-9.08377 17.01132,-59.05169 0.0924,-68.7383 -4.48888,-2.57002 -15.50075,-3.4643 -18.65483,-1.51498 -0.99504,0.61495 -1.45837,11.90404 -1.45837,35.53226 v 34.63094 l 3,1.20586 c 4.95998,1.99366 12.09289,1.52608 17.0208,-1.11578 z M 28.666667,746.12569 C 15.591604,742.89447 7.1908167,736.11407 3.080742,725.47492 0.91974436,719.88107 0.67210613,712.28484 0.30402493,640.30007 L -0.10009744,561.2668 21.616617,561.6334 43.333333,562 l 0.746763,23.33333 c 0.410719,12.83334 0.860719,23.48334 1,23.66667 0.13928,0.18333 8.653237,0.33333 18.919904,0.33333 21.089013,0 21.17984,0.0573 14.49848,9.14251 -2.292503,3.11732 -5.845967,9.98553 -7.896588,15.26268 l -3.728403,9.59481 -9.710501,0.39727 c -5.340776,0.21851 -10.487311,1.04197 -11.436745,1.82993 -1.310007,1.08722 -1.719182,7.90359 -1.69696,28.26939 0.02551,23.37876 0.352261,27.54803 2.535853,32.35684 2.681729,5.90583 8.330076,8.93036 15.761497,8.43981 6.240096,-0.4119 6.751086,-0.10773 8.4454,5.02603 0.905027,2.74225 3.395014,7.82924 5.533303,11.3044 2.138289,3.47516 3.503633,6.94007 3.0341,7.69979 -1.582809,2.56104 -10.703989,6.42393 -18.626615,7.8885 -10.062094,1.86008 -23.535338,1.68367 -32.046154,-0.4196 z m 109.128923,0.5052 c -30.30985,-5.46337 -46.235583,-24.21577 -48.069566,-56.60145 -1.470199,-25.96177 4.726088,-45.43173 19.413546,-61.00121 13.58274,-14.39842 26.29306,-19.65116 47.61843,-19.67907 20.9686,-0.0275 33.64932,6.08633 41.04084,19.78711 5.36393,9.94246 6.31429,24.4422 2.29759,35.05422 -5.28836,13.97171 -20.72123,24.77324 -42.35964,29.64771 -5.2781,1.18899 -11.61342,2.1618 -14.0785,2.1618 -2.46506,0 -5.5732,0.79795 -6.90696,1.77321 -2.32901,1.70302 -2.33166,1.96992 -0.0672,6.74194 1.29679,2.73278 4.4786,6.58484 7.07068,8.56012 4.31679,3.28957 5.72972,3.5914 16.81236,3.5914 10.90932,0 13.00862,-0.43052 21.34186,-4.3767 7.43416,-3.52042 9.54762,-4.04214 10.80273,-2.66666 2.00457,2.19681 9.97151,22.3599 9.96208,25.2125 -0.0247,7.4415 -44.33705,15.49764 -64.87825,11.79508 z M 146.50892,667 c 14.61628,-4.60253 21.25467,-15.18908 14.72764,-23.48685 -8.37539,-10.64758 -27.90323,4.12657 -27.90323,21.11069 0,5.62911 1.8091,5.95537 13.17559,2.37616 z m 370.75855,79.67679 C 483.41608,741.27495 466.23241,717.10528 468.44104,678 c 2.09896,-37.16377 24.62241,-64.29657 56.9152,-68.56271 33.87339,-4.47493 56.00311,11.45238 55.96407,40.27874 -0.03,22.1887 -13.78156,36.06326 -43.20026,43.58678 C 532.31941,694.78627 525.38409,696 522.70823,696 c -2.67587,0 -5.97406,0.8108 -7.3293,1.80179 -2.37466,1.73638 -2.34749,2.01314 0.74894,7.62636 1.91682,3.47481 5.36309,7.07594 8.54258,8.92642 4.68996,2.72959 6.68963,3.04258 16.66288,2.60807 9.58824,-0.41773 12.64376,-1.16249 19.84379,-4.8368 7.06427,-3.60503 8.80447,-4.04137 10.24073,-2.56777 2.27898,2.3382 9.91548,21.75498 9.91548,25.21134 0,7.58714 -42.10196,15.41226 -64.06586,11.90738 z m 8.15012,-79.62266 c 9.52797,-3.0772 17.24908,-10.43094 17.24908,-16.42841 0,-8.92925 -8.50858,-13.18917 -17.28182,-8.65236 C 518.23081,645.67285 512,656.31268 512,664.82949 c 0,3.85739 0.45647,4.50384 3.18023,4.50384 1.74912,0 6.35593,-1.02564 10.23736,-2.2792 z m 105.91574,80.11232 c -1.46666,-0.3862 -4.97105,-1.29441 -7.78752,-2.01825 -6.95812,-1.78825 -16.18306,-10.58479 -19.14237,-18.2534 C 602.18445,721.14465 602,714.57809 602,641.33333 V 562 h 21.33333 21.33334 l 0.66666,72.4496 0.66667,72.44961 3.89643,3.35074 c 4.00736,3.44613 4.38964,3.47008 17.4369,1.09185 3.89571,-0.71011 4.14775,-0.42219 9.66667,11.04252 3.11667,6.47441 5.66667,12.41755 5.66667,13.20699 0,2.14756 -4.98515,4.97996 -14.66667,8.3331 -8.52899,2.95399 -30.4124,4.8889 -36.66667,3.24204 z m -404.36689,-4.73334 c -2.40232,-2.40232 -2.35581,-127.60175 0.0487,-130.89 1.45937,-1.99582 3.79522,-2.24988 17.66666,-1.92151 l 15.9849,0.3784 0.42244,5.33333 c 0.62028,7.83122 2.09808,8.37796 8.06768,2.98479 7.83306,-7.07671 10.58778,-8.16176 20.84321,-8.20991 9.94544,-0.0467 19.47483,3.5294 21.16889,7.94404 1.44424,3.76366 0.9429,32.38795 -0.5838,33.3315 -0.77818,0.48094 -4.52818,-0.4673 -8.33333,-2.1072 -8.37485,-3.60935 -19.31676,-3.96603 -24.16735,-0.7878 -7.67717,5.03028 -8.0255,7.13374 -8.75108,52.84458 l -0.66666,42 -20.03356,0.36644 c -14.45322,0.26438 -20.48846,-0.0884 -21.66667,-1.26666 z M 318.98417,502.50316 C 257.38291,497.43467 196.19668,466.53633 154.07444,419.22567 119.83476,380.76849 98.337341,332.9488 91.940144,281.01169 89.834521,263.91672 90.957711,223.40261 94.001244,206.66667 113.4217,99.876381 199.40269,17.610821 308,1.915272 c 17.32811,-2.50442837 51.93728,-2.40229597 70.71801,0.2086903 62.12202,8.6364947 121.2059,42.4406607 160.17728,91.6435927 15.71787,19.844435 37.09455,57.703925 37.114,65.731325 0.005,2.10895 1.51287,8.26481 3.35055,13.67971 8.58791,25.30494 11.44644,44.89309 11.50255,78.82141 0.0511,30.85945 -4.25078,58.63435 -12.7779,82.50097 -1.14646,3.20887 -2.08449,7.46206 -2.08449,9.45154 0,4.4386 -10.5684,26.31724 -20.03756,41.48161 -9.99781,16.011 -19.52789,27.98632 -34.19225,42.96536 -42.9318,43.85309 -98.12676,69.56933 -159.33959,74.23893 -19.71505,1.50395 -23.67372,1.49163 -43.44643,-0.13525 z m 103.44936,-82.42697 c 30.12323,-9.84382 60.04687,-31.10022 80.81812,-57.40952 C 566.48637,282.5722 551.53125,168.79181 469.66228,107.11478 450.99633,93.052545 419.06509,78.736525 406.24536,78.682492 331.47818,73.550251 282.2761,132.19407 262.28527,182.80104 192.15295,300.63309 337.79761,454.60236 422.43353,420.07619 Z M 362,93.333333 C 362.45323,92.6 361.88867,92 360.74536,92 c -1.14328,0 -2.07869,0.6 -2.07869,1.333333 0,0.733334 0.56458,1.333334 1.25464,1.333334 0.69005,0 1.62546,-0.6 2.07869,-1.333334 z"
       id="path4491"
       inkscape:connector-curvature="0"
       sodipodi:nodetypes="scsssscscscscscscccssscccscscscccssccssssssscsssscccssccssssssssccscccsscsscssssccscscccccscssccccscccscscsscsccsssssssccccssssscsscccsssss" />
    <path
       style="fill:#e22811;stroke-width:1.33333337"
       d="m 330.99075,709.05461 0.34258,-90.94538 7.76568,-2.36411 c 23.37479,-7.116 57.11456,-8.92275 72.95258,-3.90657 24.33524,7.7074 36.64197,27.08164 38.21522,60.16145 1.32696,27.90105 -5.09356,48.45244 -19.15094,61.30009 -10.55894,9.65027 -19.10427,12.56391 -36.4492,12.42778 -7.7,-0.0604 -15.5,-0.32392 -17.33334,-0.58554 L 374,744.66667 373.63961,772.33333 373.27923,800 h -21.31554 -21.31553 z m 64.26426,3.92346 c 3.40422,-1.9292 6.33226,-5.09124 8.31366,-8.97807 8.60953,-16.88892 5.74192,-50.17247 -5.10939,-59.30323 -4.09371,-3.44464 -12.88139,-6.46184 -15.98316,-5.48774 -0.9952,0.31253 -3.46923,0.93224 -5.49784,1.37713 l -3.68839,0.80888 0.35506,35.59712 0.35505,35.59711 3.33333,1.6857 c 5.02042,2.5389 12.0509,2.03014 17.92168,-1.2969 z M 28.979289,745.30316 C 16.330665,742.10343 8.3076535,735.31752 3.6667396,723.89365 0.77681415,716.77993 0.72427043,715.45984 0.31426909,639.66667 l -0.41652966,-77 H 21.282203 42.666667 v 21.42098 c 0,12.21624 0.593101,22.52922 1.380245,24 1.259696,2.35376 2.948248,2.57902 19.333333,2.57902 9.874199,0 17.953088,0.34189 17.953088,0.75976 0,0.41788 -1.849973,3.44861 -4.111052,6.73498 -2.261078,3.28636 -5.756186,9.99447 -7.766906,14.9069 L 65.799519,642 55.89976,642.37532 c -7.346755,0.27852 -10.329569,0.94597 -11.566427,2.58817 -1.907812,2.53303 -2.151792,27.21731 -0.488689,49.44259 0.923336,12.33924 1.384388,14.09568 4.524164,17.23545 2.825201,2.8252 4.873272,3.53718 10.673231,3.71031 8.484457,0.25327 9.721245,0.86205 10.844668,5.33812 0.46683,1.86001 2.633298,6.28204 4.814372,9.82673 2.181073,3.5447 3.965588,6.86174 3.965588,7.3712 0,0.50947 -3.385114,2.47606 -7.522475,4.3702 -6.35774,2.91068 -9.8157,3.51136 -22.333333,3.87954 -8.145972,0.23958 -17.070179,-0.13592 -19.83157,-0.83447 z m 105.965551,-0.57735 c -18.75957,-4.28074 -30.86351,-13.22076 -37.710963,-27.85342 -4.766925,-10.18668 -6.573981,-19.40626 -6.544058,-33.38771 0.08451,-39.48773 22.637921,-68.59709 56.411911,-72.81003 31.86632,-3.97497 52.27792,9.41848 53.94514,35.39707 1.79668,27.99611 -17.38876,43.74515 -60.01579,49.26611 -7.50673,0.97225 -8.34685,1.98866 -6.43409,7.78436 1.7353,5.25805 8.39364,11.79788 14.4314,14.17458 7.37252,2.9021 22.40466,1.17716 33.0163,-3.78862 4.9944,-2.33716 9.5158,-3.78262 10.04756,-3.21211 1.44251,1.54765 9.24108,21.61361 9.24108,23.7776 0,7.94657 -45.9415,15.31797 -66.38849,10.65217 z m 12.73213,-76.82656 c 9.39707,-3.17344 17.65636,-10.95541 17.65636,-16.63597 0,-4.34572 -3.27102,-10.69824 -6.05973,-11.76837 -6.95543,-2.66904 -16.63449,1.25577 -21.59959,8.75854 -3.78773,5.72364 -7.29911,17.43479 -6.13617,20.46535 1.03972,2.70948 6.51196,2.4316 16.13913,-0.81955 z m 365.73476,76.69315 c -28.75725,-6.23565 -44.13712,-27.56861 -44.05525,-61.10772 0.0695,-28.46391 13.98796,-55.13825 34.34592,-65.82292 9.77692,-5.13132 19.7396,-7.43887 32.2976,-7.48075 18.9988,-0.0633 33.37552,7.06456 39.9272,19.79571 2.95224,5.73677 3.40564,8.31141 3.40245,19.32103 -0.004,14.72402 -2.19624,20.29214 -11.18522,28.41314 -9.87183,8.91862 -22.10826,13.61042 -44.10102,16.90963 -5.47612,0.82149 -10.35257,2.13436 -10.83657,2.91748 -2.70041,4.36937 4.82683,15.07548 13.20487,18.78148 8.89278,3.93371 22.24753,2.82853 34.37012,-2.84431 10.77216,-5.0409 10.29814,-5.34078 15.91929,10.0714 4.41448,12.10374 3.98345,13.28252 -6.11727,16.72976 -17.81192,6.07898 -40.97708,7.82778 -57.17212,4.31607 z m 17.7855,-78.58579 c 15.06148,-7.12521 17.6643,-24.22334 4.07556,-26.77261 -11.86004,-2.22496 -24.60612,11.82299 -24.60612,27.11936 v 4.68475 l 6.59966,-0.78163 c 3.62983,-0.42991 9.89872,-2.34233 13.9309,-4.24987 z m 95.46944,78.5227 c -9.38639,-2.51112 -15.80275,-7.62199 -20,-15.93075 L 603.33333,722 v -79.33333 -79.33334 l 20.33334,-0.36806 20.33333,-0.36806 0.008,69.03472 c 0.005,44.6574 0.50815,70.83794 1.42541,74.14124 1.11642,4.02052 2.44206,5.5344 6.23336,7.11851 4.51644,1.88709 6.96267,1.84052 15.46916,-0.29447 3.16718,-0.7949 3.71643,-0.25461 6.7774,6.66679 1.83202,4.14248 4.5511,9.24536 6.04242,11.33972 1.4913,2.09436 2.71148,4.19684 2.71148,4.67216 0,1.64811 -16.71404,8.67571 -23.85443,10.02984 -9.93044,1.88328 -23.42187,1.55741 -32.14557,-0.77641 z M 227.2776,741 c -0.35128,-0.91667 -0.48245,-30.46667 -0.29148,-65.66667 l 0.34721,-64 h 16 16 l 0.72174,6.2773 c 0.39696,3.4525 1.12358,6.67913 1.61472,7.17026 0.49113,0.49114 3.96473,-1.8688 7.7191,-5.2443 9.66455,-8.68926 19.78098,-10.95104 31.03271,-6.93818 9.75712,3.47983 10.24507,4.54812 10.24507,22.43042 0,17.85734 1.09044,16.603 -10.66667,12.2699 -7.85045,-2.89329 -20.10441,-2.15752 -24.08655,1.44626 -7.03288,6.36468 -7.21577,7.60893 -7.68057,52.25501 l -0.43379,41.66667 h -19.9414 c -14.72357,0 -20.1085,-0.4361 -20.58009,-1.66667 z M 688.66667,596.78448 c -12.51206,-5.56103 -15.74711,-21.74983 -6.53427,-32.69867 8.34111,-9.91284 26.61909,-8.02045 34.49603,3.5715 11.25397,16.5617 -8.92932,37.5862 -27.96176,29.12717 z m 20.82353,-7.29428 c 4.24205,-4.24207 5.17292,-6.10735 5.15681,-10.33333 -0.0259,-6.77426 -2.31514,-11.0386 -7.99977,-14.90126 -13.62663,-9.25916 -30.62697,6.14492 -23.45701,21.2545 2.81822,5.93898 8.08221,9.0771 15.29997,9.12108 5.0098,0.0305 6.54684,-0.68783 11,-5.14099 z M 692,577.95816 c 0,-11.25644 1.0368,-12.53851 8.40824,-10.39737 3.82856,1.11206 4.22547,1.7014 3.93197,5.83806 -0.17954,2.53063 -0.38777,5.50115 -0.4627,6.60115 -0.0749,1.1 0.29194,3.35 0.81529,5 1.33476,4.20817 -1.67873,3.88792 -3.62576,-0.38532 -1.85061,-4.06165 -5.55763,-3.82157 -6.15977,0.39895 C 694.67293,586.65613 693.92293,588 693.2406,588 692.55827,588 692,583.48117 692,577.95816 Z m 9.00039,-4.29079 c 0.72901,-2.1895 -3.44864,-3.75245 -5.24051,-1.96058 -0.7668,0.7668 -0.97053,2.07969 -0.45272,2.91753 1.17807,1.90615 4.95109,1.27196 5.69323,-0.95695 z M 308.26464,500.57305 C 220.00459,487.71277 146.53552,431.76941 111.80298,350.97643 83.029523,284.04515 84.350571,208.78684 115.43503,144.06332 161.01227,41.645214 285.98512,-18.513954 376,2.4376987 c 4.76667,0.9740676 14.66667,3.0031504 22,4.5090729 69.70464,14.3140634 135.62287,65.4159684 167.58419,129.9165884 3.03668,6.12828 5.19622,11.46735 4.79898,11.86459 -0.39724,0.39724 -4.62792,-3.95404 -9.40149,-9.66952 -27.8192,-33.30832 -60.07739,-52.025329 -101.64835,-58.978905 -22.5254,-3.767824 -55.03784,-4.720566 -69.3799,-2.033102 -46.62154,8.736092 -83.7997,33.696477 -113.46259,76.175627 -30.68993,43.94995 -37.60085,105.13871 -17.95477,158.97026 13.7419,37.6537 47.74838,75.43742 85.04394,94.4901 16.60383,8.48218 28.99927,12.90332 45.74328,16.31555 11.36798,2.31664 16.30751,2.59193 34.31156,1.91223 43.56614,-1.64474 72.14691,-9.86702 101.48696,-29.19632 12.6374,-8.32556 28.88034,-23.70646 38.41814,-36.37922 4.19906,-5.57926 7.85982,-9.46866 8.13501,-8.64312 0.73413,2.2024 -10.29672,23.77776 -19.05531,37.27048 C 513.07877,449.87531 449.08711,490.33916 376,500.64391 c -17.17587,2.42168 -50.87103,2.38642 -67.73536,-0.0708 z"
       id="path4489"
       inkscape:connector-curvature="0"
       sodipodi:nodetypes="ccsssscccccccccsccccccccssscccscsscscccsssccsccsssssssccscsssscscscsscsccsccsssccsscccccccccccsscccsccccscccccscsscscscssssccccccsscccccsscscccsccssscssssscssccsscc" />
  </g>
</svg>
