<svg xmlns="http://www.w3.org/2000/svg" version="1.1" id="svg2" width="127.436" height="30.506"><g id="g4487" transform="translate(-.127 -.143) scale(.16987)" fill="#fff"><path d="M371.25 180.282c-.688-.247-1.25-1.719-1.25-3.272 0-2.029 1.406-4.281 5-8.01 6.587-6.834 6.624-8.906.094-5.26-4.82 2.69-4.944 2.706-6.98.862-1.142-1.032-2.359-3.39-2.706-5.24-.347-1.849-.877-3.362-1.179-3.362-.301 0-3.143 2.475-6.314 5.5-5.992 5.715-9.512 6.896-11.917 3.998-.733-.883-1.003-2.72-.656-4.456.738-3.69-1.066-3.26-4.22 1.007-5.775 7.811-10.99-1.509-6.15-10.994 2.241-4.393 6.656-8.273 8.917-7.838.838.162 1.768 1.296 2.067 2.522.534 2.19.635 2.166 5.726-1.388 3.072-2.145 5.82-3.373 6.75-3.016 2.31.887 1.91 5.34-.807 8.982-5.808 7.787-5.336 10.62.94 5.632 2.09-1.662 4.331-2.82 4.978-2.57.647.247 2.843-1.543 4.88-3.98 4.27-5.11 12.812-10.376 16.852-10.39 2.044-.007 3.025.65 3.725 2.491.523 1.375 1.412 2.5 1.975 2.5 1.56 0 1.223 5.716-.536 9.117-.858 1.66-1.42 3.423-1.25 3.918.524 1.515 9.647-5.31 12.268-9.177 2.49-3.673 11.156-8.858 14.805-8.858 2.996 0 5.738 1.912 5.738 4.002 0 2.7-5.715 8.123-11.034 10.471-5.257 2.32-6.263 3.464-4.705 5.341 1.707 2.057 7.128.808 11.977-2.758 2.286-1.68 4.73-3.056 5.433-3.056.703 0 1.921-1.238 2.708-2.75 3.485-6.697 9.425-9.231 10.577-4.51.534 2.189.635 2.165 5.726-1.39 3.072-2.144 5.82-3.372 6.75-3.015 2.31.887 1.91 5.34-.807 8.982-5.79 7.762-5.34 10.622.893 5.668 2.067-1.642 4.305-2.985 4.974-2.985.67 0 2.517-2.056 4.106-4.568 3.131-4.954 8.57-8.966 10.927-8.06 2.654 1.017 1.556 4.47-3.08 9.69-4.718 5.312-5.367 8.235-1.935 8.718 2.735.386 12.333-5.993 14.582-9.691 4.024-6.616 15.784-12.097 19.443-9.06 3.894 3.232-.895 10.04-9.844 13.993-3.37 1.488-4.715 2.626-4.492 3.801.576 3.042 5.825 2.57 11.301-1.017 2.75-1.802 5.45-3.343 6-3.425.55-.083 1.563-.202 2.25-.266.73-.067 1.25-1.516 1.25-3.48 0-5.593 6.163-11.404 9.318-8.786.671.557 3.237 1.157 5.702 1.332 3.834.273 4.528.659 4.814 2.677.207 1.468-.596 3.355-2.128 5-7.082 7.602-5.478 12.661 1.947 6.142 1.879-1.65 3.963-3.025 4.632-3.054.668-.03 2.603-2.165 4.299-4.743 1.696-2.58 4.543-5.541 6.327-6.583 2.902-1.695 3.403-1.734 4.764-.374 1.853 1.854.795 4.287-4.38 10.073-3.568 3.99-3.98 6.926-1.048 7.49 2.372.457 12.403-5.913 17.253-10.955 4.935-5.131 15.082-10.114 19.693-9.672l3.307.318-.343 5c-.188 2.75-1.2 6.403-2.25 8.118-3.878 6.34-1.42 8.401 4.57 3.832 2.406-1.835 3.551-2.214 4.085-1.35.463.749-1.564 3.429-5.382 7.12-4.947 4.78-6.658 5.857-8.902 5.6-2.136-.246-3.024-1.08-3.841-3.61l-1.063-3.288-3.872 3.077c-2.13 1.692-4.576 2.942-5.437 2.777-.86-.165-2.465-2.094-3.565-4.288-1.1-2.193-2.103-4.166-2.23-4.384-.126-.218-2.267 1.482-4.757 3.777-8.14 7.503-13.51 7.559-15.501.163-.6-2.224-1.346-4.044-1.66-4.044-.315 0-3.033 2.25-6.042 5-6.23 5.694-9.38 6.35-11.915 2.48-1.664-2.54-1.36-4.125 2.438-12.725.184-.415-.516-.755-1.553-.755-1.038 0-3.414 1.575-5.28 3.5s-4.35 3.5-5.522 3.5c-1.171 0-3.22 1.169-4.554 2.597-3.096 3.317-9.096 6.403-12.45 6.403-3.976 0-6.198-1.634-7.471-5.492-.637-1.93-1.489-3.508-1.893-3.508-.405 0-2.01 1.33-3.566 2.954-4.252 4.438-8.974 6.417-11.782 4.938-2.846-1.499-3.727-2.813-3.747-5.583-.028-3.987-2.062-3.555-7.51 1.598-3.55 3.357-6.246 5.093-7.91 5.093-3.021 0-5.024-3.155-4.168-6.567.795-3.166-1.37-2.354-4.305 1.616-3.635 4.917-6.24 3.9-8.52-3.327-.481-1.526-1.341-1.143-6.06 2.7-9.03 7.355-16.639 7.174-19.21-.456-.642-1.906-1.708-3.336-2.367-3.177-2.256.544-14.154 11.706-15.681 14.711-2.783 5.475-6.51 8.686-9.034 7.782zm8.315-26.717c2.99-2.989 5.435-5.923 5.435-6.52 0-1.467-7.804 2.523-11.25 5.752-3.011 2.822-3.657 6.203-1.185 6.203.861 0 4.011-2.446 7-5.435zm186.76-.543c4.094-3.94 4.757-4.983 3.175-4.997-3.972-.035-11.5 5.637-11.5 8.666 0 2.633 3.272 1.19 8.324-3.67zM412.5 147.53c2.973-2.437 2.05-3.43-1.448-1.559-1.855.993-3.57 4.032-2.27 4.023.395-.003 2.068-1.112 3.718-2.464zm80.5-1.557c0-1.504-2.143-1.154-4.171.681-2.817 2.55-2.168 3.572 1.171 1.845 1.65-.853 3-1.99 3-2.526zM137.475 166.4c-11.602-8.839-7.043-8.504-39.475-2.904-24.03 4.15-31.206 4.213-43.71.383-16.63-5.094-33.103-17.28-42.17-31.197-13.958-21.422-15.198-52.77-2.999-75.74C22.405 31.933 49.428 13.948 82 8.44c5.883-.995 10.262-2.293 11.5-3.41 1.357-1.223 4.413-2.019 9.5-2.473 4.125-.368 9.103-.817 11.063-.996 2.856-.261 3.75.097 4.5 1.807.92 2.094 1.55 2.147 34.853 2.902l33.915.769 2.326-2.185c3.838-3.606 19.869-5.448 23.079-2.652 1.325 1.154 5.248 1.682 15.764 2.121 31.154 1.302 52.871 9.12 68.566 24.685C309.249 41.09 314 53.111 314 71.855V82.29l5.391-5.099c5.725-5.414 8.28-6.534 13.72-6.015 7.906.755 2.818 10.394-7.583 14.367-4.709 1.798-5.572 3.345-3.041 5.446 1.998 1.658 5.807.593 11.237-3.143 7.79-5.36 7.203-1.206-.713 5.05-8.602 6.8-14.487 7.248-18.854 1.432l-2.124-2.828-.646 2.297c-1.973 7.026-7.7 16.501-13.553 22.424-7.164 7.251-14.386 11.698-25.028 15.41-4.018 1.403-7.81 2.966-8.428 3.476-.617.509-2.609 4.406-4.426 8.66-1.817 4.253-3.932 8.48-4.7 9.393-1.462 1.735-18.374 5.39-20.74 4.483-.708-.272-5.12-3.452-9.804-7.068-5.966-4.605-9.37-6.57-11.363-6.555-3.5.024-34.858 5.56-36.203 6.392-.534.33-2.647 4.645-4.696 9.588-2.05 4.943-4.225 9.377-4.836 9.854-.836.653-17.499 4.146-19.779 4.146-.21 0-4.87-3.42-10.356-7.6zm26.654.513c1.46-.767 11.871-23.717 11.871-26.17 0-1.184-7.276-.202-10.235 1.382-1.577.844-13.765 24.33-13.765 26.524 0 .755 10.153-.698 12.13-1.736zm-13.138-5.896c1.858-3.84 3.084-7.277 2.724-7.636-.36-.36-2.805.268-5.435 1.395-2.629 1.128-6.472 2.365-8.541 2.75-2.069.385-3.976 1.047-4.238 1.472-.526.85 9.364 8.85 11.056 8.943.581.032 2.577-3.084 4.434-6.924zm-78.491-.873c20.834-9.907 34.159-32.11 36.166-60.264l.615-8.618-3.873-2.632c-2.13-1.447-4.152-2.631-4.493-2.631-.342 0-2.707 3.136-5.255 6.968-4.72 7.1-8.74 10.719-10.616 9.56-2.062-1.275-.956-4.289 4.437-12.095 3.421-4.953 5.488-8.99 5.5-10.749.025-3.706 1.615-6.602 5.381-9.8 2.817-2.393 2.977-2.845 1.868-5.279-.667-1.463-1.844-2.903-2.615-3.2-.771-.295-4.589 1.067-8.484 3.029C87.237 66.395 83.394 68 82.592 68c-4.26 0-2.28-10.245 2.93-15.16C87.435 51.036 89 49.09 89 48.514c0-1.68-9.94-7.726-17-10.34-18.052-6.682-43.564-1.864-53.347 10.074C13.75 54.233 7.285 68.133 5.515 76.5c-1.903 8.998-1.9 24.244.007 32.332 2.028 8.603 7.201 19.382 12.928 26.94 8.667 11.437 25.179 22.255 39.116 25.626 8.135 1.968 8.167 1.965 14.934-1.253zm-30.556-56.25c-.62-1.158-.854-3.563-.52-5.345.923-4.919 8.712-19.525 16.106-30.205 9.364-13.524 9.402-12.79-.611-12.011-4.63.36-11.564 1.445-15.408 2.41-6.313 1.586-6.99 1.998-7 4.256-.01 2.16-.516 2.542-3.719 2.808-2.039.17-4.68-.213-5.869-.849-1.826-.977-2.088-1.807-1.688-5.348.7-6.211 3.452-11.236 7.092-12.951 8.202-3.864 31.7-6.121 38.156-3.666 3.134 1.191 5.93 7.189 5.157 11.058-.296 1.48-3.777 8.02-7.735 14.535-8.292 13.647-11.881 20.95-11.895 24.203-.022 5.05-6.012 13.21-9.697 13.21-.684 0-1.75-.947-2.37-2.105zm68.92 54.029c20.556-3.521 30.2-5.585 31.474-6.735 3.386-3.055 12.816-16.226 12.436-17.368-.26-.78-4.682-1.062-14.336-.912-9.744.152-16.22-.266-21.449-1.382l-10.176-2.176c-2.42-.519-2.968-.058-5.5 4.616-5.026 9.279-12.081 17.725-19.272 23.073-3.873 2.879-7.041 5.398-7.041 5.597 0 .892 6.099.043 33.864-4.713zm140.526-6.52c1.382-.53 11.664-23.754 11.63-26.265-.02-1.315-3.847-1.113-9.301.492-1.86.546-13.719 23.008-13.719 25.982 0 1.396.759 1.544 5.012.98 2.757-.366 5.627-.9 6.378-1.19zm-13.06-6.67c1.633-3.722 2.747-6.99 2.474-7.264-.273-.273-2.254.25-4.4 1.16-2.147.912-5.929 2.185-8.404 2.83-2.475.644-4.5 1.664-4.5 2.268 0 1.564 8.718 8.24 10.43 7.985.785-.117 2.765-3.258 4.4-6.98zm-80.782-1.062c4.906-5.066 5.57-5.411 13.462-6.994 10.174-2.04 11.723-1.368 9.439 4.098-.822 1.968-1.128 3.945-.68 4.392.447.448 8.445-.546 17.772-2.21 9.328-1.662 20.752-3.7 25.387-4.527 10.295-1.836 18.764-6.13 23.504-11.913 3.22-3.93 3.97-4.304 11.043-5.514 6.809-1.164 9.53-2.332 8.3-3.562-.755-.755-24.946 2.41-57.514 7.525-17.469 2.743-34.983 5.284-38.92 5.646-3.939.361-7.55.934-8.025 1.272-.968.689-11.316 15.91-11.316 16.645 0 1.718 3.128-.295 7.548-4.858zm.303-15.592c.981-.525 2.964-4.02 4.407-7.768 7.626-19.807 8.235-36.755 1.999-55.664-3.86-11.702-14.56-27.2-21.92-31.75l-3.298-2.037-8.77 2.168c-10.509 2.598-21.524 6.845-27.438 10.578-5.203 3.284-3.872 4.077 3.28 1.953 7.581-2.252 10.385-2.016 12.816 1.075 2.437 3.097 2.649 6.222.605 8.924-3.78 4.996-1.523 4.54 10.192-2.059C140.145 47.629 143 46.847 143 49.865c0 2.743-3.464 6.675-7.216 8.191-4.985 2.014-24.655 12.926-25.361 14.069-.342.553-.345 2.438-.007 4.19.485 2.516 2.086 4.218 7.62 8.103C127.828 91.294 134 98.086 134 101.988c0 5.092-2.398 4.788-11.498-1.458-4.598-3.155-8.774-5.48-9.281-5.167-.507.314-1.212 3.998-1.566 8.187-.354 4.19-1.348 10.336-2.209 13.658-.86 3.322-1.354 6.589-1.096 7.26.527 1.375 6.737 3.298 14.769 4.573 6.639 1.054 32.293.344 34.732-.961zM150 99.604c0-1.487 1.328-3.563 3.5-5.47 5.901-5.181 9.053-1.322 3.911 4.79-3.265 3.88-7.411 4.26-7.411.68zm130 25.174c6.345-3.062 10.155-5.773 15.027-10.69 6.285-6.343 12.095-15.3 10.779-16.616-.35-.349-3.261 1.507-6.47 4.125-3.21 2.617-9.661 6.492-14.336 8.611-4.675 2.12-9.625 4.417-11 5.107-2.622 1.314-5.65 6.69-6.686 11.863-.568 2.84-.445 3.004 1.788 2.377 1.319-.37 6.223-2.52 10.898-4.777zm-100.5 1.172c4.4-.587 19.026-2.827 32.501-4.978 13.476-2.15 31.686-4.822 40.468-5.937 12.037-1.528 16.377-2.458 17.632-3.78 1.9-2.003 6.899-14.21 6.899-16.85 0-1.55-.268-1.502-2.314.42-3.649 3.428-5.5 2.803-6.782-2.292l-1.125-4.466-4.64 3.854c-9.163 7.613-14.718 8.702-19.84 3.89-3.855-3.621-2.416-9.482 3.762-15.337 1.726-1.636 4.483-4.912 6.126-7.28 4.7-6.778 7.486-4.68 7.71 5.806.062 2.916-.626 5.684-1.955 7.863-1.127 1.85-1.8 3.613-1.494 3.918.305.306 2.467-.804 4.804-2.467 2.336-1.662 4.76-3.2 5.385-3.418.625-.218 2.659-2.403 4.52-4.856 1.86-2.452 4.5-4.72 5.863-5.04 3.26-.762 3.586-3.856 1.508-14.33-1.835-9.255-8.622-23.89-13.96-30.107l-3.382-3.937-8.843.217c-4.864.12-29.543 1.103-54.843 2.185-25.3 1.083-46.788 1.97-47.75 1.97-2.86.003-2.046 1.86 3.502 7.992 10.47 11.57 17.254 28.35 18.398 45.51.727 10.893-.703 20.88-4.697 32.798-1.624 4.849-2.953 9.246-2.953 9.77 0 .527 1.684.73 3.75.453l11.75-1.57zm7.892-25.372c-.848-2.21 1.107-4.995 7.097-10.112 5.35-4.57 6.952-7.466 4.133-7.466-.757 0-1.908-.64-2.557-1.422-2.601-3.134 4.809-9.253 9.958-8.223 2.582.516 3.983-.56 14.923-11.464 12.48-12.44 15.254-13.961 15.864-8.703.17 1.469-.814 6.327-2.187 10.797-2.073 6.753-2.253 8.202-1.06 8.57.79.245 2.112.656 2.937.914 3.719 1.161.086 7.229-5.623 9.391-2.859 1.083-4.696 5.72-2.956 7.461.71.71 2.211.193 4.803-1.651 5.707-4.06 5.408-1.147-.457 4.447-5.541 5.286-9.407 6.842-11.886 4.784-1.588-1.317-1.53-4.796.204-12.151l.648-2.75h-6.215c-6.797 0-7.172.255-15.763 10.736-3.101 3.782-8.879 8.264-10.654 8.264-.365 0-.91-.64-1.21-1.422zM226.38 68.22c1.04-2.905 1.596-5.578 1.233-5.94-.872-.872-10.613 8.758-10.613 10.493 0 .946 1.117 1.255 3.744 1.037 3.53-.292 3.851-.61 5.636-5.59zm56.085 39.795c2.547-1.092 6.638-3.366 9.09-5.053 3.956-2.722 4.333-3.302 3.345-5.148-.653-1.22-.843-3.782-.46-6.197l.654-4.117-4.997 4.913c-2.749 2.703-6.032 4.986-7.297 5.073-2.33.161-4.932 4.209-6.359 9.892-.795 3.168-.062 3.246 6.024.637zm-31.022-20.238c1.812-2.586 2.043-6.358.45-7.343-.608-.376-2.493.705-4.19 2.402-3.021 3.021-3.047 3.126-1.239 5.124 2.34 2.587 3.058 2.56 4.98-.183zm56.314-.027c4.762-5.088 3.841-28.959-1.532-39.696-2.52-5.039-3.4-5.808-11.725-10.26-8.498-4.545-25.013-10.615-26.052-9.575-.263.263 1.521 3.808 3.965 7.88 5.74 9.563 9.641 21.29 10.261 30.852.687 10.585.696 10.602 4.694 8.13 5.893-3.641 8.76-2.18 6.645 3.385-.588 1.546-.85 3.03-.584 3.296s2.611-1.388 5.211-3.677c4.89-4.304 6.908-4.757 8.678-1.946.794 1.261.299 2.783-2.143 6.588-1.746 2.721-3.175 5.471-3.175 6.11 0 1.96 3.53 1.293 5.757-1.087zm20.937-9.218c1.91-1.68 2.318-2.479 1.279-2.5-1.868-.039-5.973 2.727-5.973 4.025 0 1.618 1.777 1.041 4.694-1.525zM110.011 60.75c2.535-4.158 2.495-4.75-.32-4.75-3.812 0-6.087 2.286-5.32 5.344.902 3.59 3.239 3.345 5.64-.594zM105 38.574c5.408-2.783 11.465-4.922 28.917-10.21 1.993-.604.582-1.741-6.524-5.257C120.627 19.76 108.094 16 103.704 16c-3.53 0-6.972-1.758-6.124-3.13 1.205-1.95 17.604 1.255 27.42 5.359 2.475 1.035 7.45 3.655 11.054 5.823l6.555 3.941 56.256-2.39c30.94-1.315 56.478-2.613 56.75-2.885.886-.886-8.143-7.62-15.032-11.211C234.228 8.194 233.312 8 224.063 8c-8.437 0-10.163-.291-12.465-2.102-2.104-1.654-3.514-1.973-6.635-1.5l-7.981 1.209c-2.395.361-4.594 1.428-5.443 2.641-1.406 2.007-1.941 2.025-38.232 1.32-36.201-.703-36.835-.75-38.507-2.891-1.692-2.167-1.707-2.168-3.19-.177-1.27 1.707-1.788 1.817-3.536.75-3.528-2.154-9.928-1.55-13.256 1.25-1.988 1.673-4.187 2.5-6.645 2.501-5.727.002-22.797 4.489-32.173 8.456-8.532 3.61-22.093 12.062-22.74 14.172-.245.8 1.34.732 5.447-.235 7.675-1.806 22.474-1.758 29.59.095 6.361 1.657 15.409 6.006 20.63 9.918l3.425 2.566 3.074-2.027c1.69-1.115 5.999-3.533 9.574-5.372zm186.5-10.21c-9.29-8.59-31.856-18.442-41.98-18.33l-3.02.033 2.158 1.716c14.398 11.457 13.905 11.171 23.478 13.602 5.15 1.308 12.289 3.742 15.864 5.41 9.433 4.401 10.266 3.823 3.5-2.432zM616.388 173.08c-1.161-.502-3.074-2.137-4.25-3.632-5.177-6.58-.328-15.258 11.748-21.023 5.392-2.574 5.515-2.718 3.114-3.636-7.893-3.018-10.651-6.347-9.398-11.34.903-3.596 6.14-8.637 11.675-11.24 8.504-3.996 23.622-5.083 27.473-1.973.687.555 1.25 2.522 1.25 4.372 0 3.106-.457 3.594-5.971 6.378-7.15 3.609-7.239 3.619-6.842.764.286-2.057-.03-2.22-3.687-1.906-4.576.394-12.865 3.685-14.626 5.808-2.06 2.483.376 3.422 11.024 4.246 11.476.89 13.21 1.762 10.8 5.44-1.222 1.865-3.314 2.822-8.898 4.067-9.363 2.089-16.862 5.587-19.693 9.186-2.107 2.679-2.135 2.916-.48 4.125 3.895 2.848 15.99.466 24.74-4.872 5.694-3.474 8.162-3.16 7.194.915-1.133 4.767-3.942 7.64-10.911 11.16-5.613 2.834-8.085 3.475-14.46 3.747-4.23.18-8.64-.083-9.802-.586zM312.2 166.8c-.66-.66-1.2-1.629-1.2-2.152 0-.524 2.765-5.264 6.145-10.534C324.014 143.404 330 131.98 330 129.581c0-2.067-1.276-1.994-5.79.327-5.41 2.783-9.548 7.452-8.772 9.898.455 1.433-.118 2.584-2.037 4.094-3.4 2.673-4.546 2.64-7.227-.214-2.904-3.092-2.74-5.605.677-10.322 3.811-5.261 8.593-9.181 14.649-12.01 9.691-4.525 15.15-2.184 14.819 6.357-.203 5.25-6.162 18.396-12.311 27.163-2.205 3.142-4.008 6.195-4.008 6.785 0 1.637-3.985 6.341-5.373 6.341-.675 0-1.767-.54-2.427-1.2zm406.628.164c-2.729-1.593-3.056-5.99-.91-12.227 1.086-3.156 1.628-5.737 1.204-5.737-.424 0-3.95 3.332-7.835 7.404s-8.236 8.172-9.668 9.11c-3.515 2.303-7.045 1.285-8.606-2.482-2.139-5.164-.316-9.19 10.773-23.798 3.033-3.996 5.242-7.54 4.908-7.873-.334-.335-4.707 1.51-9.717 4.097-5.01 2.588-9.755 4.457-10.544 4.155-3.363-1.29.276-10.846 5.565-14.612 4.102-2.92 13.342-6.076 19.725-6.735 4.909-.508 5.28-.386 6.2 2.03 1.685 4.434-.251 9.086-8.392 20.161-6.48 8.814-9.11 13.297-8.286 14.121 1.239 1.24 6.62-3.668 19.836-18.092 14.088-15.374 17.046-17.238 17.741-11.179.237 2.07-1.373 5.484-6.133 13-7.607 12.012-9.357 15.332-9.835 18.668-.505 3.53 2.41 3.778 7.194.612 4.255-2.816 5.952-3.224 5.952-1.432 0 1.78-7.944 8.924-11.639 10.467-3.852 1.61-5.25 1.673-7.533.342zM661 165.174c0-2.244 4.02-6.174 6.314-6.174 2.44 0 2.086 3.276-.628 5.826-2.835 2.663-5.686 2.837-5.686.348zm82 0c0-2.244 4.02-6.174 6.314-6.174 2.337 0 2.152 3.534-.314 6-2.548 2.548-6 2.648-6 .174zm-273.641-27.682c-.916-2.387 2.349-6.492 5.164-6.492 2.919 0 3.298 2.382.92 5.777-1.78 2.543-5.227 2.948-6.084.715zM546 134.868c0-2.31 4.262-7.964 5.78-7.67 2.712.527 2.479 2.697-.621 5.797-3.102 3.102-5.159 3.849-5.159 1.873zM416 108.03c0-3.341 2.089-7.862 6.943-15.03 3.674-5.423 4.009-8.062.922-7.255-2.706.708-2.454.289 6.917-11.483 6.943-8.723 9.975-11.148 12.209-9.768 1.642 1.015 1.131 2.771-2.019 6.934-4.031 5.328-3.922 7.122.278 4.561 3.559-2.17 7.263-2.587 8.285-.932 1.061 1.717-.284 5.37-4.025 10.928-1.93 2.869-3.51 5.396-3.51 5.615 0 1.383 3.231-.106 6.729-3.1 2.249-1.925 4.762-3.5 5.585-3.5.823 0 2.663-1.992 4.09-4.427 3.111-5.309 7.007-8.573 10.23-8.573 3.807 0 2.96 3.923-2.134 9.891-4.981 5.836-5.16 6.317-3 8.108 1.802 1.496 6.324-.042 9.083-3.09 2.166-2.395 3.417-2.435 3.417-.112 0 1.918-6.06 8.23-9.684 10.085C461.206 99.498 456 96.53 456 91c0-1.65-.223-3-.495-3s-3.306 2.265-6.742 5.034c-7.031 5.666-10.755 7.038-15.57 5.735-5.157-1.395-6.338-.692-9.624 5.731-2.19 4.281-3.714 6.092-5.319 6.32-1.92.272-2.25-.138-2.25-2.79zm21.896-20.565c3.375-3.844 3.882-5.465 1.708-5.465-1.824 0-7.821 6.84-7.067 8.06.999 1.615 2.154 1.056 5.36-2.595zM344.362 97.5c-.83-2.163.17-4.148 3.04-6.028 4.685-3.07 6.348.868 2.143 5.073-2.814 2.815-4.36 3.1-5.183.955zm57.838.3c-.66-.66-1.2-2.46-1.2-4 0-3.517-.441-3.498-4.653.2-4.126 3.623-6.774 3.804-8.87.606-4.18-6.382-2.22-12.882 5.595-18.543 4.865-3.524 14.373-7.285 17.343-6.86 3.118.445 2.973 7.83-.276 14.074-3.026 5.815-2.045 7.76 2.683 5.315 1.678-.868 3.331-2.031 3.674-2.585.883-1.43 2.504-1.248 2.504.28 0 1.519-8.533 9.988-11.684 11.597-2.773 1.416-3.63 1.402-5.116-.084zm-2.886-12.727c2.84-2.71 4.837-5.256 4.436-5.657-2.075-2.075-12.75 5.643-12.75 9.219 0 2.674 3.225 1.292 8.314-3.562zM470 67.655c0-4.03 6.094-7.717 7.282-4.405.51 1.425-1.042 4.89-2.682 5.985-2.345 1.566-4.6.792-4.6-1.58z" id="path4489" fill="#fff"/></g></svg>