<?xml version="1.0" encoding="UTF-8" standalone="no"?>
<!-- Created with Inkscape (http://www.inkscape.org/) -->

<svg
   xmlns:dc="http://purl.org/dc/elements/1.1/"
   xmlns:cc="http://creativecommons.org/ns#"
   xmlns:rdf="http://www.w3.org/1999/02/22-rdf-syntax-ns#"
   xmlns:svg="http://www.w3.org/2000/svg"
   xmlns="http://www.w3.org/2000/svg"
   xmlns:sodipodi="http://sodipodi.sourceforge.net/DTD/sodipodi-0.dtd"
   xmlns:inkscape="http://www.inkscape.org/namespaces/inkscape"
   version="1.1"
   id="svg2"
   width="127.43568"
   height="30.505947"
   viewBox="0 0 127.43569 30.505947"
   sodipodi:docname="logo.svg"
   inkscape:version="0.92.1 r">
  <metadata
     id="metadata8">
    <rdf:RDF>
      <cc:Work
         rdf:about="">
        <dc:format>image/svg+xml</dc:format>
        <dc:type
           rdf:resource="http://purl.org/dc/dcmitype/StillImage" />
        <dc:title></dc:title>
      </cc:Work>
    </rdf:RDF>
  </metadata>
  <defs
     id="defs6" />
  <sodipodi:namedview
     pagecolor="#ffffff"
     bordercolor="#666666"
     borderopacity="1"
     objecttolerance="10"
     gridtolerance="10"
     guidetolerance="10"
     inkscape:pageopacity="0"
     inkscape:pageshadow="2"
     inkscape:window-width="1364"
     inkscape:window-height="734"
     id="namedview4"
     showgrid="false"
     fit-margin-top="0"
     fit-margin-left="0"
     fit-margin-right="0"
     fit-margin-bottom="0"
     inkscape:zoom="1.9589041"
     inkscape:cx="51.385088"
     inkscape:cy="76.604906"
     inkscape:window-x="0"
     inkscape:window-y="33"
     inkscape:window-maximized="0"
     inkscape:current-layer="svg2" />
  <g
     id="g4487"
     transform="matrix(0.16986538,0,0,0.16986538,-0.12693126,-0.14341559)"
     style="fill:#ffffff">
    <path
       style="fill:#ffffff"
       d="m 371.25,180.28154 c -0.6875,-0.24651 -1.25,-1.7185 -1.25,-3.27107 0,-2.02909 1.40597,-4.28159 5,-8.01047 6.58695,-6.8341 6.6238,-8.90602 0.0936,-5.26005 -4.81911,2.6906 -4.94336,2.70596 -6.98044,0.86242 -1.1407,-1.03232 -2.35789,-3.39017 -2.70485,-5.23966 C 365.0613,157.51322 364.53068,156 364.22912,156 c -0.30156,0 -3.14307,2.475 -6.31447,5.5 -5.99207,5.71546 -9.5112,6.89598 -11.91671,3.99752 -0.73268,-0.88283 -1.00336,-2.72042 -0.65632,-4.45562 0.73792,-3.68962 -1.06539,-3.25937 -4.21944,1.00672 -5.77549,7.81176 -10.98924,-1.50839 -6.15008,-10.99393 2.24104,-4.3928 6.65582,-8.27299 8.91727,-7.83748 0.83762,0.16131 1.76767,1.29624 2.06678,2.52207 0.5343,2.18963 0.63485,2.16525 5.72536,-1.38852 3.07206,-2.14466 5.82006,-3.37227 6.75,-3.01542 2.31021,0.88651 1.91058,5.3395 -0.80603,8.98138 -5.80894,7.78746 -5.33683,10.61944 0.93891,5.63211 2.09146,-1.66208 4.33185,-2.81889 4.97866,-2.57068 0.6468,0.2482 2.84252,-1.54241 4.87936,-3.97912 4.27149,-5.11008 12.81297,-10.37599 16.85234,-10.38965 2.04423,-0.007 3.02499,0.6488 3.72525,2.49062 0.52277,1.375 1.41164,2.5 1.97525,2.5 1.55901,0 1.22298,5.71598 -0.53599,9.11745 -0.8584,1.65997 -1.4209,3.42288 -1.25,3.91756 0.52343,1.51507 9.64646,-5.30952 12.26762,-9.17693 C 403.94613,144.18531 412.61274,139 416.26209,139 c 2.99622,0 5.73791,1.91217 5.73791,4.00185 0,2.69931 -5.71538,8.12318 -11.0341,10.47132 -5.25653,2.32068 -6.26331,3.46355 -4.70509,5.34109 1.7067,2.05645 7.12834,0.80799 11.97744,-2.75808 2.28567,-1.6809 4.73055,-3.05618 5.43307,-3.05618 0.70253,0 1.92112,-1.2375 2.70799,-2.75 3.48431,-6.69748 9.42504,-9.23103 10.57684,-4.51072 0.5343,2.18963 0.63485,2.16525 5.72536,-1.38852 3.07206,-2.14466 5.82006,-3.37227 6.75,-3.01542 2.31021,0.88651 1.91058,5.3395 -0.80603,8.98138 -5.7903,7.76248 -5.33991,10.62188 0.8929,5.66867 2.06615,-1.64196 4.3045,-2.98539 4.97411,-2.98539 0.66962,0 2.51694,-2.05578 4.10515,-4.56841 3.1314,-4.95399 8.56956,-8.96514 10.92774,-8.06022 2.65318,1.01812 1.55575,4.47052 -3.08036,9.69053 -4.71828,5.31253 -5.36678,8.2348 -1.9348,8.71859 2.73503,0.38555 12.333,-5.99356 14.5819,-9.69158 4.02365,-6.61636 15.78382,-12.09661 19.44247,-9.06021 3.89488,3.23247 -0.89409,10.04001 -9.84385,13.99309 -3.36995,1.48849 -4.71426,2.62612 -4.49181,3.80122 0.57582,3.04187 5.82551,2.56929 11.30107,-1.01732 2.75,-1.80131 5.45,-3.34258 6,-3.42505 0.55,-0.0825 1.5625,-0.20185 2.25,-0.26529 0.72951,-0.0673 1.25,-1.51656 1.25,-3.48049 0,-5.59272 6.16304,-11.40429 9.31761,-8.78623 0.67189,0.55762 3.2378,1.1573 5.70201,1.33262 3.8344,0.27279 4.52849,0.65871 4.81407,2.67667 0.20775,1.468 -0.59532,3.3551 -2.12781,5 -7.08214,7.60167 -5.47829,12.66149 1.9469,6.14208 1.87925,-1.65 3.96365,-3.02452 4.63202,-3.05449 0.66836,-0.03 2.60295,-2.1643 4.2991,-4.74295 1.69614,-2.57865 4.54336,-5.54083 6.32716,-6.58263 2.9023,-1.69503 3.40312,-1.73432 4.76373,-0.37371 1.85344,1.85344 0.79548,4.28704 -4.37909,10.07305 -3.56875,3.99046 -3.97984,6.9253 -1.0491,7.48971 2.37214,0.45683 12.40325,-5.91266 17.2534,-10.95546 4.93459,-5.13058 15.08212,-10.11397 19.69305,-9.67113 L 579.5,138.5 l -0.34287,5 c -0.18858,2.75 -1.20108,6.40312 -2.25,8.11803 -3.87824,6.34067 -1.42102,8.40119 4.56963,3.8319 2.40629,-1.83537 3.55123,-2.21365 4.08517,-1.34973 0.46258,0.74847 -1.56352,3.42855 -5.382,7.1192 -4.94703,4.78142 -6.65772,5.85753 -8.90189,5.59973 -2.13593,-0.24537 -3.02378,-1.07939 -3.8412,-3.60833 l -1.06317,-3.28921 -3.87178,3.07691 c -2.12949,1.6923 -4.57606,2.94213 -5.43684,2.7774 -0.86078,-0.16473 -2.46505,-2.09419 -3.56505,-4.2877 -1.1,-2.19351 -2.1033,-4.1665 -2.22955,-4.38441 -0.12625,-0.21792 -2.2672,1.48203 -4.75767,3.77767 -8.13897,7.50223 -13.5094,7.55851 -15.50096,0.16244 -0.5989,-2.22415 -1.34597,-4.0439 -1.66015,-4.0439 -0.31419,0 -3.03311,2.25 -6.04205,5 -6.23035,5.69419 -9.37923,6.34959 -11.91475,2.4799 -1.66405,-2.53967 -1.36036,-4.1245 2.43846,-12.72522 C 514.01667,151.33961 513.31744,151 512.2795,151 c -1.03794,0 -3.41372,1.575 -5.2795,3.5 -1.86578,1.925 -4.35062,3.5 -5.52185,3.5 -1.17124,0 -3.22046,1.16879 -4.55384,2.59732 C 493.82839,163.91417 487.8279,167 484.4741,167 c -3.97563,0 -6.19812,-1.63375 -7.47157,-5.49232 C 476.36583,159.57845 475.51399,158 475.10954,158 c -0.40445,0 -2.00885,1.32924 -3.56534,2.95386 -4.25181,4.43793 -8.97411,6.41695 -11.78258,4.93784 -2.84518,-1.49844 -3.72695,-2.81244 -3.74631,-5.58268 -0.0279,-3.98747 -2.06241,-3.55459 -7.51047,1.59796 -3.54971,3.35717 -6.2456,5.09302 -7.9098,5.09302 -3.02144,0 -5.02393,-3.15504 -4.16771,-6.5665 0.79481,-3.16677 -1.37028,-2.35452 -4.30515,1.61512 -3.63558,4.91738 -6.24112,3.90001 -8.52028,-3.32686 -0.48125,-1.52598 -1.34088,-1.14287 -6.05963,2.70061 -9.02961,7.35472 -16.6393,7.17404 -19.21017,-0.45612 -0.64235,-1.90644 -1.70768,-3.33614 -2.3674,-3.17712 -2.2556,0.5437 -14.15384,11.70572 -15.68117,14.71087 -2.78268,5.47518 -6.51039,8.68625 -9.03353,7.78154 z m 8.31522,-26.71632 C 382.55435,150.57609 385,147.64194 385,147.04489 c 0,-1.4673 -7.80409,2.523 -11.25,5.75222 -3.01143,2.82206 -3.65719,6.20289 -1.18478,6.20289 0.86087,0 4.01087,-2.44565 7,-5.43478 z m 186.75913,-0.54365 c 4.09499,-3.93895 4.75806,-4.98215 3.17565,-4.99626 -3.97246,-0.0354 -11.5,5.63696 -11.5,8.66582 0,2.63258 3.27209,1.19017 8.32435,-3.66956 z M 412.5,147.531 c 2.97256,-2.43658 2.04923,-3.43049 -1.44809,-1.55878 -1.85533,0.99294 -3.5705,4.0318 -2.27053,4.02281 0.39524,-0.003 2.06862,-1.11155 3.71862,-2.46403 z m 80.5,-1.55668 c 0,-1.50425 -2.14344,-1.15448 -4.17126,0.68067 -2.81705,2.54939 -2.16799,3.5718 1.17126,1.84501 1.65,-0.85325 3,-1.9898 3,-2.52568 z M 137.47459,166.40088 C 125.87267,157.56197 130.43182,157.8973 98,163.4975 73.970767,167.64678 66.7936,167.70961 54.29052,163.88016 37.659154,158.78629 21.186918,146.60062 12.119359,132.6832 -1.8375915,111.26125 -3.0784129,79.913123 9.1214153,56.943122 22.405098,31.932426 49.427731,13.947666 82,8.4391947 c 5.88257,-0.994833 10.261564,-2.2933075 11.5,-3.41002 1.356624,-1.2232838 4.412662,-2.0188904 9.5,-2.4732224 4.125,-0.368389 9.10344,-0.816586 11.0632,-0.9959933 2.856,-0.2614545 3.74913,0.097169 4.5,1.8069229 0.91987,2.0945722 1.54966,2.1470104 34.85234,2.9019153 l 33.91554,0.7687972 2.32583,-2.1850038 c 3.83801,-3.605626 19.86872,-5.44767427 23.07867,-2.6519125 1.32538,1.1543627 5.24801,1.6822948 15.76442,2.1216776 31.1537,1.3016226 52.87113,9.1202723 68.56571,24.6848473 C 309.24881,41.089383 314,53.111074 314,71.855156 v 10.434958 l 5.39109,-5.098671 c 5.725,-5.414463 8.28048,-6.534791 13.72054,-6.015122 7.90545,0.755179 2.8171,10.39406 -7.58391,14.366244 -4.70823,1.79809 -5.57221,3.345693 -3.04071,5.446658 1.99786,1.658074 5.80706,0.59255 11.23678,-3.143197 7.78929,-5.359167 7.20343,-1.206364 -0.71255,5.050854 -8.60266,6.80001 -14.48706,7.24668 -18.85463,1.431209 L 312.03265,91.5 l -0.64538,2.2975 c -1.97358,7.02584 -7.70028,16.50093 -13.55291,22.42392 -7.16455,7.25068 -14.38675,11.69749 -25.02832,15.41027 -4.01832,1.40197 -7.81097,2.9657 -8.4281,3.47494 -0.61713,0.50924 -2.6087,4.40608 -4.4257,8.65963 -1.817,4.25356 -3.93249,8.48054 -4.70107,9.39329 -1.46103,1.73508 -18.37324,5.39132 -20.7389,4.48353 -0.70795,-0.27166 -5.12001,-3.45249 -9.80459,-7.06851 -5.96561,-4.60485 -9.3698,-6.5687 -11.36254,-6.55496 -3.49935,0.0241 -34.85785,5.56119 -36.20288,6.39247 -0.53425,0.33018 -2.6477,4.64463 -4.69656,9.58766 -2.04885,4.94303 -4.2248,9.37747 -4.83544,9.85431 -0.83667,0.65335 -17.49877,4.14595 -19.779,4.14595 -0.21014,0 -4.87064,-3.41961 -10.35667,-7.59912 z m 26.65459,0.51346 C 165.58973,166.14749 176,143.19703 176,140.74395 c 0,-1.18403 -7.27625,-0.20166 -10.23502,1.38183 C 164.18834,142.96957 152,166.45585 152,168.65017 c 0,0.7548 10.15291,-0.6982 12.12918,-1.73583 z m -13.13783,-5.89646 c 1.85776,-3.84017 3.08339,-7.27648 2.72362,-7.63624 -0.35976,-0.35976 -2.8053,0.26831 -5.43454,1.39572 -2.62924,1.12741 -6.4729,2.36473 -8.54148,2.7496 -2.06857,0.38487 -3.97571,1.04712 -4.23809,1.47165 -0.52555,0.85035 9.36432,8.85043 11.05595,8.94334 0.58124,0.0319 2.57679,-3.08391 4.43454,-6.92407 z M 72.5,160.14527 c 20.834095,-9.90713 34.15903,-32.11042 36.16633,-60.263807 l 0.61449,-8.618537 -3.87254,-2.631463 C 103.27838,87.184158 101.25621,86 100.91458,86 c -0.34163,0 -2.706301,3.135781 -5.254822,6.968402 -4.720698,7.099268 -8.739801,10.718198 -10.615782,9.558778 -2.06174,-1.27423 -0.956204,-4.287816 4.436677,-12.093973 3.421721,-4.952917 5.487921,-8.991004 5.5,-10.748948 0.02547,-3.706633 1.61529,-6.602044 5.381417,-9.800737 2.817,-2.392568 2.97686,-2.844246 1.86793,-5.278064 -0.66698,-1.463873 -1.84371,-2.903729 -2.614942,-3.19968 -0.771235,-0.29595 -4.588895,1.066679 -8.483688,3.028065 C 87.236577,66.395229 83.394019,68 82.592352,68 78.331343,68 80.311376,57.755241 85.522342,52.840125 87.435054,51.036006 89,49.089219 89,48.51393 89,46.833694 79.059137,40.787762 72,38.174703 53.947765,31.492362 28.435534,36.309685 18.653077,48.247885 13.748644,54.233099 7.2848765,68.13304 5.5152442,76.5 c -1.9029953,8.997511 -1.8997065,24.24377 0.00697,32.33164 2.0281227,8.60301 7.2008658,19.38243 12.9280918,26.94071 8.666374,11.43711 25.178686,22.25468 39.116159,25.62584 8.134716,1.9676 8.166603,1.96493 14.933531,-1.25292 z M 41.943647,103.8947 c -0.619697,-1.15791 -0.853236,-3.5631 -0.518976,-5.344854 0.922695,-4.918386 8.71088,-19.524475 16.105521,-30.204556 9.363964,-13.524375 9.401344,-12.790269 -0.611619,-12.011478 -4.630215,0.36013 -11.563405,1.444848 -15.407088,2.410485 -6.313032,1.586003 -6.989626,1.997344 -7,4.255703 -0.0099,2.159282 -0.516792,2.541955 -3.719149,2.807841 -2.039215,0.169313 -4.680226,-0.212658 -5.868913,-0.848824 -1.826078,-0.977287 -2.087985,-1.806669 -1.688825,-5.348011 0.700097,-6.211243 3.451923,-11.235992 7.092675,-12.951006 8.201797,-3.863541 31.698893,-6.121347 38.155996,-3.666361 3.133441,1.191332 5.930176,7.189136 5.156363,11.058202 -0.29597,1.479851 -3.776724,8.020829 -7.735009,14.535506 C 57.612952,82.234057 54.023645,89.537229 54.009769,92.789838 53.988228,97.839152 47.997651,106 44.312678,106 c -0.683271,0 -1.749335,-0.94738 -2.369031,-2.1053 z m 68.920403,54.02902 c 20.55584,-3.52097 30.19912,-5.58441 31.47403,-6.7347 3.38604,-3.05507 12.81636,-16.2257 12.43562,-17.36791 -0.26019,-0.78057 -4.68214,-1.06178 -14.33551,-0.91166 -9.74467,0.15155 -16.2205,-0.26599 -21.44873,-1.38291 -4.1192,-0.88 -8.69883,-1.85909 -10.17694,-2.17576 -2.41948,-0.51835 -2.96796,-0.0579 -5.5,4.61671 -5.025491,9.27808 -12.081005,17.72485 -19.271871,23.07203 C 80.168292,159.91903 77,162.43812 77,162.6375 c 0,0.89101 6.098767,0.0421 33.86405,-4.71378 z m 140.52603,-6.51991 c 1.38214,-0.53038 11.66432,-23.75348 11.62904,-26.2651 -0.0185,-1.31499 -3.84606,-1.11256 -9.30013,0.49184 C 251.85967,126.17749 240,148.63896 240,151.61345 c 0,1.39536 0.75861,1.54358 5.01218,0.97932 2.7567,-0.36569 5.62675,-0.90072 6.3779,-1.18896 z m -13.06086,-6.67035 c 1.6341,-3.72156 2.74762,-6.98995 2.47448,-7.26309 -0.27314,-0.27314 -2.25321,0.24901 -4.40016,1.16034 -2.14695,0.91134 -5.92854,2.18415 -8.40354,2.82848 -2.475,0.64432 -4.5,1.66511 -4.5,2.2684 0,1.56456 8.71817,8.23963 10.42906,7.98501 0.78598,-0.11696 2.76605,-3.25758 4.40016,-6.97914 z m -80.78137,-1.06194 c 4.90655,-5.06574 5.57035,-5.41058 13.46206,-6.99342 10.17402,-2.04061 11.72305,-1.36807 9.43912,4.09814 -0.82221,1.96782 -1.1285,3.94429 -0.68065,4.39214 0.44786,0.44786 8.44569,-0.54646 17.77295,-2.20959 9.32727,-1.66313 20.75118,-3.70048 25.38647,-4.52746 10.29512,-1.83672 18.76467,-6.12968 23.50408,-11.9135 3.21951,-3.92899 3.96989,-4.30364 11.04294,-5.51352 6.80895,-1.16471 9.53008,-2.33274 8.30007,-3.56276 -0.7546,-0.7546 -24.94624,2.41067 -57.51381,7.52518 -17.46859,2.74333 -34.98297,5.28393 -38.92084,5.64578 -3.93787,0.36185 -7.54872,0.93457 -8.02411,1.2727 C 160.34794,132.57386 150,147.79436 150,148.52979 c 0,1.71849 3.12763,-0.29465 7.54785,-4.85827 z m 0.30332,-15.59187 c 0.9811,-0.52507 2.96415,-4.02029 4.40678,-7.76716 7.62639,-19.80769 8.23503,-36.755507 1.99904,-55.664719 -3.85906,-11.701725 -14.55924,-27.19932 -21.92088,-31.74906 l -3.29734,-2.037866 -8.76938,2.167936 c -10.50899,2.597994 -21.52471,6.844762 -27.43884,10.578189 -5.202793,3.284378 -3.871858,4.076714 3.2802,1.952781 7.58122,-2.251379 10.38506,-2.016183 12.81667,1.075108 2.43649,3.097489 2.64809,6.221985 0.60438,8.924011 -3.77917,4.99652 -1.52253,4.540659 10.19199,-2.05887 C 140.14516,47.62899 143,46.84737 143,49.865141 c 0,2.743235 -3.4637,6.674847 -7.21611,8.19093 -4.98495,2.014068 -24.65444,12.925465 -25.36099,14.06868 -0.34163,0.552761 -0.34456,2.438321 -0.007,4.190134 0.48549,2.515975 2.08623,4.218332 7.61954,8.103244 C 127.82907,91.293858 134,98.085711 134,101.98854 c 0,5.09127 -2.39767,4.78722 -11.49797,-1.45807 -4.59759,-3.155208 -8.77408,-5.480366 -9.28109,-5.167021 -0.507,0.313345 -1.21157,3.997448 -1.56571,8.186891 -0.35413,4.18945 -1.3482,10.33522 -2.20902,13.65726 -0.86083,3.32204 -1.35435,6.5894 -1.09671,7.26079 0.52751,1.37468 6.73735,3.29722 14.76943,4.57253 6.639,1.05413 32.29311,0.34411 34.73224,-0.96127 z M 150,99.603592 c 0,-1.486658 1.32846,-3.562808 3.49934,-5.468868 5.90172,-5.181782 9.05413,-1.322797 3.91177,4.788551 C 154.14621,102.80339 150,103.18399 150,99.603592 Z m 130,25.174658 c 6.34452,-3.06262 10.15521,-5.77362 15.02724,-10.69068 6.28492,-6.34301 12.09462,-15.299043 10.77826,-16.6154 -0.34896,-0.348965 -3.26046,1.507027 -6.46999,4.12443 -3.20953,2.6174 -9.66051,6.49263 -14.33551,8.61162 -4.675,2.11899 -9.625,4.41688 -11,5.10642 -2.62154,1.31466 -5.65095,6.69012 -6.68551,11.86292 -0.56823,2.84116 -0.44525,3.00473 1.78765,2.37744 1.31882,-0.3705 6.22286,-2.52004 10.89786,-4.77675 z m -100.5,1.17218 c 4.4,-0.58758 19.02554,-2.82789 32.50119,-4.97847 13.47565,-2.15058 31.68621,-4.82211 40.4679,-5.93673 12.03718,-1.52783 16.37652,-2.45834 17.63188,-3.78091 C 272.00181,109.2517 277,97.044861 277,94.405131 c 0,-1.55054 -0.26819,-1.501807 -2.31445,0.420555 -3.64835,3.427445 -5.4987,2.802002 -6.78144,-2.292216 l -1.12468,-4.46653 -4.63972,3.854418 c -9.16415,7.613073 -14.71864,8.701752 -19.84164,3.888943 -3.85361,-3.620284 -2.41543,-9.481236 3.7633,-15.336338 1.72609,-1.63568 4.48254,-4.911922 6.12545,-7.280539 4.7011,-6.777671 7.48618,-4.680101 7.70976,5.806576 0.0622,2.915581 -0.6259,5.684011 -1.95421,7.86278 -1.12758,1.849529 -1.80015,3.612776 -1.4946,3.918327 0.30555,0.305551 2.4673,-0.804577 4.80389,-2.466952 2.33659,-1.662374 4.75979,-3.200622 5.3849,-3.418327 0.6251,-0.217705 2.65915,-2.402676 4.52011,-4.85549 1.86095,-2.452815 4.4995,-4.72061 5.86344,-5.039547 3.26002,-0.762305 3.58562,-3.856336 1.50818,-14.331517 -1.8353,-9.254253 -8.62203,-23.889532 -13.96104,-30.106392 l -3.38119,-3.937118 -8.84303,0.217248 C 247.47936,26.962498 222.8,27.94592 197.5,29.028393 c -25.3,1.082473 -46.7875,1.968914 -47.75,1.96987 -2.86017,0.0028 -2.04634,1.859703 3.50243,7.991297 10.46991,11.569619 17.25351,28.350134 18.39781,45.51044 0.72639,10.893133 -0.70372,20.87981 -4.69675,32.79822 -1.62442,4.84856 -2.95349,9.24529 -2.95349,9.77049 0,0.52613 1.68391,0.72931 3.75,0.45248 2.0625,-0.27634 7.35,-0.98319 11.75,-1.57076 z m 7.89161,-25.37229 c -0.8479,-2.209595 1.10699,-4.995134 7.09697,-10.112535 C 199.83815,85.895322 201.44136,83 198.62244,83 c -0.75765,0 -1.90849,-0.639738 -2.55741,-1.421639 -2.60105,-3.134073 4.80891,-9.253573 9.95796,-8.223763 2.58224,0.516449 3.98342,-0.559926 14.92303,-11.46379 12.47992,-12.439145 15.25404,-13.961091 15.86356,-8.703115 0.17028,1.468825 -0.81349,6.327625 -2.18615,10.797332 -2.07384,6.752921 -2.25297,8.201819 -1.05959,8.570858 0.78989,0.244264 2.11116,0.654994 2.93616,0.912732 3.71874,1.161773 0.0859,7.229241 -5.62329,9.391846 -2.85849,1.08278 -4.69576,5.720485 -2.95561,7.460644 0.70909,0.709088 2.21138,0.192544 4.80308,-1.651477 5.70684,-4.060477 5.40759,-1.146753 -0.45677,4.447454 -5.54138,5.286109 -9.40702,6.84187 -11.8867,4.783914 C 218.79326,96.583535 218.85177,93.105375 220.5851,85.75 L 221.23315,83 h -6.21536 c -6.7964,0 -7.1715,0.255468 -15.76286,10.735595 C 196.15392,97.518345 190.37623,102 188.60058,102 c -0.36484,0 -0.90888,-0.63984 -1.20897,-1.42186 z m 38.98847,-32.358593 c 1.04079,-2.904249 1.59568,-5.577119 1.23309,-5.939711 C 226.74097,61.407637 217,71.038257 217,72.772773 c 0,0.945847 1.11684,1.255372 3.74387,1.037592 3.531,-0.292718 3.85147,-0.61061 5.63621,-5.590818 z m 56.08522,39.795323 c 2.54711,-1.09182 6.63754,-3.36558 9.08983,-5.0528 3.95575,-2.72163 4.33312,-3.302364 3.34529,-5.14813 -0.65321,-1.220545 -0.84322,-3.78201 -0.4597,-6.197195 L 295.09444,87.5 l -4.99752,4.913458 c -2.74864,2.702401 -6.03239,4.985103 -7.29722,5.072671 -2.3304,0.161338 -4.93202,4.208591 -6.35833,9.891431 -0.79528,3.16865 -0.0623,3.24619 6.02393,0.63731 z m -31.022,-20.237376 c 1.81137,-2.586097 2.04286,-6.358994 0.45055,-7.343098 -0.60838,-0.376 -2.49433,0.704541 -4.19099,2.401203 -3.02135,3.021357 -3.04685,3.126816 -1.23886,5.12462 2.34065,2.586385 3.05818,2.560054 4.9793,-0.182725 z M 307.75738,87.75 c 4.76208,-5.08767 3.84079,-28.959016 -1.53206,-39.69648 -2.52112,-5.038394 -3.39966,-5.807123 -11.72532,-10.259779 -8.49802,-4.544839 -25.01269,-10.614385 -26.05224,-9.574839 -0.2628,0.2628 1.52151,3.808556 3.96512,7.879458 5.74085,9.563898 9.64129,21.291495 10.26129,30.853056 0.68636,10.584785 0.69578,10.601098 4.69379,8.130187 5.89288,-3.641996 8.76097,-2.181105 6.64488,3.384637 -0.58784,1.546125 -0.85076,3.029178 -0.58426,3.295674 0.2665,0.266495 2.61182,-1.387977 5.21184,-3.676604 4.89039,-4.304695 6.90743,-4.756989 8.67757,-1.945834 0.79389,1.260782 0.29893,2.782405 -2.14282,6.587548 C 303.42883,85.448463 302,88.198198 302,88.837547 c 0,1.958874 3.53006,1.29206 5.75738,-1.087547 z m 20.93686,-9.218399 c 1.9097,-1.680079 2.31793,-2.478491 1.27827,-2.5 C 328.10452,75.992956 324,78.759148 324,80.056704 c 0,1.618776 1.77685,1.041498 4.69424,-1.525103 z M 110.01096,60.75 c 2.53507,-4.157812 2.49519,-4.75 -0.31983,-4.75 -3.81174,0 -6.08714,2.28604 -5.31954,5.344409 0.90116,3.590493 3.23796,3.344186 5.63937,-0.594409 z M 105,38.573778 c 5.4081,-2.782932 11.46483,-4.9214 28.91722,-10.209892 1.99322,-0.603995 0.58177,-1.741198 -6.52416,-5.256489 C 120.62682,19.760148 108.09438,16 103.70436,16 100.17321,16 96.732401,14.242002 97.579837,12.870821 98.785344,10.92027 115.18419,14.12472 125,18.228914 c 2.475,1.034849 7.44947,3.655132 11.05438,5.822852 l 6.55438,3.941308 56.25589,-2.390143 c 30.94074,-1.314578 56.47843,-2.612682 56.75043,-2.884677 0.88626,-0.886259 -8.14277,-7.620257 -15.03225,-11.211298 C 234.22779,8.1944826 233.31162,8 224.0622,8 215.62622,8 213.89963,7.7088863 211.59806,5.8984739 c -2.10395,-1.6549677 -3.51381,-1.9737064 -6.63486,-1.5 -2.17976,0.3308393 -5.77133,0.8745677 -7.98127,1.2082851 -2.39527,0.3617038 -4.5937,1.4285711 -5.44332,2.6415734 -1.40527,2.0063126 -1.94079,2.0248006 -38.23192,1.3199195 C 117.10574,8.8651222 116.47202,8.8175346 114.80001,6.6766785 113.10772,4.5098614 113.09327,4.5090609 111.61091,6.5 110.33989,8.2070958 109.82197,8.3169349 108.07447,7.25 104.54614,5.0957749 98.14615,5.6992356 94.817631,8.5 92.82964,10.172783 90.631112,11.000428 88.173275,11.001295 82.446436,11.003314 65.37649,15.489678 56,19.457152 47.467704,23.067423 33.906859,31.518573 33.260136,33.628689 c -0.245274,0.800274 1.339636,0.732076 5.446968,-0.234379 7.675361,-1.806012 22.474058,-1.75861 29.589702,0.09478 6.361527,1.656968 15.408773,6.006375 20.629378,9.917447 l 3.426184,2.566762 3.073816,-2.027355 C 97.116783,42.830899 101.425,40.413424 105,38.573778 Z M 291.5,28.363367 C 282.20914,19.774795 259.64353,9.92175 249.5201,10.033269 l -3.0201,0.03327 2.15758,1.71673 c 14.39842,11.45644 13.90557,11.170916 23.47794,13.601613 5.15046,1.307851 12.28948,3.742582 15.86448,5.410513 9.43312,4.401065 10.26587,3.822417 3.5,-2.432028 z M 616.38812,173.08038 c -1.16154,-0.50256 -3.07404,-2.13692 -4.25,-3.63192 -5.1767,-6.58111 -0.32779,-15.25841 11.7478,-21.0231 5.39193,-2.57402 5.51516,-2.71791 3.11408,-3.63621 -7.89269,-3.0186 -10.65099,-6.34721 -9.39769,-11.34075 0.90239,-3.59541 6.13906,-8.63652 11.67443,-11.23845 8.50407,-3.99739 23.62253,-5.08392 27.47326,-1.97444 0.6875,0.55516 1.25,2.5228 1.25,4.37254 0,3.10555 -0.45741,3.59406 -5.97148,6.37755 -7.14954,3.60908 -7.2383,3.619 -6.84138,0.7644 0.28596,-2.05657 -0.031,-2.2204 -3.68714,-1.90571 -4.57568,0.39385 -12.86461,3.68519 -14.62613,5.80769 -2.06078,2.48309 0.37575,3.4216 11.02457,4.24646 11.47598,0.88893 13.2094,1.76184 10.80022,5.43871 -1.22281,1.86624 -3.31483,2.82264 -8.89865,4.06813 -9.36259,2.08835 -16.86163,5.5863 -19.69307,9.1859 -2.10701,2.67862 -2.13456,2.91545 -0.48001,4.12529 3.89489,2.84801 15.99084,0.46593 24.73941,-4.87198 5.69441,-3.47442 8.16292,-3.16053 7.1946,0.91483 -1.13265,4.76698 -3.94186,7.64013 -10.91121,11.15954 -5.61262,2.83429 -8.08507,3.47498 -14.45998,3.74706 -4.22936,0.18052 -8.6401,-0.083 -9.80163,-0.58554 z M 312.2,166.8 c -0.66,-0.66 -1.2,-1.62851 -1.2,-2.15225 0,-0.52373 2.76512,-5.26375 6.14472,-10.53336 C 324.01395,143.4036 330,131.97965 330,129.58102 c 0,-2.0666 -1.27593,-1.99445 -5.78984,0.3274 -5.4098,2.78267 -9.548,7.45178 -8.77184,9.89723 0.45477,1.43286 -0.1182,2.58398 -2.03769,4.09385 -3.39912,2.67375 -4.54534,2.63981 -7.22632,-0.21395 -2.90479,-3.09202 -2.74004,-5.60451 0.67684,-10.32137 3.81133,-5.26139 8.59263,-9.18125 14.64885,-12.00958 9.69095,-4.52579 15.14927,-2.18458 14.81873,6.35614 -0.20316,5.24933 -6.16199,18.39672 -12.31116,27.16296 C 321.80341,158.01595 320,161.06915 320,161.65858 320,163.29617 316.01482,168 314.62742,168 313.95234,168 312.86,167.46 312.2,166.8 Z m 406.62815,0.16363 c -2.72867,-1.59221 -3.05573,-5.98905 -0.90952,-12.22712 1.08551,-3.15508 1.62694,-5.73651 1.20319,-5.73651 -0.42375,0 -3.94942,3.3318 -7.83482,7.40401 -3.8854,4.0722 -8.23618,8.17181 -9.6684,9.11024 -3.51499,2.30311 -7.04493,1.28494 -8.60529,-2.48212 -2.13919,-5.16446 -0.31663,-9.19081 10.77239,-23.79801 3.03373,-3.99624 5.24243,-7.53932 4.90823,-7.87352 -0.3342,-0.33421 -4.707,1.50959 -9.71734,4.09733 -5.01033,2.58773 -9.75474,4.45744 -10.54314,4.15491 -3.36321,-1.29059 0.27585,-10.84553 5.56497,-14.61171 4.10177,-2.92072 13.34169,-6.07605 19.72421,-6.7356 4.9091,-0.50729 5.28129,-0.38543 6.19957,2.02984 1.68598,4.43448 -0.2503,9.08675 -8.39138,20.16179 -6.47892,8.81386 -9.10967,13.29733 -8.28583,14.12116 1.23887,1.23888 6.6194,-3.66858 19.8359,-18.09191 14.08779,-15.37416 17.04617,-17.23831 17.74107,-11.17905 0.2374,2.07011 -1.37328,5.48408 -6.1333,13 -7.607,12.0112 -9.35645,15.33214 -9.83417,18.66799 -0.50551,3.52989 2.40931,3.77762 7.19379,0.6114 4.2548,-2.8157 5.95172,-3.22395 5.95172,-1.43191 0,1.77926 -7.94376,8.92372 -11.63862,10.46753 -3.85226,1.60957 -5.25106,1.67294 -7.53323,0.34126 z M 661,165.17431 c 0,-2.2441 4.01941,-6.17431 6.31445,-6.17431 2.43902,0 2.08539,3.27574 -0.6289,5.82569 C 663.85097,167.48863 661,167.66345 661,165.17431 Z m 82,0 c 0,-2.2441 4.01941,-6.17431 6.31445,-6.17431 2.33659,0 2.15137,3.53418 -0.31445,6 -2.54771,2.54771 -6,2.64801 -6,0.17431 z M 469.35866,137.49228 C 468.4425,135.1048 471.70773,131 474.52305,131 c 2.91889,0 3.29834,2.38228 0.92025,5.77749 -1.78106,2.54281 -5.22778,2.94771 -6.08464,0.71479 z M 546,134.86803 c 0,-2.30968 4.26182,-7.96421 5.78052,-7.66952 2.71122,0.52608 2.47838,2.69643 -0.62187,5.79668 C 548.05668,136.09716 546,136.84384 546,134.86803 Z M 416,108.02971 c 0,-3.34119 2.08851,-7.86195 6.94345,-15.02971 3.67314,-5.422965 4.00846,-8.061691 0.92188,-7.254532 -2.70652,0.707771 -2.45389,0.28832 6.91621,-11.483098 6.94377,-8.723286 9.9754,-11.148658 12.20951,-9.767901 1.64225,1.014964 1.13106,2.770616 -2.01887,6.93367 -4.03123,5.327815 -3.92197,7.121559 0.27782,4.560901 3.5589,-2.169906 7.26263,-2.586633 8.28513,-0.932205 1.06104,1.716811 -0.28436,5.369545 -4.02529,10.928545 C 443.57943,88.853959 442,91.380758 442,91.600489 c 0,1.382271 3.23127,-0.106594 6.72897,-3.100489 2.24893,-1.925 4.76216,-3.5 5.58497,-3.5 0.82281,0 2.66346,-1.992089 4.09033,-4.426864 C 461.5155,75.264221 465.4108,72 468.63486,72 c 3.8064,0 2.9597,3.92299 -2.13486,9.891423 -4.98126,5.835702 -5.15924,6.316564 -3.0009,8.107827 1.80273,1.496134 6.32516,-0.04259 9.08359,-3.090625 C 474.74948,84.514352 476,84.473523 476,86.797052 c 0,1.918251 -6.06082,8.229693 -9.68426,10.084715 C 461.20586,99.497775 456,96.52953 456,91 c 0,-1.65 -0.22273,-3 -0.49496,-3 -0.27223,0 -3.3063,2.265394 -6.74236,5.034209 -7.03103,5.665668 -10.75491,7.037451 -15.56884,5.735169 -5.15809,-1.395391 -6.33914,-0.69214 -9.62483,5.731022 -2.18987,4.28097 -3.71354,6.09114 -5.31901,6.31915 -1.91944,0.2726 -2.25,-0.13727 -2.25,-2.78984 z M 437.89641,87.465204 C 441.27136,83.621343 441.77783,82 439.60359,82 c -1.82365,0 -7.82059,6.839869 -7.06659,8.05987 0.9985,1.615598 2.15386,1.056246 5.35941,-2.594666 z M 344.36163,97.5 c -0.83004,-2.16304 0.17109,-4.147718 3.04065,-6.027928 4.68463,-3.069489 6.34814,0.868416 2.14317,5.073383 -2.81418,2.814185 -4.36092,3.099 -5.18382,0.954545 z M 402.2,97.8 c -0.66,-0.66 -1.2,-2.46 -1.2,-4 0,-3.516696 -0.4413,-3.497727 -4.65278,0.2 -4.12644,3.623064 -6.77438,3.803905 -8.86987,0.605771 -4.18128,-6.381433 -2.21991,-12.882129 5.59474,-18.543031 4.865,-3.524187 14.37251,-7.285126 17.34336,-6.860609 3.11761,0.445488 2.97248,7.830903 -0.27659,14.074465 -3.02635,5.815593 -2.04481,7.760369 2.68283,5.315614 1.67832,-0.867893 3.33158,-2.031187 3.67391,-2.585098 0.88386,-1.4301 2.5044,-1.248607 2.5044,0.28048 0,1.518133 -8.53313,9.987397 -11.68426,11.596814 C 404.54343,99.300342 403.6862,99.286199 402.2,97.8 Z m -2.88618,-12.727189 c 2.84083,-2.709954 4.83696,-5.255367 4.43585,-5.656472 C 401.67458,77.34125 391,85.059398 391,88.634859 c 0,2.67419 3.22482,1.292518 8.31382,-3.562048 z M 470,67.654988 c 0,-4.030045 6.09408,-7.716678 7.28154,-4.404988 0.51092,1.424915 -1.04137,4.889711 -2.68124,5.984687 C 472.25462,70.800934 470,70.026716 470,67.654988 Z"
       id="path4489"
       inkscape:connector-curvature="0" />
  </g>
</svg>
