<svg xmlns="http://www.w3.org/2000/svg" version="1.1" id="svg2" width="200" height="50"><g id="g4641" transform="translate(4.39 -111.672) scale(.30227)"><g transform="translate(22.552 262.568)" id="g4487" stroke-width=".96"><path id="path4493" d="M96.48 265.29c-24.683-5.264-46.33-24.002-55.18-47.763l-2.535-6.807-3.782.292c-2.08.161-9.074 2.07-15.54 4.243-6.468 2.172-12.084 3.618-12.48 3.213-.86-.877 6.232-7.486 15.677-14.61 11.044-8.331 21.639-14.213 31.732-17.617 8.066-2.72 11.174-3.257 20.988-3.623 14.31-.533 22.239.857 45.92 8.053 24.943 7.58 35.897 9.97 48.64 10.613 15.775.797 23.02-.547 44.092-8.178 4.882-1.768 5.28-2.155 6.286-6.115 2.218-8.736 8.459-13.947 19.723-16.47 3.42-.766 13.563-1.9 22.539-2.522 19.403-1.342 21.12-1.92 21.12-7.108 0-5.924-3.09-7.615-14.777-8.085-11.331-.455-15.03.864-18.19 6.488-1.146 2.037-2.764 3.966-3.596 4.285-2.345.9-19.911.656-21.416-.297-2.025-1.282-.756-8.106 2.489-13.379 3.196-5.195 9.926-10.045 16.945-12.212 6.82-2.105 28.325-2.918 37.803-1.43 13.073 2.054 21.718 7.154 25.322 14.939 1.574 3.4 1.78 6.512 1.799 27.175.012 13.095.51 26.298 1.136 30.088.933 5.646.893 6.892-.24 7.61-1.642 1.04-21.05 1.153-22.655.133-.627-.399-1.6-1.933-2.16-3.41l-1.022-2.686-2.842 2.024c-10.96 7.805-36.97 9.542-49.696 3.32-7.789-3.81-11.048-8.49-13.216-18.98l-.564-2.725-4.184 3.857c-5.99 5.52-15.22 12.188-23.787 17.18-4.458 2.598-7.65 5.135-8.013 6.367-1.357 4.62-8.662 15.57-14.548 21.81-18.241 19.337-45.727 27.885-71.788 22.327zm30.53-11.45c10.002-2.199 21.48-8.131 28.914-14.943 6.445-5.905 10.742-11.111 9.881-11.972-.266-.266-3.751.19-7.744 1.015-15.517 3.206-29.481 1.336-57.339-7.676C80.16 213.61 65.524 210.24 57.21 210.24c-6.167 0-6.363.402-3.48 7.127 5.141 11.994 17.162 24.658 29.213 30.775 13.403 6.803 29.551 8.891 44.068 5.699zm146.578-54.289c7.722-3.379 11.532-8.593 11.532-15.783 0-2.933-.27-3.39-1.68-2.847-.924.356-5.352 1.068-9.84 1.583-23.127 2.652-25.248 3.312-26.173 8.152-1.488 7.782 5.242 12.365 16.573 11.284 2.904-.277 7.219-1.352 9.588-2.389zm245.272 19.377c-5.367-.83-11.933-3.862-16.3-7.529l-2.88-2.418-.325 2.79c-.561 4.817-1.471 5.189-12.684 5.189-8.15 0-10.697-.323-11.882-1.509-1.332-1.332-1.509-7.239-1.509-50.463 0-31.91.346-49.6.994-50.811.896-1.675 2.095-1.856 12.24-1.842 6.185.008 11.775.35 12.421.761.83.527 1.253 5.348 1.44 16.394l.265 15.647 2.695-2.122c4.543-3.575 12.145-5.929 20.825-6.446 19.536-1.164 34.128 6.682 41.985 22.575 3.58 7.242 3.615 7.427 3.6 18.885-.011 9.803-.35 12.408-2.21 17.045-2.594 6.46-9.256 14.218-15.2 17.702-8.766 5.137-23.052 7.762-33.475 6.152zm13.566-23.14c2.665-1.29 5.336-3.604 6.917-5.994 2.302-3.478 2.577-4.789 2.577-12.275 0-7.903-.167-8.591-2.936-12.07-4.386-5.512-10.004-8.009-18.018-8.009-5.383 0-7.52.486-11.388 2.592-10.61 5.774-13.493 20.759-5.92 30.769 5.795 7.66 18.645 9.888 28.768 4.988zm-213.6 19.86c-.78-.94-1.017-12.01-.837-39.12l.251-37.808h24l.281 2.88c.495 5.065.97 5.743 2.859 4.08 5.779-5.087 19.26-9.36 29.527-9.36 10.738 0 16.108 2.062 22.799 8.752l5.701 5.702 4.121-3.799c7.473-6.888 17.607-10.655 28.663-10.655 17.308 0 28.67 7.973 31.313 21.971.537 2.844.976 16.53.976 30.411 0 21.666-.214 25.454-1.509 26.75-1.912 1.912-21.405 2.21-23.259.356-.833-.833-1.152-7.623-1.152-24.51 0-26.695-.386-28.616-6.324-31.434-5.535-2.626-15.309-2.37-21.145.555-8.448 4.234-8.492 4.39-8.804 30.929-.238 20.285-.473 23.363-1.863 24.412-1.966 1.483-19.717 1.646-22.407.206-1.76-.942-1.857-2.248-1.857-25.007 0-19.146-.283-24.562-1.398-26.717-4.368-8.448-24.3-8.236-32.202.343-2.396 2.6-2.4 2.645-2.88 26.567-.398 19.89-.725 24.116-1.92 24.87-2.363 1.49-21.647 1.176-22.934-.374zM8.64 188.218c0-1.381 19.111-16.358 26.482-20.754 5.624-3.353 6.941-4.69 9.468-9.6 4.536-8.813 8.333-13.79 16.08-21.078 15.022-14.134 31.372-20.593 52.13-20.593 20.736 0 37.11 6.46 52.088 20.552 8.486 7.983 15.484 18.3 19.056 28.094 1.441 3.952 3.205 7.41 3.92 7.685 1.766.677 12.594-2.124 21.338-5.519 3.947-1.533 7.415-2.542 7.707-2.243.972.995-9.906 10.218-19.391 16.442-11.32 7.427-15.856 8.423-31.438 6.901-12.332-1.204-21.787-3.362-41.76-9.531-25.97-8.022-31.057-9.04-45.12-9.039-14.45.002-20.566 1.346-33.12 7.275-4.488 2.12-11.433 4.652-15.434 5.628-4.001.976-10.209 2.878-13.795 4.228-7.157 2.694-8.211 2.893-8.211 1.551zm165.291-16.858c-.17-1.056-1.887-5.16-3.815-9.12-4.734-9.72-16.943-22.119-26.788-27.204-27.285-14.093-60.258-7.734-80.208 15.468-4.14 4.815-4.583 6.513-1.44 5.512 1.188-.38 7.56-.9 14.16-1.16 14.526-.569 22.876.948 48.162 8.749 14.396 4.441 27.914 7.812 38.238 9.535 1.32.22 4.56.342 7.2.27 4.229-.115 4.763-.358 4.491-2.05z" fill="#a2cce7"/><path id="path4491" d="M102.277 264.912c-9.102-1.421-15.729-3.647-24.997-8.395-6.898-3.535-10.397-6.178-17.356-13.112-7.469-7.441-9.394-10.06-13.445-18.285-2.6-5.28-5.252-11.066-5.892-12.857-1.155-3.234-1.2-3.254-5.939-2.692-2.626.31-8.754 1.898-13.618 3.528-4.864 1.63-9.274 2.82-9.8 2.644-1.084-.36 10.965-10.274 19.692-16.2 7.507-5.098 21.633-11.74 29.558-13.9 7.65-2.083 27.47-2.335 36-.458 3.168.698 15.016 4.036 26.329 7.418 28.07 8.392 37.13 10.17 51.911 10.191 12.828.018 21.305-1.463 32.512-5.681 3.375-1.27 6.608-2.153 7.184-1.961 1.591.53-13.785 12.305-22.986 17.602-8.113 4.67-8.154 4.714-12.62 13.326-6.39 12.324-18.323 24.198-30.707 30.558-4.872 2.502-12.12 5.383-16.107 6.403-8.802 2.251-21.972 3.08-29.719 1.87zm27.16-10.107c8.96-2.254 20.696-8.718 27.843-15.335 6.776-6.273 12.404-13.466 11.356-14.514-.335-.335-3.963.201-8.063 1.192-9.162 2.213-24.487 2.213-34.704 0-3.9-.845-15.132-4.12-24.96-7.277-21.296-6.842-32.478-9.399-42.797-9.785-9.621-.36-9.82.18-4.233 11.519 7.362 14.94 22.548 27.939 38.795 33.206 10.99 3.562 25.046 3.942 36.764.994zm110.083-38.172c-13.407-3.487-19.68-12.19-18.463-25.61.655-7.22 2.927-11.167 8.645-15.02 5.809-3.914 10.624-4.887 32.794-6.62 21.665-1.694 22.87-2.166 22.434-8.782-.37-5.632-2.895-7.636-11.341-9-12.523-2.024-20.78.627-24.528 7.873l-1.43 2.766h-22.245l.659-3.6c2.373-12.976 13.914-20.339 34.115-21.765 18.042-1.275 34.77 2.076 41.982 8.408 6.14 5.392 6.39 6.72 7.059 37.597.331 15.312.931 28.812 1.333 30 .73 2.159.722 2.16-10.505 2.16h-11.236l-1.087-2.88c-1.264-3.35-2.732-3.59-6.316-1.038-1.423 1.013-5.378 2.795-8.789 3.96-7.713 2.636-25.674 3.477-33.081 1.55zm34.548-15.884c8.582-3.805 12.012-8.655 12.012-16.987v-4.46l-3.12.551c-1.716.303-9.091 1.221-16.39 2.04-13.544 1.52-18.069 2.939-19.822 6.214-2.616 4.89.219 11.415 6.13 14.108 4.267 1.944 15.205 1.187 21.19-1.466zM516 217.022c-3.859-.94-8.842-3.57-13.098-6.914-1.924-1.511-3.734-2.748-4.022-2.748-.288 0-.658 1.62-.822 3.6l-.298 3.6-11.28.27-11.28.27V114.18l11.76.27 11.76.27.263 16.08c.145 8.844.473 16.08.729 16.08.255 0 2.26-1.3 4.453-2.89 10.728-7.77 29.723-8.588 43.616-1.878 22.303 10.773 28.681 44.303 11.917 62.646-5.528 6.048-11.868 9.704-20.261 11.682-6.382 1.505-18.42 1.804-23.437.582zm13.44-18.416c5.095-1.41 12.396-8.71 13.806-13.806 2.33-8.418.522-16.303-5.075-22.128-11.566-12.037-33.92-7.574-38.99 7.785-1.922 5.823-.712 15.25 2.564 19.978 5.385 7.772 16.882 11.165 27.695 8.171zM319.36 214.4c-.352-.352-.64-16.931-.64-36.842 0-29.81.237-36.4 1.34-37.315.877-.728 4.775-1.017 11.28-.838l9.94.275.48 4.32c.503 4.525 1.748 5.14 4.815 2.38 3.419-3.078 14.334-7.22 21.81-8.277 13.217-1.87 22.227.851 29.458 8.894 2.316 2.576 4.744 4.683 5.396 4.683.653 0 3.103-1.767 5.446-3.926 16.273-15 46.44-13.2 55.263 3.299 2.052 3.837 2.143 5.117 2.423 34.018l.29 30.03-11.33-.27L444 214.56l-.48-25.139-.48-25.139-2.722-2.84c-7.278-7.59-26.079-5.944-32.583 2.854-2.877 3.892-3.488 9.22-3.533 30.824l-.042 19.92h-21.934l-.313-24.24c-.285-22.034-.484-24.522-2.19-27.344-2.373-3.922-7.201-6.263-13.974-6.774-10.064-.76-18.163 3.072-21.829 10.33-2.052 4.06-2.16 5.371-2.16 26.151v21.877h-10.88c-5.984 0-11.168-.288-11.52-.64zm-144.979-46.211c-11.608-29.586-43.207-47.2-73.623-41.039-4.465.905-10.278 2.55-12.918 3.657-11.24 4.714-24.623 15.624-29.91 24.382-1.998 3.312-7.834 6.829-11.61 6.997-3.786.17 2.846-11.475 12.154-21.343 20.685-21.926 51.112-29.176 79.82-19.017 11.03 3.903 17.645 8.217 27.384 17.854 7.648 7.569 9.343 9.89 13.67 18.72 2.716 5.544 5.054 11.376 5.195 12.96.244 2.73.054 2.895-3.653 3.167l-3.91.287z" fill="#409fd2"/><path id="path4489" d="M362.4 254.4c-.326-.528-.136-.96.423-.96.56 0 1.017.432 1.017.96s-.19.96-.423.96c-.233 0-.69-.432-1.017-.96zm12 0c0-.528.432-.96.96-.96s.96.432.96.96-.432.96-.96.96a.963.963 0 01-.96-.96zm24.48 0c-.326-.528-.136-.96.423-.96.56 0 1.017.432 1.017.96s-.19.96-.423.96c-.233 0-.69-.432-1.017-.96zm149.76-13.44c.326-.528.784-.96 1.017-.96.232 0 .423.432.423.96s-.458.96-1.017.96c-.559 0-.75-.432-.423-.96zm-172.8-8.64c-.326-.528-.136-.96.423-.96.56 0 1.017.432 1.017.96s-.19.96-.423.96c-.233 0-.69-.432-1.017-.96zm163.68 0c0-.528.432-.96.96-.96s.96.432.96.96-.432.96-.96.96a.963.963 0 01-.96-.96zm-401.76-5.362c-11.224-1.466-18.623-3.273-35.307-8.62-27.415-8.786-48.366-12.762-53.31-10.116-1.24.664-2.2.717-2.556.141-.8-1.293 3.793-3.474 12.604-5.987 5.969-1.702 10.015-2.15 19.529-2.159 13.963-.013 18.696.932 46.028 9.189 19.053 5.755 33.515 8.934 45.633 10.029l6.701.605-2.247 1.82c-1.236 1.001-3.69 1.82-5.455 1.82-1.763 0-5.568.615-8.456 1.367-5.636 1.468-18.458 2.526-23.164 1.911zm101.28-11.52c-11.897-3.145-16.8-9.565-16.8-21.998 0-9.173 2.143-13.526 8.484-17.234 5.602-3.277 10.705-4.218 31.7-5.845 20.61-1.597 22.925-2.396 23.487-8.109.56-5.695-.526-7.682-5.387-9.85-3.547-1.583-6.494-2.025-13.644-2.047-10.804-.034-14.222 1.351-17.5 7.092l-2.18 3.818-10.424.008-10.424.008.64-2.64c3.09-12.736 11.564-18.455 30.378-20.502 17.542-1.909 36.778 1.314 43.97 7.366 5.958 5.013 6.288 6.805 6.875 37.376.294 15.312.88 28.596 1.303 29.52.706 1.546-.089 1.68-9.92 1.68h-10.686l-.58-2.9c-.319-1.595-.927-3.114-1.352-3.377-.424-.262-3.559 1.055-6.964 2.927-3.406 1.872-9.16 4.032-12.785 4.8-8.323 1.764-21.332 1.721-28.191-.092zm31.82-12.514c6.403-1.797 12.897-6.845 14.865-11.555.723-1.731 1.315-5.368 1.315-8.083v-4.936l-3.6.53c-1.98.291-9.508 1.201-16.728 2.021-7.22.82-14.184 1.893-15.474 2.384-3.302 1.255-6.438 5.587-6.438 8.892 0 10.038 11.574 14.811 26.06 10.747zM516 216.118c-4.444-1.177-10.315-4.469-12.887-7.225-1.28-1.371-3.116-2.493-4.08-2.493-1.405 0-1.753.762-1.753 3.84v3.84h-21.12V115.2h22.08v16.32c0 18.568-.024 18.524 7.116 13.074 5.482-4.185 12.354-5.9 23.124-5.77 17.876.214 31.125 8.848 37.036 24.134 2.854 7.383 3.121 21.335.557 29.14-3.437 10.464-12.383 19.216-23.048 22.55-5.51 1.723-22.568 2.65-27.025 1.47zm18.418-18.942c8.854-5.475 12.63-15.884 9.574-26.395-5.676-19.525-35.798-21.862-44.373-3.444-5.706 12.254-1.2 25.457 10.614 31.106 4.095 1.958 5.904 2.243 12.21 1.928 6.134-.306 8.187-.854 11.975-3.196zm-214.51-19.816l.252-36.72h20.16l.293 4.56c.342 5.338 1.6 5.777 6.292 2.198 5.081-3.876 13.124-7.082 20.708-8.256 13.546-2.096 23.179.878 30.73 9.487l4.667 5.32 4.95-4.451c9.923-8.922 22.234-12.555 35.143-10.371 9.21 1.557 15.88 5.472 19.333 11.347l2.684 4.566.291 29.52.291 29.52H444.48l-.004-24.24c-.003-22.023-.169-24.51-1.807-27.197-2.836-4.651-7.933-6.647-16.91-6.62-8.033.024-11.967 1.35-16.65 5.61-5.062 4.603-5.37 6.217-5.742 30.127l-.347 22.32h-19.833l-.314-23.76c-.288-21.844-.471-24.028-2.267-27.086-2.692-4.582-7.1-6.893-14.24-7.466-11.793-.946-22.224 4.557-24.557 12.955-.55 1.981-1.001 12.978-1.004 24.477l-.005 20.88h-21.143z" fill="#2367af"/></g><g transform="translate(6.334 -1.65)" id="text4499" style="line-height:25px;-inkscape-font-specification:'Noto Color Emoji';text-align:start" aria-label="ACUEDUCTO METROPOLITANO DE BUCARAMANGA S.A E.S.P." font-style="normal" font-variant="normal" font-weight="400" font-stretch="normal" font-size="22.5" font-family="Noto Color Emoji" letter-spacing="0" word-spacing="0" writing-mode="lr-tb" text-anchor="start" fill="#2267ad" fill-opacity="1" stroke="none" stroke-width="1" stroke-linecap="butt" stroke-linejoin="miter" stroke-opacity="1"><path id="path4503" d="M246.901 491.59l-3.01 8.163h6.032zm-1.252-2.186h2.516l6.25 16.402h-2.306l-1.494-4.208h-7.394l-1.494 4.208h-2.34z"/><path id="path4505" d="M268.687 490.667v2.34q-1.12-1.044-2.395-1.56-1.263-.516-2.691-.516-2.813 0-4.307 1.724-1.494 1.714-1.494 4.966 0 3.241 1.494 4.966 1.494 1.714 4.307 1.714 1.428 0 2.691-.516 1.275-.517 2.395-1.56v2.318q-1.164.79-2.472 1.186-1.296.396-2.746.396-3.725 0-5.867-2.274-2.142-2.286-2.142-6.23 0-3.955 2.142-6.229 2.142-2.285 5.867-2.285 1.472 0 2.768.395 1.308.385 2.45 1.165z"/><path id="path4507" d="M271.884 489.404h2.23v9.964q0 2.637.956 3.801.956 1.154 3.098 1.154 2.132 0 3.088-1.154.955-1.164.955-3.8v-9.965h2.23v10.239q0 3.208-1.592 4.845-1.582 1.637-4.68 1.637-3.11 0-4.703-1.637-1.582-1.637-1.582-4.845z"/><path id="path4509" d="M288.616 489.404h10.371v1.867h-8.151v4.856h7.81v1.868h-7.81v5.943h8.35v1.868h-10.57z"/><path id="path4511" d="M305.074 491.227v12.755h2.68q3.395 0 4.966-1.538 1.582-1.538 1.582-4.856 0-3.296-1.582-4.823-1.57-1.538-4.965-1.538zm-2.22-1.823h4.56q4.768 0 6.998 1.988 2.23 1.978 2.23 6.196 0 4.241-2.24 6.23-2.242 1.988-6.988 1.988h-4.56z"/><path id="path4513" d="M319.916 489.404h2.23v9.964q0 2.637.956 3.801.956 1.154 3.099 1.154 2.13 0 3.087-1.154.956-1.164.956-3.8v-9.965h2.23v10.239q0 3.208-1.593 4.845-1.582 1.637-4.68 1.637-3.11 0-4.703-1.637-1.582-1.637-1.582-4.845z"/><path id="path4515" d="M348.931 490.667v2.34q-1.12-1.044-2.395-1.56-1.263-.516-2.691-.516-2.813 0-4.307 1.724-1.494 1.714-1.494 4.966 0 3.241 1.494 4.966 1.494 1.714 4.307 1.714 1.428 0 2.691-.516 1.275-.517 2.395-1.56v2.318q-1.164.79-2.472 1.186-1.296.396-2.746.396-3.725 0-5.867-2.274-2.142-2.286-2.142-6.23 0-3.955 2.142-6.229 2.142-2.285 5.867-2.285 1.472 0 2.768.395 1.308.385 2.45 1.165z"/><path id="path4517" d="M350.107 489.404h13.876v1.867h-5.823v14.535h-2.23v-14.535h-5.823z"/><path id="path4519" d="M372.794 490.909q-2.417 0-3.846 1.801-1.417 1.802-1.417 4.911 0 3.098 1.417 4.9 1.429 1.802 3.846 1.802t3.823-1.802q1.417-1.802 1.417-4.9 0-3.109-1.417-4.91-1.406-1.802-3.823-1.802zm0-1.802q3.45 0 5.515 2.318 2.065 2.307 2.065 6.196 0 3.878-2.065 6.197-2.066 2.307-5.515 2.307-3.461 0-5.537-2.307-2.066-2.308-2.066-6.197 0-3.889 2.066-6.196 2.076-2.318 5.537-2.318z"/><path id="path4521" d="M391.009 489.404h3.307l4.186 11.162 4.207-11.162h3.307v16.402h-2.164v-14.403l-4.23 11.25h-2.23l-4.23-11.25v14.403h-2.153z"/><path id="path4523" d="M410.433 489.404h10.37v1.867h-8.151v4.856h7.811v1.868h-7.811v5.943h8.35v1.868h-10.57z"/><path id="path4525" d="M422.397 489.404h13.876v1.867h-5.823v14.535h-2.23v-14.535h-5.823z"/><path id="path4527" d="M446.204 498.116q.714.241 1.385 1.032.68.791 1.362 2.176l2.252 4.482h-2.384l-2.098-4.208q-.813-1.648-1.582-2.186-.758-.538-2.077-.538h-2.417v6.932h-2.219v-16.402h5.01q2.812 0 4.196 1.175 1.385 1.176 1.385 3.549 0 1.549-.725 2.57-.714 1.022-2.088 1.418zm-5.559-6.889v5.823h2.79q1.605 0 2.418-.736.824-.747.824-2.186 0-1.44-.824-2.165-.813-.736-2.417-.736z"/><path id="path4529" d="M460.728 490.909q-2.417 0-3.845 1.801-1.417 1.802-1.417 4.911 0 3.098 1.417 4.9 1.428 1.802 3.845 1.802 2.417 0 3.823-1.802 1.418-1.802 1.418-4.9 0-3.109-1.418-4.91-1.406-1.802-3.823-1.802zm0-1.802q3.45 0 5.515 2.318 2.066 2.307 2.066 6.196 0 3.878-2.066 6.197-2.065 2.307-5.515 2.307-3.46 0-5.537-2.307-2.065-2.308-2.065-6.197 0-3.889 2.065-6.196 2.077-2.318 5.537-2.318z"/><path id="path4531" d="M474 491.227v6.164h2.79q1.55 0 2.395-.802.846-.802.846-2.286 0-1.472-.846-2.274t-2.395-.802zm-2.22-1.823h5.01q2.758 0 4.164 1.252 1.417 1.241 1.417 3.647 0 2.428-1.417 3.67-1.406 1.241-4.164 1.241H474v6.592h-2.22z"/><path id="path4533" d="M492.017 490.909q-2.417 0-3.845 1.801-1.417 1.802-1.417 4.911 0 3.098 1.417 4.9 1.428 1.802 3.845 1.802 2.417 0 3.824-1.802 1.417-1.802 1.417-4.9 0-3.109-1.417-4.91-1.407-1.802-3.824-1.802zm0-1.802q3.45 0 5.515 2.318 2.066 2.307 2.066 6.196 0 3.878-2.066 6.197-2.065 2.307-5.515 2.307-3.46 0-5.537-2.307-2.065-2.308-2.065-6.197 0-3.889 2.065-6.196 2.077-2.318 5.537-2.318z"/><path id="path4535" d="M503.07 489.404h2.219v14.534h7.987v1.868H503.07z"/><path id="path4537" d="M515.594 489.404h2.22v16.402h-2.22z"/><path id="path4539" d="M519.955 489.404h13.876v1.867h-5.823v14.535h-2.23v-14.535h-5.823z"/><path id="path4541" d="M539.709 491.59l-3.01 8.163h6.031zm-1.253-2.186h2.516l6.252 16.402h-2.308l-1.494-4.208h-7.394l-1.494 4.208h-2.34z"/><path id="path4543" d="M549.608 489.404h2.988l7.273 13.721v-13.721h2.153v16.402h-2.988l-7.273-13.722v13.722h-2.153z"/><path id="path4545" d="M573.096 490.909q-2.417 0-3.845 1.801-1.417 1.802-1.417 4.911 0 3.098 1.417 4.9 1.428 1.802 3.845 1.802 2.417 0 3.824-1.802 1.417-1.802 1.417-4.9 0-3.109-1.417-4.91-1.407-1.802-3.824-1.802zm0-1.802q3.45 0 5.516 2.318 2.065 2.307 2.065 6.196 0 3.878-2.066 6.197-2.065 2.307-5.515 2.307-3.46 0-5.537-2.307-2.065-2.308-2.065-6.197 0-3.889 2.065-6.196 2.077-2.318 5.537-2.318z"/><path id="path4547" d="M243.638 516.227v12.755h2.681q3.395 0 4.966-1.538 1.582-1.538 1.582-4.856 0-3.296-1.582-4.823-1.571-1.538-4.966-1.538zm-2.219-1.823h4.56q4.768 0 6.998 1.988 2.23 1.978 2.23 6.196 0 4.241-2.241 6.23-2.241 1.988-6.988 1.988h-4.559z"/><path id="path4549" d="M258.734 514.404h10.37v1.867h-8.151v4.856h7.811v1.868h-7.811v5.943h8.35v1.868h-10.57z"/><path id="path4551" d="M282.354 522.973v6.01h3.56q1.79 0 2.647-.737.868-.747.868-2.274 0-1.538-.868-2.263-.856-.736-2.647-.736zm0-6.746v4.944h3.285q1.626 0 2.417-.604.802-.615.802-1.868 0-1.241-.802-1.856-.79-.616-2.417-.616zm-2.22-1.823h5.67q2.538 0 3.911 1.054 1.373 1.055 1.373 3 0 1.505-.703 2.395-.703.89-2.065 1.11 1.637.35 2.538 1.471.911 1.11.911 2.78 0 2.197-1.494 3.395-1.494 1.197-4.251 1.197h-5.89z"/><path id="path4553" d="M295.307 514.404h2.23v9.964q0 2.637.956 3.801.956 1.154 3.098 1.154 2.132 0 3.087-1.154.956-1.164.956-3.8v-9.965h2.23v10.239q0 3.208-1.593 4.845-1.582 1.637-4.68 1.637-3.109 0-4.702-1.637-1.582-1.637-1.582-4.845z"/><path id="path4555" d="M324.322 515.667v2.34q-1.12-1.044-2.395-1.56-1.263-.516-2.692-.516-2.812 0-4.306 1.724-1.495 1.714-1.495 4.966 0 3.241 1.495 4.966 1.494 1.714 4.306 1.714 1.429 0 2.692-.516 1.274-.517 2.395-1.56v2.318q-1.165.79-2.472 1.186-1.296.396-2.747.396-3.724 0-5.866-2.274-2.143-2.286-2.143-6.23 0-3.955 2.143-6.229 2.142-2.285 5.866-2.285 1.473 0 2.769.395 1.307.385 2.45 1.165z"/><path id="path4557" d="M333.254 516.59l-3.01 8.163h6.031zM332 514.404h2.516l6.251 16.402h-2.307l-1.494-4.208h-7.394l-1.494 4.208h-2.34z"/><path id="path4559" d="M350.93 523.116q.715.241 1.385 1.032.681.791 1.362 2.176l2.253 4.482h-2.384l-2.099-4.208q-.813-1.648-1.582-2.186-.758-.538-2.076-.538h-2.417v6.932h-2.22v-16.402h5.01q2.813 0 4.197 1.175 1.384 1.176 1.384 3.549 0 1.549-.725 2.57-.714 1.022-2.087 1.418zm-5.558-6.889v5.823h2.79q1.604 0 2.417-.736.824-.747.824-2.186 0-1.44-.824-2.165-.813-.736-2.417-.736z"/><path id="path4561" d="M363.356 516.59l-3.01 8.163h6.032zm-1.252-2.186h2.516l6.251 16.402h-2.307l-1.494-4.208h-7.394l-1.494 4.208h-2.34z"/><path id="path4563" d="M373.255 514.404h3.307l4.186 11.162 4.207-11.162h3.307v16.402h-2.164v-14.403l-4.23 11.25h-2.23l-4.23-11.25v14.403h-2.153z"/><path id="path4565" d="M398.161 516.59l-3.01 8.163h6.031zm-1.252-2.186h2.515l6.252 16.402h-2.307l-1.495-4.208h-7.393l-1.495 4.208h-2.34z"/><path id="path4567" d="M408.06 514.404h2.988l7.273 13.721v-13.721h2.153v16.402h-2.988l-7.273-13.722v13.722h-2.153z"/><path id="path4569" d="M436.075 528.466v-4.405h-3.626v-1.824h5.823v7.042q-1.285.912-2.834 1.384-1.55.462-3.307.462-3.845 0-6.02-2.241-2.165-2.253-2.165-6.263 0-4.02 2.164-6.262 2.176-2.252 6.02-2.252 1.605 0 3.044.395 1.45.396 2.67 1.165v2.362q-1.23-1.044-2.615-1.571-1.384-.527-2.911-.527-3.01 0-4.527 1.68-1.505 1.681-1.505 5.01 0 3.318 1.505 5 1.516 1.68 4.527 1.68 1.175 0 2.098-.198.923-.208 1.659-.637z"/><path id="path4571" d="M447.82 516.59l-3.011 8.163h6.031zm-1.253-2.186h2.516l6.25 16.402h-2.306l-1.494-4.208h-7.394l-1.494 4.208h-2.34z"/><path id="path4573" d="M474.714 514.942v2.164q-1.264-.604-2.384-.9-1.12-.297-2.165-.297-1.812 0-2.801.703-.978.703-.978 2 0 1.087.648 1.647.66.55 2.483.89l1.34.275q2.483.472 3.659 1.67 1.187 1.186 1.187 3.186 0 2.384-1.604 3.614-1.593 1.23-4.68 1.23-1.165 0-2.484-.263-1.307-.264-2.713-.78v-2.285q1.351.758 2.648 1.142 1.296.385 2.548.385 1.901 0 2.934-.747 1.032-.747 1.032-2.131 0-1.209-.747-1.89-.736-.681-2.428-1.022l-1.35-.264q-2.484-.494-3.593-1.549-1.11-1.054-1.11-2.933 0-2.175 1.527-3.428 1.538-1.252 4.23-1.252 1.153 0 2.35.209 1.198.208 2.45.626z"/><path id="path4575" d="M479.361 528.016h2.318v2.79h-2.318z"/><path id="path4577" d="M491.809 516.59l-3.01 8.163h6.03zm-1.253-2.186h2.516l6.251 16.402h-2.307l-1.494-4.208h-7.394l-1.494 4.208h-2.34z"/><path id="path4579" d="M508.87 514.404h10.371v1.867h-8.151v4.856h7.81v1.868h-7.81v5.943h8.35v1.868h-10.57z"/><path id="path4581" d="M523.306 528.016h2.318v2.79h-2.318z"/><path id="path4583" d="M540.104 514.942v2.164q-1.263-.604-2.384-.9-1.12-.297-2.164-.297-1.813 0-2.801.703-.978.703-.978 2 0 1.087.648 1.647.66.55 2.483.89l1.34.275q2.483.472 3.659 1.67 1.186 1.186 1.186 3.186 0 2.384-1.604 3.614-1.593 1.23-4.68 1.23-1.165 0-2.483-.263-1.307-.264-2.714-.78v-2.285q1.352.758 2.648 1.142 1.297.385 2.549.385 1.9 0 2.933-.747t1.033-2.131q0-1.209-.747-1.89-.736-.681-2.428-1.022l-1.351-.264q-2.483-.494-3.593-1.549-1.11-1.054-1.11-2.933 0-2.175 1.528-3.428 1.538-1.252 4.23-1.252 1.153 0 2.35.209 1.198.208 2.45.626z"/><path id="path4585" d="M544.752 528.016h2.318v2.79h-2.318z"/><path id="path4587" d="M553.936 516.227v6.164h2.79q1.55 0 2.396-.802.846-.802.846-2.286 0-1.472-.846-2.274t-2.395-.802zm-2.219-1.823h5.01q2.757 0 4.164 1.252 1.417 1.241 1.417 3.647 0 2.428-1.417 3.67-1.407 1.241-4.164 1.241h-2.79v6.592h-2.22z"/><path id="path4589" d="M561.978 528.016h2.318v2.79h-2.318z"/></g></g></svg>