<?xml version="1.0" encoding="UTF-8" standalone="no"?>
<!-- Created with Inkscape (http://www.inkscape.org/) -->

<svg
   xmlns:dc="http://purl.org/dc/elements/1.1/"
   xmlns:cc="http://creativecommons.org/ns#"
   xmlns:rdf="http://www.w3.org/1999/02/22-rdf-syntax-ns#"
   xmlns:svg="http://www.w3.org/2000/svg"
   xmlns="http://www.w3.org/2000/svg"
   xmlns:sodipodi="http://sodipodi.sourceforge.net/DTD/sodipodi-0.dtd"
   xmlns:inkscape="http://www.inkscape.org/namespaces/inkscape"
   version="1.1"
   id="svg2"
   width="200"
   height="50"
   viewBox="0 0 200 49.999999"
   sodipodi:docname="acueducto.svg"
   inkscape:version="0.92.1 r">
  <metadata
     id="metadata8">
    <rdf:RDF>
      <cc:Work
         rdf:about="">
        <dc:format>image/svg+xml</dc:format>
        <dc:type
           rdf:resource="http://purl.org/dc/dcmitype/StillImage" />
        <dc:title></dc:title>
      </cc:Work>
    </rdf:RDF>
  </metadata>
  <defs
     id="defs6" />
  <sodipodi:namedview
     pagecolor="#ffffff"
     bordercolor="#666666"
     borderopacity="1"
     objecttolerance="10"
     gridtolerance="10"
     guidetolerance="10"
     inkscape:pageopacity="0"
     inkscape:pageshadow="2"
     inkscape:window-width="1364"
     inkscape:window-height="734"
     id="namedview4"
     showgrid="false"
     inkscape:snap-global="false"
     fit-margin-top="0"
     fit-margin-left="0"
     fit-margin-right="0"
     fit-margin-bottom="0"
     inkscape:zoom="2.483165"
     inkscape:cx="43.086127"
     inkscape:cy="29.431125"
     inkscape:window-x="0"
     inkscape:window-y="33"
     inkscape:window-maximized="0"
     inkscape:current-layer="svg2" />
  <g
     id="g4641"
     transform="matrix(0.30227221,0,0,0.30227221,4.3895617,-111.67221)">
    <g
       transform="translate(22.55186,262.56814)"
       id="g4487">
      <path
         sodipodi:nodetypes="sscsscsssscssscsccccccssccscscssccccccsssccssssscscscccscccssscccsccccsscsscscscsssscccccssccscscsscssccsccscssccsssccccsssccsssccsssssscc"
         inkscape:connector-curvature="0"
         id="path4493"
         d="M 96.48,265.29029 C 71.796689,260.02604 50.149397,241.28838 41.300488,217.52749 l -2.535213,-6.80749 -3.782637,0.29244 c -2.080451,0.16084 -9.07369,2.06979 -15.540531,4.24211 -6.46684,2.17232 -12.0828405,3.61824 -12.4799996,3.21317 -0.8591969,-0.87632 6.2330106,-7.48543 15.6781576,-14.61022 11.043467,-8.33047 21.638595,-14.21258 31.731571,-17.61646 8.066249,-2.72036 11.173886,-3.25675 20.988164,-3.62262 14.310039,-0.53348 22.238928,0.85697 45.92028,8.05284 24.94252,7.5791 35.89721,9.96933 48.63972,10.6128 15.77496,0.79663 23.0194,-0.54705 44.09203,-8.17807 4.88216,-1.76797 5.27998,-2.15503 6.28558,-6.11547 2.21802,-8.73543 8.45911,-13.94673 19.72381,-16.46936 3.42022,-0.76593 13.56258,-1.9007 22.53858,-2.52172 19.40292,-1.3424 21.12,-1.92035 21.12,-7.10877 0,-5.92404 -3.09061,-7.61487 -14.77694,-8.08425 -11.33148,-0.45514 -15.02992,0.86387 -18.19054,6.48746 -1.14507,2.03737 -2.76316,3.96573 -3.59575,4.28522 -2.34458,0.8997 -19.91112,0.65638 -21.41621,-0.29664 -2.02478,-1.2821 -0.75513,-8.10683 2.48903,-13.37916 3.1968,-5.19534 9.92661,-10.04519 16.9455,-12.21181 6.82009,-2.10524 28.32478,-2.91869 37.8027,-1.42995 13.07284,2.0534 21.71781,7.15338 25.32218,14.93846 1.57427,3.40026 1.78028,6.51219 1.79895,27.17508 0.0118,13.09488 0.51044,26.29824 1.13622,30.08746 0.93251,5.64661 0.89321,6.89288 -0.24,7.61023 -1.64213,1.03951 -21.05024,1.15344 -22.65508,0.133 -0.62697,-0.39867 -1.59935,-1.93319 -2.16086,-3.41007 l -1.02092,-2.68521 -2.84201,2.02369 c -10.96103,7.80494 -36.97117,9.54196 -49.69668,3.31888 -7.7885,-3.80876 -11.04725,-8.48857 -13.21572,-18.97866 l -0.56342,-2.72561 -4.1844,3.85704 c -5.98967,5.52109 -15.22084,12.18847 -23.78715,17.18071 -4.45778,2.5979 -7.65078,5.13483 -8.01256,6.36624 -1.35716,4.61949 -8.66221,15.57109 -14.54861,21.81097 -18.24114,19.33657 -45.72635,27.88469 -71.78773,22.32654 z m 30.53049,-11.44973 c 10.00127,-2.19934 21.4803,-8.13201 28.9137,-14.94336 6.44496,-5.90563 10.74153,-11.11148 9.88095,-11.97205 -0.26637,-0.26638 -3.75128,0.1905 -7.74425,1.01526 -15.51731,3.20519 -29.4809,1.33572 -57.33857,-7.6766 C 80.158977,213.6113 65.524252,210.24 57.209199,210.24 c -6.167054,0 -6.36326,0.40177 -3.480483,7.12702 5.141361,11.99431 17.16276,24.65817 29.213582,30.77486 13.402755,6.80288 29.551002,8.89109 44.068192,5.69868 z m 146.57755,-54.28914 c 7.72222,-3.37925 11.53196,-8.59348 11.53196,-15.7833 0,-2.93351 -0.26931,-3.38988 -1.68,-2.84693 -0.924,0.35563 -5.352,1.06767 -9.84,1.58232 -23.12737,2.65205 -25.24811,3.31258 -26.17323,8.15208 -1.48774,7.78257 5.24229,12.36497 16.57323,11.2845 2.904,-0.27691 7.21861,-1.35181 9.58804,-2.38867 z M 518.85975,218.928 c -5.36671,-0.82919 -11.93307,-3.86209 -16.29975,-7.52859 l -2.88,-2.41821 -0.32495,2.7894 c -0.56115,4.81704 -1.47126,5.1894 -12.68403,5.1894 -8.15079,0 -10.69715,-0.32328 -11.88245,-1.50857 -1.33199,-1.33198 -1.50857,-7.23899 -1.50857,-50.46311 0,-31.90975 0.34601,-49.60107 0.99377,-50.81143 0.89645,-1.67503 2.09525,-1.85545 12.24,-1.84219 6.18543,0.008 11.7751,0.3507 12.4215,0.76137 0.82965,0.5271 1.25312,5.34799 1.44,16.39372 l 0.26473,15.64705 2.69547,-2.12172 c 4.54221,-3.57539 12.14476,-5.92871 20.82453,-6.44611 19.53562,-1.16449 34.1284,6.68197 41.98476,22.57495 3.57972,7.24161 3.61511,7.42717 3.60108,18.88476 -0.012,9.80284 -0.34999,12.4078 -2.2116,17.04484 -2.59351,6.46012 -9.25526,14.21877 -15.19975,17.70246 -8.76519,5.13675 -23.05195,7.76237 -33.47474,6.15198 z m 13.56633,-23.13935 c 2.66466,-1.28994 5.33548,-3.6046 6.91726,-5.99485 2.30146,-3.47772 2.57666,-4.78872 2.57666,-12.27458 0,-7.90327 -0.16734,-8.59129 -2.93565,-12.07011 -4.38597,-5.51168 -10.00436,-8.00911 -18.01785,-8.00911 -5.38326,0 -7.52016,0.4863 -11.38845,2.59168 -10.60981,5.7746 -13.49283,20.75928 -5.91993,30.76933 5.79526,7.66033 18.64488,9.88813 28.76796,4.98764 z m -213.59979,19.85942 c -0.78073,-0.94072 -1.01771,-12.00971 -0.83755,-39.12 L 318.24,138.72 h 12 12 l 0.28128,2.88 c 0.49467,5.06504 0.96969,5.74299 2.85874,4.08012 5.77856,-5.08671 19.25949,-9.36012 29.52744,-9.36012 10.73729,0 16.10788,2.06174 22.79827,8.75213 l 5.70144,5.70144 4.12098,-3.79859 c 7.47245,-6.88785 17.60643,-10.65498 28.66311,-10.65498 17.30763,0 28.66991,7.97256 31.31255,21.97103 0.5369,2.84407 0.97619,16.52921 0.97619,30.41143 0,21.66582 -0.21365,25.45404 -1.50857,26.74897 -1.91212,1.91213 -21.40505,2.21095 -23.25943,0.35657 -0.83288,-0.83288 -1.152,-7.62285 -1.152,-24.51084 0,-26.69447 -0.38645,-28.61513 -6.32449,-31.43291 -5.53453,-2.62631 -15.30851,-2.36995 -21.14402,0.55457 -8.44802,4.2338 -8.49242,4.3898 -8.80407,30.92905 -0.23822,20.28467 -0.47323,23.36347 -1.86349,24.41213 -1.96564,1.48266 -19.71673,1.64604 -22.40704,0.20623 -1.75988,-0.94187 -1.85689,-2.24836 -1.85689,-25.00768 0,-19.14515 -0.28338,-24.56189 -1.39771,-26.71677 -4.36857,-8.44787 -24.29998,-8.23571 -32.20229,0.34278 -2.39601,2.60102 -2.4008,2.64522 -2.88,26.56719 -0.39843,19.88989 -0.7247,24.11622 -1.92,24.87034 -2.36272,1.49067 -21.64718,1.17615 -22.93371,-0.37402 z M 8.64,188.21749 c 0,-1.38074 19.11134,-16.35782 26.481987,-20.75327 5.623575,-3.35358 6.94132,-4.68964 9.468395,-9.6 4.535542,-8.81299 8.332399,-13.79047 16.07874,-21.0784 15.023116,-14.13407 31.372902,-20.59248 52.130878,-20.59248 20.73588,0 37.10928,6.46027 52.08808,20.55183 8.48571,7.98308 15.48379,18.30026 19.05554,28.09343 1.44154,3.95242 3.20586,7.41066 3.92073,7.68498 1.76519,0.67736 12.59345,-2.12313 21.33778,-5.51857 3.94698,-1.53261 7.41516,-2.54207 7.7071,-2.24323 0.97178,0.99477 -9.90654,10.21834 -19.39152,16.44177 -11.31984,7.42734 -15.85574,8.42314 -31.43771,6.90175 -12.33246,-1.20412 -21.78721,-3.36206 -41.76,-9.53127 -25.96991,-8.0216 -31.056563,-9.04059 -45.12,-9.03868 -14.449451,0.002 -20.565599,1.34539 -33.12,7.27491 -4.488,2.1197 -11.433497,4.65221 -15.434438,5.6278 -4.000942,0.97559 -10.208375,2.87813 -13.794297,4.22787 C 9.6939149,189.35995 8.64,189.55909 8.64,188.21749 Z M 173.93113,171.36 c -0.16987,-1.056 -1.88672,-5.16 -3.81521,-9.12 -4.73346,-9.71973 -16.94276,-22.11881 -26.78746,-27.20381 -27.28515,-14.09335 -60.258078,-7.73457 -80.20846,15.4681 -4.139583,4.81441 -4.58341,6.51305 -1.44,5.51126 1.188,-0.37861 7.56,-0.90012 14.16,-1.15891 14.526153,-0.56959 22.876157,0.94711 48.16183,8.74812 14.39626,4.44146 27.91382,7.81227 38.23817,9.53526 1.32,0.22029 4.56,0.34191 7.2,0.27025 4.22901,-0.11478 4.76326,-0.35866 4.49113,-2.05027 z"
         style="fill:#a2cce7;stroke-width:0.95999998" />
      <path
         sodipodi:nodetypes="csssssccsscscscsscscsccssssscscsssssscccsscscscsscccscccsscccsccccccccsscssccsscccscscscscssscsscccccccscccscccscsccscsscscsscccs"
         inkscape:connector-curvature="0"
         id="path4491"
         d="M 102.27736,264.91191 C 93.174767,263.4907 86.548476,261.26527 77.28,256.51659 70.381755,252.98229 66.882829,250.33908 59.923528,243.40495 52.455125,235.96356 50.530068,233.34542 46.478989,225.12 c -2.600436,-5.28 -5.251846,-11.06585 -5.89202,-12.85745 -1.155365,-3.23342 -1.199189,-3.25328 -5.938836,-2.69194 -2.626186,0.31103 -8.754547,1.89882 -13.618583,3.52842 -4.864035,1.62961 -9.273619,2.81961 -9.799077,2.64446 -1.084296,-0.36143 10.964796,-10.27446 19.691948,-16.20095 7.506541,-5.09759 21.632152,-11.73986 29.557579,-13.89882 7.649713,-2.08386 27.470672,-2.33616 36,-0.45825 3.168,0.69751 15.01593,4.03541 26.32871,7.41756 28.06987,8.39198 37.12954,10.17059 51.91129,10.19132 12.82825,0.0179 21.30531,-1.46343 32.51211,-5.68166 3.37511,-1.27039 6.60775,-2.15274 7.18361,-1.96078 1.59136,0.53045 -13.78452,12.30512 -22.98557,17.60208 -8.11324,4.67072 -8.15442,4.71421 -12.62002,13.32601 -6.39072,12.32434 -18.32275,24.19848 -30.70742,30.55842 -4.87151,2.50169 -12.11945,5.38284 -16.10653,6.40256 -8.80265,2.25133 -21.97228,3.08043 -29.71882,1.87093 z m 27.16022,-10.10665 c 8.95856,-2.25387 20.69588,-8.71861 27.84233,-15.33513 6.77575,-6.27329 12.40381,-13.46642 11.35615,-14.51408 -0.33505,-0.33504 -3.96323,0.2012 -8.06262,1.19165 -9.16253,2.21375 -24.4878,2.21379 -34.70428,1e-4 -3.89996,-0.84504 -15.13196,-4.11981 -24.96,-7.27725 -21.295927,-6.84172 -32.478292,-9.39827 -42.79688,-9.78438 -9.621614,-0.36003 -9.82012,0.18007 -4.233457,11.51852 7.361794,14.94117 22.547879,27.93929 38.795476,33.20594 10.990031,3.5624 25.045581,3.94268 36.763281,0.99463 z M 239.52,216.63282 c -13.40651,-3.48722 -19.67977,-12.18916 -18.46276,-25.61054 0.65456,-7.21864 2.92682,-11.16662 8.6444,-15.01938 5.80888,-3.91429 10.62467,-4.88644 32.79414,-6.62006 21.66497,-1.69417 22.87029,-2.16595 22.43457,-8.78136 -0.371,-5.6328 -2.89523,-7.63614 -11.34134,-9.00098 -12.52251,-2.02355 -20.78091,0.62751 -24.52815,7.87386 l -1.43017,2.76564 h -11.12218 -11.12219 l 0.65835,-3.6 c 2.3729,-12.97557 13.91404,-20.33876 34.11533,-21.76541 18.04178,-1.27413 34.76941,2.07638 41.98168,8.40882 6.14023,5.3912 6.38956,6.71916 7.05885,37.59659 0.33191,15.312 0.93194,28.812 1.33343,30 0.72948,2.15854 0.72239,2.16 -10.50538,2.16 h -11.23536 l -1.08708,-2.88 c -1.26428,-3.34946 -2.73176,-3.59063 -6.31652,-1.03806 -1.42273,1.01307 -5.37741,2.79535 -8.78819,3.96062 -7.7131,2.63512 -25.67477,3.47685 -33.08143,1.55026 z m 34.54804,-15.88401 C 282.65049,196.94412 286.08,192.0942 286.08,183.76188 v -4.4598 l -3.12,0.5511 c -1.716,0.30311 -9.09137,1.22126 -16.38972,2.04036 -13.54453,1.5201 -18.06914,2.93837 -19.82183,6.21329 -2.61694,4.88979 0.21834,11.41512 6.13013,14.10834 4.26658,1.94372 15.20465,1.18678 21.18946,-1.46636 z M 516,217.02233 c -3.85878,-0.93941 -8.84187,-3.56974 -13.09814,-6.91386 -1.92399,-1.51166 -3.73391,-2.74847 -4.02206,-2.74847 -0.28814,0 -0.65797,1.62 -0.82184,3.6 l -0.29796,3.6 -11.28,0.27047 -11.28,0.27046 V 164.64092 114.1809 l 11.76,0.26955 11.76,0.26955 0.26321,16.08 c 0.14477,8.844 0.47251,16.08 0.72832,16.08 0.2558,0 2.26005,-1.30026 4.45388,-2.88947 10.72751,-7.77096 29.72266,-8.58897 43.61539,-1.87826 22.30298,10.77317 28.68138,44.30258 11.91721,62.64526 -5.52841,6.04897 -11.86799,9.70444 -20.26117,11.68284 -6.38174,1.50426 -18.42044,1.8032 -23.43684,0.58196 z m 13.44,-18.41609 c 5.09506,-1.4105 12.39574,-8.71118 13.80624,-13.80624 2.33048,-8.41824 0.52204,-16.30325 -5.07508,-22.12799 -11.56666,-12.03707 -33.92109,-7.57388 -38.98982,7.78453 -1.92186,5.82332 -0.71239,15.25 2.56326,19.97804 5.38509,7.77281 16.88231,11.16511 27.6954,8.17166 z M 319.36,214.4 c -0.352,-0.352 -0.64,-16.9311 -0.64,-36.84245 0,-29.81011 0.23663,-36.39884 1.34016,-37.31469 0.87707,-0.7279 4.77485,-1.01731 11.28,-0.83754 L 341.28,139.68 341.76,144 c 0.50275,4.52478 1.74768,5.13995 4.81496,2.37926 3.41856,-3.07683 14.33425,-7.21899 21.81004,-8.27621 13.21688,-1.86911 22.22674,0.85119 29.45802,8.8941 2.31565,2.57556 4.74398,4.68285 5.39627,4.68285 0.65229,0 3.10265,-1.76671 5.44521,-3.92601 16.274,-15.00084 46.44048,-13.2001 55.26336,3.29887 2.05193,3.83715 2.14307,5.11689 2.42285,34.01804 l 0.29069,30.0309 -11.33069,-0.2709 L 444,214.56 l -0.48,-25.13886 -0.48,-25.13886 -2.7221,-2.83937 c -7.27764,-7.59115 -26.0785,-5.94477 -32.58277,2.85326 -2.87722,3.89187 -3.48798,9.21996 -3.53332,30.82383 l -0.0418,19.92 h -10.96723 -10.96723 l -0.31277,-24.24 c -0.28432,-22.03443 -0.48363,-24.52247 -2.19059,-27.34449 -2.3722,-3.9218 -7.20023,-6.26232 -13.97273,-6.77364 -10.06439,-0.75987 -18.16339,3.07243 -21.82945,10.32929 -2.05172,4.06134 -2.16,5.37229 -2.16,26.15225 V 215.04 h -10.88 c -5.984,0 -11.168,-0.288 -11.52,-0.64 z M 174.38097,168.18896 C 162.7734,138.6032 131.17426,120.98932 100.75784,127.15021 96.293021,128.05456 90.48,129.7003 87.84,130.8074 c -11.240267,4.71368 -24.623362,15.62344 -29.909146,24.38162 -1.998627,3.31159 -7.834386,6.82854 -11.610854,6.99734 -3.785535,0.1692 2.845866,-11.47564 12.154183,-21.34296 20.68451,-21.92666 51.111857,-29.17625 79.819047,-19.01759 11.03012,3.90326 17.64606,8.21673 27.38443,17.85419 7.64786,7.56861 9.34297,9.88995 13.66988,18.72 2.71667,5.544 5.05484,11.376 5.19593,12.96 0.24324,2.73086 0.054,2.89485 -3.65341,3.16689 l -3.90993,0.28688 z"
         style="fill:#409fd2;stroke-width:0.95999998" />
      <path
         inkscape:connector-curvature="0"
         id="path4489"
         d="m 362.4,254.4 c -0.32632,-0.528 -0.13582,-0.96 0.42334,-0.96 0.55916,0 1.01666,0.432 1.01666,0.96 0,0.528 -0.1905,0.96 -0.42334,0.96 -0.23284,0 -0.69034,-0.432 -1.01666,-0.96 z m 12,0 c 0,-0.528 0.432,-0.96 0.96,-0.96 0.528,0 0.96,0.432 0.96,0.96 0,0.528 -0.432,0.96 -0.96,0.96 -0.528,0 -0.96,-0.432 -0.96,-0.96 z m 24.48,0 c -0.32632,-0.528 -0.13582,-0.96 0.42334,-0.96 0.55916,0 1.01666,0.432 1.01666,0.96 0,0.528 -0.1905,0.96 -0.42334,0.96 -0.23284,0 -0.69034,-0.432 -1.01666,-0.96 z m 149.76,-13.44 c 0.32632,-0.528 0.78382,-0.96 1.01666,-0.96 0.23284,0 0.42334,0.432 0.42334,0.96 0,0.528 -0.4575,0.96 -1.01666,0.96 -0.55916,0 -0.74966,-0.432 -0.42334,-0.96 z m -172.8,-8.64 c -0.32632,-0.528 -0.13582,-0.96 0.42334,-0.96 0.55916,0 1.01666,0.432 1.01666,0.96 0,0.528 -0.1905,0.96 -0.42334,0.96 -0.23284,0 -0.69034,-0.432 -1.01666,-0.96 z m 163.68,0 c 0,-0.528 0.432,-0.96 0.96,-0.96 0.528,0 0.96,0.432 0.96,0.96 0,0.528 -0.432,0.96 -0.96,0.96 -0.528,0 -0.96,-0.432 -0.96,-0.96 z m -401.76,-5.36196 c -11.22353,-1.46646 -18.62294,-3.273 -35.30665,-8.61996 -27.415043,-8.78626 -48.366069,-12.76212 -53.309452,-10.1165 -1.241599,0.66448 -2.201141,0.71774 -2.557026,0.1419 -0.799334,-1.29335 3.792687,-3.47482 12.603686,-5.98745 5.969306,-1.70229 10.0159,-2.14959 19.529442,-2.15877 13.962676,-0.0134 18.695866,0.93138 46.02815,9.18826 19.05309,5.7558 33.51473,8.93416 45.63299,10.02916 l 6.70114,0.60551 -2.24749,1.8199 c -1.23613,1.00095 -3.69056,1.81991 -5.4543,1.81991 -1.76375,0 -5.56898,0.61526 -8.45607,1.36726 -5.63619,1.46804 -18.45816,2.52569 -23.16442,1.91078 z m 101.28,-11.52009 c -11.89665,-3.14471 -16.8,-9.56517 -16.8,-21.99795 0,-9.17293 2.14272,-13.52586 8.48355,-17.23434 5.60199,-3.27636 10.70522,-4.21722 31.69984,-5.8444 20.61127,-1.59746 22.92523,-2.39635 23.48734,-8.10901 0.5604,-5.6953 -0.52587,-7.68177 -5.38655,-9.85039 -3.54692,-1.58248 -6.49418,-2.02461 -13.64418,-2.04682 -10.80379,-0.0336 -14.22152,1.35146 -17.49939,7.09156 l -2.18061,3.81862 -10.42407,0.008 -10.42408,0.008 0.6404,-2.64 c 3.0895,-12.7363 11.56374,-18.45561 30.37817,-20.5024 17.54204,-1.90837 36.77767,1.31397 43.96987,7.36581 5.95766,5.01304 6.28724,6.80492 6.87454,37.37659 0.29415,15.312 0.88037,28.596 1.30271,29.52 0.70634,1.54538 -0.0885,1.68 -9.91883,1.68 H 288.912 l -0.57999,-2.89998 c -0.319,-1.59498 -0.92737,-3.11466 -1.35193,-3.37706 -0.42456,-0.26239 -3.55859,1.05466 -6.96451,2.92679 -3.40591,1.87212 -9.15874,4.0323 -12.78407,4.80038 -8.3237,1.76352 -21.33217,1.72099 -28.1915,-0.0922 z m 31.81981,-12.51401 c 6.40297,-1.79659 12.89699,-6.84447 14.86511,-11.55483 0.7233,-1.73109 1.31508,-5.36858 1.31508,-8.08331 v -4.93586 l -3.6,0.52998 c -1.98,0.29148 -9.50775,1.20118 -16.72835,2.02154 -7.22058,0.82037 -14.18385,1.89288 -15.47392,2.38336 -3.30148,1.25522 -6.43773,5.58727 -6.43773,8.89232 0,10.03806 11.57437,14.81121 26.05981,10.7468 z M 516,216.11783 c -4.44356,-1.17701 -10.31486,-4.46835 -12.88734,-7.2244 -1.28004,-1.37139 -3.11604,-2.49343 -4.08,-2.49343 -1.40477,0 -1.75266,0.76221 -1.75266,3.84 v 3.84 H 486.72 476.16 V 164.64 115.2 h 11.04 11.04 v 16.32 c 0,18.56769 -0.0238,18.52387 7.11599,13.07391 5.48199,-4.18449 12.35448,-5.89945 23.12401,-5.77032 17.87581,0.21432 31.125,8.84818 37.03575,24.1344 2.85467,7.38268 3.12152,21.33512 0.55732,29.14057 -3.43735,10.46338 -12.38271,19.21517 -23.04816,22.54942 -5.51048,1.7227 -22.56786,2.65042 -27.02491,1.46985 z m 18.41787,-18.94233 c 8.85403,-5.47402 12.62983,-15.8835 9.5741,-26.39484 -5.67594,-19.52453 -35.7977,-21.86203 -44.37327,-3.44344 -5.7053,12.25383 -1.20006,25.45649 10.61431,31.10545 4.09469,1.95784 5.904,2.24364 12.21024,1.92876 6.13384,-0.30628 8.18708,-0.85427 11.97462,-3.19593 z M 319.9086,177.36 320.16,140.64 h 10.08 10.08 l 0.2926,4.56 c 0.34251,5.33774 1.59989,5.77704 6.29195,2.19822 5.08175,-3.87603 13.12425,-7.08242 20.70827,-8.25598 13.54606,-2.09613 23.17909,0.87774 30.7309,9.48714 l 4.66609,5.31954 4.95059,-4.451 c 9.92298,-8.92163 22.23317,-12.55464 35.14246,-10.37135 9.2105,1.55772 15.87956,5.47217 19.33342,11.34788 l 2.68372,4.56555 0.29121,29.52 0.29121,29.52 H 455.09121 444.48 l -0.004,-24.24 c -0.003,-22.02273 -0.16852,-24.51047 -1.80666,-27.19684 -2.83655,-4.65161 -7.93328,-6.64702 -16.90975,-6.62029 -8.03339,0.0239 -11.96771,1.34931 -16.65121,5.60942 -5.06111,4.60359 -5.36876,6.21812 -5.74097,30.12771 l -0.34746,22.32 h -9.91631 -9.91632 l -0.31387,-23.76 c -0.28855,-21.84433 -0.47141,-24.02817 -2.26782,-27.08604 -2.69183,-4.582 -7.09881,-6.89259 -14.2394,-7.46577 -11.79295,-0.94663 -22.22469,4.55663 -24.55707,12.95507 -0.55008,1.98072 -1.00127,12.97811 -1.00421,24.47674 l -0.005,20.88 h -10.5714 -10.57142 z"
         style="fill:#2367af;stroke-width:0.95999998" />
    </g>
    <g
       transform="translate(6.3336199,-1.6503813)"
       id="text4499"
       style="font-style:normal;font-variant:normal;font-weight:normal;font-stretch:normal;font-size:22.5px;line-height:25px;font-family:'Noto Color Emoji';-inkscape-font-specification:'Noto Color Emoji';text-align:start;letter-spacing:0px;word-spacing:0px;writing-mode:lr-tb;text-anchor:start;fill:#2267ad;fill-opacity:1;stroke:none;stroke-width:1px;stroke-linecap:butt;stroke-linejoin:miter;stroke-opacity:1"
       aria-label="ACUEDUCTO METROPOLITANO DE BUCARAMANGA S.A E.S.P.">
      <path
         inkscape:connector-curvature="0"
         id="path4503"
         d="m 246.90129,491.58981 -3.01025,8.16285 h 6.03149 z m -1.25244,-2.18628 h 2.51587 l 6.25122,16.40259 h -2.30713 l -1.49414,-4.20776 h -7.3938 l -1.49414,4.20776 h -2.34009 z" />
      <path
         inkscape:connector-curvature="0"
         id="path4505"
         d="m 268.68718,490.66696 v 2.34009 q -1.12061,-1.0437 -2.39502,-1.56006 -1.26343,-0.51636 -2.69165,-0.51636 -2.8125,0 -4.30664,1.72486 -1.49414,1.71386 -1.49414,4.96582 0,3.24096 1.49414,4.96582 1.49414,1.71386 4.30664,1.71386 1.42822,0 2.69165,-0.51635 1.27441,-0.51636 2.39502,-1.56006 v 2.31811 q -1.16455,0.79102 -2.47192,1.18653 -1.29639,0.39551 -2.74659,0.39551 -3.72436,0 -5.8667,-2.27417 -2.14233,-2.28516 -2.14233,-6.22925 0,-3.95508 2.14233,-6.22925 2.14234,-2.28516 5.8667,-2.28516 1.47217,0 2.76856,0.39551 1.30737,0.38452 2.44995,1.16455 z" />
      <path
         inkscape:connector-curvature="0"
         id="path4507"
         d="m 271.8842,489.40353 h 2.23023 v 9.9646 q 0,2.63672 0.95581,3.80127 0.95581,1.15357 3.09814,1.15357 2.13135,0 3.08716,-1.15357 0.95581,-1.16455 0.95581,-3.80127 v -9.9646 h 2.23022 v 10.23926 q 0,3.20801 -1.59301,4.84497 -1.58203,1.63697 -4.68018,1.63697 -3.10913,0 -4.70215,-1.63697 -1.58203,-1.63696 -1.58203,-4.84497 z" />
      <path
         inkscape:connector-curvature="0"
         id="path4509"
         d="m 288.61638,489.40353 h 10.37109 v 1.86768 h -8.15185 v 4.85596 h 7.81128 v 1.86767 h -7.81128 v 5.94361 h 8.34961 v 1.86767 h -10.56885 z" />
      <path
         inkscape:connector-curvature="0"
         id="path4511"
         d="m 305.0739,491.22726 v 12.75513 h 2.68066 q 3.39478,0 4.96582,-1.53808 1.58203,-1.53809 1.58203,-4.85596 0,-3.2959 -1.58203,-4.823 -1.57104,-1.53809 -4.96582,-1.53809 z m -2.21924,-1.82373 h 4.55933 q 4.76806,0 6.99829,1.98853 2.23022,1.97754 2.23022,6.19629 0,4.24072 -2.24121,6.22925 -2.24121,1.98852 -6.9873,1.98852 h -4.55933 z" />
      <path
         inkscape:connector-curvature="0"
         id="path4513"
         d="m 319.91643,489.40353 h 2.23022 v 9.9646 q 0,2.63672 0.95581,3.80127 0.95581,1.15357 3.09815,1.15357 2.13134,0 3.08716,-1.15357 0.95581,-1.16455 0.95581,-3.80127 v -9.9646 h 2.23022 v 10.23926 q 0,3.20801 -1.59302,4.84497 -1.58203,1.63697 -4.68017,1.63697 -3.10913,0 -4.70215,-1.63697 -1.58203,-1.63696 -1.58203,-4.84497 z" />
      <path
         inkscape:connector-curvature="0"
         id="path4515"
         d="m 348.93132,490.66696 v 2.34009 q -1.12061,-1.0437 -2.39502,-1.56006 -1.26343,-0.51636 -2.69165,-0.51636 -2.8125,0 -4.30664,1.72486 -1.49414,1.71386 -1.49414,4.96582 0,3.24096 1.49414,4.96582 1.49414,1.71386 4.30664,1.71386 1.42822,0 2.69165,-0.51635 1.27441,-0.51636 2.39502,-1.56006 v 2.31811 q -1.16455,0.79102 -2.47192,1.18653 -1.29639,0.39551 -2.74659,0.39551 -3.72436,0 -5.86669,-2.27417 -2.14234,-2.28516 -2.14234,-6.22925 0,-3.95508 2.14234,-6.22925 2.14233,-2.28516 5.86669,-2.28516 1.47217,0 2.76856,0.39551 1.30737,0.38452 2.44995,1.16455 z" />
      <path
         inkscape:connector-curvature="0"
         id="path4517"
         d="m 350.10686,489.40353 h 13.87573 v 1.86768 h -5.82275 v 14.53491 h -2.23023 v -14.53491 h -5.82275 z" />
      <path
         inkscape:connector-curvature="0"
         id="path4519"
         d="m 372.79362,490.90866 q -2.41699,0 -3.84521,1.80176 -1.41724,1.80176 -1.41724,4.91089 0,3.09814 1.41724,4.8999 1.42822,1.80176 3.84521,1.80176 2.417,0 3.82325,-1.80176 1.41723,-1.80176 1.41723,-4.8999 0,-3.10913 -1.41723,-4.91089 -1.40625,-1.80176 -3.82325,-1.80176 z m 0,-1.80176 q 3.44971,0 5.51514,2.31812 2.06543,2.30713 2.06543,6.19629 0,3.87817 -2.06543,6.19629 -2.06543,2.30713 -5.51514,2.30713 -3.46069,0 -5.5371,-2.30713 -2.06543,-2.30713 -2.06543,-6.19629 0,-3.88916 2.06543,-6.19629 2.07641,-2.31812 5.5371,-2.31812 z" />
      <path
         inkscape:connector-curvature="0"
         id="path4521"
         d="m 391.00896,489.40353 h 3.30688 l 4.18579,11.16211 4.20777,-11.16211 h 3.30688 v 16.40259 h -2.16431 v -14.40307 l -4.22973,11.25 h -2.23023 l -4.22973,-11.25 v 14.40307 h -2.15332 z" />
      <path
         inkscape:connector-curvature="0"
         id="path4523"
         d="m 410.43279,489.40353 h 10.37109 v 1.86768 h -8.15186 v 4.85596 h 7.81128 v 1.86767 h -7.81128 v 5.94361 h 8.34961 v 1.86767 h -10.56884 z" />
      <path
         inkscape:connector-curvature="0"
         id="path4525"
         d="m 422.3969,489.40353 h 13.87573 v 1.86768 h -5.82276 v 14.53491 h -2.23022 v -14.53491 h -5.82275 z" />
      <path
         inkscape:connector-curvature="0"
         id="path4527"
         d="m 446.20427,498.11569 q 0.71411,0.2417 1.38428,1.03272 0.68115,0.79101 1.3623,2.17529 l 2.2522,4.48242 h -2.38403 l -2.09839,-4.20776 q -0.81299,-1.64795 -1.58203,-2.18628 -0.75806,-0.53833 -2.07642,-0.53833 h -2.41699 v 6.93237 h -2.21924 v -16.40259 h 5.00976 q 2.8125,0 4.19678,1.17554 1.38428,1.17554 1.38428,3.54859 0,1.54907 -0.7251,2.5708 -0.71411,1.02172 -2.0874,1.41723 z m -5.55908,-6.88843 v 5.82276 h 2.79052 q 1.60401,0 2.417,-0.73609 0.82397,-0.74707 0.82397,-2.18627 0,-1.43921 -0.82397,-2.16431 -0.81299,-0.73609 -2.417,-0.73609 z" />
      <path
         inkscape:connector-curvature="0"
         id="path4529"
         d="m 460.7282,490.90866 q -2.417,0 -3.84522,1.80176 -1.41724,1.80176 -1.41724,4.91089 0,3.09814 1.41724,4.8999 1.42822,1.80176 3.84522,1.80176 2.41699,0 3.82324,-1.80176 1.41723,-1.80176 1.41723,-4.8999 0,-3.10913 -1.41723,-4.91089 -1.40625,-1.80176 -3.82324,-1.80176 z m 0,-1.80176 q 3.4497,0 5.51513,2.31812 2.06543,2.30713 2.06543,6.19629 0,3.87817 -2.06543,6.19629 -2.06543,2.30713 -5.51513,2.30713 -3.4607,0 -5.53711,-2.30713 -2.06543,-2.30713 -2.06543,-6.19629 0,-3.88916 2.06543,-6.19629 2.07641,-2.31812 5.53711,-2.31812 z" />
      <path
         inkscape:connector-curvature="0"
         id="path4531"
         d="m 473.99968,491.22726 v 6.16333 h 2.79053 q 1.54907,0 2.39502,-0.802 0.84594,-0.802 0.84594,-2.28515 0,-1.47217 -0.84594,-2.27417 -0.84595,-0.80201 -2.39502,-0.80201 z m -2.21924,-1.82373 h 5.00977 q 2.75757,0 4.16382,1.25245 1.41723,1.24145 1.41723,3.64746 0,2.42797 -1.41723,3.66943 -1.40625,1.24145 -4.16382,1.24145 h -2.79053 v 6.5918 h -2.21924 z" />
      <path
         inkscape:connector-curvature="0"
         id="path4533"
         d="m 492.01726,490.90866 q -2.41699,0 -3.84522,1.80176 -1.41723,1.80176 -1.41723,4.91089 0,3.09814 1.41723,4.8999 1.42823,1.80176 3.84522,1.80176 2.41699,0 3.82324,-1.80176 1.41724,-1.80176 1.41724,-4.8999 0,-3.10913 -1.41724,-4.91089 -1.40625,-1.80176 -3.82324,-1.80176 z m 0,-1.80176 q 3.4497,0 5.51513,2.31812 2.06543,2.30713 2.06543,6.19629 0,3.87817 -2.06543,6.19629 -2.06543,2.30713 -5.51513,2.30713 -3.4607,0 -5.53711,-2.30713 -2.06543,-2.30713 -2.06543,-6.19629 0,-3.88916 2.06543,-6.19629 2.07641,-2.31812 5.53711,-2.31812 z" />
      <path
         inkscape:connector-curvature="0"
         id="path4535"
         d="m 503.0695,489.40353 h 2.21924 v 14.53492 h 7.98706 v 1.86767 h -10.2063 z" />
      <path
         inkscape:connector-curvature="0"
         id="path4537"
         d="m 515.59392,489.40353 h 2.21924 v 16.40259 h -2.21924 z" />
      <path
         inkscape:connector-curvature="0"
         id="path4539"
         d="m 519.95549,489.40353 h 13.87573 v 1.86768 h -5.82275 v 14.53491 h -2.23023 v -14.53491 h -5.82275 z" />
      <path
         inkscape:connector-curvature="0"
         id="path4541"
         d="m 539.70891,491.58981 -3.01026,8.16285 h 6.0315 z m -1.25244,-2.18628 h 2.51587 l 6.25122,16.40259 h -2.30713 l -1.49414,-4.20776 h -7.3938 l -1.49414,4.20776 h -2.34009 z" />
      <path
         inkscape:connector-curvature="0"
         id="path4543"
         d="m 549.60759,489.40353 h 2.98828 l 7.27295,13.72193 v -13.72193 h 2.15332 v 16.40259 h -2.98828 l -7.27295,-13.72192 v 13.72192 h -2.15332 z" />
      <path
         inkscape:connector-curvature="0"
         id="path4545"
         d="m 573.09636,490.90866 q -2.41699,0 -3.84522,1.80176 -1.41723,1.80176 -1.41723,4.91089 0,3.09814 1.41723,4.8999 1.42823,1.80176 3.84522,1.80176 2.41699,0 3.82324,-1.80176 1.41724,-1.80176 1.41724,-4.8999 0,-3.10913 -1.41724,-4.91089 -1.40625,-1.80176 -3.82324,-1.80176 z m 0,-1.80176 q 3.44971,0 5.51514,2.31812 2.06543,2.30713 2.06543,6.19629 0,3.87817 -2.06543,6.19629 -2.06543,2.30713 -5.51514,2.30713 -3.46069,0 -5.53711,-2.30713 -2.06543,-2.30713 -2.06543,-6.19629 0,-3.88916 2.06543,-6.19629 2.07642,-2.31812 5.53711,-2.31812 z" />
      <path
         inkscape:connector-curvature="0"
         id="path4547"
         d="m 243.63835,516.22727 v 12.75512 h 2.68067 q 3.39477,0 4.96582,-1.53808 1.58203,-1.53809 1.58203,-4.85596 0,-3.2959 -1.58203,-4.823 -1.57105,-1.53808 -4.96582,-1.53808 z m -2.21924,-1.82373 h 4.55933 q 4.76807,0 6.99829,1.98852 2.23022,1.97754 2.23022,6.19629 0,4.24072 -2.24121,6.22925 -2.24121,1.98852 -6.9873,1.98852 h -4.55933 z" />
      <path
         inkscape:connector-curvature="0"
         id="path4549"
         d="m 258.73357,514.40354 h 10.37109 v 1.86767 h -8.15186 v 4.85596 h 7.81128 v 1.86767 h -7.81128 v 5.94361 h 8.34961 v 1.86767 h -10.56884 z" />
      <path
         inkscape:connector-curvature="0"
         id="path4551"
         d="m 282.35417,522.97287 v 6.00952 h 3.55957 q 1.79077,0 2.64771,-0.73608 0.86792,-0.74707 0.86792,-2.27417 0,-1.53809 -0.86792,-2.26318 -0.85694,-0.73609 -2.64771,-0.73609 z m 0,-6.7456 v 4.94384 h 3.28491 q 1.62598,0 2.417,-0.60424 0.802,-0.61524 0.802,-1.86768 0,-1.24146 -0.802,-1.85669 -0.79102,-0.61523 -2.417,-0.61523 z m -2.21924,-1.82373 h 5.66895 q 2.53784,0 3.91113,1.05468 1.37329,1.05469 1.37329,2.99927 0,1.50513 -0.70312,2.39502 -0.70313,0.88989 -2.06543,1.10962 1.63696,0.35156 2.53784,1.47217 0.91186,1.10962 0.91186,2.77954 0,2.19726 -1.49414,3.39477 -1.49414,1.19751 -4.2517,1.19751 h -5.88868 z" />
      <path
         inkscape:connector-curvature="0"
         id="path4553"
         d="m 295.30705,514.40354 h 2.23023 v 9.96459 q 0,2.63672 0.95581,3.80127 0.95581,1.15357 3.09814,1.15357 2.13135,0 3.08716,-1.15357 0.95581,-1.16455 0.95581,-3.80127 v -9.96459 h 2.23023 v 10.23925 q 0,3.20801 -1.59302,4.84497 -1.58203,1.63697 -4.68018,1.63697 -3.10913,0 -4.70215,-1.63697 -1.58203,-1.63696 -1.58203,-4.84497 z" />
      <path
         inkscape:connector-curvature="0"
         id="path4555"
         d="m 324.32195,515.66696 v 2.34009 q -1.12061,-1.0437 -2.39502,-1.56006 -1.26343,-0.51636 -2.69165,-0.51636 -2.8125,0 -4.30665,1.72486 -1.49414,1.71387 -1.49414,4.96582 0,3.24097 1.49414,4.96582 1.49415,1.71387 4.30665,1.71387 1.42822,0 2.69165,-0.51636 1.27441,-0.51636 2.39502,-1.56006 v 2.31812 q -1.16456,0.79101 -2.47193,1.18652 -1.29639,0.39551 -2.74658,0.39551 -3.72437,0 -5.8667,-2.27417 -2.14233,-2.28516 -2.14233,-6.22925 0,-3.95508 2.14233,-6.22925 2.14233,-2.28516 5.8667,-2.28516 1.47217,0 2.76855,0.39551 1.30738,0.38452 2.44996,1.16455 z" />
      <path
         inkscape:connector-curvature="0"
         id="path4557"
         d="m 333.25383,516.58981 -3.01025,8.16285 h 6.03149 z m -1.25244,-2.18627 h 2.51587 l 6.25122,16.40258 h -2.30713 l -1.49414,-4.20776 h -7.3938 l -1.49414,4.20776 h -2.34009 z" />
      <path
         inkscape:connector-curvature="0"
         id="path4559"
         d="m 350.93083,523.11569 q 0.71411,0.2417 1.38428,1.03272 0.68115,0.79101 1.3623,2.17529 l 2.2522,4.48242 h -2.38403 l -2.09839,-4.20776 q -0.81299,-1.64795 -1.58203,-2.18628 -0.75806,-0.53833 -2.07642,-0.53833 h -2.41699 v 6.93237 h -2.21924 v -16.40258 h 5.00977 q 2.8125,0 4.19677,1.17553 1.38428,1.17554 1.38428,3.54859 0,1.54907 -0.7251,2.5708 -0.71411,1.02173 -2.0874,1.41723 z m -5.55908,-6.88842 v 5.82275 h 2.79053 q 1.604,0 2.41699,-0.73608 0.82397,-0.74707 0.82397,-2.18628 0,-1.43921 -0.82397,-2.16431 -0.81299,-0.73608 -2.41699,-0.73608 z" />
      <path
         inkscape:connector-curvature="0"
         id="path4561"
         d="m 363.35637,516.58981 -3.01025,8.16285 h 6.03149 z m -1.25244,-2.18627 h 2.51587 l 6.25122,16.40258 h -2.30713 l -1.49414,-4.20776 h -7.3938 l -1.49414,4.20776 h -2.34009 z" />
      <path
         inkscape:connector-curvature="0"
         id="path4563"
         d="m 373.25505,514.40354 h 3.30689 l 4.18579,11.1621 4.20776,-11.1621 h 3.30688 v 16.40258 h -2.1643 v -14.40307 l -4.22974,11.25 h -2.23022 l -4.22974,-11.25 v 14.40307 h -2.15332 z" />
      <path
         inkscape:connector-curvature="0"
         id="path4565"
         d="m 398.16106,516.58981 -3.01026,8.16285 h 6.0315 z m -1.25244,-2.18627 h 2.51586 l 6.25122,16.40258 h -2.30712 l -1.49414,-4.20776 h -7.3938 l -1.49414,4.20776 h -2.34009 z" />
      <path
         inkscape:connector-curvature="0"
         id="path4567"
         d="m 408.05974,514.40354 h 2.98828 l 7.27295,13.72192 v -13.72192 h 2.15332 v 16.40258 h -2.98828 l -7.27295,-13.72192 v 13.72192 h -2.15332 z" />
      <path
         inkscape:connector-curvature="0"
         id="path4569"
         d="m 436.07487,528.46604 v -4.40552 h -3.62548 v -1.82373 h 5.82275 v 7.04223 q -1.2854,0.91187 -2.83447,1.38428 -1.54907,0.46143 -3.30689,0.46143 -3.84521,0 -6.0205,-2.24121 -2.16431,-2.2522 -2.16431,-6.26221 0,-4.021 2.16431,-6.26221 2.17529,-2.2522 6.0205,-2.2522 1.60401,0 3.04322,0.39551 1.45019,0.39551 2.66967,1.16455 v 2.36206 q -1.23047,-1.0437 -2.61474,-1.57104 -1.38428,-0.52735 -2.91138,-0.52735 -3.01025,0 -4.52637,1.68091 -1.50512,1.68091 -1.50512,5.00977 0,3.31787 1.50512,4.99878 1.51612,1.68091 4.52637,1.68091 1.17554,0 2.09839,-0.19776 0.92285,-0.20874 1.65893,-0.6372 z" />
      <path
         inkscape:connector-curvature="0"
         id="path4571"
         d="m 447.81926,516.58981 -3.01025,8.16285 h 6.03149 z m -1.25244,-2.18627 h 2.51587 l 6.25122,16.40258 h -2.30713 l -1.49414,-4.20776 h -7.3938 l -1.49414,4.20776 h -2.34009 z" />
      <path
         inkscape:connector-curvature="0"
         id="path4573"
         d="m 474.71379,514.94187 v 2.1643 q -1.26343,-0.60425 -2.38403,-0.90088 -1.12061,-0.29663 -2.16431,-0.29663 -1.81274,0 -2.80151,0.70313 -0.97779,0.70312 -0.97779,1.99951 0,1.08765 0.6482,1.64795 0.65918,0.54931 2.48291,0.88989 l 1.34033,0.27466 q 2.48291,0.47241 3.65845,1.66992 1.18652,1.18652 1.18652,3.18604 0,2.38403 -1.604,3.6145 -1.59302,1.23047 -4.68018,1.23047 -1.16455,0 -2.48291,-0.26368 -1.30737,-0.26367 -2.71362,-0.78002 v -2.28516 q 1.35132,0.75806 2.6477,1.14258 1.29639,0.38452 2.54883,0.38452 1.90064,0 2.93335,-0.74707 1.03272,-0.74707 1.03272,-2.13135 0,-1.2085 -0.74708,-1.88965 -0.73608,-0.68115 -2.42797,-1.02173 l -1.35132,-0.26367 q -2.48291,-0.49438 -3.59253,-1.54907 -1.10962,-1.05469 -1.10962,-2.93335 0,-2.17529 1.5271,-3.42773 1.53809,-1.25245 4.22974,-1.25245 1.15356,0 2.35107,0.20874 1.19751,0.20874 2.44995,0.62623 z" />
      <path
         inkscape:connector-curvature="0"
         id="path4575"
         d="m 479.36101,528.0156 h 2.31811 v 2.79052 h -2.31811 z" />
      <path
         inkscape:connector-curvature="0"
         id="path4577"
         d="m 491.80852,516.58981 -3.01026,8.16285 h 6.0315 z m -1.25244,-2.18627 h 2.51587 l 6.25122,16.40258 h -2.30713 l -1.49414,-4.20776 h -7.3938 l -1.49414,4.20776 h -2.34009 z" />
      <path
         inkscape:connector-curvature="0"
         id="path4579"
         d="m 508.87029,514.40354 h 10.37109 v 1.86767 h -8.15186 v 4.85596 h 7.81128 v 1.86767 h -7.81128 v 5.94361 h 8.34961 v 1.86767 h -10.56884 z" />
      <path
         inkscape:connector-curvature="0"
         id="path4581"
         d="m 523.30632,528.0156 h 2.31812 v 2.79052 h -2.31812 z" />
      <path
         inkscape:connector-curvature="0"
         id="path4583"
         d="m 540.10442,514.94187 v 2.1643 q -1.26343,-0.60425 -2.38404,-0.90088 -1.1206,-0.29663 -2.1643,-0.29663 -1.81275,0 -2.80152,0.70313 -0.97778,0.70312 -0.97778,1.99951 0,1.08765 0.64819,1.64795 0.65918,0.54931 2.48291,0.88989 l 1.34033,0.27466 q 2.48291,0.47241 3.65845,1.66992 1.18653,1.18652 1.18653,3.18604 0,2.38403 -1.60401,3.6145 -1.59302,1.23047 -4.68017,1.23047 -1.16456,0 -2.48291,-0.26368 -1.30738,-0.26367 -2.71363,-0.78002 v -2.28516 q 1.35132,0.75806 2.64771,1.14258 1.29638,0.38452 2.54883,0.38452 1.90063,0 2.93335,-0.74707 1.03271,-0.74707 1.03271,-2.13135 0,-1.2085 -0.74707,-1.88965 -0.73608,-0.68115 -2.42798,-1.02173 l -1.35132,-0.26367 q -2.48291,-0.49438 -3.59253,-1.54907 -1.10962,-1.05469 -1.10962,-2.93335 0,-2.17529 1.5271,-3.42773 1.53809,-1.25245 4.22974,-1.25245 1.15356,0 2.35107,0.20874 1.19751,0.20874 2.44996,0.62623 z" />
      <path
         inkscape:connector-curvature="0"
         id="path4585"
         d="m 544.75163,528.0156 h 2.31812 v 2.79052 h -2.31812 z" />
      <path
         inkscape:connector-curvature="0"
         id="path4587"
         d="m 553.9362,516.22727 v 6.16333 h 2.79053 q 1.54907,0 2.39502,-0.80201 0.84595,-0.802 0.84595,-2.28515 0,-1.47217 -0.84595,-2.27417 -0.84595,-0.802 -2.39502,-0.802 z m -2.21924,-1.82373 h 5.00977 q 2.75757,0 4.16382,1.25244 1.41724,1.24145 1.41724,3.64746 0,2.42798 -1.41724,3.66943 -1.40625,1.24146 -4.16382,1.24146 h -2.79053 v 6.59179 h -2.21924 z" />
      <path
         inkscape:connector-curvature="0"
         id="path4589"
         d="m 561.9782,528.0156 h 2.31811 v 2.79052 h -2.31811 z" />
    </g>
  </g>
</svg>
