<?xml version="1.0" encoding="UTF-8" standalone="no"?>
<svg
   xmlns:dc="http://purl.org/dc/elements/1.1/"
   xmlns:cc="http://creativecommons.org/ns#"
   xmlns:rdf="http://www.w3.org/1999/02/22-rdf-syntax-ns#"
   xmlns:svg="http://www.w3.org/2000/svg"
   xmlns="http://www.w3.org/2000/svg"
   xmlns:sodipodi="http://sodipodi.sourceforge.net/DTD/sodipodi-0.dtd"
   xmlns:inkscape="http://www.inkscape.org/namespaces/inkscape"
   version="1.1"
   id="svg2"
   width="100"
   height="100"
   sodipodi:docname="acueducto.svg"
   inkscape:version="1.0 (4035a4fb49, 2020-05-01)">
  <metadata
     id="metadata57">
    <rdf:RDF>
      <cc:Work
         rdf:about="">
        <dc:format>image/svg+xml</dc:format>
        <dc:type
           rdf:resource="http://purl.org/dc/dcmitype/StillImage" />
        <dc:title></dc:title>
      </cc:Work>
    </rdf:RDF>
  </metadata>
  <defs
     id="defs55" />
  <sodipodi:namedview
     inkscape:document-rotation="0"
     pagecolor="#ffffff"
     bordercolor="#666666"
     borderopacity="1"
     objecttolerance="10"
     gridtolerance="10"
     guidetolerance="10"
     inkscape:pageopacity="0"
     inkscape:pageshadow="2"
     inkscape:window-width="1364"
     inkscape:window-height="734"
     id="namedview53"
     showgrid="false"
     inkscape:zoom="2.5852621"
     inkscape:cx="116.72854"
     inkscape:cy="13.895857"
     inkscape:window-x="0"
     inkscape:window-y="33"
     inkscape:window-maximized="0"
     inkscape:current-layer="svg2" />
  <g
     style="stroke-width:1.79031"
     id="g4641"
     transform="matrix(0.16883693,0,0,0.16883693,-2.6391051,-22.668106)">
    <g
       transform="translate(22.552,262.568)"
       id="g4487"
       stroke-width="1.7187">
      <path
         style="stroke-width:3.07699"
         id="path4493"
         d="m 38.765,210.72 -3.782,0.292 c -2.08,0.161 -9.074,2.07 -15.54,4.243 -6.468,2.172 -12.084,3.618 -12.48,3.213 -0.86,-0.877 6.232,-7.486 15.677,-14.61 11.044,-8.331 21.639,-14.213 31.732,-17.617 8.066,-2.72 11.174,-3.257 20.988,-3.623 14.31,-0.533 22.239,0.857 45.92,8.053 24.943,7.58 35.897,9.97 48.64,10.613 15.775,0.797 23.02,-0.547 44.092,-8.178 1.15894,-0.97335 1.71677,3.4742 0.604,4.5 -5.99,5.52 -15.22,12.188 -23.787,17.18 -4.458,2.598 -7.65,5.135 -8.013,6.367 C 121.74522,214.40948 58.814797,202.73141 38.765,210.72 Z M 8.64,188.218 c 0,-1.381 19.111,-16.358 26.482,-20.754 5.624,-3.353 6.941,-4.69 9.468,-9.6 4.536,-8.813 8.333,-13.79 16.08,-21.078 15.022,-14.134 31.372,-20.593 52.13,-20.593 20.736,0 37.11,6.46 52.088,20.552 8.486,7.983 15.484,18.3 19.056,28.094 1.441,3.952 3.205,7.41 3.92,7.685 1.766,0.677 12.594,-2.124 21.338,-5.519 3.947,-1.533 7.415,-2.542 7.707,-2.243 0.972,0.995 -9.906,10.218 -19.391,16.442 -11.32,7.427 -15.856,8.423 -31.438,6.901 -12.332,-1.204 -21.787,-3.362 -41.76,-9.531 -25.97,-8.022 -31.057,-9.04 -45.12,-9.039 -14.45,0.002 -20.566,1.346 -33.12,7.275 -4.488,2.12 -11.433,4.652 -15.434,5.628 -4.001,0.976 -10.209,2.878 -13.795,4.228 -7.157,2.694 -8.211,2.893 -8.211,1.551 z M 173.931,171.36 c -0.17,-1.056 -1.887,-5.16 -3.815,-9.12 -4.734,-9.72 -16.943,-22.119 -26.788,-27.204 -27.285,-14.093 -60.258,-7.734 -80.208,15.468 -4.14,4.815 -4.583,6.513 -1.44,5.512 1.188,-0.38 7.56,-0.9 14.16,-1.16 14.526,-0.569 22.876,0.948 48.162,8.749 14.396,4.441 27.914,7.812 38.238,9.535 1.32,0.22 4.56,0.342 7.2,0.27 4.229,-0.115 4.763,-0.358 4.491,-2.05 z"
         fill="#a2cce7"
         sodipodi:nodetypes="ccccccccccccccccccsccccccccccsccccccccccccc" />
      <path
         style="stroke-width:3.07699"
         id="path4491"
         d="m 102.277,264.912 c -9.102,-1.421 -15.729,-3.647 -24.997,-8.395 -6.898,-3.535 -10.397,-6.178 -17.356,-13.112 -7.469,-7.441 -9.394,-10.06 -13.445,-18.285 -2.6,-5.28 -5.252,-11.066 -5.892,-12.857 -1.155,-3.234 -1.2,-3.254 -5.939,-2.692 -2.626,0.31 -8.754,1.898 -13.618,3.528 -4.864,1.63 -9.274,2.82 -9.8,2.644 -1.084,-0.36 10.965,-10.274 19.692,-16.2 7.507,-5.098 21.633,-11.74 29.558,-13.9 7.65,-2.083 27.47,-2.335 36,-0.458 3.168,0.698 15.016,4.036 26.329,7.418 28.07,8.392 37.13,10.17 51.911,10.191 12.828,0.018 21.305,-1.463 32.512,-5.681 3.375,-1.27 6.608,-2.153 7.184,-1.961 1.591,0.53 -13.785,12.305 -22.986,17.602 -8.113,4.67 -8.154,4.714 -12.62,13.326 -6.39,12.324 -18.323,24.198 -30.707,30.558 -4.872,2.502 -12.12,5.383 -16.107,6.403 -8.802,2.251 -21.972,3.08 -29.719,1.87 z m 27.16,-10.107 c 8.96,-2.254 20.696,-8.718 27.843,-15.335 6.776,-6.273 12.404,-13.466 11.356,-14.514 -0.335,-0.335 -3.963,0.201 -8.063,1.192 -9.162,2.213 -24.487,2.213 -34.704,0 -3.9,-0.845 -15.132,-4.12 -24.96,-7.277 -21.296,-6.842 -32.478,-9.399 -42.797,-9.785 -9.621,-0.36 -9.82,0.18 -4.233,11.519 7.362,14.94 22.548,27.939 38.795,33.206 10.99,3.562 25.046,3.942 36.764,0.994 z m 44.944,-86.616 c -11.608,-29.586 -43.207,-47.2 -73.623,-41.039 -4.465,0.905 -10.278,2.55 -12.918,3.657 -11.24,4.714 -24.623,15.624 -29.91,24.382 -1.998,3.312 -7.834,6.829 -11.61,6.997 -3.786,0.17 2.846,-11.475 12.154,-21.343 20.685,-21.926 51.112,-29.176 79.82,-19.017 11.03,3.903 17.645,8.217 27.384,17.854 7.648,7.569 9.343,9.89 13.67,18.72 2.716,5.544 5.054,11.376 5.195,12.96 0.244,2.73 0.054,2.895 -3.653,3.167 l -3.91,0.287 z"
         fill="#409fd2"
         sodipodi:nodetypes="ccccccsccccccccccccccccsccccccccccccccccccccc" />
      <path
         style="stroke-width:3.07699"
         id="path4489"
         d="m 362.4,254.4 c -0.326,-0.528 -0.136,-0.96 0.423,-0.96 0.56,0 1.017,0.432 1.017,0.96 0,0.528 -0.19,0.96 -0.423,0.96 -0.233,0 -0.69,-0.432 -1.017,-0.96 z m 12,0 c 0,-0.528 0.432,-0.96 0.96,-0.96 0.528,0 0.96,0.432 0.96,0.96 0,0.528 -0.432,0.96 -0.96,0.96 a 0.963,0.963 0 0 1 -0.96,-0.96 z m 24.48,0 c -0.326,-0.528 -0.136,-0.96 0.423,-0.96 0.56,0 1.017,0.432 1.017,0.96 0,0.528 -0.19,0.96 -0.423,0.96 -0.233,0 -0.69,-0.432 -1.017,-0.96 z m 149.76,-13.44 c 0.326,-0.528 0.784,-0.96 1.017,-0.96 0.232,0 0.423,0.432 0.423,0.96 0,0.528 -0.458,0.96 -1.017,0.96 -0.559,0 -0.75,-0.432 -0.423,-0.96 z m -172.8,-8.64 c -0.326,-0.528 -0.136,-0.96 0.423,-0.96 0.56,0 1.017,0.432 1.017,0.96 0,0.528 -0.19,0.96 -0.423,0.96 -0.233,0 -0.69,-0.432 -1.017,-0.96 z m 163.68,0 c 0,-0.528 0.432,-0.96 0.96,-0.96 0.528,0 0.96,0.432 0.96,0.96 0,0.528 -0.432,0.96 -0.96,0.96 a 0.963,0.963 0 0 1 -0.96,-0.96 z m -401.76,-5.362 c -11.224,-1.466 -18.623,-3.273 -35.307,-8.62 -27.415,-8.786 -48.366,-12.762 -53.31,-10.116 -1.24,0.664 -2.2,0.717 -2.556,0.141 -0.8,-1.293 3.793,-3.474 12.604,-5.987 5.969,-1.702 10.015,-2.15 19.529,-2.159 13.963,-0.013 18.696,0.932 46.028,9.189 19.053,5.755 33.515,8.934 45.633,10.029 l 6.701,0.605 -2.247,1.82 c -1.236,1.001 -3.69,1.82 -5.455,1.82 -1.763,0 -5.568,0.615 -8.456,1.367 -5.636,1.468 -18.458,2.526 -23.164,1.911 z m 101.28,-11.52 c -11.897,-3.145 -16.8,-9.565 -16.8,-21.998 0,-9.173 2.143,-13.526 8.484,-17.234 5.602,-3.277 10.705,-4.218 31.7,-5.845 20.61,-1.597 22.925,-2.396 23.487,-8.109 0.56,-5.695 -0.526,-7.682 -5.387,-9.85 -3.547,-1.583 -6.494,-2.025 -13.644,-2.047 -10.804,-0.034 -14.222,1.351 -17.5,7.092 l -2.18,3.818 -10.424,0.008 -10.424,0.008 0.64,-2.64 c 3.09,-12.736 11.564,-18.455 30.378,-20.502 17.542,-1.909 36.778,1.314 43.97,7.366 5.958,5.013 6.288,6.805 6.875,37.376 0.294,15.312 0.88,28.596 1.303,29.52 0.706,1.546 -0.089,1.68 -9.92,1.68 h -10.686 l -0.58,-2.9 c -0.319,-1.595 -0.927,-3.114 -1.352,-3.377 -0.424,-0.262 -3.559,1.055 -6.964,2.927 -3.406,1.872 -9.16,4.032 -12.785,4.8 -8.323,1.764 -21.332,1.721 -28.191,-0.092 z m 31.82,-12.514 c 6.403,-1.797 12.897,-6.845 14.865,-11.555 0.723,-1.731 1.315,-5.368 1.315,-8.083 v -4.936 l -3.6,0.53 c -1.98,0.291 -9.508,1.201 -16.728,2.021 -7.22,0.82 -14.184,1.893 -15.474,2.384 -3.302,1.255 -6.438,5.587 -6.438,8.892 0,10.038 11.574,14.811 26.06,10.747 z M 516,216.118 c -4.444,-1.177 -10.315,-4.469 -12.887,-7.225 -1.28,-1.371 -3.116,-2.493 -4.08,-2.493 -1.405,0 -1.753,0.762 -1.753,3.84 v 3.84 H 476.16 V 115.2 h 22.08 v 16.32 c 0,18.568 -0.024,18.524 7.116,13.074 5.482,-4.185 12.354,-5.9 23.124,-5.77 17.876,0.214 31.125,8.848 37.036,24.134 2.854,7.383 3.121,21.335 0.557,29.14 -3.437,10.464 -12.383,19.216 -23.048,22.55 -5.51,1.723 -22.568,2.65 -27.025,1.47 z m 18.418,-18.942 c 8.854,-5.475 12.63,-15.884 9.574,-26.395 -5.676,-19.525 -35.798,-21.862 -44.373,-3.444 -5.706,12.254 -1.2,25.457 10.614,31.106 4.095,1.958 5.904,2.243 12.21,1.928 6.134,-0.306 8.187,-0.854 11.975,-3.196 z m -214.51,-19.816 0.252,-36.72 h 20.16 l 0.293,4.56 c 0.342,5.338 1.6,5.777 6.292,2.198 5.081,-3.876 13.124,-7.082 20.708,-8.256 13.546,-2.096 23.179,0.878 30.73,9.487 l 4.667,5.32 4.95,-4.451 c 9.923,-8.922 22.234,-12.555 35.143,-10.371 9.21,1.557 15.88,5.472 19.333,11.347 l 2.684,4.566 0.291,29.52 0.291,29.52 H 444.48 l -0.004,-24.24 c -0.003,-22.023 -0.169,-24.51 -1.807,-27.197 -2.836,-4.651 -7.933,-6.647 -16.91,-6.62 -8.033,0.024 -11.967,1.35 -16.65,5.61 -5.062,4.603 -5.37,6.217 -5.742,30.127 l -0.347,22.32 h -19.833 l -0.314,-23.76 c -0.288,-21.844 -0.471,-24.028 -2.267,-27.086 -2.692,-4.582 -7.1,-6.893 -14.24,-7.466 -11.793,-0.946 -22.224,4.557 -24.557,12.955 -0.55,1.981 -1.001,12.978 -1.004,24.477 l -0.005,20.88 h -21.143 z"
         fill="#2367af" />
    </g>
    <g
       transform="translate(6.334,-1.65)"
       id="text4499"
       style="line-height:25px;-inkscape-font-specification:'Noto Color Emoji';text-align:start"
       aria-label="ACUEDUCTO METROPOLITANO DE BUCARAMANGA S.A E.S.P."
       font-style="normal"
       font-variant="normal"
       font-weight="400"
       font-stretch="normal"
       font-size="22.5px"
       font-family="'Noto Color Emoji'"
       letter-spacing="0"
       word-spacing="0"
       writing-mode="lr-tb"
       text-anchor="start"
       fill="#2267ad"
       fill-opacity="1"
       stroke="none"
       stroke-width="1.79031"
       stroke-linecap="butt"
       stroke-linejoin="miter"
       stroke-opacity="1">
      <path
         style="stroke-width:1.79031"
         id="path4503"
         d="m 246.901,491.59 -3.01,8.163 h 6.032 z m -1.252,-2.186 h 2.516 l 6.25,16.402 h -2.306 l -1.494,-4.208 h -7.394 l -1.494,4.208 h -2.34 z" />
      <path
         style="stroke-width:1.79031"
         id="path4505"
         d="m 268.687,490.667 v 2.34 q -1.12,-1.044 -2.395,-1.56 -1.263,-0.516 -2.691,-0.516 -2.813,0 -4.307,1.724 -1.494,1.714 -1.494,4.966 0,3.241 1.494,4.966 1.494,1.714 4.307,1.714 1.428,0 2.691,-0.516 1.275,-0.517 2.395,-1.56 v 2.318 q -1.164,0.79 -2.472,1.186 -1.296,0.396 -2.746,0.396 -3.725,0 -5.867,-2.274 -2.142,-2.286 -2.142,-6.23 0,-3.955 2.142,-6.229 2.142,-2.285 5.867,-2.285 1.472,0 2.768,0.395 1.308,0.385 2.45,1.165 z" />
      <path
         style="stroke-width:1.79031"
         id="path4507"
         d="m 271.884,489.404 h 2.23 v 9.964 q 0,2.637 0.956,3.801 0.956,1.154 3.098,1.154 2.132,0 3.088,-1.154 0.955,-1.164 0.955,-3.8 v -9.965 h 2.23 v 10.239 q 0,3.208 -1.592,4.845 -1.582,1.637 -4.68,1.637 -3.11,0 -4.703,-1.637 -1.582,-1.637 -1.582,-4.845 z" />
      <path
         style="stroke-width:1.79031"
         id="path4509"
         d="m 288.616,489.404 h 10.371 v 1.867 h -8.151 v 4.856 h 7.81 v 1.868 h -7.81 v 5.943 h 8.35 v 1.868 h -10.57 z" />
      <path
         style="stroke-width:1.79031"
         id="path4511"
         d="m 305.074,491.227 v 12.755 h 2.68 q 3.395,0 4.966,-1.538 1.582,-1.538 1.582,-4.856 0,-3.296 -1.582,-4.823 -1.57,-1.538 -4.965,-1.538 z m -2.22,-1.823 h 4.56 q 4.768,0 6.998,1.988 2.23,1.978 2.23,6.196 0,4.241 -2.24,6.23 -2.242,1.988 -6.988,1.988 h -4.56 z" />
      <path
         style="stroke-width:1.79031"
         id="path4513"
         d="m 319.916,489.404 h 2.23 v 9.964 q 0,2.637 0.956,3.801 0.956,1.154 3.099,1.154 2.13,0 3.087,-1.154 0.956,-1.164 0.956,-3.8 v -9.965 h 2.23 v 10.239 q 0,3.208 -1.593,4.845 -1.582,1.637 -4.68,1.637 -3.11,0 -4.703,-1.637 -1.582,-1.637 -1.582,-4.845 z" />
      <path
         style="stroke-width:1.79031"
         id="path4515"
         d="m 348.931,490.667 v 2.34 q -1.12,-1.044 -2.395,-1.56 -1.263,-0.516 -2.691,-0.516 -2.813,0 -4.307,1.724 -1.494,1.714 -1.494,4.966 0,3.241 1.494,4.966 1.494,1.714 4.307,1.714 1.428,0 2.691,-0.516 1.275,-0.517 2.395,-1.56 v 2.318 q -1.164,0.79 -2.472,1.186 -1.296,0.396 -2.746,0.396 -3.725,0 -5.867,-2.274 -2.142,-2.286 -2.142,-6.23 0,-3.955 2.142,-6.229 2.142,-2.285 5.867,-2.285 1.472,0 2.768,0.395 1.308,0.385 2.45,1.165 z" />
      <path
         style="stroke-width:1.79031"
         id="path4517"
         d="m 350.107,489.404 h 13.876 v 1.867 h -5.823 v 14.535 h -2.23 v -14.535 h -5.823 z" />
      <path
         style="stroke-width:1.79031"
         id="path4519"
         d="m 372.794,490.909 q -2.417,0 -3.846,1.801 -1.417,1.802 -1.417,4.911 0,3.098 1.417,4.9 1.429,1.802 3.846,1.802 2.417,0 3.823,-1.802 1.417,-1.802 1.417,-4.9 0,-3.109 -1.417,-4.91 -1.406,-1.802 -3.823,-1.802 z m 0,-1.802 q 3.45,0 5.515,2.318 2.065,2.307 2.065,6.196 0,3.878 -2.065,6.197 -2.066,2.307 -5.515,2.307 -3.461,0 -5.537,-2.307 -2.066,-2.308 -2.066,-6.197 0,-3.889 2.066,-6.196 2.076,-2.318 5.537,-2.318 z" />
      <path
         style="stroke-width:1.79031"
         id="path4521"
         d="m 391.009,489.404 h 3.307 l 4.186,11.162 4.207,-11.162 h 3.307 v 16.402 h -2.164 v -14.403 l -4.23,11.25 h -2.23 l -4.23,-11.25 v 14.403 h -2.153 z" />
      <path
         style="stroke-width:1.79031"
         id="path4523"
         d="m 410.433,489.404 h 10.37 v 1.867 h -8.151 v 4.856 h 7.811 v 1.868 h -7.811 v 5.943 h 8.35 v 1.868 h -10.57 z" />
      <path
         style="stroke-width:1.79031"
         id="path4525"
         d="m 422.397,489.404 h 13.876 v 1.867 h -5.823 v 14.535 h -2.23 v -14.535 h -5.823 z" />
      <path
         style="stroke-width:1.79031"
         id="path4527"
         d="m 446.204,498.116 q 0.714,0.241 1.385,1.032 0.68,0.791 1.362,2.176 l 2.252,4.482 h -2.384 l -2.098,-4.208 q -0.813,-1.648 -1.582,-2.186 -0.758,-0.538 -2.077,-0.538 h -2.417 v 6.932 h -2.219 v -16.402 h 5.01 q 2.812,0 4.196,1.175 1.385,1.176 1.385,3.549 0,1.549 -0.725,2.57 -0.714,1.022 -2.088,1.418 z m -5.559,-6.889 v 5.823 h 2.79 q 1.605,0 2.418,-0.736 0.824,-0.747 0.824,-2.186 0,-1.44 -0.824,-2.165 -0.813,-0.736 -2.417,-0.736 z" />
      <path
         style="stroke-width:1.79031"
         id="path4529"
         d="m 460.728,490.909 q -2.417,0 -3.845,1.801 -1.417,1.802 -1.417,4.911 0,3.098 1.417,4.9 1.428,1.802 3.845,1.802 2.417,0 3.823,-1.802 1.418,-1.802 1.418,-4.9 0,-3.109 -1.418,-4.91 -1.406,-1.802 -3.823,-1.802 z m 0,-1.802 q 3.45,0 5.515,2.318 2.066,2.307 2.066,6.196 0,3.878 -2.066,6.197 -2.065,2.307 -5.515,2.307 -3.46,0 -5.537,-2.307 -2.065,-2.308 -2.065,-6.197 0,-3.889 2.065,-6.196 2.077,-2.318 5.537,-2.318 z" />
      <path
         style="stroke-width:1.79031"
         id="path4531"
         d="m 474,491.227 v 6.164 h 2.79 q 1.55,0 2.395,-0.802 0.846,-0.802 0.846,-2.286 0,-1.472 -0.846,-2.274 -0.846,-0.802 -2.395,-0.802 z m -2.22,-1.823 h 5.01 q 2.758,0 4.164,1.252 1.417,1.241 1.417,3.647 0,2.428 -1.417,3.67 -1.406,1.241 -4.164,1.241 H 474 v 6.592 h -2.22 z" />
      <path
         style="stroke-width:1.79031"
         id="path4533"
         d="m 492.017,490.909 q -2.417,0 -3.845,1.801 -1.417,1.802 -1.417,4.911 0,3.098 1.417,4.9 1.428,1.802 3.845,1.802 2.417,0 3.824,-1.802 1.417,-1.802 1.417,-4.9 0,-3.109 -1.417,-4.91 -1.407,-1.802 -3.824,-1.802 z m 0,-1.802 q 3.45,0 5.515,2.318 2.066,2.307 2.066,6.196 0,3.878 -2.066,6.197 -2.065,2.307 -5.515,2.307 -3.46,0 -5.537,-2.307 -2.065,-2.308 -2.065,-6.197 0,-3.889 2.065,-6.196 2.077,-2.318 5.537,-2.318 z" />
      <path
         style="stroke-width:1.79031"
         id="path4535"
         d="m 503.07,489.404 h 2.219 v 14.534 h 7.987 v 1.868 H 503.07 Z" />
      <path
         style="stroke-width:1.79031"
         id="path4537"
         d="m 515.594,489.404 h 2.22 v 16.402 h -2.22 z" />
      <path
         style="stroke-width:1.79031"
         id="path4539"
         d="m 519.955,489.404 h 13.876 v 1.867 h -5.823 v 14.535 h -2.23 v -14.535 h -5.823 z" />
      <path
         style="stroke-width:1.79031"
         id="path4541"
         d="m 539.709,491.59 -3.01,8.163 h 6.031 z m -1.253,-2.186 h 2.516 l 6.252,16.402 h -2.308 l -1.494,-4.208 h -7.394 l -1.494,4.208 h -2.34 z" />
      <path
         style="stroke-width:1.79031"
         id="path4543"
         d="m 549.608,489.404 h 2.988 l 7.273,13.721 v -13.721 h 2.153 v 16.402 h -2.988 l -7.273,-13.722 v 13.722 h -2.153 z" />
      <path
         style="stroke-width:1.79031"
         id="path4545"
         d="m 573.096,490.909 q -2.417,0 -3.845,1.801 -1.417,1.802 -1.417,4.911 0,3.098 1.417,4.9 1.428,1.802 3.845,1.802 2.417,0 3.824,-1.802 1.417,-1.802 1.417,-4.9 0,-3.109 -1.417,-4.91 -1.407,-1.802 -3.824,-1.802 z m 0,-1.802 q 3.45,0 5.516,2.318 2.065,2.307 2.065,6.196 0,3.878 -2.066,6.197 -2.065,2.307 -5.515,2.307 -3.46,0 -5.537,-2.307 -2.065,-2.308 -2.065,-6.197 0,-3.889 2.065,-6.196 2.077,-2.318 5.537,-2.318 z" />
      <path
         style="stroke-width:1.79031"
         id="path4547"
         d="m 243.638,516.227 v 12.755 h 2.681 q 3.395,0 4.966,-1.538 1.582,-1.538 1.582,-4.856 0,-3.296 -1.582,-4.823 -1.571,-1.538 -4.966,-1.538 z m -2.219,-1.823 h 4.56 q 4.768,0 6.998,1.988 2.23,1.978 2.23,6.196 0,4.241 -2.241,6.23 -2.241,1.988 -6.988,1.988 h -4.559 z" />
      <path
         style="stroke-width:1.79031"
         id="path4549"
         d="m 258.734,514.404 h 10.37 v 1.867 h -8.151 v 4.856 h 7.811 v 1.868 h -7.811 v 5.943 h 8.35 v 1.868 h -10.57 z" />
      <path
         style="stroke-width:1.79031"
         id="path4551"
         d="m 282.354,522.973 v 6.01 h 3.56 q 1.79,0 2.647,-0.737 0.868,-0.747 0.868,-2.274 0,-1.538 -0.868,-2.263 -0.856,-0.736 -2.647,-0.736 z m 0,-6.746 v 4.944 h 3.285 q 1.626,0 2.417,-0.604 0.802,-0.615 0.802,-1.868 0,-1.241 -0.802,-1.856 -0.79,-0.616 -2.417,-0.616 z m -2.22,-1.823 h 5.67 q 2.538,0 3.911,1.054 1.373,1.055 1.373,3 0,1.505 -0.703,2.395 -0.703,0.89 -2.065,1.11 1.637,0.35 2.538,1.471 0.911,1.11 0.911,2.78 0,2.197 -1.494,3.395 -1.494,1.197 -4.251,1.197 h -5.89 z" />
      <path
         style="stroke-width:1.79031"
         id="path4553"
         d="m 295.307,514.404 h 2.23 v 9.964 q 0,2.637 0.956,3.801 0.956,1.154 3.098,1.154 2.132,0 3.087,-1.154 0.956,-1.164 0.956,-3.8 v -9.965 h 2.23 v 10.239 q 0,3.208 -1.593,4.845 -1.582,1.637 -4.68,1.637 -3.109,0 -4.702,-1.637 -1.582,-1.637 -1.582,-4.845 z" />
      <path
         style="stroke-width:1.79031"
         id="path4555"
         d="m 324.322,515.667 v 2.34 q -1.12,-1.044 -2.395,-1.56 -1.263,-0.516 -2.692,-0.516 -2.812,0 -4.306,1.724 -1.495,1.714 -1.495,4.966 0,3.241 1.495,4.966 1.494,1.714 4.306,1.714 1.429,0 2.692,-0.516 1.274,-0.517 2.395,-1.56 v 2.318 q -1.165,0.79 -2.472,1.186 -1.296,0.396 -2.747,0.396 -3.724,0 -5.866,-2.274 -2.143,-2.286 -2.143,-6.23 0,-3.955 2.143,-6.229 2.142,-2.285 5.866,-2.285 1.473,0 2.769,0.395 1.307,0.385 2.45,1.165 z" />
      <path
         style="stroke-width:1.79031"
         id="path4557"
         d="m 333.254,516.59 -3.01,8.163 h 6.031 z M 332,514.404 h 2.516 l 6.251,16.402 h -2.307 l -1.494,-4.208 h -7.394 l -1.494,4.208 h -2.34 z" />
      <path
         style="stroke-width:1.79031"
         id="path4559"
         d="m 350.93,523.116 q 0.715,0.241 1.385,1.032 0.681,0.791 1.362,2.176 l 2.253,4.482 h -2.384 l -2.099,-4.208 q -0.813,-1.648 -1.582,-2.186 -0.758,-0.538 -2.076,-0.538 h -2.417 v 6.932 h -2.22 v -16.402 h 5.01 q 2.813,0 4.197,1.175 1.384,1.176 1.384,3.549 0,1.549 -0.725,2.57 -0.714,1.022 -2.087,1.418 z m -5.558,-6.889 v 5.823 h 2.79 q 1.604,0 2.417,-0.736 0.824,-0.747 0.824,-2.186 0,-1.44 -0.824,-2.165 -0.813,-0.736 -2.417,-0.736 z" />
      <path
         style="stroke-width:1.79031"
         id="path4561"
         d="m 363.356,516.59 -3.01,8.163 h 6.032 z m -1.252,-2.186 h 2.516 l 6.251,16.402 h -2.307 l -1.494,-4.208 h -7.394 l -1.494,4.208 h -2.34 z" />
      <path
         style="stroke-width:1.79031"
         id="path4563"
         d="m 373.255,514.404 h 3.307 l 4.186,11.162 4.207,-11.162 h 3.307 v 16.402 h -2.164 v -14.403 l -4.23,11.25 h -2.23 l -4.23,-11.25 v 14.403 h -2.153 z" />
      <path
         style="stroke-width:1.79031"
         id="path4565"
         d="m 398.161,516.59 -3.01,8.163 h 6.031 z m -1.252,-2.186 h 2.515 l 6.252,16.402 h -2.307 l -1.495,-4.208 h -7.393 l -1.495,4.208 h -2.34 z" />
      <path
         style="stroke-width:1.79031"
         id="path4567"
         d="m 408.06,514.404 h 2.988 l 7.273,13.721 v -13.721 h 2.153 v 16.402 h -2.988 l -7.273,-13.722 v 13.722 h -2.153 z" />
      <path
         style="stroke-width:1.79031"
         id="path4569"
         d="m 436.075,528.466 v -4.405 h -3.626 v -1.824 h 5.823 v 7.042 q -1.285,0.912 -2.834,1.384 -1.55,0.462 -3.307,0.462 -3.845,0 -6.02,-2.241 -2.165,-2.253 -2.165,-6.263 0,-4.02 2.164,-6.262 2.176,-2.252 6.02,-2.252 1.605,0 3.044,0.395 1.45,0.396 2.67,1.165 v 2.362 q -1.23,-1.044 -2.615,-1.571 -1.384,-0.527 -2.911,-0.527 -3.01,0 -4.527,1.68 -1.505,1.681 -1.505,5.01 0,3.318 1.505,5 1.516,1.68 4.527,1.68 1.175,0 2.098,-0.198 0.923,-0.208 1.659,-0.637 z" />
      <path
         style="stroke-width:1.79031"
         id="path4571"
         d="m 447.82,516.59 -3.011,8.163 h 6.031 z m -1.253,-2.186 h 2.516 l 6.25,16.402 h -2.306 l -1.494,-4.208 h -7.394 l -1.494,4.208 h -2.34 z" />
      <path
         style="stroke-width:1.79031"
         id="path4573"
         d="m 474.714,514.942 v 2.164 q -1.264,-0.604 -2.384,-0.9 -1.12,-0.297 -2.165,-0.297 -1.812,0 -2.801,0.703 -0.978,0.703 -0.978,2 0,1.087 0.648,1.647 0.66,0.55 2.483,0.89 l 1.34,0.275 q 2.483,0.472 3.659,1.67 1.187,1.186 1.187,3.186 0,2.384 -1.604,3.614 -1.593,1.23 -4.68,1.23 -1.165,0 -2.484,-0.263 -1.307,-0.264 -2.713,-0.78 v -2.285 q 1.351,0.758 2.648,1.142 1.296,0.385 2.548,0.385 1.901,0 2.934,-0.747 1.032,-0.747 1.032,-2.131 0,-1.209 -0.747,-1.89 -0.736,-0.681 -2.428,-1.022 l -1.35,-0.264 q -2.484,-0.494 -3.593,-1.549 -1.11,-1.054 -1.11,-2.933 0,-2.175 1.527,-3.428 1.538,-1.252 4.23,-1.252 1.153,0 2.35,0.209 1.198,0.208 2.45,0.626 z" />
      <path
         style="stroke-width:1.79031"
         id="path4575"
         d="m 479.361,528.016 h 2.318 v 2.79 h -2.318 z" />
      <path
         style="stroke-width:1.79031"
         id="path4577"
         d="m 491.809,516.59 -3.01,8.163 h 6.03 z m -1.253,-2.186 h 2.516 l 6.251,16.402 h -2.307 l -1.494,-4.208 h -7.394 l -1.494,4.208 h -2.34 z" />
      <path
         style="stroke-width:1.79031"
         id="path4579"
         d="m 508.87,514.404 h 10.371 v 1.867 h -8.151 v 4.856 h 7.81 v 1.868 h -7.81 v 5.943 h 8.35 v 1.868 h -10.57 z" />
      <path
         style="stroke-width:1.79031"
         id="path4581"
         d="m 523.306,528.016 h 2.318 v 2.79 h -2.318 z" />
      <path
         style="stroke-width:1.79031"
         id="path4583"
         d="m 540.104,514.942 v 2.164 q -1.263,-0.604 -2.384,-0.9 -1.12,-0.297 -2.164,-0.297 -1.813,0 -2.801,0.703 -0.978,0.703 -0.978,2 0,1.087 0.648,1.647 0.66,0.55 2.483,0.89 l 1.34,0.275 q 2.483,0.472 3.659,1.67 1.186,1.186 1.186,3.186 0,2.384 -1.604,3.614 -1.593,1.23 -4.68,1.23 -1.165,0 -2.483,-0.263 -1.307,-0.264 -2.714,-0.78 v -2.285 q 1.352,0.758 2.648,1.142 1.297,0.385 2.549,0.385 1.9,0 2.933,-0.747 1.033,-0.747 1.033,-2.131 0,-1.209 -0.747,-1.89 -0.736,-0.681 -2.428,-1.022 l -1.351,-0.264 q -2.483,-0.494 -3.593,-1.549 -1.11,-1.054 -1.11,-2.933 0,-2.175 1.528,-3.428 1.538,-1.252 4.23,-1.252 1.153,0 2.35,0.209 1.198,0.208 2.45,0.626 z" />
      <path
         style="stroke-width:1.79031"
         id="path4585"
         d="m 544.752,528.016 h 2.318 v 2.79 h -2.318 z" />
      <path
         style="stroke-width:1.79031"
         id="path4587"
         d="m 553.936,516.227 v 6.164 h 2.79 q 1.55,0 2.396,-0.802 0.846,-0.802 0.846,-2.286 0,-1.472 -0.846,-2.274 -0.846,-0.802 -2.395,-0.802 z m -2.219,-1.823 h 5.01 q 2.757,0 4.164,1.252 1.417,1.241 1.417,3.647 0,2.428 -1.417,3.67 -1.407,1.241 -4.164,1.241 h -2.79 v 6.592 h -2.22 z" />
      <path
         style="stroke-width:1.79031"
         id="path4589"
         d="m 561.978,528.016 h 2.318 v 2.79 h -2.318 z" />
    </g>
  </g>
</svg>
