<?xml version="1.0" encoding="UTF-8" standalone="no"?>
<!-- Created with Inkscape (http://www.inkscape.org/) -->

<svg
   xmlns:dc="http://purl.org/dc/elements/1.1/"
   xmlns:cc="http://creativecommons.org/ns#"
   xmlns:rdf="http://www.w3.org/1999/02/22-rdf-syntax-ns#"
   xmlns:svg="http://www.w3.org/2000/svg"
   xmlns="http://www.w3.org/2000/svg"
   xmlns:sodipodi="http://sodipodi.sourceforge.net/DTD/sodipodi-0.dtd"
   xmlns:inkscape="http://www.inkscape.org/namespaces/inkscape"
   version="1.1"
   id="svg2"
   width="200"
   height="50"
   viewBox="0 0 200 50"
   sodipodi:docname="cemex.svg"
   inkscape:version="0.92.1 r">
  <metadata
     id="metadata8">
    <rdf:RDF>
      <cc:Work
         rdf:about="">
        <dc:format>image/svg+xml</dc:format>
        <dc:type
           rdf:resource="http://purl.org/dc/dcmitype/StillImage" />
        <dc:title></dc:title>
      </cc:Work>
    </rdf:RDF>
  </metadata>
  <defs
     id="defs6" />
  <sodipodi:namedview
     pagecolor="#ffffff"
     bordercolor="#666666"
     borderopacity="1"
     objecttolerance="10"
     gridtolerance="10"
     guidetolerance="10"
     inkscape:pageopacity="0"
     inkscape:pageshadow="2"
     inkscape:window-width="1364"
     inkscape:window-height="734"
     id="namedview4"
     showgrid="false"
     fit-margin-top="0"
     fit-margin-left="0"
     fit-margin-right="0"
     fit-margin-bottom="0"
     inkscape:zoom="5.1505306"
     inkscape:cx="98.290523"
     inkscape:cy="37.093404"
     inkscape:window-x="0"
     inkscape:window-y="33"
     inkscape:window-maximized="0"
     inkscape:current-layer="svg2" />
  <g
     id="g4487"
     transform="matrix(0.52541175,0,0,0.52541175,8.4692329,-32.240096)">
    <path
       style="fill:#e41934;stroke-width:0.96000004"
       d="m 6.7200002,155.41986 c 0,-0.58309 17.0766878,-21.53509 37.9481948,-46.56 L 82.616391,63.360002 h 15.275148 c 9.344861,0 15.510041,0.380054 15.880171,0.978935 0.33275,0.538414 -16.493669,21.490414 -37.392052,46.560003 L 38.382597,156.48001 H 22.551299 c -10.911245,0 -15.8312988,-0.32948 -15.8312988,-1.06015 z m 44.4324858,-0.18525 c 0.587378,-1.53068 74.419454,-90.156086 75.926864,-91.139907 0.59436,-0.387915 7.88465,-0.711915 16.20065,-0.72 12.11739,-0.01178 15.12,0.244641 15.12,1.291243 0,1.050583 -62.545603,76.953724 -73.085561,88.694064 l -2.800999,3.12 H 66.594011 c -12.65061,0 -15.821298,-0.25573 -15.441525,-1.2454 z M 125.68616,153.67385 122.88,150.8677 V 138.329 c 0,-12.49592 0.01,-12.5494 2.8002,-15.67385 l 2.80018,-3.13515 13.56371,-0.33305 c 7.46005,-0.18318 14.6481,-0.0609 15.97346,0.27176 2.16198,0.54262 2.37955,1.02105 2.1161,4.65305 L 159.84,128.16 l -13.44,0.48 -13.44,0.48 -0.27969,8.55882 c -0.20259,6.19962 0.062,8.7756 0.96,9.3453 0.68183,0.43257 6.96369,0.7931 13.95969,0.80119 l 12.72,0.0147 v 4.32 4.32 h -15.91384 -15.91385 z m 41.15416,0.0297 -3.16032,-2.82147 -0.28,-11.36102 c -0.46859,-19.01331 1.08363,-20.33871 23.92246,-20.42684 15.61552,-0.0603 16.56024,0.28662 16.02305,5.88311 l -0.3055,3.18271 -14.88,0.48 -14.88001,0.48 -0.27523,8.25321 c -0.20158,6.04447 0.0729,8.54208 1.02532,9.33258 0.7937,0.65872 6.70004,1.18359 15.15523,1.34679 l 13.85469,0.26743 v 3.84 3.84 l -16.51968,0.26249 -16.51968,0.2625 -3.16033,-2.82148 z m 41.20486,2.18166 c -0.37685,-0.37684 -0.68517,-8.55895 -0.68517,-18.18246 0,-15.06965 0.21068,-17.57814 1.51851,-18.07999 0.83519,-0.3205 9.15119,-0.58204 18.48,-0.58123 25.75664,0.002 26.20835,0.39661 25.8405,22.55852 l -0.23901,14.4 h -4.32 -4.32 l -0.48,-13.44 -0.48,-13.44001 h -3.84 -3.84 l -0.48,13.44001 -0.48,13.44 h -4.32 -4.32 l -0.48,-13.44 -0.48,-13.44001 h -3.84 -3.84 l -0.48,13.44001 -0.48,13.44 -3.87483,0.28516 c -2.13115,0.15685 -4.18315,-0.0231 -4.56,-0.39999 z m 52.40836,-1.71975 c -2.66111,-2.28672 -2.69735,-2.4664 -3.01083,-14.93054 -0.48108,-19.12836 0.76602,-20.19488 23.61446,-20.19488 15.2456,0 16.55442,0.37631 16.52814,4.752 -0.0276,4.58104 -0.64624,4.77842 -15.86539,5.06119 l -14.35991,0.26681 -0.2797,8.55882 c -0.20259,6.19962 0.062,8.7756 0.96,9.3453 0.68183,0.43257 7.36659,0.7931 14.855,0.80119 12.92374,0.0139 13.64738,0.11574 14.24669,2.00398 0.34725,1.09411 0.36813,3.03811 0.0464,4.32 l -0.58494,2.33072 h -16.72818 c -16.29397,0 -16.79809,-0.0601 -19.42171,-2.31458 z m 40.98647,-2.31808 c 0,-5.06746 1.13706,-6.59187 7.9647,-10.67796 2.00457,-1.19967 3.50275,-2.60703 3.32927,-3.12747 -0.17348,-0.52045 -2.6776,-2.52478 -5.5647,-4.45408 -5.04494,-3.37128 -5.2609,-3.69105 -5.54788,-8.21495 -0.32508,-5.12449 0.53826,-6.29338 4.66661,-6.31818 2.94996,-0.0178 4.74902,1.59122 4.7604,4.2573 0.01,2.16132 9.85564,9.16801 12.88368,9.16801 0.93418,0 4.22353,-1.55853 7.30965,-3.46339 4.15964,-2.56748 5.76894,-4.18188 6.22118,-6.24091 0.66552,-3.03009 3.62956,-4.38164 7.15521,-3.26265 1.7819,0.56555 2.00073,1.26326 1.74928,5.57704 -0.27882,4.78344 -0.44501,5.04034 -5.5674,8.6065 -2.904,2.02173 -5.40667,4.03509 -5.56149,4.47411 -0.15482,0.43903 1.65063,1.93052 4.01211,3.31444 6.4937,3.80556 7.30938,4.9509 7.30938,10.26343 v 4.73143 h -4.2 c -3.85956,0 -4.24481,-0.22407 -4.75284,-2.76416 -0.42171,-2.10859 -2.0622,-3.71741 -6.91713,-6.78358 l -6.36431,-4.01943 -6.51642,3.87134 c -5.22634,3.10492 -6.6317,4.44786 -7.09885,6.78357 -0.54563,2.72814 -0.8571,2.91226 -4.92645,2.91226 h -4.344 z m -120.29034,-10.3777 c -0.36831,-0.36833 -0.66966,-2.12338 -0.66966,-3.90014 v -3.23047 l 11.28,0.27046 11.28,0.27048 v 3.36 3.36 l -10.61034,0.26966 c -5.83568,0.14832 -10.91168,-0.0317 -11.28,-0.39999 z m 92.82429,-0.75985 c -0.28918,-0.7536 -0.38363,-2.3736 -0.20987,-3.6 0.30737,-2.16955 0.61883,-2.23712 11.52176,-2.49965 10.54204,-0.25384 11.2425,-0.15432 11.82469,1.68 0.34037,1.0724 0.34463,2.81383 0.01,3.86983 -0.5627,1.7729 -1.45251,1.92 -11.61482,1.92 -8.64778,0 -11.11807,-0.29353 -11.53123,-1.37018 z"
       id="path4491"
       inkscape:connector-curvature="0" />
    <path
       style="fill:#082c69;stroke-width:0.96000004"
       d="m 51.152486,155.23461 c 0.587378,-1.53068 74.419454,-90.156086 75.926864,-91.139907 0.59436,-0.387915 7.88465,-0.711915 16.20065,-0.72 12.11739,-0.01178 15.12,0.244641 15.12,1.291243 0,1.050583 -62.545603,76.953724 -73.085561,88.694064 l -2.800999,3.12 H 66.594011 c -12.65061,0 -15.821298,-0.25573 -15.441525,-1.2454 z M 125.68616,153.67385 122.88,150.8677 V 138.329 c 0,-12.49592 0.01,-12.5494 2.8002,-15.67385 l 2.80018,-3.13515 13.56371,-0.33305 c 7.46005,-0.18318 14.6481,-0.0609 15.97346,0.27176 2.16198,0.54262 2.37955,1.02105 2.1161,4.65305 L 159.84,128.16 l -13.44,0.48 -13.44,0.48 -0.27969,8.55882 c -0.20259,6.19962 0.062,8.7756 0.96,9.3453 0.68183,0.43257 6.96369,0.7931 13.95969,0.80119 l 12.72,0.0147 v 4.32 4.32 h -15.91384 -15.91385 z m 41.15416,0.0297 -3.16032,-2.82147 -0.28,-11.36102 c -0.46859,-19.01331 1.08363,-20.33871 23.92246,-20.42684 15.61552,-0.0603 16.56024,0.28662 16.02305,5.88311 l -0.3055,3.18271 -14.88,0.48 -14.88001,0.48 -0.27523,8.25321 c -0.20158,6.04447 0.0729,8.54208 1.02532,9.33258 0.7937,0.65872 6.70004,1.18359 15.15523,1.34679 l 13.85469,0.26743 v 3.84 3.84 l -16.51968,0.26249 -16.51968,0.2625 -3.16033,-2.82148 z m 41.20486,2.18166 c -0.37685,-0.37684 -0.68517,-8.55895 -0.68517,-18.18246 0,-15.06965 0.21068,-17.57814 1.51851,-18.07999 0.83519,-0.3205 9.15119,-0.58204 18.48,-0.58123 25.75664,0.002 26.20835,0.39661 25.8405,22.55852 l -0.23901,14.4 h -4.32 -4.32 l -0.48,-13.44 -0.48,-13.44001 h -3.84 -3.84 l -0.48,13.44001 -0.48,13.44 h -4.32 -4.32 l -0.48,-13.44 -0.48,-13.44001 h -3.84 -3.84 l -0.48,13.44001 -0.48,13.44 -3.87483,0.28516 c -2.13115,0.15685 -4.18315,-0.0231 -4.56,-0.39999 z m 52.40836,-1.71975 c -2.66111,-2.28672 -2.69735,-2.4664 -3.01083,-14.93054 -0.48108,-19.12836 0.76602,-20.19488 23.61446,-20.19488 15.2456,0 16.55442,0.37631 16.52814,4.752 -0.0276,4.58104 -0.64624,4.77842 -15.86539,5.06119 l -14.35991,0.26681 -0.2797,8.55882 c -0.20259,6.19962 0.062,8.7756 0.96,9.3453 0.68183,0.43257 7.36659,0.7931 14.855,0.80119 12.92374,0.0139 13.64738,0.11574 14.24669,2.00398 0.34725,1.09411 0.36813,3.03811 0.0464,4.32 l -0.58494,2.33072 h -16.72818 c -16.29397,0 -16.79809,-0.0601 -19.42171,-2.31458 z m 40.98647,-2.31808 c 0,-5.06746 1.13706,-6.59187 7.9647,-10.67796 2.00457,-1.19967 3.50275,-2.60703 3.32927,-3.12747 -0.17348,-0.52045 -2.6776,-2.52478 -5.5647,-4.45408 -5.04494,-3.37128 -5.2609,-3.69105 -5.54788,-8.21495 -0.32508,-5.12449 0.53826,-6.29338 4.66661,-6.31818 2.94996,-0.0178 4.74902,1.59122 4.7604,4.2573 0.01,2.16132 9.85564,9.16801 12.88368,9.16801 0.93418,0 4.22353,-1.55853 7.30965,-3.46339 4.15964,-2.56748 5.76894,-4.18188 6.22118,-6.24091 0.66552,-3.03009 3.62956,-4.38164 7.15521,-3.26265 1.7819,0.56555 2.00073,1.26326 1.74928,5.57704 -0.27882,4.78344 -0.44501,5.04034 -5.5674,8.6065 -2.904,2.02173 -5.40667,4.03509 -5.56149,4.47411 -0.15482,0.43903 1.65063,1.93052 4.01211,3.31444 6.4937,3.80556 7.30938,4.9509 7.30938,10.26343 v 4.73143 h -4.2 c -3.85956,0 -4.24481,-0.22407 -4.75284,-2.76416 -0.42171,-2.10859 -2.0622,-3.71741 -6.91713,-6.78358 l -6.36431,-4.01943 -6.51642,3.87134 c -5.22634,3.10492 -6.6317,4.44786 -7.09885,6.78357 -0.54563,2.72814 -0.8571,2.91226 -4.92645,2.91226 h -4.344 z m -120.29034,-10.3777 c -0.36831,-0.36833 -0.66966,-2.12338 -0.66966,-3.90014 v -3.23047 l 11.28,0.27046 11.28,0.27048 v 3.36 3.36 l -10.61034,0.26966 c -5.83568,0.14832 -10.91168,-0.0317 -11.28,-0.39999 z m 92.82429,-0.75985 c -0.28918,-0.7536 -0.38363,-2.3736 -0.20987,-3.6 0.30737,-2.16955 0.61883,-2.23712 11.52176,-2.49965 10.54204,-0.25384 11.2425,-0.15432 11.82469,1.68 0.34037,1.0724 0.34463,2.81383 0.01,3.86983 -0.5627,1.7729 -1.45251,1.92 -11.61482,1.92 -8.64778,0 -11.11807,-0.29353 -11.53123,-1.37018 z"
       id="path4489"
       inkscape:connector-curvature="0" />
  </g>
</svg>
