<svg xmlns="http://www.w3.org/2000/svg" version="1.1" id="svg2" width="200" height="50"><g id="g4487" transform="translate(8.47 -32.24) scale(.52541)" stroke-width=".96"><path d="M6.72 155.42c0-.583 17.077-21.535 37.948-46.56l37.948-45.5h15.276c9.344 0 15.51.38 15.88.979.332.538-16.494 21.49-37.392 46.56L38.383 156.48H22.55c-10.91 0-15.831-.33-15.831-1.06zm44.432-.185c.588-1.531 74.42-90.156 75.927-91.14.595-.388 7.885-.712 16.201-.72 12.117-.012 15.12.244 15.12 1.29 0 1.052-62.546 76.955-73.086 88.695l-2.8 3.12h-15.92c-12.65 0-15.821-.256-15.442-1.245zm74.534-1.561l-2.806-2.806v-12.539c0-12.496.01-12.55 2.8-15.674l2.8-3.135 13.564-.333c7.46-.183 14.648-.06 15.974.272 2.162.542 2.38 1.02 2.116 4.653l-.294 4.048-13.44.48-13.44.48-.28 8.559c-.202 6.2.062 8.775.96 9.345.682.433 6.964.793 13.96.801l12.72.015v8.64h-31.828zm41.154.03l-3.16-2.822-.28-11.36c-.469-19.014 1.084-20.34 23.922-20.428 15.616-.06 16.56.287 16.024 5.883l-.306 3.183-14.88.48-14.88.48-.275 8.253c-.202 6.045.073 8.542 1.025 9.333.794.659 6.7 1.183 15.155 1.347l13.855.267V156l-16.52.263-16.52.262-3.16-2.821zm41.205 2.181c-.377-.377-.685-8.559-.685-18.182 0-15.07.21-17.578 1.519-18.08.835-.32 9.15-.582 18.48-.581 25.756.002 26.208.396 25.84 22.558l-.239 14.4h-8.64l-.48-13.44-.48-13.44h-7.68l-.48 13.44-.48 13.44h-8.64l-.48-13.44-.48-13.44h-7.68l-.48 13.44-.48 13.44-3.875.285c-2.131.157-4.183-.023-4.56-.4zm52.409-1.72c-2.662-2.286-2.698-2.466-3.011-14.93-.481-19.128.766-20.195 23.614-20.195 15.246 0 16.555.376 16.528 4.752-.027 4.581-.646 4.778-15.865 5.061l-14.36.267-.28 8.559c-.202 6.2.062 8.775.96 9.345.682.433 7.367.793 14.855.801 12.924.014 13.648.116 14.247 2.004.347 1.094.368 3.038.046 4.32l-.585 2.331h-16.728c-16.294 0-16.798-.06-19.421-2.315zm40.986-2.318c0-5.067 1.137-6.591 7.965-10.678 2.004-1.2 3.502-2.607 3.329-3.127-.174-.52-2.678-2.525-5.565-4.454-5.045-3.371-5.26-3.691-5.548-8.215-.325-5.125.539-6.293 4.667-6.318 2.95-.018 4.749 1.591 4.76 4.257.01 2.161 9.856 9.168 12.884 9.168.934 0 4.224-1.558 7.31-3.463 4.16-2.568 5.769-4.182 6.22-6.241.666-3.03 3.63-4.382 7.156-3.263 1.782.566 2 1.263 1.75 5.577-.28 4.784-.446 5.04-5.568 8.607-2.904 2.021-5.407 4.035-5.561 4.474-.155.439 1.65 1.93 4.012 3.314 6.493 3.806 7.309 4.951 7.309 10.264v4.731h-4.2c-3.86 0-4.245-.224-4.753-2.764-.422-2.109-2.062-3.718-6.917-6.784l-6.364-4.02-6.517 3.872c-5.226 3.105-6.631 4.448-7.099 6.784-.545 2.728-.857 2.912-4.926 2.912h-4.344zM181.15 141.47c-.369-.369-.67-2.124-.67-3.9v-3.23l11.28.27 11.28.27v6.72l-10.61.27c-5.836.148-10.912-.032-11.28-.4zm92.824-.76c-.29-.754-.384-2.374-.21-3.6.307-2.17.619-2.237 11.522-2.5 10.542-.254 11.242-.154 11.825 1.68.34 1.073.344 2.814.01 3.87-.563 1.773-1.453 1.92-11.615 1.92-8.648 0-11.118-.294-11.532-1.37z" id="path4491" fill="#e41934"/><path d="M51.152 155.235c.588-1.531 74.42-90.156 75.927-91.14.595-.388 7.885-.712 16.201-.72 12.117-.012 15.12.244 15.12 1.29 0 1.052-62.546 76.955-73.086 88.695l-2.8 3.12h-15.92c-12.65 0-15.821-.256-15.442-1.245zm74.534-1.561l-2.806-2.806v-12.539c0-12.496.01-12.55 2.8-15.674l2.8-3.135 13.564-.333c7.46-.183 14.648-.06 15.974.272 2.162.542 2.38 1.02 2.116 4.653l-.294 4.048-13.44.48-13.44.48-.28 8.559c-.202 6.2.062 8.775.96 9.345.682.433 6.964.793 13.96.801l12.72.015v8.64h-31.828zm41.154.03l-3.16-2.822-.28-11.36c-.469-19.014 1.084-20.34 23.922-20.428 15.616-.06 16.56.287 16.024 5.883l-.306 3.183-14.88.48-14.88.48-.275 8.253c-.202 6.045.073 8.542 1.025 9.333.794.659 6.7 1.183 15.155 1.347l13.855.267V156l-16.52.263-16.52.262-3.16-2.821zm41.205 2.181c-.377-.377-.685-8.559-.685-18.182 0-15.07.21-17.578 1.519-18.08.835-.32 9.15-.582 18.48-.581 25.756.002 26.208.396 25.84 22.558l-.239 14.4h-8.64l-.48-13.44-.48-13.44h-7.68l-.48 13.44-.48 13.44h-8.64l-.48-13.44-.48-13.44h-7.68l-.48 13.44-.48 13.44-3.875.285c-2.131.157-4.183-.023-4.56-.4zm52.409-1.72c-2.662-2.286-2.698-2.466-3.011-14.93-.481-19.128.766-20.195 23.614-20.195 15.246 0 16.555.376 16.528 4.752-.027 4.581-.646 4.778-15.865 5.061l-14.36.267-.28 8.559c-.202 6.2.062 8.775.96 9.345.682.433 7.367.793 14.855.801 12.924.014 13.648.116 14.247 2.004.347 1.094.368 3.038.046 4.32l-.585 2.331h-16.728c-16.294 0-16.798-.06-19.421-2.315zm40.986-2.318c0-5.067 1.137-6.591 7.965-10.678 2.004-1.2 3.502-2.607 3.329-3.127-.174-.52-2.678-2.525-5.565-4.454-5.045-3.371-5.26-3.691-5.548-8.215-.325-5.125.539-6.293 4.667-6.318 2.95-.018 4.749 1.591 4.76 4.257.01 2.161 9.856 9.168 12.884 9.168.934 0 4.224-1.558 7.31-3.463 4.16-2.568 5.769-4.182 6.22-6.241.666-3.03 3.63-4.382 7.156-3.263 1.782.566 2 1.263 1.75 5.577-.28 4.784-.446 5.04-5.568 8.607-2.904 2.021-5.407 4.035-5.561 4.474-.155.439 1.65 1.93 4.012 3.314 6.493 3.806 7.309 4.951 7.309 10.264v4.731h-4.2c-3.86 0-4.245-.224-4.753-2.764-.422-2.109-2.062-3.718-6.917-6.784l-6.364-4.02-6.517 3.872c-5.226 3.105-6.631 4.448-7.099 6.784-.545 2.728-.857 2.912-4.926 2.912h-4.344zM181.15 141.47c-.369-.369-.67-2.124-.67-3.9v-3.23l11.28.27 11.28.27v6.72l-10.61.27c-5.836.148-10.912-.032-11.28-.4zm92.824-.76c-.29-.754-.384-2.374-.21-3.6.307-2.17.619-2.237 11.522-2.5 10.542-.254 11.242-.154 11.825 1.68.34 1.073.344 2.814.01 3.87-.563 1.773-1.453 1.92-11.615 1.92-8.648 0-11.118-.294-11.532-1.37z" id="path4489" fill="#082c69"/></g></svg>