<?xml version="1.0" encoding="UTF-8" standalone="no"?>
<svg
   xmlns:dc="http://purl.org/dc/elements/1.1/"
   xmlns:cc="http://creativecommons.org/ns#"
   xmlns:rdf="http://www.w3.org/1999/02/22-rdf-syntax-ns#"
   xmlns:svg="http://www.w3.org/2000/svg"
   xmlns="http://www.w3.org/2000/svg"
   xmlns:sodipodi="http://sodipodi.sourceforge.net/DTD/sodipodi-0.dtd"
   xmlns:inkscape="http://www.inkscape.org/namespaces/inkscape"
   inkscape:version="1.0 (4035a4fb49, 2020-05-01)"
   sodipodi:docname="cemex.svg"
   height="100"
   width="100"
   id="svg2"
   version="1.1">
  <metadata
     id="metadata64">
    <rdf:RDF>
      <cc:Work
         rdf:about="">
        <dc:format>image/svg+xml</dc:format>
        <dc:type
           rdf:resource="http://purl.org/dc/dcmitype/StillImage" />
        <dc:title></dc:title>
      </cc:Work>
    </rdf:RDF>
  </metadata>
  <defs
     id="defs62" />
  <sodipodi:namedview
     inkscape:current-layer="svg2"
     inkscape:window-maximized="0"
     inkscape:window-y="33"
     inkscape:window-x="0"
     inkscape:cy="29.623162"
     inkscape:cx="94.798443"
     inkscape:zoom="3.0291543"
     showgrid="false"
     id="namedview60"
     inkscape:window-height="734"
     inkscape:window-width="1364"
     inkscape:pageshadow="2"
     inkscape:pageopacity="0"
     guidetolerance="10"
     gridtolerance="10"
     objecttolerance="10"
     borderopacity="1"
     bordercolor="#666666"
     pagecolor="#ffffff" />
  <g
     stroke-width="1.77695"
     transform="matrix(0.28385386,0,0,0.28385386,0.08353815,17.650707)"
     id="g4487">
    <path
       style="stroke-width:4.21245"
       fill="#e41934"
       id="path4491"
       d="m 6.72,155.42 c 0,-0.583 17.077,-21.535 37.948,-46.56 l 37.948,-45.5 h 15.276 c 9.344,0 15.51,0.38 15.88,0.979 0.332,0.538 -16.494,21.49 -37.392,46.56 L 38.383,156.48 H 22.55 c -10.91,0 -15.831,-0.33 -15.831,-1.06 z m 44.432,-0.185 c 0.588,-1.531 74.42,-90.156 75.927,-91.14 0.595,-0.388 7.885,-0.712 16.201,-0.72 12.117,-0.012 15.12,0.244 15.12,1.29 0,1.052 -62.546,76.955 -73.086,88.695 l -2.8,3.12 h -15.92 c -12.65,0 -15.821,-0.256 -15.442,-1.245 z m 74.534,-1.561 -2.806,-2.806 v -12.539 c 0,-12.496 0.01,-12.55 2.8,-15.674 l 2.8,-3.135 13.564,-0.333 c 7.46,-0.183 14.648,-0.06 15.974,0.272 2.162,0.542 2.38,1.02 2.116,4.653 l -0.294,4.048 -13.44,0.48 -13.44,0.48 -0.28,8.559 c -0.202,6.2 0.062,8.775 0.96,9.345 0.682,0.433 6.964,0.793 13.96,0.801 l 12.72,0.015 v 8.64 h -31.828 z m 41.154,0.03 -3.16,-2.822 -0.28,-11.36 c -0.469,-19.014 1.084,-20.34 23.922,-20.428 15.616,-0.06 16.56,0.287 16.024,5.883 l -0.306,3.183 -14.88,0.48 -14.88,0.48 -0.275,8.253 c -0.202,6.045 0.073,8.542 1.025,9.333 0.794,0.659 6.7,1.183 15.155,1.347 l 13.855,0.267 V 156 l -16.52,0.263 -16.52,0.262 z m 41.205,2.181 c -0.377,-0.377 -0.685,-8.559 -0.685,-18.182 0,-15.07 0.21,-17.578 1.519,-18.08 0.835,-0.32 9.15,-0.582 18.48,-0.581 25.756,0.002 26.208,0.396 25.84,22.558 L 252.96,156 h -8.64 l -0.48,-13.44 -0.48,-13.44 h -7.68 l -0.48,13.44 -0.48,13.44 h -8.64 l -0.48,-13.44 -0.48,-13.44 h -7.68 l -0.48,13.44 -0.48,13.44 -3.875,0.285 c -2.131,0.157 -4.183,-0.023 -4.56,-0.4 z m 52.409,-1.72 c -2.662,-2.286 -2.698,-2.466 -3.011,-14.93 -0.481,-19.128 0.766,-20.195 23.614,-20.195 15.246,0 16.555,0.376 16.528,4.752 -0.027,4.581 -0.646,4.778 -15.865,5.061 l -14.36,0.267 -0.28,8.559 c -0.202,6.2 0.062,8.775 0.96,9.345 0.682,0.433 7.367,0.793 14.855,0.801 12.924,0.014 13.648,0.116 14.247,2.004 0.347,1.094 0.368,3.038 0.046,4.32 l -0.585,2.331 h -16.728 c -16.294,0 -16.798,-0.06 -19.421,-2.315 z m 40.986,-2.318 c 0,-5.067 1.137,-6.591 7.965,-10.678 2.004,-1.2 3.502,-2.607 3.329,-3.127 -0.174,-0.52 -2.678,-2.525 -5.565,-4.454 -5.045,-3.371 -5.26,-3.691 -5.548,-8.215 -0.325,-5.125 0.539,-6.293 4.667,-6.318 2.95,-0.018 4.749,1.591 4.76,4.257 0.01,2.161 9.856,9.168 12.884,9.168 0.934,0 4.224,-1.558 7.31,-3.463 4.16,-2.568 5.769,-4.182 6.22,-6.241 0.666,-3.03 3.63,-4.382 7.156,-3.263 1.782,0.566 2,1.263 1.75,5.577 -0.28,4.784 -0.446,5.04 -5.568,8.607 -2.904,2.021 -5.407,4.035 -5.561,4.474 -0.155,0.439 1.65,1.93 4.012,3.314 6.493,3.806 7.309,4.951 7.309,10.264 v 4.731 h -4.2 c -3.86,0 -4.245,-0.224 -4.753,-2.764 -0.422,-2.109 -2.062,-3.718 -6.917,-6.784 l -6.364,-4.02 -6.517,3.872 c -5.226,3.105 -6.631,4.448 -7.099,6.784 -0.545,2.728 -0.857,2.912 -4.926,2.912 H 301.44 Z M 181.15,141.47 c -0.369,-0.369 -0.67,-2.124 -0.67,-3.9 v -3.23 l 11.28,0.27 11.28,0.27 v 6.72 l -10.61,0.27 c -5.836,0.148 -10.912,-0.032 -11.28,-0.4 z m 92.824,-0.76 c -0.29,-0.754 -0.384,-2.374 -0.21,-3.6 0.307,-2.17 0.619,-2.237 11.522,-2.5 10.542,-0.254 11.242,-0.154 11.825,1.68 0.34,1.073 0.344,2.814 0.01,3.87 -0.563,1.773 -1.453,1.92 -11.615,1.92 -8.648,0 -11.118,-0.294 -11.532,-1.37 z" />
    <path
       style="stroke-width:4.21245"
       fill="#082c69"
       id="path4489"
       d="m 51.152,155.235 c 0.588,-1.531 74.42,-90.156 75.927,-91.14 0.595,-0.388 7.885,-0.712 16.201,-0.72 12.117,-0.012 15.12,0.244 15.12,1.29 0,1.052 -62.546,76.955 -73.086,88.695 l -2.8,3.12 h -15.92 c -12.65,0 -15.821,-0.256 -15.442,-1.245 z m 74.534,-1.561 -2.806,-2.806 v -12.539 c 0,-12.496 0.01,-12.55 2.8,-15.674 l 2.8,-3.135 13.564,-0.333 c 7.46,-0.183 14.648,-0.06 15.974,0.272 2.162,0.542 2.38,1.02 2.116,4.653 l -0.294,4.048 -13.44,0.48 -13.44,0.48 -0.28,8.559 c -0.202,6.2 0.062,8.775 0.96,9.345 0.682,0.433 6.964,0.793 13.96,0.801 l 12.72,0.015 v 8.64 h -31.828 z m 41.154,0.03 -3.16,-2.822 -0.28,-11.36 c -0.469,-19.014 1.084,-20.34 23.922,-20.428 15.616,-0.06 16.56,0.287 16.024,5.883 l -0.306,3.183 -14.88,0.48 -14.88,0.48 -0.275,8.253 c -0.202,6.045 0.073,8.542 1.025,9.333 0.794,0.659 6.7,1.183 15.155,1.347 l 13.855,0.267 V 156 l -16.52,0.263 -16.52,0.262 z m 41.205,2.181 c -0.377,-0.377 -0.685,-8.559 -0.685,-18.182 0,-15.07 0.21,-17.578 1.519,-18.08 0.835,-0.32 9.15,-0.582 18.48,-0.581 25.756,0.002 26.208,0.396 25.84,22.558 L 252.96,156 h -8.64 l -0.48,-13.44 -0.48,-13.44 h -7.68 l -0.48,13.44 -0.48,13.44 h -8.64 l -0.48,-13.44 -0.48,-13.44 h -7.68 l -0.48,13.44 -0.48,13.44 -3.875,0.285 c -2.131,0.157 -4.183,-0.023 -4.56,-0.4 z m 52.409,-1.72 c -2.662,-2.286 -2.698,-2.466 -3.011,-14.93 -0.481,-19.128 0.766,-20.195 23.614,-20.195 15.246,0 16.555,0.376 16.528,4.752 -0.027,4.581 -0.646,4.778 -15.865,5.061 l -14.36,0.267 -0.28,8.559 c -0.202,6.2 0.062,8.775 0.96,9.345 0.682,0.433 7.367,0.793 14.855,0.801 12.924,0.014 13.648,0.116 14.247,2.004 0.347,1.094 0.368,3.038 0.046,4.32 l -0.585,2.331 h -16.728 c -16.294,0 -16.798,-0.06 -19.421,-2.315 z m 40.986,-2.318 c 0,-5.067 1.137,-6.591 7.965,-10.678 2.004,-1.2 3.502,-2.607 3.329,-3.127 -0.174,-0.52 -2.678,-2.525 -5.565,-4.454 -5.045,-3.371 -5.26,-3.691 -5.548,-8.215 -0.325,-5.125 0.539,-6.293 4.667,-6.318 2.95,-0.018 4.749,1.591 4.76,4.257 0.01,2.161 9.856,9.168 12.884,9.168 0.934,0 4.224,-1.558 7.31,-3.463 4.16,-2.568 5.769,-4.182 6.22,-6.241 0.666,-3.03 3.63,-4.382 7.156,-3.263 1.782,0.566 2,1.263 1.75,5.577 -0.28,4.784 -0.446,5.04 -5.568,8.607 -2.904,2.021 -5.407,4.035 -5.561,4.474 -0.155,0.439 1.65,1.93 4.012,3.314 6.493,3.806 7.309,4.951 7.309,10.264 v 4.731 h -4.2 c -3.86,0 -4.245,-0.224 -4.753,-2.764 -0.422,-2.109 -2.062,-3.718 -6.917,-6.784 l -6.364,-4.02 -6.517,3.872 c -5.226,3.105 -6.631,4.448 -7.099,6.784 -0.545,2.728 -0.857,2.912 -4.926,2.912 H 301.44 Z M 181.15,141.47 c -0.369,-0.369 -0.67,-2.124 -0.67,-3.9 v -3.23 l 11.28,0.27 11.28,0.27 v 6.72 l -10.61,0.27 c -5.836,0.148 -10.912,-0.032 -11.28,-0.4 z m 92.824,-0.76 c -0.29,-0.754 -0.384,-2.374 -0.21,-3.6 0.307,-2.17 0.619,-2.237 11.522,-2.5 10.542,-0.254 11.242,-0.154 11.825,1.68 0.34,1.073 0.344,2.814 0.01,3.87 -0.563,1.773 -1.453,1.92 -11.615,1.92 -8.648,0 -11.118,-0.294 -11.532,-1.37 z" />
  </g>
</svg>
