<?xml version="1.0" encoding="UTF-8" standalone="no"?>
<!-- Created with Inkscape (http://www.inkscape.org/) -->

<svg
   xmlns:dc="http://purl.org/dc/elements/1.1/"
   xmlns:cc="http://creativecommons.org/ns#"
   xmlns:rdf="http://www.w3.org/1999/02/22-rdf-syntax-ns#"
   xmlns:svg="http://www.w3.org/2000/svg"
   xmlns="http://www.w3.org/2000/svg"
   xmlns:sodipodi="http://sodipodi.sourceforge.net/DTD/sodipodi-0.dtd"
   xmlns:inkscape="http://www.inkscape.org/namespaces/inkscape"
   version="1.1"
   id="svg2"
   width="100"
   height="50"
   viewBox="0 0 100 50.000001"
   sodipodi:docname="gasan.svg"
   inkscape:version="0.92.2 2405546, 2018-03-11">
  <metadata
     id="metadata8">
    <rdf:RDF>
      <cc:Work
         rdf:about="">
        <dc:format>image/svg+xml</dc:format>
        <dc:type
           rdf:resource="http://purl.org/dc/dcmitype/StillImage" />
        <dc:title></dc:title>
      </cc:Work>
    </rdf:RDF>
  </metadata>
  <defs
     id="defs6" />
  <sodipodi:namedview
     pagecolor="#ffffff"
     bordercolor="#666666"
     borderopacity="1"
     objecttolerance="10"
     gridtolerance="10"
     guidetolerance="10"
     inkscape:pageopacity="0"
     inkscape:pageshadow="2"
     inkscape:window-width="1364"
     inkscape:window-height="732"
     id="namedview4"
     showgrid="false"
     fit-margin-top="0"
     fit-margin-left="0"
     fit-margin-right="0"
     fit-margin-bottom="0"
     inkscape:zoom="2.497883"
     inkscape:cx="68.040968"
     inkscape:cy="77.767788"
     inkscape:window-x="0"
     inkscape:window-y="35"
     inkscape:window-maximized="0"
     inkscape:current-layer="svg2" />
  <g
     id="g4505"
     transform="matrix(0.12581595,0,0,0.12581595,34.818225,1.5016841)">
    <path
       style="fill:#00a0e3;stroke-width:0.31999999"
       d="M 69.266593,373.84689 C 43.998539,358.35105 24.634101,334.21911 12.319902,302.88001 6.3698167,287.73729 2.830446,272.80386 0.75382551,254.08001 -0.11037178,246.28797 -0.02056196,228.34958 0.92196986,220.49527 2.8048742,204.80464 6.1396542,191.49009 11.08871,179.90321 c 2.028762,-4.7498 4.34282,-9.25796 4.507341,-8.78103 0.0763,0.2212 -0.229516,1.9492 -0.679601,3.84 -1.888116,7.93197 -4.388862,21.95588 -5.0291348,28.20286 -0.503448,4.91201 -0.2132902,11.62274 0.6448918,14.91497 1.987193,7.62343 6.598839,12.32691 13.537798,13.80738 3.211119,0.68511 9.172355,0.42605 12.249994,-0.53235 3.762928,-1.17181 5.84975,-2.46849 8.912911,-5.53817 l 2.832916,-2.83893 -0.112916,3.47103 -0.112912,3.47104 6.755642,0.0862 c 5.164566,0.0659 6.829728,-0.009 7.070198,-0.32 0.451862,-0.58357 10.423459,-47.87196 10.21126,-48.42495 C 71.726609,180.86912 69.563786,180.8 57.443182,180.8 H 43.186277 l -0.298051,0.72 c -0.392141,0.94729 -2.888227,12.91521 -2.888227,13.8481 0,0.98673 0.589779,1.1439 4.071756,1.08504 1.64856,-0.0279 3.08713,0.0391 3.196816,0.14877 0.305325,0.30533 -1.989472,9.40618 -3.093945,12.27017 -1.755296,4.55164 -4.246928,6.53999 -8.283891,6.61064 -2.653901,0.0464 -4.014802,-0.66721 -5.067129,-2.65719 -1.38931,-2.62723 -1.141794,-4.41204 3.93094,-28.34553 3.240547,-15.28912 4.225747,-19.53949 5.303392,-22.88 1.90032,-5.89066 4.214883,-7.91038 8.735299,-7.62254 2.396019,0.15257 3.93367,1.14163 5.038796,3.24108 0.605133,1.1496 0.702196,1.82203 0.678647,4.70146 -0.0151,1.848 -0.197024,4.26271 -0.40425,5.36601 -0.207225,1.10331 -0.289449,2.14731 -0.182717,2.32 0.119876,0.19397 3.841642,0.31399 9.735987,0.31399 7.898934,0 9.607549,-0.0791 9.923008,-0.45916 0.209594,-0.25255 0.602384,-2.37655 0.87287,-4.72 1.381962,-11.97314 -2.427404,-20.66482 -10.820198,-24.68802 -4.673939,-2.24051 -6.461376,-2.58325 -13.555382,-2.59917 -3.344,-0.008 -6.979999,0.10849 -8.079999,0.25777 -1.1,0.14928 -1.996074,0.14928 -1.991277,0 0.0048,-0.14928 1.675181,-2.21542 3.711965,-4.59142 33.637074,-39.239194 48.869956,-61.244798 58.658063,-84.738133 6.42769,-15.427693 9.37262,-31.776539 8.06824,-44.7910263 -0.1284,-1.2810375 -0.14171,-2.4775841 -0.0296,-2.6589922 0.25662,-0.41522823 5.51334,1.8900467 9.98022,4.3767184 8.77819,4.8867381 15.91853,10.3254071 23.46205,17.8706131 10.01444,10.016686 17.50534,20.749234 24.24772,34.740822 9.79944,20.335488 15.37481,42.813808 16.88389,68.071148 0.41021,6.86574 0.21776,22.4844 -0.34808,28.24885 -0.80581,8.20919 -2.56426,20.00071 -3.40082,22.80465 -0.27402,0.91847 -0.67334,0.3516 -0.90217,-1.28071 -0.83074,-5.926 -4.13081,-10.52439 -9.3898,-13.08398 -5.89793,-2.87058 -16.93804,-3.23758 -23.88997,-0.79417 -7.62299,2.67926 -12.00129,8.99289 -12.01571,17.32698 -0.0138,7.9797 4.28652,14.60843 15.62562,24.08607 2.52469,2.11023 5.14232,4.53508 5.81696,5.38856 3.83419,4.85061 1.31191,10.83261 -4.5675,10.83261 -4.81713,0 -6.84719,-2.87103 -7.3537,-10.4 l -0.0861,-1.28 h -8.32 -8.32 l 0.036,4.16 c 0.031,3.58091 0.15543,4.52745 0.89382,6.79967 1.14367,3.5194 3.0283,6.22174 5.80565,8.32462 3.72526,2.82061 8.49179,4.24116 15.92114,4.74494 1.9172,0.13 2.7783,0.30911 2.69659,0.56088 -0.066,0.20343 -4.2135,3.9577 -9.21663,8.3428 -9.91493,8.69016 -23.01414,21.56089 -27.87326,27.38709 -23.180159,27.79356 -36.303211,59.96681 -41.635348,102.07568 -0.548042,4.32797 -0.817245,5.61632 -1.188276,5.68688 -0.26384,0.0502 -2.06974,-0.88387 -4.013113,-2.07568 z M 91.999997,231.15634 c 2.512105,-0.64223 5.603689,-2.28344 8.088153,-4.29371 2.22524,-1.80052 2.24933,-1.78903 2.38369,1.13738 l 0.0882,1.92 h 9.12 9.12 l 0.0317,-5.44 0.0317,-5.44 3.39221,-15.68 c 3.61647,-16.71658 4.38765,-21.09148 4.37882,-24.84107 -0.021,-8.92472 -4.68033,-14.8098 -13.71675,-17.32537 -2.15224,-0.59914 -3.28082,-0.67861 -9.63769,-0.67861 -6.414954,0 -7.479133,0.0764 -9.760004,0.70065 -8.488316,2.32318 -13.816562,7.61652 -16.302793,16.19598 -0.449472,1.55101 -0.817216,3.31025 -0.817216,3.90944 v 1.08943 l 8.56,-0.0852 8.56,-0.0852 0.419536,-1.44 c 0.630121,-2.16281 2.012534,-5.03863 2.758864,-5.73922 1.925723,-1.80771 5.883513,-2.47099 8.499253,-1.42438 3.27729,1.31131 3.98807,6.02277 1.37004,9.08135 -2.35501,2.75129 -6.13686,4.55756 -14.11256,6.74037 -10.395616,2.84509 -13.638774,4.30759 -16.995149,7.66397 -4.040223,4.04022 -5.737286,8.56595 -5.998915,15.99792 -0.247088,7.01882 0.834468,10.92398 4.000823,14.44573 1.687491,1.8769 5.159523,3.67862 7.898108,4.09853 2.367104,0.36295 6.089504,0.14412 8.64,-0.50793 z m 2.4,-13.21215 c -2.379658,-0.46833 -3.7432,-2.04205 -4.179914,-4.82418 -0.482876,-3.07624 0.781088,-7.48332 2.628237,-9.16389 0.93303,-0.84889 2.946899,-1.87094 5.690262,-2.88785 1.155779,-0.42842 3.361498,-1.37196 4.901598,-2.09676 1.5401,-0.72479 2.86627,-1.25172 2.94705,-1.17094 0.20339,0.20339 -2.23348,10.8542 -3.03331,13.25769 -1.05595,3.17314 -2.4916,5.28111 -4.153923,6.09922 -1.698823,0.83608 -3.253997,1.09097 -4.8,0.78671 z m 96.799993,13.84379 c -7.3668,-1.58604 -11.37507,-6.84439 -11.87644,-15.58042 -0.35366,-6.16239 1.02841,-11.9235 3.89476,-16.23511 3.50097,-5.26621 6.75033,-6.97554 20.62168,-10.84804 10.35249,-2.89013 14.79239,-6.36819 14.32595,-11.22247 -0.29225,-3.04161 -2.35192,-4.60906 -6.00595,-4.57068 -4.22217,0.0444 -6.40668,1.99112 -7.85301,6.99838 -0.3035,1.0507 -0.71272,2.01616 -0.9094,2.14547 -0.52063,0.34229 -16.27285,0.28871 -16.8196,-0.0572 -0.69534,-0.43995 0.86764,-6.39625 2.59608,-9.89326 2.527,-5.11265 7.33599,-9.10824 13.06593,-10.8559 5.2052,-1.58762 15.40991,-1.79621 20.64,-0.4219 9.02421,2.37128 13.4168,7.62228 13.81365,16.51316 0.22197,4.97292 -0.13541,6.93019 -7.12843,39.04001 -0.39993,1.83637 -0.56426,4.0977 -0.58137,8 l -0.0238,5.44 -8.96,0.0854 c -10.28744,0.098 -9.76001,0.25293 -9.76001,-2.86654 0,-1.02236 -0.085,-1.85883 -0.18896,-1.85883 -0.10393,0 -0.93193,0.63257 -1.84,1.4057 -3.82713,3.25845 -8.67864,5.02393 -13.62222,4.95718 -1.51185,-0.0204 -3.03682,-0.0991 -3.38882,-0.17491 z m 15.83409,-14.34492 c 1.61813,-0.83677 3.07394,-2.84561 4.08284,-5.63384 1.01511,-2.80538 3.53124,-13.58771 3.23899,-13.87996 -0.0917,-0.0917 -0.94735,0.25578 -1.90136,0.77227 -0.954,0.5165 -3.0912,1.45664 -4.74932,2.0892 -4.37036,1.66728 -6.70068,2.99517 -7.57136,4.31441 -1.20539,1.8264 -1.76413,3.8404 -1.78272,6.42593 -0.0264,3.66651 0.8811,5.30506 3.46766,6.26121 1.38555,0.51219 3.87138,0.34574 5.21527,-0.34922 z m 29.89708,12.51721 c -0.0928,-0.24185 0.33692,-2.79785 0.95493,-5.68 0.61803,-2.88215 1.84281,-8.62426 2.72174,-12.76026 0.87893,-4.136 2.32573,-10.94 3.21511,-15.12 2.12947,-10.00833 4.48955,-21.14817 5.94901,-28.08001 0.64847,-3.08 1.3247,-5.78 1.50273,-6 0.39001,-0.48197 16.4128,-0.58565 16.70794,-0.1081 0.0992,0.16053 -0.0363,1.32195 -0.30112,2.58091 -0.26483,1.25897 -0.48151,2.35162 -0.48151,2.42812 0,0.46249 0.90925,-0.073 2.69214,-1.58546 3.56085,-3.02076 6.50094,-4.40678 10.5394,-4.96848 6.95847,-0.96783 13.07969,2.06125 15.30587,7.57408 0.67167,1.66332 0.73979,2.31261 0.71329,6.79893 -0.0333,5.64347 0.45521,2.98344 -6.52901,35.54913 -2.42964,11.32877 -4.30466,19.38426 -4.54787,19.53855 -0.2276,0.14439 -4.41434,0.26473 -9.30386,0.26743 -7.55364,0.004 -8.91734,-0.0662 -9.07164,-0.46833 -0.0999,-0.26028 0.5482,-3.89628 1.44016,-8.08 0.89197,-4.18373 2.99652,-14.08677 4.67678,-22.00677 1.68026,-7.92 3.28459,-15.45044 3.56518,-16.7343 0.30735,-1.4063 0.4593,-3.23447 0.38222,-4.59858 -0.11082,-1.96124 -0.23999,-2.36067 -0.96517,-2.98444 -1.69008,-1.45375 -4.69169,-1.28769 -6.65989,0.36844 -1.24302,1.04593 -2.66583,3.83422 -3.51263,6.88371 -0.35817,1.28984 -1.80237,7.74517 -3.20935,14.34517 -1.40697,6.6 -3.55108,16.66255 -4.76469,22.36122 -1.32902,6.24063 -2.37843,10.47014 -2.63874,10.6351 -0.23771,0.15063 -4.43271,0.27608 -9.32223,0.27878 -7.24863,0.004 -8.9212,-0.0763 -9.05879,-0.43484 z m -64.92944,-30.18098 c -1.68253,-2.53408 -6.16241,-6.94818 -11.68173,-11.51021 -4.87931,-4.03303 -7.01344,-6.41643 -7.85279,-8.77003 -0.90873,-2.54816 0.0463,-5.46368 2.15864,-6.5901 1.51662,-0.80872 4.57425,-0.77314 6.01307,0.07 2.16351,1.26779 3.06139,3.30684 3.40872,7.74106 l 0.20678,2.64 h 7.12662 c 3.91964,0 7.3544,0.0874 7.63279,0.19424 0.2784,0.10683 0.50617,0.38825 0.50617,0.62537 0,0.73784 -3.11984,10.69723 -4.39673,14.0356 -0.66797,1.74636 -1.36874,3.22662 -1.55728,3.28947 -0.18854,0.0628 -0.89246,-0.71358 -1.56426,-1.72539 z"
       id="path4509"
       inkscape:connector-curvature="0" />
    <path
       style="fill:#024f99;stroke-width:0.31999999"
       d="m 190.50139,231.36584 c -3.34544,-0.71267 -6.78039,-3.19699 -8.50801,-6.15341 -3.77244,-6.45562 -3.06548,-18.30493 1.50201,-25.17542 2.99375,-4.50324 7.23712,-6.95893 16.3446,-9.45886 9.59693,-2.63427 13.38707,-4.20821 16.07369,-6.67495 2.42634,-2.22777 3.26796,-5.15593 2.20982,-7.68841 -1.7538,-4.19746 -9.29215,-4.37727 -12.17024,-0.29031 -0.50971,0.7238 -1.30827,2.44089 -1.77459,3.81576 l -0.84784,2.49976 -8.23338,0.0854 c -6.90743,0.0717 -8.26172,0.0116 -8.40931,-0.37304 -0.3076,-0.80159 1.44231,-6.6515 2.83351,-9.47238 2.6606,-5.39478 7.60536,-9.20497 14.15834,-10.90972 3.34435,-0.87003 11.6876,-1.19505 15.89996,-0.6194 9.22721,1.26095 14.70417,5.59804 16.45293,13.02872 1.08838,4.62461 0.39993,9.96614 -3.70421,28.74041 -1.07728,4.928 -2.33433,10.688 -2.79343,12.8 -0.69863,3.21385 -0.83967,4.70094 -0.86499,9.12 l -0.0302,5.28 -8.77788,0.0852 c -6.80923,0.0661 -8.83555,-0.006 -9.03509,-0.32 -0.14148,-0.22288 -0.25944,-1.30524 -0.26214,-2.40524 -0.003,-1.22767 -0.13965,-2 -0.35386,-2 -0.19193,0 -1.09193,0.63003 -2,1.40007 -2.00373,1.69916 -4.56381,3.16347 -7.11061,4.06712 -2.14169,0.75991 -8.25965,1.117 -10.59903,0.61864 z m 15.53792,-13.3034 c 2.20191,-0.65389 3.87813,-2.38673 4.98616,-5.15454 1.35111,-3.37501 4.05607,-14.89302 3.60378,-15.34531 -0.11981,-0.11981 -1.04841,0.22281 -2.06355,0.76139 -1.01514,0.53857 -3.21371,1.51535 -4.88571,2.17062 -6.62391,2.59597 -8.10182,3.79565 -9.15996,7.43552 -0.71827,2.47075 -0.51376,6.75046 0.37974,7.94689 0.9188,1.2303 2.10921,2.06241 3.37952,2.36233 1.61205,0.3806 1.93365,0.36548 3.76002,-0.1769 z m 31.21903,11.59654 c -0.0889,-0.23157 0.4155,-3.07557 1.12079,-6.32 0.7053,-3.24444 2.57765,-12.01897 4.16077,-19.49897 5.70655,-26.96251 8.66794,-40.80732 8.81262,-41.20001 0.11252,-0.30538 2.03755,-0.4 8.13854,-0.4 4.39514,0 8.06087,0.1128 8.14608,0.25067 0.0852,0.13787 -0.0501,1.32587 -0.30074,2.64 -0.25061,1.31413 -0.45582,2.49733 -0.45603,2.62933 -9.6e-4,0.56375 0.80857,0.14741 2.27261,-1.16888 5.04896,-4.53946 10.48938,-6.43549 16.1905,-5.64253 4.19732,0.58379 7.45305,2.57342 9.262,5.66017 2.49328,4.25446 2.3418,9.75214 -0.65444,23.75219 -0.77677,3.62948 -2.96225,13.87106 -4.85661,22.75906 -1.89437,8.888 -3.58121,16.34 -3.74855,16.56 -0.23059,0.30315 -2.46402,0.4 -9.22507,0.4 -7.76794,0 -8.92082,-0.0629 -8.92082,-0.48634 0,-0.26748 0.72767,-3.90348 1.61705,-8.08 0.88938,-4.17652 2.33671,-10.97766 3.21629,-15.11366 0.87958,-4.136 2.46494,-11.552 3.52303,-16.48 1.58444,-7.37948 1.90475,-9.37513 1.81581,-11.31331 -0.0992,-2.16238 -0.18814,-2.42494 -1.09602,-3.23613 -2.66127,-2.37784 -6.95519,-1.00725 -8.8994,2.84063 -1.29075,2.55456 -2.34967,6.47548 -4.48133,16.59323 -1.13972,5.40957 -2.94852,13.93958 -4.01957,18.95558 -1.07104,5.016 -2.24353,10.56 -2.60552,12.32 -0.36199,1.76 -0.80454,3.38 -0.98344,3.6 -0.48551,0.59706 -17.79912,0.57686 -18.02855,-0.021 z"
       id="path4507"
       inkscape:connector-curvature="0" />
  </g>
</svg>
