<svg xmlns="http://www.w3.org/2000/svg" version="1.1" id="svg2" width="100" height="50"><g id="g4505" transform="translate(34.818 1.502) scale(.12582)" stroke-width=".32"><path d="M69.267 373.847C43.999 358.35 24.634 334.219 12.32 302.88c-5.95-15.143-9.49-30.076-11.566-48.8-.864-7.792-.775-25.73.168-33.585 1.883-15.69 5.218-29.005 10.167-40.592 2.028-4.75 4.343-9.258 4.507-8.78.076.22-.23 1.948-.68 3.84-1.888 7.931-4.388 21.955-5.029 28.202-.503 4.912-.213 11.623.645 14.915 1.987 7.623 6.599 12.327 13.538 13.807 3.211.686 9.172.426 12.25-.532 3.763-1.172 5.85-2.468 8.913-5.538l2.833-2.84-.113 3.472-.113 3.471 6.756.086c5.164.066 6.83-.009 7.07-.32.452-.583 10.423-47.872 10.211-48.425-.15-.392-2.313-.461-14.434-.461H43.186l-.298.72c-.392.947-2.888 12.915-2.888 13.848 0 .987.59 1.144 4.072 1.085 1.648-.028 3.087.04 3.197.149.305.305-1.99 9.406-3.094 12.27-1.756 4.552-4.247 6.54-8.284 6.61-2.654.047-4.015-.666-5.067-2.656-1.39-2.628-1.142-4.413 3.93-28.346 3.241-15.29 4.226-19.54 5.304-22.88 1.9-5.89 4.215-7.91 8.735-7.623 2.396.153 3.934 1.142 5.039 3.242.605 1.15.702 1.822.679 4.701-.015 1.848-.197 4.263-.405 5.366-.207 1.103-.289 2.147-.182 2.32.12.194 3.841.314 9.736.314 7.899 0 9.607-.08 9.923-.46.21-.252.602-2.376.873-4.72 1.382-11.972-2.428-20.664-10.82-24.687-4.675-2.24-6.462-2.583-13.556-2.6-3.344-.007-6.98.11-8.08.258-1.1.15-1.996.15-1.991 0 .005-.149 1.675-2.215 3.712-4.591 33.637-39.24 48.87-61.245 58.658-84.738 6.427-15.428 9.372-31.777 8.068-44.791-.128-1.281-.142-2.478-.03-2.66.257-.414 5.514 1.89 9.98 4.378 8.779 4.886 15.92 10.325 23.463 17.87 10.014 10.017 17.505 20.75 24.247 34.741 9.8 20.335 15.375 42.814 16.884 68.071.41 6.866.218 22.485-.348 28.249-.806 8.21-2.564 20-3.4 22.805-.275.918-.674.351-.903-1.281-.83-5.926-4.13-10.524-9.39-13.084-5.898-2.87-16.938-3.238-23.89-.794-7.623 2.68-12 8.993-12.015 17.327-.014 7.98 4.286 14.608 15.625 24.086 2.525 2.11 5.143 4.535 5.817 5.388 3.834 4.851 1.312 10.833-4.567 10.833-4.817 0-6.847-2.871-7.354-10.4l-.086-1.28h-16.64l.036 4.16c.031 3.58.155 4.527.894 6.8 1.143 3.52 3.028 6.221 5.805 8.324 3.726 2.82 8.492 4.241 15.922 4.745 1.917.13 2.778.31 2.696.561-.066.204-4.213 3.958-9.216 8.343-9.915 8.69-23.015 21.56-27.874 27.387-23.18 27.794-36.303 59.967-41.635 102.076-.548 4.328-.817 5.616-1.188 5.687-.264.05-2.07-.884-4.013-2.076zM92 231.157c2.512-.643 5.604-2.284 8.088-4.294 2.225-1.8 2.25-1.79 2.384 1.137l.088 1.92h18.24l.032-5.44.031-5.44 3.393-15.68c3.616-16.717 4.387-21.091 4.378-24.841-.02-8.925-4.68-14.81-13.716-17.325-2.153-.6-3.281-.679-9.638-.679-6.415 0-7.48.076-9.76.7-8.488 2.324-13.817 7.617-16.303 16.197-.45 1.55-.817 3.31-.817 3.909v1.09l8.56-.086 8.56-.085.42-1.44c.63-2.163 2.012-5.039 2.758-5.74 1.926-1.807 5.884-2.47 8.5-1.424 3.277 1.312 3.988 6.023 1.37 9.082-2.355 2.751-6.137 4.557-14.113 6.74-10.395 2.845-13.639 4.308-16.995 7.664-4.04 4.04-5.737 8.566-5.999 15.998-.247 7.019.835 10.924 4 14.446 1.688 1.877 5.16 3.678 7.899 4.098 2.367.363 6.09.144 8.64-.508zm2.4-13.213c-2.38-.468-3.743-2.042-4.18-4.824-.483-3.076.781-7.483 2.628-9.164.933-.849 2.947-1.87 5.69-2.888 1.156-.428 3.362-1.372 4.902-2.096 1.54-.725 2.866-1.252 2.947-1.171.204.203-2.233 10.854-3.033 13.257-1.056 3.173-2.492 5.281-4.154 6.1-1.699.836-3.254 1.09-4.8.786zm96.8 13.844c-7.367-1.586-11.375-6.844-11.876-15.58-.354-6.163 1.028-11.924 3.894-16.236 3.501-5.266 6.75-6.975 20.622-10.848 10.352-2.89 14.792-6.368 14.326-11.222-.292-3.042-2.352-4.61-6.006-4.57-4.222.044-6.407 1.99-7.853 6.998-.304 1.05-.713 2.016-.91 2.145-.52.342-16.272.289-16.819-.057-.695-.44.868-6.396 2.596-9.893 2.527-5.113 7.336-9.109 13.066-10.856 5.205-1.588 15.41-1.796 20.64-.422 9.024 2.371 13.417 7.622 13.814 16.513.222 4.973-.136 6.93-7.129 39.04-.4 1.836-.564 4.098-.581 8l-.024 5.44-8.96.085c-10.287.098-9.76.253-9.76-2.866 0-1.022-.085-1.859-.189-1.859s-.932.633-1.84 1.406c-3.827 3.258-8.679 5.024-13.622 4.957-1.512-.02-3.037-.1-3.389-.175zm15.834-14.345c1.618-.837 3.074-2.846 4.083-5.634 1.015-2.805 3.531-13.587 3.239-13.88-.092-.091-.947.256-1.901.773-.954.516-3.092 1.456-4.75 2.089-4.37 1.667-6.7 2.995-7.571 4.314-1.206 1.827-1.764 3.84-1.783 6.426-.026 3.667.881 5.305 3.468 6.261 1.385.512 3.871.346 5.215-.349zm29.897 12.517c-.093-.242.337-2.798.955-5.68.618-2.882 1.843-8.624 2.722-12.76l3.215-15.12c2.13-10.008 4.49-21.148 5.949-28.08.648-3.08 1.325-5.78 1.503-6 .39-.482 16.412-.586 16.708-.108.099.16-.037 1.322-.302 2.58-.264 1.26-.481 2.352-.481 2.429 0 .462.91-.073 2.692-1.586 3.561-3.02 6.501-4.406 10.54-4.968 6.958-.968 13.08 2.061 15.305 7.574.672 1.663.74 2.313.714 6.799-.034 5.643.455 2.983-6.53 35.55-2.429 11.328-4.304 19.383-4.547 19.538-.228.144-4.415.264-9.304.267-7.554.004-8.917-.066-9.072-.468-.1-.26.549-3.897 1.44-8.08.892-4.184 2.997-14.087 4.677-22.007 1.68-7.92 3.285-15.45 3.565-16.734.308-1.407.46-3.235.383-4.599-.111-1.961-.24-2.36-.966-2.984-1.69-1.454-4.691-1.288-6.66.368-1.242 1.046-2.665 3.834-3.512 6.884-.358 1.29-1.802 7.745-3.21 14.345l-4.764 22.361c-1.33 6.24-2.379 10.47-2.639 10.635-.238.151-4.433.276-9.322.28-7.249.003-8.921-.077-9.059-.436zm-64.93-30.18c-1.682-2.535-6.162-6.949-11.681-11.51-4.88-4.034-7.013-6.417-7.853-8.771-.909-2.548.047-5.464 2.159-6.59 1.516-.809 4.574-.773 6.013.07 2.163 1.268 3.061 3.307 3.409 7.741l.206 2.64h7.127c3.92 0 7.354.087 7.633.194.278.107.506.388.506.626 0 .737-3.12 10.697-4.397 14.035-.668 1.747-1.368 3.227-1.557 3.29-.189.062-.892-.714-1.564-1.726z" id="path4509" fill="#00a0e3"/><path d="M190.501 231.366c-3.345-.713-6.78-3.197-8.508-6.154-3.772-6.455-3.065-18.305 1.502-25.175 2.994-4.503 7.238-6.959 16.345-9.459 9.597-2.634 13.387-4.208 16.074-6.675 2.426-2.228 3.268-5.156 2.21-7.688-1.754-4.198-9.293-4.377-12.17-.29-.51.723-1.309 2.44-1.775 3.815l-.848 2.5-8.234.085c-6.907.072-8.261.012-8.409-.373-.307-.801 1.442-6.651 2.834-9.472 2.66-5.395 7.605-9.205 14.158-10.91 3.344-.87 11.688-1.195 15.9-.62 9.227 1.262 14.704 5.599 16.453 13.03 1.088 4.624.4 9.966-3.704 28.74a15712.99 15712.99 0 00-2.794 12.8c-.698 3.214-.84 4.7-.865 9.12l-.03 5.28-8.778.085c-6.81.066-8.835-.006-9.035-.32-.141-.223-.26-1.305-.262-2.405-.003-1.228-.14-2-.354-2-.192 0-1.092.63-2 1.4-2.004 1.7-4.564 3.163-7.11 4.067-2.142.76-8.26 1.117-10.6.619zm15.538-13.304c2.202-.653 3.878-2.386 4.986-5.154 1.352-3.375 4.057-14.893 3.604-15.345-.12-.12-1.048.222-2.063.761-1.015.539-3.214 1.515-4.886 2.17-6.624 2.597-8.102 3.796-9.16 7.436-.718 2.47-.514 6.75.38 7.947.919 1.23 2.109 2.062 3.38 2.362 1.611.38 1.933.366 3.76-.177zm31.22 11.597c-.09-.232.415-3.076 1.12-6.32.705-3.244 2.578-12.019 4.16-19.499 5.707-26.962 8.669-40.807 8.814-41.2.112-.305 2.037-.4 8.138-.4 4.395 0 8.06.113 8.146.25.085.139-.05 1.327-.3 2.64-.251 1.315-.456 2.498-.457 2.63 0 .564.809.147 2.273-1.169 5.049-4.54 10.49-6.435 16.19-5.642 4.198.583 7.454 2.573 9.262 5.66 2.494 4.254 2.342 9.752-.654 23.752-.777 3.63-2.962 13.871-4.857 22.759-1.894 8.888-3.58 16.34-3.748 16.56-.23.303-2.464.4-9.225.4-7.768 0-8.921-.063-8.921-.486 0-.268.728-3.904 1.617-8.08.89-4.177 2.337-10.978 3.216-15.114.88-4.136 2.465-11.552 3.523-16.48 1.585-7.38 1.905-9.375 1.816-11.313-.099-2.163-.188-2.425-1.096-3.236-2.661-2.378-6.955-1.008-8.9 2.84-1.29 2.555-2.349 6.476-4.48 16.593-1.14 5.41-2.95 13.94-4.02 18.956a2538.024 2538.024 0 00-2.606 12.32c-.362 1.76-.804 3.38-.983 3.6-.486.597-17.8.577-18.029-.021z" id="path4507" fill="#024f99"/></g></svg>