<?xml version="1.0" encoding="UTF-8" standalone="no"?>
<svg
   xmlns:dc="http://purl.org/dc/elements/1.1/"
   xmlns:cc="http://creativecommons.org/ns#"
   xmlns:rdf="http://www.w3.org/1999/02/22-rdf-syntax-ns#"
   xmlns:svg="http://www.w3.org/2000/svg"
   xmlns="http://www.w3.org/2000/svg"
   xmlns:sodipodi="http://sodipodi.sourceforge.net/DTD/sodipodi-0.dtd"
   xmlns:inkscape="http://www.inkscape.org/namespaces/inkscape"
   inkscape:version="1.0 (4035a4fb49, 2020-05-01)"
   sodipodi:docname="gasan.svg"
   height="100"
   width="100"
   id="svg2"
   version="1.1">
  <metadata
     id="metadata74">
    <rdf:RDF>
      <cc:Work
         rdf:about="">
        <dc:format>image/svg+xml</dc:format>
        <dc:type
           rdf:resource="http://purl.org/dc/dcmitype/StillImage" />
        <dc:title></dc:title>
      </cc:Work>
    </rdf:RDF>
  </metadata>
  <defs
     id="defs72" />
  <sodipodi:namedview
     inkscape:current-layer="svg2"
     inkscape:window-maximized="0"
     inkscape:window-y="33"
     inkscape:window-x="0"
     inkscape:cy="6.7917087"
     inkscape:cx="-5.7270946"
     inkscape:zoom="2.4464998"
     showgrid="false"
     id="namedview70"
     inkscape:window-height="734"
     inkscape:window-width="1364"
     inkscape:pageshadow="2"
     inkscape:pageopacity="0"
     guidetolerance="10"
     gridtolerance="10"
     objecttolerance="10"
     borderopacity="1"
     bordercolor="#666666"
     pagecolor="#ffffff" />
  <g
     stroke-width="0.190911"
     transform="matrix(0.21089626,0,0,0.21089626,21.636819,10.370608)"
     id="g4505">
    <path
       style="stroke-width:0.113897"
       fill="#00a0e3"
       id="path4509"
       d="M 69.267,373.847 C 43.999,358.35 24.634,334.219 12.32,302.88 6.37,287.737 2.83,272.804 0.754,254.08 -0.11,246.288 -0.021,228.35 0.922,220.495 2.805,204.805 6.14,191.49 11.089,179.903 c 2.028,-4.75 4.343,-9.258 4.507,-8.78 0.076,0.22 -0.23,1.948 -0.68,3.84 -1.888,7.931 -4.388,21.955 -5.029,28.202 -0.503,4.912 -0.213,11.623 0.645,14.915 1.987,7.623 6.599,12.327 13.538,13.807 3.211,0.686 9.172,0.426 12.25,-0.532 3.763,-1.172 5.85,-2.468 8.913,-5.538 l 2.833,-2.84 -0.113,3.472 -0.113,3.471 6.756,0.086 c 5.164,0.066 6.83,-0.009 7.07,-0.32 0.452,-0.583 10.423,-47.872 10.211,-48.425 -0.15,-0.392 -2.313,-0.461 -14.434,-0.461 H 43.186 l -0.298,0.72 C 42.496,182.467 40,194.435 40,195.368 c 0,0.987 0.59,1.144 4.072,1.085 1.648,-0.028 3.087,0.04 3.197,0.149 0.305,0.305 -1.99,9.406 -3.094,12.27 -1.756,4.552 -4.247,6.54 -8.284,6.61 -2.654,0.047 -4.015,-0.666 -5.067,-2.656 -1.39,-2.628 -1.142,-4.413 3.93,-28.346 3.241,-15.29 4.226,-19.54 5.304,-22.88 1.9,-5.89 4.215,-7.91 8.735,-7.623 2.396,0.153 3.934,1.142 5.039,3.242 0.605,1.15 0.702,1.822 0.679,4.701 -0.015,1.848 -0.197,4.263 -0.405,5.366 -0.207,1.103 -0.289,2.147 -0.182,2.32 0.12,0.194 3.841,0.314 9.736,0.314 7.899,0 9.607,-0.08 9.923,-0.46 0.21,-0.252 0.602,-2.376 0.873,-4.72 1.382,-11.972 -2.428,-20.664 -10.82,-24.687 -4.675,-2.24 -6.462,-2.583 -13.556,-2.6 -3.344,-0.007 -6.98,0.11 -8.08,0.258 -1.1,0.15 -1.996,0.15 -1.991,0 0.005,-0.149 1.675,-2.215 3.712,-4.591 33.637,-39.24 48.87,-61.245 58.658,-84.738 6.427,-15.428 9.372,-31.777 8.068,-44.791 -0.128,-1.281 -0.142,-2.478 -0.03,-2.66 0.257,-0.414 5.514,1.89 9.98,4.378 8.779,4.886 15.92,10.325 23.463,17.87 10.014,10.017 17.505,20.75 24.247,34.741 9.8,20.335 15.375,42.814 16.884,68.071 0.41,6.866 0.218,22.485 -0.348,28.249 -0.806,8.21 -2.564,20 -3.4,22.805 -0.275,0.918 -0.674,0.351 -0.903,-1.281 -0.83,-5.926 -4.13,-10.524 -9.39,-13.084 -5.898,-2.87 -16.938,-3.238 -23.89,-0.794 -7.623,2.68 -12,8.993 -12.015,17.327 -0.014,7.98 4.286,14.608 15.625,24.086 2.525,2.11 5.143,4.535 5.817,5.388 3.834,4.851 1.312,10.833 -4.567,10.833 -4.817,0 -6.847,-2.871 -7.354,-10.4 l -0.086,-1.28 h -16.64 l 0.036,4.16 c 0.031,3.58 0.155,4.527 0.894,6.8 1.143,3.52 3.028,6.221 5.805,8.324 3.726,2.82 8.492,4.241 15.922,4.745 1.917,0.13 2.778,0.31 2.696,0.561 -0.066,0.204 -4.213,3.958 -9.216,8.343 -9.915,8.69 -23.015,21.56 -27.874,27.387 -23.18,27.794 -36.303,59.967 -41.635,102.076 -0.548,4.328 -0.817,5.616 -1.188,5.687 -0.264,0.05 -2.07,-0.884 -4.013,-2.076 z M 92,231.157 c 2.512,-0.643 5.604,-2.284 8.088,-4.294 2.225,-1.8 2.25,-1.79 2.384,1.137 l 0.088,1.92 h 18.24 l 0.032,-5.44 0.031,-5.44 3.393,-15.68 c 3.616,-16.717 4.387,-21.091 4.378,-24.841 -0.02,-8.925 -4.68,-14.81 -13.716,-17.325 -2.153,-0.6 -3.281,-0.679 -9.638,-0.679 -6.415,0 -7.48,0.076 -9.76,0.7 -8.488,2.324 -13.817,7.617 -16.303,16.197 -0.45,1.55 -0.817,3.31 -0.817,3.909 v 1.09 l 8.56,-0.086 8.56,-0.085 0.42,-1.44 c 0.63,-2.163 2.012,-5.039 2.758,-5.74 1.926,-1.807 5.884,-2.47 8.5,-1.424 3.277,1.312 3.988,6.023 1.37,9.082 -2.355,2.751 -6.137,4.557 -14.113,6.74 -10.395,2.845 -13.639,4.308 -16.995,7.664 -4.04,4.04 -5.737,8.566 -5.999,15.998 -0.247,7.019 0.835,10.924 4,14.446 1.688,1.877 5.16,3.678 7.899,4.098 2.367,0.363 6.09,0.144 8.64,-0.508 z m 2.4,-13.213 c -2.38,-0.468 -3.743,-2.042 -4.18,-4.824 -0.483,-3.076 0.781,-7.483 2.628,-9.164 0.933,-0.849 2.947,-1.87 5.69,-2.888 1.156,-0.428 3.362,-1.372 4.902,-2.096 1.54,-0.725 2.866,-1.252 2.947,-1.171 0.204,0.203 -2.233,10.854 -3.033,13.257 -1.056,3.173 -2.492,5.281 -4.154,6.1 -1.699,0.836 -3.254,1.09 -4.8,0.786 z m 96.8,13.844 c -7.367,-1.586 -11.375,-6.844 -11.876,-15.58 -0.354,-6.163 1.028,-11.924 3.894,-16.236 3.501,-5.266 6.75,-6.975 20.622,-10.848 10.352,-2.89 14.792,-6.368 14.326,-11.222 -0.292,-3.042 -2.352,-4.61 -6.006,-4.57 -4.222,0.044 -6.407,1.99 -7.853,6.998 -0.304,1.05 -0.713,2.016 -0.91,2.145 -0.52,0.342 -16.272,0.289 -16.819,-0.057 -0.695,-0.44 0.868,-6.396 2.596,-9.893 2.527,-5.113 7.336,-9.109 13.066,-10.856 5.205,-1.588 15.41,-1.796 20.64,-0.422 9.024,2.371 13.417,7.622 13.814,16.513 0.222,4.973 -0.136,6.93 -7.129,39.04 -0.4,1.836 -0.564,4.098 -0.581,8 l -0.024,5.44 -8.96,0.085 c -10.287,0.098 -9.76,0.253 -9.76,-2.866 0,-1.022 -0.085,-1.859 -0.189,-1.859 -0.104,0 -0.932,0.633 -1.84,1.406 -3.827,3.258 -8.679,5.024 -13.622,4.957 -1.512,-0.02 -3.037,-0.1 -3.389,-0.175 z m 15.834,-14.345 c 1.618,-0.837 3.074,-2.846 4.083,-5.634 1.015,-2.805 3.531,-13.587 3.239,-13.88 -0.092,-0.091 -0.947,0.256 -1.901,0.773 -0.954,0.516 -3.092,1.456 -4.75,2.089 -4.37,1.667 -6.7,2.995 -7.571,4.314 -1.206,1.827 -1.764,3.84 -1.783,6.426 -0.026,3.667 0.881,5.305 3.468,6.261 1.385,0.512 3.871,0.346 5.215,-0.349 z m 29.897,12.517 c -0.093,-0.242 0.337,-2.798 0.955,-5.68 0.618,-2.882 1.843,-8.624 2.722,-12.76 l 3.215,-15.12 c 2.13,-10.008 4.49,-21.148 5.949,-28.08 0.648,-3.08 1.325,-5.78 1.503,-6 0.39,-0.482 16.412,-0.586 16.708,-0.108 0.099,0.16 -0.037,1.322 -0.302,2.58 -0.264,1.26 -0.481,2.352 -0.481,2.429 0,0.462 0.91,-0.073 2.692,-1.586 3.561,-3.02 6.501,-4.406 10.54,-4.968 6.958,-0.968 13.08,2.061 15.305,7.574 0.672,1.663 0.74,2.313 0.714,6.799 -0.034,5.643 0.455,2.983 -6.53,35.55 -2.429,11.328 -4.304,19.383 -4.547,19.538 -0.228,0.144 -4.415,0.264 -9.304,0.267 -7.554,0.004 -8.917,-0.066 -9.072,-0.468 -0.1,-0.26 0.549,-3.897 1.44,-8.08 0.892,-4.184 2.997,-14.087 4.677,-22.007 1.68,-7.92 3.285,-15.45 3.565,-16.734 0.308,-1.407 0.46,-3.235 0.383,-4.599 -0.111,-1.961 -0.24,-2.36 -0.966,-2.984 -1.69,-1.454 -4.691,-1.288 -6.66,0.368 -1.242,1.046 -2.665,3.834 -3.512,6.884 -0.358,1.29 -1.802,7.745 -3.21,14.345 l -4.764,22.361 c -1.33,6.24 -2.379,10.47 -2.639,10.635 -0.238,0.151 -4.433,0.276 -9.322,0.28 -7.249,0.003 -8.921,-0.077 -9.059,-0.436 z m -64.93,-30.18 c -1.682,-2.535 -6.162,-6.949 -11.681,-11.51 -4.88,-4.034 -7.013,-6.417 -7.853,-8.771 -0.909,-2.548 0.047,-5.464 2.159,-6.59 1.516,-0.809 4.574,-0.773 6.013,0.07 2.163,1.268 3.061,3.307 3.409,7.741 l 0.206,2.64 h 7.127 c 3.92,0 7.354,0.087 7.633,0.194 0.278,0.107 0.506,0.388 0.506,0.626 0,0.737 -3.12,10.697 -4.397,14.035 -0.668,1.747 -1.368,3.227 -1.557,3.29 -0.189,0.062 -0.892,-0.714 -1.564,-1.726 z" />
    <path
       style="stroke-width:0.113897"
       fill="#024f99"
       id="path4507"
       d="m 190.501,231.366 c -3.345,-0.713 -6.78,-3.197 -8.508,-6.154 -3.772,-6.455 -3.065,-18.305 1.502,-25.175 2.994,-4.503 7.238,-6.959 16.345,-9.459 9.597,-2.634 13.387,-4.208 16.074,-6.675 2.426,-2.228 3.268,-5.156 2.21,-7.688 -1.754,-4.198 -9.293,-4.377 -12.17,-0.29 -0.51,0.723 -1.309,2.44 -1.775,3.815 l -0.848,2.5 -8.234,0.085 c -6.907,0.072 -8.261,0.012 -8.409,-0.373 -0.307,-0.801 1.442,-6.651 2.834,-9.472 2.66,-5.395 7.605,-9.205 14.158,-10.91 3.344,-0.87 11.688,-1.195 15.9,-0.62 9.227,1.262 14.704,5.599 16.453,13.03 1.088,4.624 0.4,9.966 -3.704,28.74 a 15712.99,15712.99 0 0 0 -2.794,12.8 c -0.698,3.214 -0.84,4.7 -0.865,9.12 l -0.03,5.28 -8.778,0.085 c -6.81,0.066 -8.835,-0.006 -9.035,-0.32 -0.141,-0.223 -0.26,-1.305 -0.262,-2.405 -0.003,-1.228 -0.14,-2 -0.354,-2 -0.192,0 -1.092,0.63 -2,1.4 -2.004,1.7 -4.564,3.163 -7.11,4.067 -2.142,0.76 -8.26,1.117 -10.6,0.619 z m 15.538,-13.304 c 2.202,-0.653 3.878,-2.386 4.986,-5.154 1.352,-3.375 4.057,-14.893 3.604,-15.345 -0.12,-0.12 -1.048,0.222 -2.063,0.761 -1.015,0.539 -3.214,1.515 -4.886,2.17 -6.624,2.597 -8.102,3.796 -9.16,7.436 -0.718,2.47 -0.514,6.75 0.38,7.947 0.919,1.23 2.109,2.062 3.38,2.362 1.611,0.38 1.933,0.366 3.76,-0.177 z m 31.22,11.597 c -0.09,-0.232 0.415,-3.076 1.12,-6.32 0.705,-3.244 2.578,-12.019 4.16,-19.499 5.707,-26.962 8.669,-40.807 8.814,-41.2 0.112,-0.305 2.037,-0.4 8.138,-0.4 4.395,0 8.06,0.113 8.146,0.25 0.085,0.139 -0.05,1.327 -0.3,2.64 -0.251,1.315 -0.456,2.498 -0.457,2.63 0,0.564 0.809,0.147 2.273,-1.169 5.049,-4.54 10.49,-6.435 16.19,-5.642 4.198,0.583 7.454,2.573 9.262,5.66 2.494,4.254 2.342,9.752 -0.654,23.752 -0.777,3.63 -2.962,13.871 -4.857,22.759 -1.894,8.888 -3.58,16.34 -3.748,16.56 -0.23,0.303 -2.464,0.4 -9.225,0.4 -7.768,0 -8.921,-0.063 -8.921,-0.486 0,-0.268 0.728,-3.904 1.617,-8.08 0.89,-4.177 2.337,-10.978 3.216,-15.114 0.88,-4.136 2.465,-11.552 3.523,-16.48 1.585,-7.38 1.905,-9.375 1.816,-11.313 -0.099,-2.163 -0.188,-2.425 -1.096,-3.236 -2.661,-2.378 -6.955,-1.008 -8.9,2.84 -1.29,2.555 -2.349,6.476 -4.48,16.593 -1.14,5.41 -2.95,13.94 -4.02,18.956 a 2538.024,2538.024 0 0 0 -2.606,12.32 c -0.362,1.76 -0.804,3.38 -0.983,3.6 -0.486,0.597 -17.8,0.577 -18.029,-0.021 z" />
  </g>
</svg>
