<svg xmlns="http://www.w3.org/2000/svg" version="1.1" id="svg2" width="200" height="50"><g id="g4509" transform="translate(45.744 1.245) scale(.33537)"><g transform="translate(.765)" id="g4487"><path id="path4493" d="M75.907 108.68c-5.918-3.116-9.04-8.789-9.66-17.552-.605-8.534 1-14.29 5.319-19.069 6.202-6.865 17.157-7.51 23.667-1.39 3.581 3.365 5.323 7.13 6.287 13.59 1.085 7.276.3 7.741-13.083 7.741-6.625 0-11.58.424-11.95 1.021-.347.562.189 2.7 1.19 4.75 1.386 2.834 2.833 4.078 6.03 5.183 3.748 1.296 4.766 1.277 9.31-.177 5.582-1.785 6.473-1.264 5.812 3.4-.705 4.98-15.209 6.563-22.922 2.503zM91.27 83.738c.267-.694-.023-2.817-.643-4.716-2.376-7.28-10.265-7.526-13.238-.412-2.324 5.563-1.486 6.39 6.473 6.39 4.652 0 7.083-.414 7.408-1.262zm25.599 25.752c-1.448-.786-3.013-2.23-3.479-3.21-.466-.979-1.082-8.302-1.368-16.273l-.522-14.492-3-.512c-2.622-.447-3.039-.976-3.306-4.19-.292-3.505-.15-3.693 3-3.995 3.105-.299 3.324-.572 3.61-4.492.29-3.986.512-4.246 4.92-5.747 2.538-.865 4.866-1.322 5.174-1.015.307.307.793 2.894 1.08 5.747.507 5.042.621 5.203 4.022 5.689 3.238.463 3.5.762 3.5 4 0 3.323-.19 3.516-3.75 3.81l-3.75.31v12.74c0 13.74.47 15.14 5.083 15.14 2.084 0 2.793.571 3.173 2.556.284 1.488-.115 3.16-.955 4-1.862 1.862-9.958 1.822-13.432-.066zm58.631-.37c-7.537-3.462-10.722-9.643-10.722-20.809 0-12.036 4.404-18.667 14.14-21.289 9.008-2.425 17.698 1.45 21.73 9.69 2.331 4.765 2.555 6.191 2.16 13.727-.37 7.063-.882 9.074-3.19 12.563-4.887 7.384-15.498 10.075-24.118 6.117zm13.35-8.19c2.236-2.4 3.15-6.196 3.15-13.087 0-11.475-7.092-17.632-13.03-11.31-4.128 4.393-4.072 20.365.086 24.523 2.557 2.558 7.352 2.496 9.794-.125zm36.914 9.074c-11.146-3.356-17.297-14.303-14.798-26.338 2.365-11.394 9.081-16.724 21.967-17.436 4.185-.23 8.825.071 10.38.676 2.399.931 2.768 1.572 2.5 4.343L245.5 74.5H238c-9.084 0-12.142 1.688-14.568 8.04-2.155 5.64-1.253 12.33 2.217 16.455 2.013 2.392 3.323 3.005 6.42 3.005 3.288 0 3.988-.378 4.502-2.428.966-3.85-.359-6.572-3.199-6.572-2.269 0-2.465-.336-2.182-3.75l.31-3.75h15l.281 11.694.282 11.695-3.782 1.05c-4.394 1.22-13.568 1.254-17.517.065zm76.236.107c-1.854-.511-2.567-1.455-2.76-3.65-.428-4.857.787-5.8 5.751-4.463 5.398 1.453 8.767.628 10.19-2.496 1.496-3.282.241-4.648-7.669-8.35-7.175-3.357-8.873-5.68-8.884-12.152-.015-8.528 5.902-13 17.201-13 7.045 0 9.468 1.493 9.007 5.55-.336 2.948-.34 2.95-6.391 2.613-4.54-.253-6.375.048-7.333 1.202-2.345 2.826-.697 5.023 6.896 9.196 7.982 4.387 9.956 6.849 9.974 12.439.025 8.15-7.587 14.025-17.982 13.878-3.025-.042-6.625-.388-8-.767zM0 80.961V51.922l8.746.29 8.747.288 5.19 18.854c5.193 18.861 5.784 20.512 6.93 19.367.513-.514 6.772-21.471 10.455-35.01l1.03-3.79 8.201.29 8.201.289v57l-4.75.305-4.75.305-.015-20.305c-.015-19.233-.835-25.965-2.603-21.358-.4 1.04-3.471 10.703-6.827 21.472L32.454 109.5H24.76L21.331 98c-7.836-26.276-9.457-31.04-10.37-30.475-.565.348-.961 9.23-.961 21.534V110H0zm139.447 27.76c-.27-.702-.368-10.265-.219-21.25L139.5 67.5l4.328-.311c3.67-.264 4.41.002 4.866 1.75.58 2.216 2.758 2.756 3.87.959.374-.606 2.24-1.754 4.145-2.55 4.046-1.69 6.291-.55 6.291 3.193 0 3.924-1.092 5.459-3.884 5.459-7.024 0-9.102 5.077-9.11 22.25L150 110h-5.031c-3.162 0-5.214-.475-5.522-1.278zm114.625-.471c.04-.963 3.077-10.525 6.75-21.25l6.678-19.5 6.75-.296c3.712-.162 6.75-.068 6.75.21s2.924 9.636 6.497 20.796 6.498 20.65 6.5 21.09c.002.44-2.572.665-5.72.5l-5.721-.3-1.118-4-1.118-4h-6.301c-6.647 0-7.048.256-8.995 5.75-.888 2.506-1.42 2.75-6 2.75-4.145 0-5.011-.306-4.952-1.75zm23.166-16.5c.645-1.785-2.2-13.75-3.268-13.75-1.05 0-3.97 9.327-3.97 12.682 0 1.969.511 2.318 3.393 2.318 1.866 0 3.596-.563 3.845-1.25zm-93.659-50.486c-12.056-7.033-22.075-13.252-22.264-13.818-.246-.74 36.575-23.011 44.856-27.133 1.145-.57 45.314 25.46 45.584 26.864.248 1.292-41.25 26.023-44.633 26.599-.892.152-11.486-5.479-23.543-12.512z" fill="#00b3e3" fill-opacity="1"/><path id="path4491" d="M75.907 108.68c-5.918-3.116-9.04-8.789-9.66-17.552-.605-8.534 1-14.29 5.319-19.069 6.202-6.865 17.157-7.51 23.667-1.39 3.581 3.365 5.323 7.13 6.287 13.59 1.085 7.276.3 7.741-13.083 7.741-6.625 0-11.58.424-11.95 1.021-.347.562.189 2.7 1.19 4.75 1.386 2.834 2.833 4.078 6.03 5.183 3.748 1.296 4.766 1.277 9.31-.177 5.582-1.785 6.473-1.264 5.812 3.4-.705 4.98-15.209 6.563-22.922 2.503zM91.27 83.738c.267-.694-.023-2.817-.643-4.716-2.376-7.28-10.265-7.526-13.238-.412-2.324 5.563-1.486 6.39 6.473 6.39 4.652 0 7.083-.414 7.408-1.262zm25.599 25.752c-1.448-.786-3.013-2.23-3.479-3.21-.466-.979-1.082-8.302-1.368-16.273l-.522-14.492-3-.512c-2.622-.447-3.039-.976-3.306-4.19-.292-3.505-.15-3.693 3-3.995 3.105-.299 3.324-.572 3.61-4.492.29-3.986.512-4.246 4.92-5.747 2.538-.865 4.866-1.322 5.174-1.015.307.307.793 2.894 1.08 5.747.507 5.042.621 5.203 4.022 5.689 3.238.463 3.5.762 3.5 4 0 3.323-.19 3.516-3.75 3.81l-3.75.31v12.74c0 13.74.47 15.14 5.083 15.14 2.084 0 2.793.571 3.173 2.556.284 1.488-.115 3.16-.955 4-1.862 1.862-9.958 1.822-13.432-.066zm58.631-.37c-7.537-3.462-10.722-9.643-10.722-20.809 0-12.036 4.404-18.667 14.14-21.289 9.008-2.425 17.698 1.45 21.73 9.69 2.331 4.765 2.555 6.191 2.16 13.727-.37 7.063-.882 9.074-3.19 12.563-4.887 7.384-15.498 10.075-24.118 6.117zm13.35-8.19c2.236-2.4 3.15-6.196 3.15-13.087 0-11.475-7.092-17.632-13.03-11.31-4.128 4.393-4.072 20.365.086 24.523 2.557 2.558 7.352 2.496 9.794-.125zm36.914 9.074c-11.146-3.356-17.297-14.303-14.798-26.338 2.365-11.394 9.081-16.724 21.967-17.436 4.185-.23 8.825.071 10.38.676 2.399.931 2.768 1.572 2.5 4.343L245.5 74.5H238c-9.084 0-12.142 1.688-14.568 8.04-2.155 5.64-1.253 12.33 2.217 16.455 2.013 2.392 3.323 3.005 6.42 3.005 3.288 0 3.988-.378 4.502-2.428.966-3.85-.359-6.572-3.199-6.572-2.269 0-2.465-.336-2.182-3.75l.31-3.75h15l.281 11.694.282 11.695-3.782 1.05c-4.394 1.22-13.568 1.254-17.517.065zm76.236.107c-1.854-.511-2.567-1.455-2.76-3.65-.428-4.857.787-5.8 5.751-4.463 5.398 1.453 8.767.628 10.19-2.496 1.496-3.282.241-4.648-7.669-8.35-7.175-3.357-8.873-5.68-8.884-12.152-.015-8.528 5.902-13 17.201-13 7.045 0 9.468 1.493 9.007 5.55-.336 2.948-.34 2.95-6.391 2.613-4.54-.253-6.375.048-7.333 1.202-2.345 2.826-.697 5.023 6.896 9.196 7.982 4.387 9.956 6.849 9.974 12.439.025 8.15-7.587 14.025-17.982 13.878-3.025-.042-6.625-.388-8-.767zM0 80.961V51.922l8.746.29 8.747.288 5.19 18.854c5.193 18.861 5.784 20.512 6.93 19.367.513-.514 6.772-21.471 10.455-35.01l1.03-3.79 8.201.29 8.201.289v57l-4.75.305-4.75.305-.015-20.305c-.015-19.233-.835-25.965-2.603-21.358-.4 1.04-3.471 10.703-6.827 21.472L32.454 109.5H24.76L21.331 98c-7.836-26.276-9.457-31.04-10.37-30.475-.565.348-.961 9.23-.961 21.534V110H0zm139.447 27.76c-.27-.702-.368-10.265-.219-21.25L139.5 67.5l4.328-.311c3.67-.264 4.41.002 4.866 1.75.58 2.216 2.758 2.756 3.87.959.374-.606 2.24-1.754 4.145-2.55 4.046-1.69 6.291-.55 6.291 3.193 0 3.924-1.092 5.459-3.884 5.459-7.024 0-9.102 5.077-9.11 22.25L150 110h-5.031c-3.162 0-5.214-.475-5.522-1.278zm114.625-.471c.04-.963 3.077-10.525 6.75-21.25l6.678-19.5 6.75-.296c3.712-.162 6.75-.068 6.75.21s2.924 9.636 6.497 20.796 6.498 20.65 6.5 21.09c.002.44-2.572.665-5.72.5l-5.721-.3-1.118-4-1.118-4h-6.301c-6.647 0-7.048.256-8.995 5.75-.888 2.506-1.42 2.75-6 2.75-4.145 0-5.011-.306-4.952-1.75zm23.166-16.5c.645-1.785-2.2-13.75-3.268-13.75-1.05 0-3.97 9.327-3.97 12.682 0 1.969.511 2.318 3.393 2.318 1.866 0 3.596-.563 3.845-1.25zm-93.656-51.578c-10.954-6.423-20.074-12.149-20.266-12.724-.192-.575 4.271-3.703 9.918-6.951a2098.28 2098.28 0 0021.692-12.701C201.21 4.058 206.47 1 206.613 1c.144 0 .303 11.475.353 25.5.086 23.839-.024 25.495-1.687 25.425-.978-.04-10.742-5.33-21.697-11.753z" fill="#035eb9"/><path id="path4489" d="M75.907 108.68c-5.918-3.116-9.04-8.789-9.66-17.552-.605-8.534 1-14.29 5.319-19.069 6.202-6.865 17.157-7.51 23.667-1.39 3.581 3.365 5.323 7.13 6.287 13.59 1.085 7.276.3 7.741-13.083 7.741-6.625 0-11.58.424-11.95 1.021-.347.562.189 2.7 1.19 4.75 1.386 2.834 2.833 4.078 6.03 5.183 3.748 1.296 4.766 1.277 9.31-.177 5.582-1.785 6.473-1.264 5.812 3.4-.705 4.98-15.209 6.563-22.922 2.503zM91.27 83.738c.267-.694-.023-2.817-.643-4.716-2.376-7.28-10.265-7.526-13.238-.412-2.324 5.563-1.486 6.39 6.473 6.39 4.652 0 7.083-.414 7.408-1.262zm25.599 25.752c-1.448-.786-3.013-2.23-3.479-3.21-.466-.979-1.082-8.302-1.368-16.273l-.522-14.492-3-.512c-2.622-.447-3.039-.976-3.306-4.19-.292-3.505-.15-3.693 3-3.995 3.105-.299 3.324-.572 3.61-4.492.29-3.986.512-4.246 4.92-5.747 2.538-.865 4.866-1.322 5.174-1.015.307.307.793 2.894 1.08 5.747.507 5.042.621 5.203 4.022 5.689 3.238.463 3.5.762 3.5 4 0 3.323-.19 3.516-3.75 3.81l-3.75.31v12.74c0 13.74.47 15.14 5.083 15.14 2.084 0 2.793.571 3.173 2.556.284 1.488-.115 3.16-.955 4-1.862 1.862-9.958 1.822-13.432-.066zm58.631-.37c-7.537-3.462-10.722-9.643-10.722-20.809 0-12.036 4.404-18.667 14.14-21.289 9.008-2.425 17.698 1.45 21.73 9.69 2.331 4.765 2.555 6.191 2.16 13.727-.37 7.063-.882 9.074-3.19 12.563-4.887 7.384-15.498 10.075-24.118 6.117zm13.35-8.19c2.236-2.4 3.15-6.196 3.15-13.087 0-11.475-7.092-17.632-13.03-11.31-4.128 4.393-4.072 20.365.086 24.523 2.557 2.558 7.352 2.496 9.794-.125zm36.914 9.074c-11.146-3.356-17.297-14.303-14.798-26.338 2.365-11.394 9.081-16.724 21.967-17.436 4.185-.23 8.825.071 10.38.676 2.399.931 2.768 1.572 2.5 4.343L245.5 74.5H238c-9.084 0-12.142 1.688-14.568 8.04-2.155 5.64-1.253 12.33 2.217 16.455 2.013 2.392 3.323 3.005 6.42 3.005 3.288 0 3.988-.378 4.502-2.428.966-3.85-.359-6.572-3.199-6.572-2.269 0-2.465-.336-2.182-3.75l.31-3.75h15l.281 11.694.282 11.695-3.782 1.05c-4.394 1.22-13.568 1.254-17.517.065zm76.236.107c-1.854-.511-2.567-1.455-2.76-3.65-.428-4.857.787-5.8 5.751-4.463 5.398 1.453 8.767.628 10.19-2.496 1.496-3.282.241-4.648-7.669-8.35-7.175-3.357-8.873-5.68-8.884-12.152-.015-8.528 5.902-13 17.201-13 7.045 0 9.468 1.493 9.007 5.55-.336 2.948-.34 2.95-6.391 2.613-4.54-.253-6.375.048-7.333 1.202-2.345 2.826-.697 5.023 6.896 9.196 7.982 4.387 9.956 6.849 9.974 12.439.025 8.15-7.587 14.025-17.982 13.878-3.025-.042-6.625-.388-8-.767zM0 80.961V51.922l8.746.29 8.747.288 5.19 18.854c5.193 18.861 5.784 20.512 6.93 19.367.513-.514 6.772-21.471 10.455-35.01l1.03-3.79 8.201.29 8.201.289v57l-4.75.305-4.75.305-.015-20.305c-.015-19.233-.835-25.965-2.603-21.358-.4 1.04-3.471 10.703-6.827 21.472L32.454 109.5H24.76L21.331 98c-7.836-26.276-9.457-31.04-10.37-30.475-.565.348-.961 9.23-.961 21.534V110H0zm139.447 27.76c-.27-.702-.368-10.265-.219-21.25L139.5 67.5l4.328-.311c3.67-.264 4.41.002 4.866 1.75.58 2.216 2.758 2.756 3.87.959.374-.606 2.24-1.754 4.145-2.55 4.046-1.69 6.291-.55 6.291 3.193 0 3.924-1.092 5.459-3.884 5.459-7.024 0-9.102 5.077-9.11 22.25L150 110h-5.031c-3.162 0-5.214-.475-5.522-1.278zm114.625-.471c.04-.963 3.077-10.525 6.75-21.25l6.678-19.5 6.75-.296c3.712-.162 6.75-.068 6.75.21s2.924 9.636 6.497 20.796 6.498 20.65 6.5 21.09c.002.44-2.572.665-5.72.5l-5.721-.3-1.118-4-1.118-4h-6.301c-6.647 0-7.048.256-8.995 5.75-.888 2.506-1.42 2.75-6 2.75-4.145 0-5.011-.306-4.952-1.75zm23.166-16.5c.645-1.785-2.2-13.75-3.268-13.75-1.05 0-3.97 9.327-3.97 12.682 0 1.969.511 2.318 3.393 2.318 1.866 0 3.596-.563 3.845-1.25z" fill="#231f20" fill-opacity="1"/></g><g aria-label="damos calor" style="line-height:31.42463303px;-inkscape-font-specification:'Noto Color Emoji';text-align:start" id="text4501" font-style="normal" font-variant="normal" font-weight="400" font-stretch="normal" font-size="28.282" font-family="Noto Color Emoji" letter-spacing="-.67" word-spacing="0" writing-mode="lr-tb" text-anchor="start" fill="#fd6b0d" fill-opacity=".984" stroke="none" stroke-width="1.257" stroke-linecap="butt" stroke-linejoin="miter" stroke-opacity="1"><path d="M125.124 127.034v-8.368h2.541v21.488h-2.541v-2.32q-.8 1.38-2.03 2.057-1.215.663-2.928.663-2.803 0-4.57-2.237-1.754-2.237-1.754-5.883t1.753-5.883q1.768-2.237 4.571-2.237 1.713 0 2.928.677 1.23.662 2.03 2.043zm-8.659 5.4q0 2.803 1.147 4.405 1.16 1.588 3.176 1.588t3.176-1.588q1.16-1.602 1.16-4.405t-1.16-4.392q-1.16-1.601-3.176-1.601t-3.176 1.601q-1.147 1.589-1.147 4.392z" id="path4488"/><path d="M139.258 132.379q-3.08 0-4.267.704-1.188.704-1.188 2.403 0 1.353.884 2.154.898.787 2.43.787 2.113 0 3.384-1.491 1.284-1.505 1.284-3.991v-.566zm5.068-1.05v8.825h-2.54v-2.348q-.87 1.408-2.169 2.085-1.298.663-3.176.663-2.375 0-3.784-1.326-1.395-1.34-1.395-3.576 0-2.61 1.74-3.936 1.754-1.326 5.22-1.326h3.563v-.248q0-1.754-1.16-2.707-1.146-.967-3.231-.967-1.326 0-2.583.318-1.256.317-2.416.953v-2.348q1.394-.539 2.706-.8 1.312-.277 2.555-.277 3.356 0 5.013 1.74t1.657 5.275z" id="path4490"/><path d="M160.946 127.656q.953-1.713 2.278-2.527 1.326-.815 3.121-.815 2.417 0 3.729 1.698 1.312 1.685 1.312 4.806v9.336h-2.555V130.9q0-2.223-.787-3.3-.787-1.078-2.403-1.078-1.975 0-3.12 1.312-1.147 1.312-1.147 3.577v8.742h-2.555V130.9q0-2.237-.787-3.3-.787-1.078-2.43-1.078-1.948 0-3.094 1.326-1.146 1.312-1.146 3.563v8.742h-2.555v-15.467h2.555v2.403q.87-1.423 2.085-2.1 1.215-.676 2.886-.676 1.685 0 2.859.856 1.188.856 1.754 2.486z" id="path4492"/><path d="M181.791 126.468q-2.044 0-3.231 1.602-1.188 1.588-1.188 4.364t1.174 4.378q1.188 1.588 3.245 1.588 2.03 0 3.218-1.602 1.188-1.602 1.188-4.364 0-2.748-1.188-4.35-1.188-1.616-3.218-1.616zm0-2.154q3.315 0 5.206 2.154 1.892 2.154 1.892 5.966 0 3.798-1.892 5.966-1.891 2.154-5.206 2.154-3.328 0-5.22-2.154-1.878-2.168-1.878-5.966 0-3.812 1.878-5.966 1.892-2.154 5.22-2.154z" id="path4494"/><path d="M202.278 125.142v2.403q-1.077-.552-2.238-.828-1.16-.276-2.402-.276-1.892 0-2.845.58-.94.58-.94 1.74 0 .883.677 1.394.677.498 2.72.953l.87.194q2.708.58 3.84 1.643 1.146 1.05 1.146 2.941 0 2.155-1.712 3.411-1.699 1.257-4.682 1.257-1.243 0-2.596-.249-1.34-.234-2.83-.718v-2.623q1.408.731 2.775 1.104 1.367.36 2.707.36 1.795 0 2.762-.608.966-.622.966-1.74 0-1.036-.704-1.588-.69-.553-3.052-1.064l-.884-.207q-2.361-.497-3.41-1.519-1.05-1.036-1.05-2.83 0-2.183 1.546-3.37 1.547-1.188 4.392-1.188 1.408 0 2.651.207 1.243.207 2.293.621z" id="path4496"/><path d="M225.96 125.28v2.376q-1.076-.594-2.167-.884-1.078-.304-2.182-.304-2.472 0-3.84 1.574-1.367 1.561-1.367 4.392 0 2.83 1.368 4.405 1.367 1.56 3.839 1.56 1.104 0 2.182-.29 1.09-.303 2.168-.897v2.348q-1.064.497-2.21.745-1.132.249-2.416.249-3.494 0-5.552-2.196-2.058-2.195-2.058-5.924 0-3.784 2.072-5.952 2.085-2.168 5.703-2.168 1.174 0 2.293.248 1.118.235 2.168.719z" id="path4498"/><path d="M236.767 132.379q-3.08 0-4.268.704-1.187.704-1.187 2.403 0 1.353.884 2.154.897.787 2.43.787 2.113 0 3.383-1.491 1.285-1.505 1.285-3.991v-.566zm5.068-1.05v8.825h-2.541v-2.348q-.87 1.408-2.168 2.085-1.298.663-3.177.663-2.375 0-3.783-1.326-1.395-1.34-1.395-3.576 0-2.61 1.74-3.936 1.754-1.326 5.22-1.326h3.563v-.248q0-1.754-1.16-2.707-1.146-.967-3.232-.967-1.325 0-2.582.318-1.257.317-2.417.953v-2.348q1.395-.539 2.707-.8 1.312-.277 2.555-.277 3.355 0 5.013 1.74 1.657 1.74 1.657 5.275z" id="path4500"/><path d="M246.412 118.666h2.541v21.488h-2.54z" id="path4502"/><path d="M259.58 126.468q-2.044 0-3.232 1.602-1.187 1.588-1.187 4.364t1.173 4.378q1.188 1.588 3.246 1.588 2.03 0 3.217-1.602 1.188-1.602 1.188-4.364 0-2.748-1.188-4.35-1.187-1.616-3.217-1.616zm0-2.154q3.314 0 5.206 2.154 1.892 2.154 1.892 5.966 0 3.798-1.892 5.966-1.892 2.154-5.206 2.154-3.328 0-5.22-2.154-1.879-2.168-1.879-5.966 0-3.812 1.879-5.966 1.892-2.154 5.22-2.154z" id="path4504"/><path d="M279.168 127.062q-.428-.249-.939-.359-.497-.124-1.104-.124-2.155 0-3.315 1.408-1.146 1.395-1.146 4.019v8.148h-2.555v-15.467h2.555v2.403q.801-1.409 2.085-2.086 1.285-.69 3.121-.69.263 0 .58.041.318.028.705.097z" id="path4506"/></g></g></svg>