<?xml version="1.0" encoding="UTF-8" standalone="no"?>
<svg
   xmlns:dc="http://purl.org/dc/elements/1.1/"
   xmlns:cc="http://creativecommons.org/ns#"
   xmlns:rdf="http://www.w3.org/1999/02/22-rdf-syntax-ns#"
   xmlns:svg="http://www.w3.org/2000/svg"
   xmlns="http://www.w3.org/2000/svg"
   xmlns:sodipodi="http://sodipodi.sourceforge.net/DTD/sodipodi-0.dtd"
   xmlns:inkscape="http://www.inkscape.org/namespaces/inkscape"
   inkscape:version="1.0 (4035a4fb49, 2020-05-01)"
   sodipodi:docname="metrogas.svg"
   height="100"
   width="100"
   id="svg2"
   version="1.1">
  <metadata
     id="metadata97">
    <rdf:RDF>
      <cc:Work
         rdf:about="">
        <dc:format>image/svg+xml</dc:format>
        <dc:type
           rdf:resource="http://purl.org/dc/dcmitype/StillImage" />
        <dc:title></dc:title>
      </cc:Work>
    </rdf:RDF>
  </metadata>
  <defs
     id="defs95" />
  <sodipodi:namedview
     inkscape:current-layer="svg2"
     inkscape:window-maximized="0"
     inkscape:window-y="33"
     inkscape:window-x="0"
     inkscape:cy="43.390907"
     inkscape:cx="48.157734"
     inkscape:zoom="2.9431791"
     showgrid="false"
     id="namedview93"
     inkscape:window-height="734"
     inkscape:window-width="1364"
     inkscape:pageshadow="2"
     inkscape:pageopacity="0"
     guidetolerance="10"
     gridtolerance="10"
     objecttolerance="10"
     borderopacity="1"
     bordercolor="#666666"
     pagecolor="#ffffff" />
  <g
     style="stroke-width:1.1502"
     transform="matrix(0.29157435,0,0,0.29157435,2.2625512,30.496278)"
     id="g4509">
    <g
       style="stroke-width:1.1502"
       id="g4487"
       transform="translate(0.765)">
      <path
         style="stroke-width:1.75225"
         fill-opacity="1"
         fill="#00b3e3"
         d="m 75.907,108.68 c -5.918,-3.116 -9.04,-8.789 -9.66,-17.552 -0.605,-8.534 1,-14.29 5.319,-19.069 6.202,-6.865 17.157,-7.51 23.667,-1.39 3.581,3.365 5.323,7.13 6.287,13.59 1.085,7.276 0.3,7.741 -13.083,7.741 -6.625,0 -11.58,0.424 -11.95,1.021 -0.347,0.562 0.189,2.7 1.19,4.75 1.386,2.834 2.833,4.078 6.03,5.183 3.748,1.296 4.766,1.277 9.31,-0.177 5.582,-1.785 6.473,-1.264 5.812,3.4 -0.705,4.98 -15.209,6.563 -22.922,2.503 z M 91.27,83.738 C 91.537,83.044 91.247,80.921 90.627,79.022 88.251,71.742 80.362,71.496 77.389,78.61 75.065,84.173 75.903,85 83.862,85 c 4.652,0 7.083,-0.414 7.408,-1.262 z m 25.599,25.752 c -1.448,-0.786 -3.013,-2.23 -3.479,-3.21 -0.466,-0.979 -1.082,-8.302 -1.368,-16.273 l -0.522,-14.492 -3,-0.512 c -2.622,-0.447 -3.039,-0.976 -3.306,-4.19 -0.292,-3.505 -0.15,-3.693 3,-3.995 3.105,-0.299 3.324,-0.572 3.61,-4.492 0.29,-3.986 0.512,-4.246 4.92,-5.747 2.538,-0.865 4.866,-1.322 5.174,-1.015 0.307,0.307 0.793,2.894 1.08,5.747 0.507,5.042 0.621,5.203 4.022,5.689 3.238,0.463 3.5,0.762 3.5,4 0,3.323 -0.19,3.516 -3.75,3.81 L 123,75.12 v 12.74 c 0,13.74 0.47,15.14 5.083,15.14 2.084,0 2.793,0.571 3.173,2.556 0.284,1.488 -0.115,3.16 -0.955,4 -1.862,1.862 -9.958,1.822 -13.432,-0.066 z m 58.631,-0.37 c -7.537,-3.462 -10.722,-9.643 -10.722,-20.809 0,-12.036 4.404,-18.667 14.14,-21.289 9.008,-2.425 17.698,1.45 21.73,9.69 2.331,4.765 2.555,6.191 2.16,13.727 -0.37,7.063 -0.882,9.074 -3.19,12.563 -4.887,7.384 -15.498,10.075 -24.118,6.117 z m 13.35,-8.19 c 2.236,-2.4 3.15,-6.196 3.15,-13.087 0,-11.475 -7.092,-17.632 -13.03,-11.31 -4.128,4.393 -4.072,20.365 0.086,24.523 2.557,2.558 7.352,2.496 9.794,-0.125 z m 36.914,9.074 c -11.146,-3.356 -17.297,-14.303 -14.798,-26.338 2.365,-11.394 9.081,-16.724 21.967,-17.436 4.185,-0.23 8.825,0.071 10.38,0.676 2.399,0.931 2.768,1.572 2.5,4.343 L 245.5,74.5 H 238 c -9.084,0 -12.142,1.688 -14.568,8.04 -2.155,5.64 -1.253,12.33 2.217,16.455 2.013,2.392 3.323,3.005 6.42,3.005 3.288,0 3.988,-0.378 4.502,-2.428 0.966,-3.85 -0.359,-6.572 -3.199,-6.572 -2.269,0 -2.465,-0.336 -2.182,-3.75 l 0.31,-3.75 h 15 l 0.281,11.694 0.282,11.695 -3.782,1.05 c -4.394,1.22 -13.568,1.254 -17.517,0.065 z M 302,110.111 c -1.854,-0.511 -2.567,-1.455 -2.76,-3.65 -0.428,-4.857 0.787,-5.8 5.751,-4.463 5.398,1.453 8.767,0.628 10.19,-2.496 1.496,-3.282 0.241,-4.648 -7.669,-8.35 -7.175,-3.357 -8.873,-5.68 -8.884,-12.152 -0.015,-8.528 5.902,-13 17.201,-13 7.045,0 9.468,1.493 9.007,5.55 -0.336,2.948 -0.34,2.95 -6.391,2.613 -4.54,-0.253 -6.375,0.048 -7.333,1.202 -2.345,2.826 -0.697,5.023 6.896,9.196 7.982,4.387 9.956,6.849 9.974,12.439 0.025,8.15 -7.587,14.025 -17.982,13.878 -3.025,-0.042 -6.625,-0.388 -8,-0.767 z M 0,80.961 V 51.922 l 8.746,0.29 8.747,0.288 5.19,18.854 c 5.193,18.861 5.784,20.512 6.93,19.367 0.513,-0.514 6.772,-21.471 10.455,-35.01 l 1.03,-3.79 8.201,0.29 8.201,0.289 v 57 L 52.75,109.805 48,110.11 47.985,89.805 C 47.97,70.572 47.15,63.84 45.382,68.447 c -0.4,1.04 -3.471,10.703 -6.827,21.472 L 32.454,109.5 H 24.76 L 21.331,98 C 13.495,71.724 11.874,66.96 10.961,67.525 10.396,67.873 10,76.755 10,89.059 V 110 H 0 Z m 139.447,27.76 c -0.27,-0.702 -0.368,-10.265 -0.219,-21.25 L 139.5,67.5 l 4.328,-0.311 c 3.67,-0.264 4.41,0.002 4.866,1.75 0.58,2.216 2.758,2.756 3.87,0.959 0.374,-0.606 2.24,-1.754 4.145,-2.55 4.046,-1.69 6.291,-0.55 6.291,3.193 0,3.924 -1.092,5.459 -3.884,5.459 -7.024,0 -9.102,5.077 -9.11,22.25 L 150,110 h -5.031 c -3.162,0 -5.214,-0.475 -5.522,-1.278 z m 114.625,-0.471 c 0.04,-0.963 3.077,-10.525 6.75,-21.25 l 6.678,-19.5 6.75,-0.296 c 3.712,-0.162 6.75,-0.068 6.75,0.21 0,0.278 2.924,9.636 6.497,20.796 3.573,11.16 6.498,20.65 6.5,21.09 0.002,0.44 -2.572,0.665 -5.72,0.5 l -5.721,-0.3 -1.118,-4 -1.118,-4 h -6.301 c -6.647,0 -7.048,0.256 -8.995,5.75 -0.888,2.506 -1.42,2.75 -6,2.75 -4.145,0 -5.011,-0.306 -4.952,-1.75 z m 23.166,-16.5 C 277.883,89.965 275.038,78 273.97,78 272.92,78 270,87.327 270,90.682 c 0,1.969 0.511,2.318 3.393,2.318 1.866,0 3.596,-0.563 3.845,-1.25 z M 183.579,41.264 C 171.523,34.231 161.504,28.012 161.315,27.446 161.069,26.706 197.89,4.435 206.171,0.313 c 1.145,-0.57 45.314,25.46 45.584,26.864 0.248,1.292 -41.25,26.023 -44.633,26.599 -0.892,0.152 -11.486,-5.479 -23.543,-12.512 z"
         id="path4493" />
      <path
         style="stroke-width:1.75225"
         fill="#035eb9"
         d="m 75.907,108.68 c -5.918,-3.116 -9.04,-8.789 -9.66,-17.552 -0.605,-8.534 1,-14.29 5.319,-19.069 6.202,-6.865 17.157,-7.51 23.667,-1.39 3.581,3.365 5.323,7.13 6.287,13.59 1.085,7.276 0.3,7.741 -13.083,7.741 -6.625,0 -11.58,0.424 -11.95,1.021 -0.347,0.562 0.189,2.7 1.19,4.75 1.386,2.834 2.833,4.078 6.03,5.183 3.748,1.296 4.766,1.277 9.31,-0.177 5.582,-1.785 6.473,-1.264 5.812,3.4 -0.705,4.98 -15.209,6.563 -22.922,2.503 z M 91.27,83.738 C 91.537,83.044 91.247,80.921 90.627,79.022 88.251,71.742 80.362,71.496 77.389,78.61 75.065,84.173 75.903,85 83.862,85 c 4.652,0 7.083,-0.414 7.408,-1.262 z m 25.599,25.752 c -1.448,-0.786 -3.013,-2.23 -3.479,-3.21 -0.466,-0.979 -1.082,-8.302 -1.368,-16.273 l -0.522,-14.492 -3,-0.512 c -2.622,-0.447 -3.039,-0.976 -3.306,-4.19 -0.292,-3.505 -0.15,-3.693 3,-3.995 3.105,-0.299 3.324,-0.572 3.61,-4.492 0.29,-3.986 0.512,-4.246 4.92,-5.747 2.538,-0.865 4.866,-1.322 5.174,-1.015 0.307,0.307 0.793,2.894 1.08,5.747 0.507,5.042 0.621,5.203 4.022,5.689 3.238,0.463 3.5,0.762 3.5,4 0,3.323 -0.19,3.516 -3.75,3.81 L 123,75.12 v 12.74 c 0,13.74 0.47,15.14 5.083,15.14 2.084,0 2.793,0.571 3.173,2.556 0.284,1.488 -0.115,3.16 -0.955,4 -1.862,1.862 -9.958,1.822 -13.432,-0.066 z m 58.631,-0.37 c -7.537,-3.462 -10.722,-9.643 -10.722,-20.809 0,-12.036 4.404,-18.667 14.14,-21.289 9.008,-2.425 17.698,1.45 21.73,9.69 2.331,4.765 2.555,6.191 2.16,13.727 -0.37,7.063 -0.882,9.074 -3.19,12.563 -4.887,7.384 -15.498,10.075 -24.118,6.117 z m 13.35,-8.19 c 2.236,-2.4 3.15,-6.196 3.15,-13.087 0,-11.475 -7.092,-17.632 -13.03,-11.31 -4.128,4.393 -4.072,20.365 0.086,24.523 2.557,2.558 7.352,2.496 9.794,-0.125 z m 36.914,9.074 c -11.146,-3.356 -17.297,-14.303 -14.798,-26.338 2.365,-11.394 9.081,-16.724 21.967,-17.436 4.185,-0.23 8.825,0.071 10.38,0.676 2.399,0.931 2.768,1.572 2.5,4.343 L 245.5,74.5 H 238 c -9.084,0 -12.142,1.688 -14.568,8.04 -2.155,5.64 -1.253,12.33 2.217,16.455 2.013,2.392 3.323,3.005 6.42,3.005 3.288,0 3.988,-0.378 4.502,-2.428 0.966,-3.85 -0.359,-6.572 -3.199,-6.572 -2.269,0 -2.465,-0.336 -2.182,-3.75 l 0.31,-3.75 h 15 l 0.281,11.694 0.282,11.695 -3.782,1.05 c -4.394,1.22 -13.568,1.254 -17.517,0.065 z M 302,110.111 c -1.854,-0.511 -2.567,-1.455 -2.76,-3.65 -0.428,-4.857 0.787,-5.8 5.751,-4.463 5.398,1.453 8.767,0.628 10.19,-2.496 1.496,-3.282 0.241,-4.648 -7.669,-8.35 -7.175,-3.357 -8.873,-5.68 -8.884,-12.152 -0.015,-8.528 5.902,-13 17.201,-13 7.045,0 9.468,1.493 9.007,5.55 -0.336,2.948 -0.34,2.95 -6.391,2.613 -4.54,-0.253 -6.375,0.048 -7.333,1.202 -2.345,2.826 -0.697,5.023 6.896,9.196 7.982,4.387 9.956,6.849 9.974,12.439 0.025,8.15 -7.587,14.025 -17.982,13.878 -3.025,-0.042 -6.625,-0.388 -8,-0.767 z M 0,80.961 V 51.922 l 8.746,0.29 8.747,0.288 5.19,18.854 c 5.193,18.861 5.784,20.512 6.93,19.367 0.513,-0.514 6.772,-21.471 10.455,-35.01 l 1.03,-3.79 8.201,0.29 8.201,0.289 v 57 L 52.75,109.805 48,110.11 47.985,89.805 C 47.97,70.572 47.15,63.84 45.382,68.447 c -0.4,1.04 -3.471,10.703 -6.827,21.472 L 32.454,109.5 H 24.76 L 21.331,98 C 13.495,71.724 11.874,66.96 10.961,67.525 10.396,67.873 10,76.755 10,89.059 V 110 H 0 Z m 139.447,27.76 c -0.27,-0.702 -0.368,-10.265 -0.219,-21.25 L 139.5,67.5 l 4.328,-0.311 c 3.67,-0.264 4.41,0.002 4.866,1.75 0.58,2.216 2.758,2.756 3.87,0.959 0.374,-0.606 2.24,-1.754 4.145,-2.55 4.046,-1.69 6.291,-0.55 6.291,3.193 0,3.924 -1.092,5.459 -3.884,5.459 -7.024,0 -9.102,5.077 -9.11,22.25 L 150,110 h -5.031 c -3.162,0 -5.214,-0.475 -5.522,-1.278 z m 114.625,-0.471 c 0.04,-0.963 3.077,-10.525 6.75,-21.25 l 6.678,-19.5 6.75,-0.296 c 3.712,-0.162 6.75,-0.068 6.75,0.21 0,0.278 2.924,9.636 6.497,20.796 3.573,11.16 6.498,20.65 6.5,21.09 0.002,0.44 -2.572,0.665 -5.72,0.5 l -5.721,-0.3 -1.118,-4 -1.118,-4 h -6.301 c -6.647,0 -7.048,0.256 -8.995,5.75 -0.888,2.506 -1.42,2.75 -6,2.75 -4.145,0 -5.011,-0.306 -4.952,-1.75 z m 23.166,-16.5 C 277.883,89.965 275.038,78 273.97,78 272.92,78 270,87.327 270,90.682 c 0,1.969 0.511,2.318 3.393,2.318 1.866,0 3.596,-0.563 3.845,-1.25 z M 183.582,40.172 c -10.954,-6.423 -20.074,-12.149 -20.266,-12.724 -0.192,-0.575 4.271,-3.703 9.918,-6.951 A 2098.28,2098.28 0 0 0 194.926,7.796 C 201.21,4.058 206.47,1 206.613,1 c 0.144,0 0.303,11.475 0.353,25.5 0.086,23.839 -0.024,25.495 -1.687,25.425 -0.978,-0.04 -10.742,-5.33 -21.697,-11.753 z"
         id="path4491" />
      <path
         style="stroke-width:1.75225"
         fill-opacity="1"
         fill="#231f20"
         d="m 75.907,108.68 c -5.918,-3.116 -9.04,-8.789 -9.66,-17.552 -0.605,-8.534 1,-14.29 5.319,-19.069 6.202,-6.865 17.157,-7.51 23.667,-1.39 3.581,3.365 5.323,7.13 6.287,13.59 1.085,7.276 0.3,7.741 -13.083,7.741 -6.625,0 -11.58,0.424 -11.95,1.021 -0.347,0.562 0.189,2.7 1.19,4.75 1.386,2.834 2.833,4.078 6.03,5.183 3.748,1.296 4.766,1.277 9.31,-0.177 5.582,-1.785 6.473,-1.264 5.812,3.4 -0.705,4.98 -15.209,6.563 -22.922,2.503 z M 91.27,83.738 C 91.537,83.044 91.247,80.921 90.627,79.022 88.251,71.742 80.362,71.496 77.389,78.61 75.065,84.173 75.903,85 83.862,85 c 4.652,0 7.083,-0.414 7.408,-1.262 z m 25.599,25.752 c -1.448,-0.786 -3.013,-2.23 -3.479,-3.21 -0.466,-0.979 -1.082,-8.302 -1.368,-16.273 l -0.522,-14.492 -3,-0.512 c -2.622,-0.447 -3.039,-0.976 -3.306,-4.19 -0.292,-3.505 -0.15,-3.693 3,-3.995 3.105,-0.299 3.324,-0.572 3.61,-4.492 0.29,-3.986 0.512,-4.246 4.92,-5.747 2.538,-0.865 4.866,-1.322 5.174,-1.015 0.307,0.307 0.793,2.894 1.08,5.747 0.507,5.042 0.621,5.203 4.022,5.689 3.238,0.463 3.5,0.762 3.5,4 0,3.323 -0.19,3.516 -3.75,3.81 L 123,75.12 v 12.74 c 0,13.74 0.47,15.14 5.083,15.14 2.084,0 2.793,0.571 3.173,2.556 0.284,1.488 -0.115,3.16 -0.955,4 -1.862,1.862 -9.958,1.822 -13.432,-0.066 z m 58.631,-0.37 c -7.537,-3.462 -10.722,-9.643 -10.722,-20.809 0,-12.036 4.404,-18.667 14.14,-21.289 9.008,-2.425 17.698,1.45 21.73,9.69 2.331,4.765 2.555,6.191 2.16,13.727 -0.37,7.063 -0.882,9.074 -3.19,12.563 -4.887,7.384 -15.498,10.075 -24.118,6.117 z m 13.35,-8.19 c 2.236,-2.4 3.15,-6.196 3.15,-13.087 0,-11.475 -7.092,-17.632 -13.03,-11.31 -4.128,4.393 -4.072,20.365 0.086,24.523 2.557,2.558 7.352,2.496 9.794,-0.125 z m 36.914,9.074 c -11.146,-3.356 -17.297,-14.303 -14.798,-26.338 2.365,-11.394 9.081,-16.724 21.967,-17.436 4.185,-0.23 8.825,0.071 10.38,0.676 2.399,0.931 2.768,1.572 2.5,4.343 L 245.5,74.5 H 238 c -9.084,0 -12.142,1.688 -14.568,8.04 -2.155,5.64 -1.253,12.33 2.217,16.455 2.013,2.392 3.323,3.005 6.42,3.005 3.288,0 3.988,-0.378 4.502,-2.428 0.966,-3.85 -0.359,-6.572 -3.199,-6.572 -2.269,0 -2.465,-0.336 -2.182,-3.75 l 0.31,-3.75 h 15 l 0.281,11.694 0.282,11.695 -3.782,1.05 c -4.394,1.22 -13.568,1.254 -17.517,0.065 z M 302,110.111 c -1.854,-0.511 -2.567,-1.455 -2.76,-3.65 -0.428,-4.857 0.787,-5.8 5.751,-4.463 5.398,1.453 8.767,0.628 10.19,-2.496 1.496,-3.282 0.241,-4.648 -7.669,-8.35 -7.175,-3.357 -8.873,-5.68 -8.884,-12.152 -0.015,-8.528 5.902,-13 17.201,-13 7.045,0 9.468,1.493 9.007,5.55 -0.336,2.948 -0.34,2.95 -6.391,2.613 -4.54,-0.253 -6.375,0.048 -7.333,1.202 -2.345,2.826 -0.697,5.023 6.896,9.196 7.982,4.387 9.956,6.849 9.974,12.439 0.025,8.15 -7.587,14.025 -17.982,13.878 -3.025,-0.042 -6.625,-0.388 -8,-0.767 z M 0,80.961 V 51.922 l 8.746,0.29 8.747,0.288 5.19,18.854 c 5.193,18.861 5.784,20.512 6.93,19.367 0.513,-0.514 6.772,-21.471 10.455,-35.01 l 1.03,-3.79 8.201,0.29 8.201,0.289 v 57 L 52.75,109.805 48,110.11 47.985,89.805 C 47.97,70.572 47.15,63.84 45.382,68.447 c -0.4,1.04 -3.471,10.703 -6.827,21.472 L 32.454,109.5 H 24.76 L 21.331,98 C 13.495,71.724 11.874,66.96 10.961,67.525 10.396,67.873 10,76.755 10,89.059 V 110 H 0 Z m 139.447,27.76 c -0.27,-0.702 -0.368,-10.265 -0.219,-21.25 L 139.5,67.5 l 4.328,-0.311 c 3.67,-0.264 4.41,0.002 4.866,1.75 0.58,2.216 2.758,2.756 3.87,0.959 0.374,-0.606 2.24,-1.754 4.145,-2.55 4.046,-1.69 6.291,-0.55 6.291,3.193 0,3.924 -1.092,5.459 -3.884,5.459 -7.024,0 -9.102,5.077 -9.11,22.25 L 150,110 h -5.031 c -3.162,0 -5.214,-0.475 -5.522,-1.278 z m 114.625,-0.471 c 0.04,-0.963 3.077,-10.525 6.75,-21.25 l 6.678,-19.5 6.75,-0.296 c 3.712,-0.162 6.75,-0.068 6.75,0.21 0,0.278 2.924,9.636 6.497,20.796 3.573,11.16 6.498,20.65 6.5,21.09 0.002,0.44 -2.572,0.665 -5.72,0.5 l -5.721,-0.3 -1.118,-4 -1.118,-4 h -6.301 c -6.647,0 -7.048,0.256 -8.995,5.75 -0.888,2.506 -1.42,2.75 -6,2.75 -4.145,0 -5.011,-0.306 -4.952,-1.75 z m 23.166,-16.5 C 277.883,89.965 275.038,78 273.97,78 272.92,78 270,87.327 270,90.682 c 0,1.969 0.511,2.318 3.393,2.318 1.866,0 3.596,-0.563 3.845,-1.25 z"
         id="path4489" />
    </g>
    <g
       stroke-opacity="1"
       stroke-linejoin="miter"
       stroke-linecap="butt"
       stroke-width="1.44581"
       stroke="none"
       fill-opacity="0.984"
       fill="#fd6b0d"
       text-anchor="start"
       writing-mode="lr-tb"
       word-spacing="0"
       letter-spacing="-0.67"
       font-family="'Noto Color Emoji'"
       font-size="28.282px"
       font-stretch="normal"
       font-weight="400"
       font-variant="normal"
       font-style="normal"
       id="text4501"
       style="line-height:31.4246px;-inkscape-font-specification:'Noto Color Emoji';text-align:start"
       aria-label="damos calor">
      <path
         style="stroke-width:1.44581"
         id="path4488"
         d="m 125.124,127.034 v -8.368 h 2.541 v 21.488 h -2.541 v -2.32 q -0.8,1.38 -2.03,2.057 -1.215,0.663 -2.928,0.663 -2.803,0 -4.57,-2.237 -1.754,-2.237 -1.754,-5.883 0,-3.646 1.753,-5.883 1.768,-2.237 4.571,-2.237 1.713,0 2.928,0.677 1.23,0.662 2.03,2.043 z m -8.659,5.4 q 0,2.803 1.147,4.405 1.16,1.588 3.176,1.588 2.016,0 3.176,-1.588 1.16,-1.602 1.16,-4.405 0,-2.803 -1.16,-4.392 -1.16,-1.601 -3.176,-1.601 -2.016,0 -3.176,1.601 -1.147,1.589 -1.147,4.392 z" />
      <path
         style="stroke-width:1.44581"
         id="path4490"
         d="m 139.258,132.379 q -3.08,0 -4.267,0.704 -1.188,0.704 -1.188,2.403 0,1.353 0.884,2.154 0.898,0.787 2.43,0.787 2.113,0 3.384,-1.491 1.284,-1.505 1.284,-3.991 v -0.566 z m 5.068,-1.05 v 8.825 h -2.54 v -2.348 q -0.87,1.408 -2.169,2.085 -1.298,0.663 -3.176,0.663 -2.375,0 -3.784,-1.326 -1.395,-1.34 -1.395,-3.576 0,-2.61 1.74,-3.936 1.754,-1.326 5.22,-1.326 h 3.563 v -0.248 q 0,-1.754 -1.16,-2.707 -1.146,-0.967 -3.231,-0.967 -1.326,0 -2.583,0.318 -1.256,0.317 -2.416,0.953 v -2.348 q 1.394,-0.539 2.706,-0.8 1.312,-0.277 2.555,-0.277 3.356,0 5.013,1.74 1.657,1.74 1.657,5.275 z" />
      <path
         style="stroke-width:1.44581"
         id="path4492"
         d="m 160.946,127.656 q 0.953,-1.713 2.278,-2.527 1.326,-0.815 3.121,-0.815 2.417,0 3.729,1.698 1.312,1.685 1.312,4.806 v 9.336 h -2.555 V 130.9 q 0,-2.223 -0.787,-3.3 -0.787,-1.078 -2.403,-1.078 -1.975,0 -3.12,1.312 -1.147,1.312 -1.147,3.577 v 8.742 h -2.555 V 130.9 q 0,-2.237 -0.787,-3.3 -0.787,-1.078 -2.43,-1.078 -1.948,0 -3.094,1.326 -1.146,1.312 -1.146,3.563 v 8.742 h -2.555 v -15.467 h 2.555 v 2.403 q 0.87,-1.423 2.085,-2.1 1.215,-0.676 2.886,-0.676 1.685,0 2.859,0.856 1.188,0.856 1.754,2.486 z" />
      <path
         style="stroke-width:1.44581"
         id="path4494"
         d="m 181.791,126.468 q -2.044,0 -3.231,1.602 -1.188,1.588 -1.188,4.364 0,2.776 1.174,4.378 1.188,1.588 3.245,1.588 2.03,0 3.218,-1.602 1.188,-1.602 1.188,-4.364 0,-2.748 -1.188,-4.35 -1.188,-1.616 -3.218,-1.616 z m 0,-2.154 q 3.315,0 5.206,2.154 1.892,2.154 1.892,5.966 0,3.798 -1.892,5.966 -1.891,2.154 -5.206,2.154 -3.328,0 -5.22,-2.154 -1.878,-2.168 -1.878,-5.966 0,-3.812 1.878,-5.966 1.892,-2.154 5.22,-2.154 z" />
      <path
         style="stroke-width:1.44581"
         id="path4496"
         d="m 202.278,125.142 v 2.403 q -1.077,-0.552 -2.238,-0.828 -1.16,-0.276 -2.402,-0.276 -1.892,0 -2.845,0.58 -0.94,0.58 -0.94,1.74 0,0.883 0.677,1.394 0.677,0.498 2.72,0.953 l 0.87,0.194 q 2.708,0.58 3.84,1.643 1.146,1.05 1.146,2.941 0,2.155 -1.712,3.411 -1.699,1.257 -4.682,1.257 -1.243,0 -2.596,-0.249 -1.34,-0.234 -2.83,-0.718 v -2.623 q 1.408,0.731 2.775,1.104 1.367,0.36 2.707,0.36 1.795,0 2.762,-0.608 0.966,-0.622 0.966,-1.74 0,-1.036 -0.704,-1.588 -0.69,-0.553 -3.052,-1.064 l -0.884,-0.207 q -2.361,-0.497 -3.41,-1.519 -1.05,-1.036 -1.05,-2.83 0,-2.183 1.546,-3.37 1.547,-1.188 4.392,-1.188 1.408,0 2.651,0.207 1.243,0.207 2.293,0.621 z" />
      <path
         style="stroke-width:1.44581"
         id="path4498"
         d="m 225.96,125.28 v 2.376 q -1.076,-0.594 -2.167,-0.884 -1.078,-0.304 -2.182,-0.304 -2.472,0 -3.84,1.574 -1.367,1.561 -1.367,4.392 0,2.83 1.368,4.405 1.367,1.56 3.839,1.56 1.104,0 2.182,-0.29 1.09,-0.303 2.168,-0.897 v 2.348 q -1.064,0.497 -2.21,0.745 -1.132,0.249 -2.416,0.249 -3.494,0 -5.552,-2.196 -2.058,-2.195 -2.058,-5.924 0,-3.784 2.072,-5.952 2.085,-2.168 5.703,-2.168 1.174,0 2.293,0.248 1.118,0.235 2.168,0.719 z" />
      <path
         style="stroke-width:1.44581"
         id="path4500"
         d="m 236.767,132.379 q -3.08,0 -4.268,0.704 -1.187,0.704 -1.187,2.403 0,1.353 0.884,2.154 0.897,0.787 2.43,0.787 2.113,0 3.383,-1.491 1.285,-1.505 1.285,-3.991 v -0.566 z m 5.068,-1.05 v 8.825 h -2.541 v -2.348 q -0.87,1.408 -2.168,2.085 -1.298,0.663 -3.177,0.663 -2.375,0 -3.783,-1.326 -1.395,-1.34 -1.395,-3.576 0,-2.61 1.74,-3.936 1.754,-1.326 5.22,-1.326 h 3.563 v -0.248 q 0,-1.754 -1.16,-2.707 -1.146,-0.967 -3.232,-0.967 -1.325,0 -2.582,0.318 -1.257,0.317 -2.417,0.953 v -2.348 q 1.395,-0.539 2.707,-0.8 1.312,-0.277 2.555,-0.277 3.355,0 5.013,1.74 1.657,1.74 1.657,5.275 z" />
      <path
         style="stroke-width:1.44581"
         id="path4502"
         d="m 246.412,118.666 h 2.541 v 21.488 h -2.54 z" />
      <path
         style="stroke-width:1.44581"
         id="path4504"
         d="m 259.58,126.468 q -2.044,0 -3.232,1.602 -1.187,1.588 -1.187,4.364 0,2.776 1.173,4.378 1.188,1.588 3.246,1.588 2.03,0 3.217,-1.602 1.188,-1.602 1.188,-4.364 0,-2.748 -1.188,-4.35 -1.187,-1.616 -3.217,-1.616 z m 0,-2.154 q 3.314,0 5.206,2.154 1.892,2.154 1.892,5.966 0,3.798 -1.892,5.966 -1.892,2.154 -5.206,2.154 -3.328,0 -5.22,-2.154 -1.879,-2.168 -1.879,-5.966 0,-3.812 1.879,-5.966 1.892,-2.154 5.22,-2.154 z" />
      <path
         style="stroke-width:1.44581"
         id="path4506"
         d="m 279.168,127.062 q -0.428,-0.249 -0.939,-0.359 -0.497,-0.124 -1.104,-0.124 -2.155,0 -3.315,1.408 -1.146,1.395 -1.146,4.019 v 8.148 h -2.555 v -15.467 h 2.555 v 2.403 q 0.801,-1.409 2.085,-2.086 1.285,-0.69 3.121,-0.69 0.263,0 0.58,0.041 0.318,0.028 0.705,0.097 z" />
    </g>
  </g>
</svg>
