<svg xmlns="http://www.w3.org/2000/svg" version="1.1" id="svg2" width="100" height="50"><g id="g4487" transform="translate(30.947 1.98) scale(.03875)"><path d="M762 1172.177c-87.773-53.484-152.895-138.925-189.538-248.677-13.688-40.999-21.661-77.846-26.614-123-3.177-28.962-3.185-81.695-.017-108.5 3.698-31.293 8.178-54.764 15.217-79.72 6.257-22.189 18.747-55.396 19.727-52.454.205.614-1.43 8.892-3.633 18.395-11.024 47.558-16.235 86.82-13.324 100.375 3.132 14.58 10.297 24.858 20.992 30.11 5.281 2.593 6.552 2.792 17.69 2.77 11.33-.021 12.43-.207 19.714-3.328 4.242-1.817 11.359-5.744 15.814-8.726 4.455-2.982 8.296-5.422 8.536-5.422.956 0 .298 5.172-2.479 19.5-4.349 22.439-7.456 30.393-13.748 35.192-3.153 2.405-4.785 2.858-11.381 3.158-7.372.335-7.844.222-11.067-2.658-3.214-2.872-3.382-3.372-3.733-11.1l-.368-8.092h-54.837l-1.06 2.75c-.625 1.624-.893 7.663-.654 14.75.316 9.352.898 13.258 2.638 17.702 4.503 11.5 14.935 19.626 30.811 24 6.776 1.867 10.405 2.15 27.314 2.136 17.923-.016 20.308-.232 29.491-2.681 29.545-7.878 47.265-23.684 56.959-50.806 3.988-11.16 7.922-28.573 14.086-62.351 2.509-13.75 7.045-38.5 10.08-55s6.587-35.85 7.893-43a46048 46048 0 017.48-40.768c2.81-15.272 4.834-28.21 4.5-28.75-.729-1.18-48.383-1.336-50.226-.165-.681.432-2.037 5.037-3.014 10.234-.99 5.266-2.274 9.449-2.9 9.449-.617 0-3.261-2.845-5.875-6.323-8.89-11.827-19.76-17.96-33.474-18.888-12.034-.815-22.751 2.643-33.827 10.914-2.93 2.187-5.585 3.719-5.901 3.402-2.206-2.205 32.3-46.43 78.195-100.22 67.72-79.368 97.774-117.81 127.984-163.7 57.851-87.877 83.499-162.982 79.454-232.668-.462-7.965-.517-14.803-.122-15.194.728-.724 15.953 6.195 31.006 14.092 19.864 10.42 46.088 29.555 66.77 48.718 25.016 23.179 51.55 57.858 71.057 92.867 62.377 111.953 82.06 268.42 50.76 403.5-7.805 33.68-19.74 68.015-32.086 92.309-4.964 9.767-6.148 9.786-4.352.067 1.527-8.258 1.308-21.007-.48-27.916-4.154-16.05-16.415-27.425-46.957-43.561-18.358-9.7-26.016-18.542-23.911-27.611 1.287-5.547 5.394-11.194 10.187-14.007 3.882-2.278 5.911-2.773 11.396-2.776 11.657-.008 15.41 5.185 14.538 20.122l-.474 8.126 23.972.733c13.862.424 24.35.355 24.867-.162 1.5-1.5 2.925-11.143 2.912-19.71-.036-24.704-13.215-40.53-38.488-46.218-11.659-2.624-32.095-2.409-43.877.463-23.954 5.839-42.138 20.024-52.098 40.641-5.788 11.982-7.844 20.625-7.852 33-.017 26.829 11.037 40.415 50.827 62.47 18.7 10.365 23.673 15.966 22.016 24.799-2.171 11.57-11.22 19.457-22.518 19.624-7.197.106-11.762-2.487-14.748-8.378-1.853-3.656-2.25-6.077-2.25-13.727V653h-50.049l-1.096 2.75c-1.732 4.351-2.313 26.146-.863 32.373 1.942 8.34 7.635 18.357 13.355 23.5 10.043 9.029 21.96 13.205 40.153 14.069 21.206 1.007 40.199-3.155 56.85-12.459.467-.26.388.389-.177 1.444-1.417 2.648-13.694 14.22-32.673 30.8-47.092 41.135-74.065 67.148-95.422 92.023-73.484 85.594-116.304 189.639-133.04 323.268-1.121 8.947-2.038 16.485-2.038 16.75 0 1.404-3.447-.13-12-5.341zm43.109-451.205c8.355-2.804 17.935-7.894 25.377-13.485 3.293-2.473 6.443-4.344 7-4.158.571.19 1.014 3.795 1.014 8.255v7.916l29.039.265 29.038.265.038-14.765c.039-15.393.584-19.486 7.894-59.265 16.61-90.39 17.02-93.054 16.197-105.304-1.633-24.304-21.864-37.741-59.28-39.373-42.588-1.858-71.39 11.24-87.247 39.677-3.495 6.268-8.87 21.784-9.354 27l-.325 3.5 28.175.265 28.174.266 1.667-5.735c3.566-12.267 8.652-18.417 17.31-20.934 7.581-2.204 13.583-1.153 17.864 3.128 3.035 3.035 3.31 3.825 3.31 9.509 0 7.843-1.864 11.794-8.287 17.57-6.284 5.65-16.164 10.426-39.213 18.96-20.875 7.728-30.957 12.714-41.467 20.506-10.335 7.664-17.129 15.621-22.516 26.375-10.007 19.975-12.215 44.464-5.434 60.283 4.097 9.56 13.255 17.93 22.402 20.473 10.748 2.99 27.72 2.465 38.624-1.194zm2.91-42.66c-1.913-.997-4.544-3.387-5.845-5.312-2.102-3.11-2.318-4.356-1.939-11.185 1.019-18.357 14.37-32.25 39.203-40.794 7.498-2.58 9.562-2.585 9.562-.028 0 4.37-5.22 28.965-7.68 36.186-4.772 14.005-12.765 21.35-24.417 22.439-4.025.376-6.29.043-8.883-1.307zM291 724.477c-27.72-4.33-46.01-19.45-51.45-42.53-4.043-17.149.413-54.434 11.936-99.891 12.134-47.87 28.969-70.114 59.172-78.188 9.796-2.619 38.317-3.756 48.975-1.954 27.903 4.72 45.495 19.5 50.983 42.835 4.277 18.184-1.357 60.755-14.26 107.75-6.638 24.177-12.01 36.247-21.363 48-5.698 7.16-10.573 11.211-19.132 15.901-15.088 8.268-42.106 11.632-64.861 8.077zm32.235-45.094c7.363-4.717 11.192-16.298 21.12-63.884 10.678-51.177 11.402-58.304 6.696-65.917-2.129-3.445-8.018-6.588-12.321-6.577-4.08.01-9.631 2.04-12.748 4.663-6.532 5.496-9.497 14.671-19.455 60.214-9.768 44.672-11.46 58.556-8.11 66.571 3.393 8.122 15.945 10.615 24.818 4.93zM4.52 719.034c-.328-.533 6.007-32.145 14.079-70.25C26.67 610.676 40.097 547.324 48.434 508l15.16-71.5 33.389-.264c18.364-.145 33.785.132 34.269.616 1.532 1.532 13.632 95.734 16.718 130.148 2.552 28.465 3.058 32.382 4.043 31.343.44-.463 1.993-9.843 3.45-20.843 5.573-42.045 7.727-54.644 16.514-96.554 4.98-23.753 9.299-43.583 9.598-44.067.298-.483 14.466-.879 31.484-.879H244v2.34c0 1.287-4.46 23.224-9.913 48.75-5.452 25.525-16.717 78.36-25.032 117.41-8.316 39.05-17.243 80.9-19.838 93l-4.717 22-33.117.263c-25.734.205-33.342-.018-34.128-1C115.52 716.6 100.484 590.223 98.484 561c-1.257-18.355-2.644-17.567-4.842 2.75-4.551 42.079-7.08 58.06-16.664 105.36-5.462 26.953-10.193 49.429-10.513 49.947-.792 1.281-61.153 1.258-61.945-.024zm415.086.137c-.293-.473 1.284-9.367 3.502-19.765s12.309-57.793 22.423-105.322c10.925-51.338 18.913-86.749 19.68-87.235.709-.45 12.216-.825 25.57-.834 21.662-.013 24.35.163 24.916 1.637.348.908-.604 7.695-2.117 15.081-1.513 7.387-2.534 13.647-2.27 13.911.266.265 2.935-3.281 5.933-7.88 9.205-14.123 18.378-21.928 30.45-25.91 6.539-2.158 19.778-3.52 20.64-2.123.66 1.068-11.814 61.815-13.197 64.269-.636 1.127-3.551 1.646-11.74 2.086-18.948 1.02-26.633 5.291-32.824 18.242-4.993 10.442-7.408 19.811-18.997 73.672-5.739 26.675-11.039 51.2-11.777 54.5l-1.343 6-29.16.265c-16.037.146-29.397-.122-29.69-.594zm207.918-56.556c-4.105-4.105-4.94-9.512-3.645-23.615 1.111-12.106 6.563-45.217 9.797-59.5 4.12-18.192 11.76-27.483 22.61-27.495 11.935-.013 14.814 8.33 11.212 32.495-4.593 30.81-10.561 57.59-14.993 67.27-4.48 9.787-9.035 13.23-17.5 13.23-4.037 0-5.592-.496-7.481-2.385z" id="path4491" fill="#039fe2"/><path d="M296 724.393c-17.67-2.184-33.4-8.931-42.076-18.046C242.826 694.685 239 683.803 239 663.895c0-30.045 14.63-96.229 26.52-119.98 10.816-21.6 24.631-33.554 45.138-39.052 12.03-3.226 40.33-3.778 53.556-1.045 24.131 4.987 39.767 18.763 45.2 39.826 4.298 16.658.815 48.503-10.376 94.856-9.238 38.265-16.657 54.44-31.203 68.031-13.066 12.208-28.255 17.314-53.335 17.927-8.25.202-16.575.173-18.5-.065zm25.282-42.764c9.816-4.182 13.18-13.908 25.817-74.629 5.761-27.682 7.202-36.377 7.29-44 .097-8.34-.175-9.96-2.236-13.274-5.487-8.826-18.228-9.982-26.839-2.434-4.546 3.985-8.454 12.439-11.705 25.321-3.298 13.072-13.076 58.098-15.604 71.862-2.195 11.944-2.608 24.804-.938 29.21 1.285 3.392 4.696 7.229 7.433 8.361 3.205 1.326 13.28 1.075 16.782-.417zM5 718.394c0-.709 6.495-31.717 18.515-88.394 4.723-22.275 11.27-53.257 14.547-68.848 3.277-15.591 6.621-31.341 7.43-35 .81-3.659 5.315-24.822 10.01-47.03 4.696-22.207 8.78-40.77 9.077-41.25.296-.48 15.342-.872 33.435-.872h32.895l.53 3.25c1.061 6.528 7.912 58.47 11.507 87.25 1.1 8.8 3.184 29.05 4.632 45 1.448 15.95 3.019 29.41 3.49 29.913 1.18 1.257 2.52-2.683 3.369-9.913 4.397-37.449 10.257-72.88 18.5-111.854 4.984-23.57 9.063-43.032 9.063-43.25 0-.218 13.725-.396 30.5-.396 29.824 0 30.5.044 30.5 1.998 0 1.887-2.58 14.174-25.506 121.502-5.17 24.2-13.035 61.1-17.48 82-14.194 66.758-16.001 74.887-16.83 75.716-.447.447-15.408.693-33.248.548L117.5 718.5l-1.21-9c-6.177-45.976-15.612-128.936-16.888-148.5-.377-5.775-1.09-11.59-1.584-12.923-2.07-5.571-3.526.346-6.261 25.423-1.5 13.75-3.573 30.85-4.609 38-1.497 10.345-14.399 76.363-19.981 102.25L65.834 719H35.417C18.687 719 5 718.727 5 718.394zm415.633-.18c-.267-.431.822-6.844 2.42-14.25 4.647-21.528 32.5-152.492 38.17-179.464 1.733-8.25 3.573-15.563 4.087-16.25.703-.94 6.976-1.25 25.312-1.25H515v2.465c0 1.356-1.36 8.845-3.023 16.644-1.663 7.798-2.75 14.45-2.414 14.785.799.795 3.134-2.34 7.437-9.987 4.986-8.862 15.613-19.889 22.918-23.783 8.377-4.464 25.877-7.894 27.425-5.374.38.62-2.423 14.485-12.18 60.25l-.747 3.5-11.458.648c-24.526 1.386-32.051 8.633-40.349 38.852-1.33 4.845-11.895 53.173-20.765 94.986-1.69 7.968-3.46 15.505-3.934 16.75l-.86 2.264h-27.966c-15.381 0-28.184-.353-28.451-.785z" id="path4489" fill="#024f99"/></g></svg>