<svg xmlns="http://www.w3.org/2000/svg" version="1.1" id="svg2" width="100" height="50"><g id="g4487" transform="translate(32.904 1.88) scale(.05865)" stroke-width="1.333"><path d="M329.333 709.497c0-70.783.363-90.802 1.667-91.874 5.46-4.49 35.892-9.79 56.333-9.812 30.394-.033 47.292 9.213 57.47 31.444 7.249 15.835 9.115 46.883 3.961 65.904-8.135 30.023-29.028 44.481-61.097 42.278l-13-.892v24.618c0 13.54-.365 25.568-.81 26.728-.692 1.804-3.965 2.109-22.666 2.109h-21.858zm65.354 2.679c16.945-9.084 17.012-59.052.093-68.738-4.489-2.57-15.5-3.465-18.655-1.515-.995.615-1.458 11.904-1.458 35.532v34.63l3 1.207c4.96 1.993 12.093 1.526 17.02-1.116zm-366.02 33.95C15.592 742.894 7.19 736.114 3.08 725.475.92 719.88.672 712.285.304 640.3L-.1 561.267l21.717.366 21.716.367.747 23.333c.41 12.834.86 23.484 1 23.667.14.183 8.653.333 18.92.333 21.089 0 21.18.058 14.498 9.143-2.292 3.117-5.845 9.985-7.896 15.263l-3.729 9.594-9.71.398c-5.34.218-10.487 1.042-11.437 1.83-1.31 1.087-1.719 7.903-1.697 28.269.026 23.379.353 27.548 2.536 32.357 2.682 5.906 8.33 8.93 15.762 8.44 6.24-.412 6.75-.108 8.445 5.026.905 2.742 3.395 7.829 5.533 11.304 2.139 3.475 3.504 6.94 3.034 7.7-1.582 2.56-10.704 6.424-18.626 7.888-10.062 1.86-23.536 1.684-32.046-.42zm109.129.505c-30.31-5.463-46.236-24.216-48.07-56.602-1.47-25.961 4.726-45.431 19.414-61 13.582-14.4 26.293-19.652 47.618-19.68 20.969-.027 33.65 6.086 41.04 19.787 5.365 9.943 6.315 24.442 2.298 35.054-5.288 13.972-20.72 24.774-42.36 29.648-5.277 1.19-11.613 2.162-14.078 2.162s-5.573.798-6.907 1.773c-2.329 1.703-2.331 1.97-.067 6.742 1.297 2.733 4.479 6.585 7.07 8.56 4.318 3.29 5.73 3.592 16.813 3.592 10.91 0 13.009-.43 21.342-4.377 7.434-3.52 9.548-4.042 10.803-2.667 2.004 2.197 9.971 22.36 9.962 25.213-.025 7.441-44.337 15.497-64.878 11.795zM146.509 667c14.616-4.603 21.255-15.19 14.728-23.487-8.376-10.647-27.904 4.127-27.904 21.11 0 5.63 1.81 5.956 13.176 2.377zm370.758 79.677c-33.85-5.402-51.035-29.572-48.826-68.677 2.099-37.164 24.622-64.297 56.915-68.563 33.874-4.475 56.003 11.453 55.964 40.279-.03 22.189-13.781 36.063-43.2 43.587-5.8 1.483-12.736 2.697-15.412 2.697s-5.974.81-7.33 1.802c-2.374 1.736-2.347 2.013.75 7.626 1.917 3.475 5.363 7.076 8.542 8.927 4.69 2.73 6.69 3.042 16.663 2.608 9.589-.418 12.644-1.163 19.844-4.837 7.064-3.605 8.805-4.042 10.24-2.568 2.28 2.338 9.916 21.755 9.916 25.211 0 7.588-42.102 15.413-64.066 11.908zm8.15-79.623c9.529-3.077 17.25-10.43 17.25-16.428 0-8.93-8.509-13.19-17.282-8.653-7.154 3.7-13.385 14.34-13.385 22.856 0 3.858.456 4.504 3.18 4.504 1.75 0 6.356-1.025 10.238-2.279zm105.916 80.112c-1.466-.386-4.97-1.294-7.787-2.018-6.958-1.788-16.183-10.585-19.143-18.253-2.219-5.75-2.403-12.317-2.403-85.562V562h42.667l.666 72.45.667 72.45 3.896 3.35c4.008 3.446 4.39 3.47 17.437 1.092 3.896-.71 4.148-.422 9.667 11.042 3.117 6.475 5.667 12.418 5.667 13.207 0 2.148-4.985 4.98-14.667 8.333-8.529 2.954-30.412 4.89-36.667 3.242zm-404.367-4.733c-2.402-2.402-2.355-127.602.05-130.89 1.459-1.996 3.794-2.25 17.666-1.921l15.985.378.422 5.333c.62 7.832 2.098 8.378 8.068 2.985 7.833-7.077 10.588-8.162 20.843-8.21 9.945-.046 19.475 3.53 21.169 7.944 1.444 3.764.943 32.388-.584 33.332-.778.48-4.528-.468-8.333-2.107-8.375-3.61-19.317-3.966-24.168-.788-7.677 5.03-8.025 7.133-8.75 52.844l-.667 42-20.034.367c-14.453.264-20.488-.089-21.667-1.267zm92.018-239.93c-61.601-5.068-122.787-35.967-164.91-83.277-34.24-38.458-55.737-86.277-62.134-138.214-2.105-17.095-.982-57.61 2.061-74.345 16.142-88.76 78.387-161.926 163.945-192.71C293.907 1.018 338.99-3.4 378.718 2.124c93.114 12.945 171.718 78.609 201.759 168.543 8.498 25.442 11.48 42.548 12.45 71.412 1.207 35.963-3.659 69.727-13.56 94.096-1.852 4.556-3.367 8.985-3.367 9.84 0 2.681-12.708 27.68-20.038 39.42-9.997 16.01-19.527 27.985-34.192 42.964-42.932 43.854-98.127 69.57-159.34 74.24-19.714 1.503-23.673 1.491-43.446-.136zm32.35-146.43c21.592-4.59 39.23-14.637 55.183-31.432 20.626-21.713 30.613-48.682 29.073-78.503-.91-17.633-3.283-27.148-10.34-41.471-6.839-13.883-14.484-23.907-25.958-34.038-11.262-9.943-22.609-16.459-37.748-21.677-9.3-3.206-14.317-4.048-27.461-4.61-18.119-.775-30.682 1.184-45.816 7.146-13.547 5.336-16.273 8.621-25.982 31.313-19.872 46.447-18.727 97.654 3.217 143.858 3.655 7.696 7.879 15.306 9.386 16.91 3.386 3.605 20.17 10.448 31.779 12.957 12.58 2.719 30.61 2.536 44.666-.453z" id="path4493" fill="#fcdb0f"/><path d="M329.333 709.497c0-70.783.363-90.802 1.667-91.874 5.46-4.49 35.892-9.79 56.333-9.812 30.394-.033 47.292 9.213 57.47 31.444 7.249 15.835 9.115 46.883 3.961 65.904-8.135 30.023-29.028 44.481-61.097 42.278l-13-.892v24.618c0 13.54-.365 25.568-.81 26.728-.692 1.804-3.965 2.109-22.666 2.109h-21.858zm65.354 2.679c16.945-9.084 17.012-59.052.093-68.738-4.489-2.57-15.5-3.465-18.655-1.515-.995.615-1.458 11.904-1.458 35.532v34.63l3 1.207c4.96 1.993 12.093 1.526 17.02-1.116zm-366.02 33.95C15.592 742.894 7.19 736.114 3.08 725.475.92 719.88.672 712.285.304 640.3L-.1 561.267l21.717.366 21.716.367.747 23.333c.41 12.834.86 23.484 1 23.667.14.183 8.653.333 18.92.333 21.089 0 21.18.058 14.498 9.143-2.292 3.117-5.845 9.985-7.896 15.263l-3.729 9.594-9.71.398c-5.34.218-10.487 1.042-11.437 1.83-1.31 1.087-1.719 7.903-1.697 28.269.026 23.379.353 27.548 2.536 32.357 2.682 5.906 8.33 8.93 15.762 8.44 6.24-.412 6.75-.108 8.445 5.026.905 2.742 3.395 7.829 5.533 11.304 2.139 3.475 3.504 6.94 3.034 7.7-1.582 2.56-10.704 6.424-18.626 7.888-10.062 1.86-23.536 1.684-32.046-.42zm109.129.505c-30.31-5.463-46.236-24.216-48.07-56.602-1.47-25.961 4.726-45.431 19.414-61 13.582-14.4 26.293-19.652 47.618-19.68 20.969-.027 33.65 6.086 41.04 19.787 5.365 9.943 6.315 24.442 2.298 35.054-5.288 13.972-20.72 24.774-42.36 29.648-5.277 1.19-11.613 2.162-14.078 2.162s-5.573.798-6.907 1.773c-2.329 1.703-2.331 1.97-.067 6.742 1.297 2.733 4.479 6.585 7.07 8.56 4.318 3.29 5.73 3.592 16.813 3.592 10.91 0 13.009-.43 21.342-4.377 7.434-3.52 9.548-4.042 10.803-2.667 2.004 2.197 9.971 22.36 9.962 25.213-.025 7.441-44.337 15.497-64.878 11.795zM146.509 667c14.616-4.603 21.255-15.19 14.728-23.487-8.376-10.647-27.904 4.127-27.904 21.11 0 5.63 1.81 5.956 13.176 2.377zm370.758 79.677c-33.85-5.402-51.035-29.572-48.826-68.677 2.099-37.164 24.622-64.297 56.915-68.563 33.874-4.475 56.003 11.453 55.964 40.279-.03 22.189-13.781 36.063-43.2 43.587-5.8 1.483-12.736 2.697-15.412 2.697s-5.974.81-7.33 1.802c-2.374 1.736-2.347 2.013.75 7.626 1.917 3.475 5.363 7.076 8.542 8.927 4.69 2.73 6.69 3.042 16.663 2.608 9.589-.418 12.644-1.163 19.844-4.837 7.064-3.605 8.805-4.042 10.24-2.568 2.28 2.338 9.916 21.755 9.916 25.211 0 7.588-42.102 15.413-64.066 11.908zm8.15-79.623c9.529-3.077 17.25-10.43 17.25-16.428 0-8.93-8.509-13.19-17.282-8.653-7.154 3.7-13.385 14.34-13.385 22.856 0 3.858.456 4.504 3.18 4.504 1.75 0 6.356-1.025 10.238-2.279zm105.916 80.112c-1.466-.386-4.97-1.294-7.787-2.018-6.958-1.788-16.183-10.585-19.143-18.253-2.219-5.75-2.403-12.317-2.403-85.562V562h42.667l.666 72.45.667 72.45 3.896 3.35c4.008 3.446 4.39 3.47 17.437 1.092 3.896-.71 4.148-.422 9.667 11.042 3.117 6.475 5.667 12.418 5.667 13.207 0 2.148-4.985 4.98-14.667 8.333-8.529 2.954-30.412 4.89-36.667 3.242zm-404.367-4.733c-2.402-2.402-2.355-127.602.05-130.89 1.459-1.996 3.794-2.25 17.666-1.921l15.985.378.422 5.333c.62 7.832 2.098 8.378 8.068 2.985 7.833-7.077 10.588-8.162 20.843-8.21 9.945-.046 19.475 3.53 21.169 7.944 1.444 3.764.943 32.388-.584 33.332-.778.48-4.528-.468-8.333-2.107-8.375-3.61-19.317-3.966-24.168-.788-7.677 5.03-8.025 7.133-8.75 52.844l-.667 42-20.034.367c-14.453.264-20.488-.089-21.667-1.267zm92.018-239.93c-61.601-5.068-122.787-35.967-164.91-83.277-34.24-38.458-55.737-86.277-62.134-138.214-2.105-17.095-.982-57.61 2.061-74.345C113.421 99.877 199.403 17.61 308 1.915c17.328-2.504 51.937-2.402 70.718.209 62.122 8.636 121.206 42.44 160.177 91.644 15.718 19.844 37.095 57.703 37.114 65.73.005 2.11 1.513 8.266 3.35 13.68 8.589 25.306 11.447 44.894 11.503 78.822.051 30.86-4.25 58.634-12.778 82.501-1.146 3.209-2.084 7.462-2.084 9.452 0 4.438-10.568 26.317-20.038 41.481-9.997 16.011-19.527 27.986-34.192 42.965-42.932 43.854-98.127 69.57-159.34 74.24-19.714 1.503-23.673 1.491-43.446-.136zm103.45-82.427c30.123-9.844 60.046-31.1 80.818-57.41 63.234-80.094 48.28-193.874-33.59-255.551-18.666-14.062-50.597-28.378-63.417-28.433-74.767-5.132-123.969 53.512-143.96 104.119-70.132 117.832 75.513 271.801 160.149 237.275zM362 93.333c.453-.733-.111-1.333-1.255-1.333-1.143 0-2.078.6-2.078 1.333 0 .734.564 1.334 1.254 1.334.69 0 1.626-.6 2.079-1.334z" id="path4491" fill="#f7a50c"/><path d="M330.99 709.055l.343-90.946 7.766-2.364c23.375-7.116 57.115-8.923 72.953-3.906 24.335 7.707 36.642 27.081 38.215 60.161 1.327 27.901-5.094 48.452-19.151 61.3-10.56 9.65-19.104 12.564-36.45 12.428-7.7-.06-15.5-.324-17.333-.586l-3.333-.475-.36 27.666-.36 27.667h-42.632zm64.265 3.923c3.404-1.93 6.332-5.091 8.314-8.978 8.61-16.889 5.742-50.172-5.11-59.303-4.093-3.445-12.881-6.462-15.983-5.488-.995.313-3.47.932-5.498 1.377l-3.688.809.355 35.597.355 35.597 3.333 1.686c5.02 2.539 12.051 2.03 17.922-1.297zM28.979 745.303c-12.648-3.2-20.671-9.985-25.312-21.41C.777 716.78.724 715.46.314 639.668l-.416-77h42.769v21.42c0 12.217.593 22.53 1.38 24 1.26 2.354 2.948 2.58 19.333 2.58 9.874 0 17.953.342 17.953.76 0 .417-1.85 3.448-4.11 6.734-2.262 3.287-5.757 9.995-7.768 14.907L65.8 642l-9.9.375c-7.347.279-10.33.946-11.567 2.588-1.907 2.534-2.151 27.218-.488 49.443.923 12.34 1.384 14.096 4.524 17.236 2.825 2.825 4.873 3.537 10.673 3.71 8.484.253 9.721.862 10.845 5.338.467 1.86 2.633 6.282 4.814 9.827 2.181 3.544 3.966 6.861 3.966 7.37 0 .51-3.385 2.477-7.523 4.371-6.358 2.91-9.816 3.511-22.333 3.88-8.146.24-17.07-.136-19.832-.835zm105.966-.577c-18.76-4.28-30.864-13.22-37.711-27.854-4.767-10.186-6.574-19.406-6.544-33.387.084-39.488 22.638-68.597 56.412-72.81 31.866-3.975 52.278 9.418 53.945 35.397 1.797 27.996-17.389 43.745-60.016 49.266-7.507.972-8.347 1.988-6.434 7.784 1.735 5.258 8.394 11.798 14.431 14.175 7.373 2.902 22.405 1.177 33.017-3.789 4.994-2.337 9.515-3.782 10.047-3.212 1.443 1.548 9.241 21.614 9.241 23.778 0 7.946-45.941 15.318-66.388 10.652zm12.732-76.827c9.397-3.173 17.656-10.955 17.656-16.636 0-4.345-3.27-10.698-6.06-11.768-6.955-2.67-16.634 1.256-21.599 8.758-3.788 5.724-7.3 17.435-6.136 20.466 1.04 2.71 6.512 2.431 16.139-.82zm365.735 76.693c-28.758-6.235-44.137-27.568-44.056-61.107.07-28.464 13.988-55.139 34.346-65.823 9.777-5.132 19.74-7.44 32.298-7.481 18.999-.063 33.376 7.065 39.927 19.796 2.952 5.736 3.406 8.311 3.403 19.32-.004 14.725-2.197 20.293-11.186 28.414-9.871 8.919-22.108 13.61-44.1 16.91-5.477.821-10.353 2.134-10.837 2.917-2.7 4.37 4.827 15.075 13.205 18.781 8.892 3.934 22.247 2.829 34.37-2.844 10.772-5.04 10.298-5.34 15.92 10.072 4.414 12.103 3.983 13.282-6.118 16.73-17.812 6.078-40.977 7.827-57.172 4.315zm17.785-78.585c15.062-7.126 17.665-24.224 4.076-26.773-11.86-2.225-24.606 11.823-24.606 27.12v4.684l6.6-.782c3.63-.43 9.898-2.342 13.93-4.25zm95.47 78.522c-9.387-2.51-15.803-7.622-20-15.93L603.333 722V563.333l20.334-.368 20.333-.368.008 69.035c.005 44.657.508 70.838 1.425 74.141 1.117 4.02 2.442 5.535 6.234 7.119 4.516 1.887 6.962 1.84 15.469-.295 3.167-.795 3.716-.254 6.777 6.667 1.832 4.142 4.551 9.245 6.043 11.34 1.491 2.094 2.711 4.197 2.711 4.672 0 1.648-16.714 8.676-23.854 10.03-9.93 1.883-23.422 1.557-32.146-.777zM227.277 741c-.35-.917-.482-30.467-.29-65.667l.346-64h32l.722 6.278c.397 3.452 1.124 6.679 1.615 7.17.49.491 3.965-1.869 7.719-5.244 9.664-8.69 19.78-10.951 31.033-6.939 9.757 3.48 10.245 4.549 10.245 22.43 0 17.858 1.09 16.604-10.667 12.27-7.85-2.893-20.104-2.157-24.087 1.447-7.032 6.365-7.215 7.609-7.68 52.255l-.434 41.667h-19.941c-14.724 0-20.109-.436-20.58-1.667zm461.39-144.216c-12.512-5.56-15.747-21.75-6.535-32.698 8.342-9.913 26.62-8.02 34.496 3.571 11.254 16.562-8.929 37.587-27.961 29.127zm20.823-7.294c4.242-4.242 5.173-6.107 5.157-10.333-.026-6.774-2.315-11.039-8-14.901-13.626-9.26-30.627 6.145-23.457 21.254 2.818 5.94 8.082 9.077 15.3 9.121 5.01.03 6.547-.688 11-5.14zM692 577.958c0-11.256 1.037-12.538 8.408-10.397 3.829 1.112 4.226 1.701 3.932 5.838-.18 2.53-.388 5.501-.462 6.601-.075 1.1.291 3.35.815 5 1.335 4.208-1.679 3.888-3.626-.385-1.85-4.062-5.558-3.822-6.16.399-.234 1.642-.984 2.986-1.666 2.986-.683 0-1.241-4.519-1.241-10.042zm9-4.29c.73-2.19-3.448-3.753-5.24-1.961-.767.767-.97 2.08-.453 2.917 1.178 1.906 4.951 1.272 5.693-.957zm-392.735-73.095c-88.26-12.86-161.73-68.804-196.462-149.597-28.773-66.93-27.452-142.19 3.632-206.913C161.012 41.645 285.985-18.514 376 2.438c4.767.974 14.667 3.003 22 4.509 69.705 14.314 135.623 65.416 167.584 129.916 3.037 6.129 5.196 11.468 4.8 11.865-.398.397-4.629-3.954-9.402-9.67-27.82-33.308-60.078-52.025-101.649-58.978-22.525-3.768-55.038-4.721-69.38-2.034-46.621 8.737-83.8 33.697-113.462 76.176-30.69 43.95-37.601 105.139-17.955 158.97 13.742 37.654 47.748 75.438 85.044 94.49 16.604 8.483 29 12.904 45.743 16.316 11.368 2.317 16.308 2.592 34.312 1.912 43.566-1.645 72.147-9.867 101.487-29.196 12.637-8.326 28.88-23.707 38.418-36.38 4.199-5.579 7.86-9.468 8.135-8.642.734 2.202-10.297 23.777-19.055 37.27C513.079 449.875 449.087 490.339 376 500.644c-17.176 2.422-50.871 2.386-67.735-.07z" id="path4489" fill="#e22811"/></g></svg>