<?xml version="1.0" encoding="UTF-8" standalone="no"?>
<!-- Created with Inkscape (http://www.inkscape.org/) -->

<svg
   xmlns:dc="http://purl.org/dc/elements/1.1/"
   xmlns:cc="http://creativecommons.org/ns#"
   xmlns:rdf="http://www.w3.org/1999/02/22-rdf-syntax-ns#"
   xmlns:svg="http://www.w3.org/2000/svg"
   xmlns="http://www.w3.org/2000/svg"
   xmlns:sodipodi="http://sodipodi.sourceforge.net/DTD/sodipodi-0.dtd"
   xmlns:inkscape="http://www.inkscape.org/namespaces/inkscape"
   version="1.1"
   id="svg2"
   width="30"
   height="30"
   viewBox="0 0 30.000003 30"
   sodipodi:docname="favicon.svg"
   inkscape:version="0.92.1 r"
   inkscape:export-filename="/home/arch/Documents/Tk/jekyll/images/favicon.png"
   inkscape:export-xdpi="817.22363"
   inkscape:export-ydpi="817.22363">
  <metadata
     id="metadata8">
    <rdf:RDF>
      <cc:Work
         rdf:about="">
        <dc:format>image/svg+xml</dc:format>
        <dc:type
           rdf:resource="http://purl.org/dc/dcmitype/StillImage" />
        <dc:title></dc:title>
      </cc:Work>
    </rdf:RDF>
  </metadata>
  <defs
     id="defs6" />
  <sodipodi:namedview
     pagecolor="#ffffff"
     bordercolor="#666666"
     borderopacity="1"
     objecttolerance="10"
     gridtolerance="10"
     guidetolerance="10"
     inkscape:pageopacity="0"
     inkscape:pageshadow="2"
     inkscape:window-width="1364"
     inkscape:window-height="734"
     id="namedview4"
     showgrid="false"
     fit-margin-top="0"
     fit-margin-left="0"
     fit-margin-right="0"
     fit-margin-bottom="0"
     inkscape:zoom="15.671233"
     inkscape:cx="15.841549"
     inkscape:cy="17.34528"
     inkscape:window-x="0"
     inkscape:window-y="33"
     inkscape:window-maximized="0"
     inkscape:current-layer="svg2" />
  <rect
     style="opacity:1;fill:#ececec;fill-opacity:1;stroke:none;stroke-width:7.55905533;stroke-linecap:round;stroke-linejoin:round;stroke-miterlimit:4;stroke-dasharray:none;stroke-dashoffset:0;stroke-opacity:1;paint-order:stroke fill markers"
     id="rect4483"
     width="30"
     height="30"
     x="0"
     y="0.072552323" />
  <g
     id="g4487"
     transform="matrix(0.08541905,0,0,0.17325447,-0.06382906,-0.14627697)"
     style="fill:#1a1a1a">
    <path
       style="fill:#1a1a1a;stroke-width:1.01966763"
       d="m 142.90567,166.40088 c -12.06278,-8.83891 -7.32253,-8.50358 -41.04261,-2.90338 -24.983713,4.14928 -32.445971,4.21211 -45.445697,0.38266 C 39.125367,158.78629 21.998821,146.60062 12.571081,132.6832 -1.9402663,111.26125 -3.2303755,79.913123 9.4540536,56.943122 23.26539,31.932426 51.361415,13.947666 85.227518,8.4391947 91.343755,7.4443617 95.89669,6.1458872 97.18432,5.0291747 c 1.410512,-1.2232838 4.58794,-2.0188904 9.87736,-2.4732224 4.28886,-0.368389 9.46504,-0.816586 11.50265,-0.9959933 2.96945,-0.2614545 3.89805,0.097169 4.67875,1.8069229 0.95641,2.0945722 1.61122,2.1470104 36.23674,2.9019153 l 35.26274,0.7687972 2.41821,-2.1850038 c 3.99046,-3.605626 20.65794,-5.44767427 23.9954,-2.6519125 1.37803,1.1543627 5.45648,1.6822948 16.39062,2.1216776 32.39117,1.3016226 54.97127,9.1202723 71.28926,24.6848473 12.66704,12.08218 17.60695,24.103871 17.60695,42.847953 v 10.434958 l 5.60525,-5.098671 c 5.95241,-5.414463 8.6094,-6.534791 14.26554,-6.015122 8.21947,0.755179 2.929,10.39406 -7.88516,14.366244 -4.89525,1.79809 -5.79355,3.345693 -3.16149,5.446658 2.07722,1.658074 6.03773,0.59255 11.68312,-3.143197 8.0987,-5.359167 7.48957,-1.206364 -0.74084,5.050854 -8.94438,6.80001 -15.06252,7.24668 -19.60358,1.431209 L 324.39751,91.5 323.7265,93.7975 c -2.05198,7.02584 -8.00615,16.50093 -14.09126,22.42392 -7.44914,7.25068 -14.95822,11.69749 -26.02249,15.41027 -4.17795,1.40197 -8.12124,2.9657 -8.76289,3.47494 -0.64163,0.50924 -2.71232,4.40608 -4.60149,8.65963 -1.88918,4.25356 -4.0887,8.48054 -4.88781,9.39329 -1.51906,1.73508 -19.10306,5.39132 -21.56269,4.48353 -0.73607,-0.27166 -5.32339,-3.45249 -10.19405,-7.06851 -6.20257,-4.60485 -9.74198,-6.5687 -11.81387,-6.55496 -3.63836,0.0241 -36.24248,5.56119 -37.64094,6.39247 -0.55546,0.33018 -2.75287,4.64463 -4.88311,9.58766 -2.13023,4.94303 -4.39262,9.37747 -5.02751,9.85431 C 173.36848,170.5074 156.04453,174 153.67372,174 c -0.21849,0 -5.06411,-3.41961 -10.76805,-7.59912 z m 27.71336,0.51346 c 1.51856,-0.76685 12.34235,-23.71731 12.34235,-26.17039 0,-1.18403 -7.56528,-0.20166 -10.64158,1.38183 -1.63926,0.84379 -14.31175,24.33007 -14.31175,26.52439 0,0.7548 10.55621,-0.6982 12.61098,-1.73583 z m -13.6597,-5.89646 c 1.93156,-3.84017 3.20588,-7.27648 2.83182,-7.63624 -0.37406,-0.35976 -2.91674,0.26831 -5.65041,1.39572 -2.73368,1.12741 -6.73003,2.36473 -8.88077,2.7496 -2.15073,0.38487 -4.13363,1.04712 -4.40644,1.47165 -0.54642,0.85035 9.7363,8.85043 11.49512,8.94334 0.60432,0.0319 2.67915,-3.08391 4.61068,-6.92407 z m -81.60917,-0.87261 c 21.661665,-9.90713 35.51589,-32.11042 37.60293,-60.263807 l 0.6389,-8.618537 -4.02637,-2.631463 C 107.35112,87.184158 105.24862,86 104.89342,86 c -0.3552,0 -2.8138,3.135781 -5.463552,6.968402 -4.908214,7.099268 -9.086963,10.718198 -11.037461,9.558778 -2.143637,-1.27423 -0.994187,-4.287816 4.61291,-12.093973 3.557638,-4.952917 5.705912,-8.991004 5.718471,-10.748948 0.02648,-3.706633 1.679452,-6.602044 5.595172,-9.800737 2.9289,-2.392568 3.09511,-2.844246 1.94213,-5.278064 -0.69347,-1.463873 -1.91695,-2.903729 -2.71881,-3.19968 -0.80187,-0.29595 -4.771175,1.066679 -8.820677,3.028065 C 90.672101,66.395229 86.676909,68 85.843399,68 c -4.430264,0 -2.371581,-10.244759 3.046375,-15.159875 1.988688,-1.804119 3.615797,-3.750906 3.615797,-4.326195 0,-1.680236 -10.335733,-7.726168 -17.675273,-10.339227 C 56.060994,31.492362 29.535366,36.309685 19.364331,48.247885 14.265084,54.233099 7.5445639,68.13304 5.7046384,76.5 c -1.9785861,8.997511 -1.9751666,24.24377 0.00725,32.33164 2.1086837,8.60301 7.4868986,19.38243 13.4416206,26.94071 9.010619,11.43711 26.178832,22.25468 40.669929,25.62584 8.457843,1.9676 8.490996,1.96493 15.526719,-1.25292 z M 43.580049,103.8947 C 42.935736,102.73679 42.69292,100.3316 43.040458,98.549846 43.999803,93.63146 52.097351,79.025371 59.785722,68.34529 69.52164,54.820915 69.560504,55.555021 59.149807,56.333812 54.335671,56.693942 47.127082,57.77866 43.130719,58.744297 36.566922,60.3303 35.863452,60.741641 35.852666,63 c -0.01029,2.159282 -0.53732,2.541955 -3.866881,2.807841 -2.120216,0.169313 -4.866133,-0.212658 -6.102037,-0.848824 C 23.985135,63.98173 23.712824,63.152348 24.12784,59.611006 24.855745,53.399763 27.716879,48.375014 31.502249,46.66 c 8.527589,-3.863541 32.958035,-6.121347 39.671626,-3.666361 3.257908,1.191332 6.165735,7.189136 5.361184,11.058202 -0.307726,1.479851 -3.926742,8.020829 -8.042258,14.535506 C 59.871768,82.234057 56.139887,89.537229 56.12546,92.789838 56.103064,97.839152 49.874529,106 46.043181,106 c -0.710411,0 -1.818821,-0.94738 -2.463132,-2.1053 z m 71.658051,54.02902 c 21.37237,-3.52097 31.39869,-5.58441 32.72425,-6.7347 3.52053,-3.05507 13.32545,-16.2257 12.92959,-17.36791 -0.27054,-0.78057 -4.86813,-1.06178 -14.90495,-0.91166 -10.13175,0.15155 -16.86482,-0.26599 -22.30072,-1.38291 -4.28282,-0.88 -9.04437,-1.85909 -10.58118,-2.17576 -2.51559,-0.51835 -3.08586,-0.0579 -5.71847,4.61671 -5.22513,9.27808 -12.560894,17.72485 -20.037395,23.07203 -4.026175,2.87951 -7.320317,5.3986 -7.320317,5.59798 0,0.89101 6.341022,0.0421 35.209192,-4.71378 z m 146.108,-6.51991 c 1.43705,-0.53038 12.12765,-23.75348 12.09096,-26.2651 -0.0192,-1.31499 -3.99883,-1.11256 -9.66953,0.49184 -1.93318,0.54694 -14.26395,23.00841 -14.26395,25.9829 0,1.39536 0.78875,1.54358 5.21128,0.97932 2.8662,-0.36569 5.85025,-0.90072 6.63124,-1.18896 z m -13.57966,-6.67035 c 1.69901,-3.72156 2.85676,-6.98995 2.57277,-7.26309 -0.28399,-0.27314 -2.34272,0.24901 -4.57494,1.16034 -2.23223,0.91134 -6.16404,2.18415 -8.73735,2.82848 -2.57331,0.64432 -4.67874,1.66511 -4.67874,2.2684 0,1.56456 9.06446,8.23963 10.84332,7.98501 0.81719,-0.11696 2.87592,-3.25758 4.57494,-6.97914 z m -83.99017,-1.06194 c 5.10145,-5.06574 5.79162,-5.41058 13.9968,-6.99342 10.57816,-2.04061 12.18871,-1.36807 9.81406,4.09814 -0.85487,1.96782 -1.17332,3.94429 -0.70768,4.39214 0.46564,0.44786 8.78117,-0.54646 18.47892,-2.20959 9.69777,-1.66313 21.57546,-3.70048 26.39488,-4.52746 10.70405,-1.83672 19.51004,-6.12968 24.4377,-11.9135 3.3474,-3.92899 4.12758,-4.30364 11.48159,-5.51352 7.07942,-1.16471 9.90863,-2.33274 8.62977,-3.56276 -0.78458,-0.7546 -25.93716,2.41067 -59.79838,7.52518 -18.16247,2.74333 -36.37256,5.28393 -40.46685,5.64578 -4.09429,0.36185 -7.84856,0.93457 -8.34284,1.2727 -1.00665,0.68865 -11.76563,15.90915 -11.76563,16.64458 0,1.71849 3.25187,-0.29465 7.84766,-4.85827 z m 0.31537,-15.59187 c 1.02007,-0.52507 3.08189,-4.02029 4.58183,-7.76716 7.92932,-19.80769 8.56214,-36.755507 2.07845,-55.664719 -4.01235,-11.701725 -15.13757,-27.19932 -22.79163,-31.74906 l -3.42832,-2.037866 -9.11771,2.167936 c -10.92642,2.597994 -22.37971,6.844762 -28.52877,10.578189 -5.40945,3.284378 -4.02565,4.076714 3.4105,1.952781 7.88236,-2.251379 10.79758,-2.016183 13.32578,1.075108 2.53327,3.097489 2.75327,6.221985 0.62838,8.924011 -3.92929,4.99652 -1.58301,4.540659 10.59684,-2.05887 10.83533,-5.87101 13.80357,-6.65263 13.80357,-3.634859 0,2.743235 -3.60129,6.674847 -7.50275,8.19093 -5.18297,2.014068 -25.63376,12.925465 -26.36838,14.06868 -0.3552,0.552761 -0.35824,2.438321 -0.007,4.190134 0.50478,2.515975 2.16911,4.218332 7.92221,8.103244 10.18264,6.875729 16.5987,13.667582 16.5987,17.570411 0,5.09127 -2.49291,4.78722 -11.95469,-1.45807 -4.78022,-3.155208 -9.12261,-5.480366 -9.64976,-5.167021 -0.52713,0.313345 -1.25969,3.997448 -1.6279,8.186891 -0.3682,4.18945 -1.40175,10.33522 -2.29677,13.65726 -0.89502,3.32204 -1.40814,6.5894 -1.14027,7.26079 0.54847,1.37468 7.00498,3.29722 15.3561,4.57253 6.90271,1.05413 33.57586,0.34411 36.11187,-0.96127 z m -8.16303,-28.476058 c 0,-1.486658 1.38123,-3.562808 3.63834,-5.468868 6.13615,-5.181782 9.41378,-1.322797 4.06716,4.788551 -3.3946,3.880115 -7.7055,4.260715 -7.7055,0.680317 z m 135.16385,25.174658 c 6.59654,-3.06262 10.55859,-5.77362 15.62416,-10.69068 6.53457,-6.34301 12.57504,-15.299043 11.20638,-16.6154 -0.36282,-0.348965 -3.38996,1.507027 -6.72698,4.12443 -3.33702,2.6174 -10.04424,6.49263 -14.90494,8.61162 -4.8607,2.11899 -10.00734,4.41688 -11.43695,5.10642 -2.72567,1.31466 -5.87542,6.69012 -6.95107,11.86292 -0.5908,2.84116 -0.46294,3.00473 1.85866,2.37744 1.37121,-0.3705 6.47004,-2.52004 11.33074,-4.77675 z m -104.49205,1.17218 c 4.57477,-0.58758 19.78127,-2.82789 33.7922,-4.97847 14.01092,-2.15058 32.94484,-4.82211 42.07536,-5.93673 12.51532,-1.52783 17.02703,-2.45834 18.33226,-3.78091 1.97634,-2.00262 7.17306,-14.209459 7.17306,-16.849189 0,-1.55054 -0.27883,-1.501807 -2.40638,0.420555 -3.79326,3.427445 -5.71711,2.802002 -7.0508,-2.292216 l -1.16936,-4.46653 -4.82403,3.854418 c -9.52816,7.613073 -15.30329,8.701752 -20.62979,3.888943 -4.00668,-3.620284 -2.51137,-9.481236 3.9128,-15.336338 1.79465,-1.63568 4.66058,-4.911922 6.36876,-7.280539 4.88783,-6.777671 7.78354,-4.680101 8.016,5.806576 0.0647,2.915581 -0.65075,5.684011 -2.03182,7.86278 -1.17238,1.849529 -1.87166,3.612776 -1.55398,3.918327 0.31769,0.305551 2.5653,-0.804577 4.99471,-2.466952 2.4294,-1.662374 4.94887,-3.200622 5.5988,-3.418327 0.64993,-0.217705 2.76478,-2.402676 4.69966,-4.85549 1.93487,-2.452815 4.67823,-4.72061 6.09635,-5.039547 3.38951,-0.762305 3.72804,-3.856336 1.56808,-14.331517 -1.9082,-9.254253 -8.96451,-23.889532 -14.5156,-30.106392 l -3.51549,-3.937118 -9.19429,0.217248 c -5.05687,0.119486 -30.71654,1.102908 -57.0215,2.185381 -26.30498,1.082473 -48.646,1.968914 -49.64673,1.96987 -2.97378,0.0028 -2.12762,1.859703 3.64155,7.991297 10.8858,11.569619 17.93886,28.350134 19.12861,45.51044 0.75524,10.893133 -0.73168,20.87981 -4.88331,32.79822 -1.68894,4.84856 -3.07081,9.24529 -3.07081,9.77049 0,0.52613 1.75079,0.72931 3.89895,0.45248 2.14443,-0.27634 7.64196,-0.98319 12.21674,-1.57076 z m 8.20508,-25.37229 c -0.88159,-2.209595 1.15095,-4.995134 7.37887,-10.112535 C 207.74643,85.895322 209.41332,83 206.48243,83 c -0.78775,0 -1.9843,-0.639738 -2.65899,-1.421639 -2.70437,-3.134073 4.99992,-9.253573 10.3535,-8.223763 2.68482,0.516449 4.14165,-0.559926 15.51581,-11.46379 12.97564,-12.439145 15.85995,-13.961091 16.49369,-8.703115 0.17704,1.468825 -0.84581,6.327625 -2.27299,10.797332 -2.15622,6.752921 -2.34247,8.201819 -1.10168,8.570858 0.82126,0.244264 2.19502,0.654994 3.05279,0.912732 3.86646,1.161773 0.0893,7.229241 -5.84666,9.391846 -2.97203,1.08278 -4.88229,5.720485 -3.07302,7.460644 0.73727,0.709088 2.29922,0.192544 4.99387,-1.651477 5.93353,-4.060477 5.62239,-1.146753 -0.47491,4.447454 -5.7615,5.286109 -9.78068,6.84187 -12.35887,4.783914 C 227.45448,96.583535 227.5153,93.105375 229.31749,85.75 L 229.99128,83 h -6.46225 c -7.06636,0 -7.45637,0.255468 -16.38898,10.735595 C 203.91586,97.518345 197.90867,102 196.06248,102 c -0.37934,0 -0.94499,-0.63984 -1.25699,-1.42186 z m 40.53716,-32.358593 c 1.08213,-2.904249 1.65907,-5.577119 1.28208,-5.939711 -0.90685,-0.872199 -11.03475,8.758421 -11.03475,10.492937 0,0.945847 1.16121,1.255372 3.89259,1.037592 3.67126,-0.292718 4.00446,-0.61061 5.86008,-5.590818 z m 58.31303,39.795323 c 2.6483,-1.09182 6.90121,-3.36558 9.4509,-5.0528 4.11288,-2.72163 4.50525,-3.302364 3.47818,-5.14813 -0.67915,-1.220545 -0.87671,-3.78201 -0.47796,-6.197195 L 306.78648,87.5 l -5.19603,4.913458 c -2.85782,2.702401 -6.27201,4.985103 -7.58708,5.072671 -2.42297,0.161338 -5.12792,4.208591 -6.6109,9.891431 -0.82686,3.16865 -0.0648,3.24619 6.26321,0.63731 z M 261.40144,87.777494 c 1.88332,-2.586097 2.124,-6.358994 0.46844,-7.343098 -0.63255,-0.376 -2.59341,0.704541 -4.35746,2.401203 -3.14137,3.021357 -3.16787,3.126816 -1.28808,5.12462 2.43363,2.586385 3.17966,2.560054 5.1771,-0.182725 z M 319.95242,87.75 c 4.95124,-5.08767 3.99335,-28.959016 -1.59292,-39.69648 -2.62126,-5.038394 -3.53469,-5.807123 -12.19107,-10.259779 -8.83558,-4.544839 -26.00624,-10.614385 -27.08709,-9.574839 -0.27324,0.2628 1.58196,3.808556 4.12262,7.879458 5.96889,9.563898 10.02427,21.291495 10.6689,30.853056 0.71362,10.584785 0.72341,10.601098 4.88023,8.130187 6.12695,-3.641996 9.10897,-2.181105 6.90883,3.384637 -0.61119,1.546125 -0.88455,3.029178 -0.60746,3.295674 0.27708,0.266495 2.71556,-1.387977 5.41886,-3.676604 5.08465,-4.304695 7.1818,-4.756989 9.02226,-1.945834 0.82542,1.260782 0.3108,2.782405 -2.22794,6.587548 -1.81571,2.721439 -3.30129,5.471174 -3.30129,6.110523 0,1.958874 3.67028,1.29206 5.98607,-1.087547 z m 21.76852,-9.218399 c 1.98555,-1.680079 2.40999,-2.478491 1.32904,-2.5 -1.94219,-0.03864 -6.20975,2.727547 -6.20975,4.025103 0,1.618776 1.84743,1.041498 4.88071,-1.525103 z M 114.35113,60.75 c 2.63576,-4.157812 2.5943,-4.75 -0.33254,-4.75 -3.96315,0 -6.32892,2.28604 -5.53084,5.344409 0.93695,3.590493 3.36658,3.344186 5.86338,-0.594409 z m -5.21,-22.176222 c 5.62291,-2.782932 11.92023,-4.9214 30.06586,-10.209892 2.07239,-0.603995 0.60488,-1.741198 -6.78331,-5.256489 C 125.38867,19.760148 112.35841,16 107.79402,16 c -3.67142,0 -7.2489,-1.757998 -6.36781,-3.129179 1.25339,-1.950551 18.30364,1.253899 28.50935,5.358093 2.57331,1.034849 7.74538,3.655132 11.49349,5.822852 l 6.81473,3.941308 58.49048,-2.390143 c 32.16977,-1.314578 58.72187,-2.612682 59.00467,-2.884677 0.92147,-0.886259 -8.46622,-7.620257 -15.62936,-11.211298 C 243.50209,8.1944826 242.54953,8 232.93271,8 224.16163,8 222.36646,7.7088863 219.97346,5.8984739 c -2.18752,-1.6549677 -3.65338,-1.9737064 -6.8984,-1.5 -2.26634,0.3308393 -6.00058,0.8745677 -8.2983,1.2082851 -2.49042,0.3617038 -4.77617,1.4285711 -5.65955,2.6415734 -1.46108,2.0063126 -2.01788,2.0248006 -39.75056,1.3199195 C 121.72772,8.8651222 121.06884,8.8175346 119.33041,6.6766785 117.57089,4.5098614 117.55588,4.5090609 116.01463,6.5 c -1.32151,1.7070958 -1.86,1.8169349 -3.67691,0.75 -3.66849,-2.1542251 -10.3227,-1.5507644 -13.783431,1.25 -2.066957,1.672783 -4.352815,2.500428 -6.908282,2.501295 -5.95432,0.002 -23.702317,4.488383 -33.45126,8.455857 -8.871215,3.610271 -22.970724,12.061421 -23.643136,14.171537 -0.255017,0.800274 1.39285,0.732076 5.663333,-0.234379 7.980241,-1.806012 23.366771,-1.75861 30.765062,0.09478 6.614219,1.656968 16.020839,6.006375 21.448817,9.917447 l 3.562279,2.566762 3.195913,-2.027355 c 1.757755,-1.115045 6.237105,-3.53252 9.954115,-5.372166 z M 303.04927,28.363367 C 293.38936,19.774795 269.9274,9.92175 259.40185,10.033269 l -3.14008,0.03327 2.24329,1.71673 c 14.97036,11.45644 14.45793,11.170916 24.41053,13.601613 5.35505,1.307851 12.77764,3.742582 16.49465,5.410513 9.80782,4.401065 10.67365,3.822417 3.63903,-2.432028 z"
       id="path4489"
       inkscape:connector-curvature="0"
       sodipodi:nodetypes="csssssssssscssssscssscsscccssssccsccccsccscscccssccccscssscsssccsssssssssscccsssscssssssssscsccccscssscccssccsccscccsssscsscsscsccssscsssscssscccssccccccsssssscsssscscsscssccssssccssccssccsscsssscccssssscsssscsscscssscccssccscscsccccssscscscsccccscssssssssscsssssssscscssssscscccssssssscsssscssss" />
  </g>
</svg>
