<?xml version="1.0" encoding="UTF-8" standalone="no"?>
<!-- Generator: Adobe Illustrator 16.0.0, SVG Export Plug-In . SVG Version: 6.00 Build 0)  -->

<svg
   xmlns:dc="http://purl.org/dc/elements/1.1/"
   xmlns:cc="http://creativecommons.org/ns#"
   xmlns:rdf="http://www.w3.org/1999/02/22-rdf-syntax-ns#"
   xmlns:svg="http://www.w3.org/2000/svg"
   xmlns="http://www.w3.org/2000/svg"
   xmlns:sodipodi="http://sodipodi.sourceforge.net/DTD/sodipodi-0.dtd"
   xmlns:inkscape="http://www.inkscape.org/namespaces/inkscape"
   version="1.1"
   id="Capa_1"
   x="0px"
   y="0px"
   width="341.31357"
   height="341.31357"
   viewBox="0 0 341.31355 341.31355"
   xml:space="preserve"
   sodipodi:docname="reparacion.svg"
   inkscape:version="0.92.1 r"><metadata
     id="metadata47"><rdf:RDF><cc:Work
         rdf:about=""><dc:format>image/svg+xml</dc:format><dc:type
           rdf:resource="http://purl.org/dc/dcmitype/StillImage" /><dc:title></dc:title></cc:Work></rdf:RDF></metadata><defs
     id="defs45" /><sodipodi:namedview
     pagecolor="#ffffff"
     bordercolor="#666666"
     borderopacity="1"
     objecttolerance="10"
     gridtolerance="10"
     guidetolerance="10"
     inkscape:pageopacity="0"
     inkscape:pageshadow="2"
     inkscape:window-width="1364"
     inkscape:window-height="734"
     id="namedview43"
     showgrid="false"
     fit-margin-top="0"
     fit-margin-left="0"
     fit-margin-right="0"
     fit-margin-bottom="0"
     inkscape:zoom="0.7168698"
     inkscape:cx="161.5896"
     inkscape:cy="105.09397"
     inkscape:window-x="0"
     inkscape:window-y="33"
     inkscape:window-maximized="0"
     inkscape:current-layer="Capa_1" /><g
     id="g12"
     transform="translate(29.766495,15.816956)" /><g
     id="g14"
     transform="translate(29.766495,15.816956)" /><g
     id="g16"
     transform="translate(29.766495,15.816956)" /><g
     id="g18"
     transform="translate(29.766495,15.816956)" /><g
     id="g20"
     transform="translate(29.766495,15.816956)" /><g
     id="g22"
     transform="translate(29.766495,15.816956)" /><g
     id="g24"
     transform="translate(29.766495,15.816956)" /><g
     id="g26"
     transform="translate(29.766495,15.816956)" /><g
     id="g28"
     transform="translate(29.766495,15.816956)" /><g
     id="g30"
     transform="translate(29.766495,15.816956)" /><g
     id="g32"
     transform="translate(29.766495,15.816956)" /><g
     id="g34"
     transform="translate(29.766495,15.816956)" /><g
     id="g36"
     transform="translate(29.766495,15.816956)" /><g
     id="g38"
     transform="translate(29.766495,15.816956)" /><g
     id="g40"
     transform="translate(29.766495,15.816956)" /><circle
     style="opacity:1;fill:#00aad4;fill-opacity:1;stroke:none;stroke-width:7.55905533;stroke-linecap:round;stroke-linejoin:round;stroke-miterlimit:4;stroke-dasharray:none;stroke-dashoffset:0;stroke-opacity:1;paint-order:stroke fill markers"
     id="path18"
     cx="170.65678"
     cy="170.65678"
     r="170.65678" /><g
     id="g10"
     transform="matrix(0.72697128,0,0,0.72697128,47.900695,50.315568)"
     style="fill:#ffffff"><g
       id="g8"
       style="fill:#ffffff"><path
         d="m 64.99,131.391 c 1.247,1.103 2.971,1.501 4.627,1.165 1.638,-0.325 3.063,-1.459 3.806,-2.966 0.278,-0.565 3.315,-5.874 13.438,-4.945 13.008,1.182 21.486,7.042 21.57,7.095 0.937,0.661 2.024,0.99 3.107,0.99 1.308,0 2.607,-0.478 3.636,-1.413 l 32.252,-29.564 c 1.767,-1.625 2.247,-4.221 1.176,-6.371 L 135.081,68.348 c 14.063,-23.806 42.312,-25.709 50.853,-25.709 1.122,0 1.784,0.037 2.246,0.053 l 6.719,-0.053 c 2.21,-0.016 4.184,-1.388 4.976,-3.452 0.8,-2.065 0.242,-4.396 -1.39,-5.892 -14.122,-12.926 -31.69,-19.481 -52.237,-19.481 -40.966,0 -83.381,27.113 -91.982,45.397 -10.177,21.626 -22.998,34.644 -23.132,34.778 -1.042,1.049 -1.612,2.488 -1.565,3.968 0.051,1.483 0.707,2.88 1.825,3.864 z"
         id="path2"
         inkscape:connector-curvature="0"
         style="fill:#ffffff" /><path
         d="m 38.17,166.357 c 0.979,0.829 2.215,1.28 3.483,1.28 0.158,0 0.317,-0.005 0.473,-0.021 1.44,-0.125 2.764,-0.823 3.677,-1.938 l 18.814,-22.845 c 1.845,-2.236 1.585,-5.525 -0.586,-7.443 l -34.94,-30.909 c -1.065,-0.948 -2.446,-1.399 -3.892,-1.339 -1.431,0.092 -2.756,0.74 -3.699,1.811 L 1.343,127.801 c -0.956,1.075 -1.436,2.499 -1.329,3.935 0.103,1.441 0.78,2.773 1.877,3.708 z"
         id="path4"
         inkscape:connector-curvature="0"
         style="fill:#ffffff" /><path
         d="m 327.973,264.453 c -0.285,-0.662 -0.693,-1.249 -1.213,-1.753 l -91.865,-88.127 -37.406,-36.505 77.066,-71.24 3.852,3.854 c 1.01,1.01 2.379,1.575 3.802,1.575 0.072,0 0.152,0 0.226,-0.005 1.501,-0.063 2.908,-0.753 3.88,-1.903 l 28.42,-33.643 c 0.934,-1.108 1.385,-2.544 1.244,-3.979 -0.137,-1.446 -0.852,-2.769 -1.974,-3.678 L 303.48,20.561 c -1.963,-1.575 -4.762,-1.591 -6.735,-0.016 l -33.35,26.677 c -1.192,0.959 -1.922,2.378 -2.005,3.904 -0.089,1.527 0.482,3.021 1.564,4.102 l 3.995,3.994 -77.167,71.332 -28.46,-27.775 c -2,-1.952 -5.184,-2.039 -7.283,-0.205 l -36.956,32.253 c -1.103,0.96 -1.765,2.328 -1.84,3.777 -0.074,1.459 0.445,2.881 1.445,3.947 l 27.883,29.8 -3.525,3.261 -13.58,-13.744 c -1.971,-2.005 -5.187,-2.128 -7.32,-0.299 L 2.703,262.5 c -0.617,0.541 -1.113,1.208 -1.433,1.953 -3.926,9.098 1.703,23.469 14.003,35.765 9.352,9.359 20.553,15.177 29.231,15.177 2.981,0 5.633,-0.662 7.879,-1.96 0.405,-0.229 0.78,-0.52 1.108,-0.85 L 161.866,204.296 c 2.089,-2.096 2.1,-5.481 0.021,-7.581 l -13.294,-13.449 3.312,-3.061 123.715,132.26 c 0.363,0.377 0.782,0.713 1.233,0.977 2.247,1.301 4.898,1.953 7.88,1.953 8.673,0 19.874,-5.817 29.233,-15.172 12.301,-12.301 17.933,-26.672 14.007,-35.77 z m -309.161,9.381 c -0.753,0 -1.499,-0.32 -2.031,-0.93 -0.974,-1.123 -0.851,-2.813 0.275,-3.789 l 98.642,-85.451 c 1.117,-0.97 2.818,-0.85 3.79,0.274 0.974,1.122 0.851,2.817 -0.273,3.789 l -98.644,85.449 c -0.511,0.442 -1.133,0.658 -1.759,0.658 z m 14.112,14.111 c -0.698,0 -1.397,-0.273 -1.924,-0.815 -1.031,-1.06 -1.011,-2.766 0.055,-3.8 l 93.064,-90.604 c 1.058,-1.031 2.755,-1.01 3.798,0.052 1.034,1.06 1.01,2.771 -0.052,3.8 L 34.8,287.182 c -0.522,0.511 -1.199,0.763 -1.876,0.763 z m 108.067,-82.668 -92.054,92.625 c -0.527,0.535 -1.215,0.792 -1.903,0.792 -0.688,0 -1.37,-0.263 -1.898,-0.782 -1.047,-1.044 -1.053,-2.75 -0.01,-3.8 l 92.054,-92.626 c 1.05,-1.055 2.753,-1.055 3.801,-0.011 1.046,1.045 1.059,2.746 0.01,3.802 z"
         id="path6"
         inkscape:connector-curvature="0"
         style="fill:#ffffff" /></g></g></svg>