<svg xmlns="http://www.w3.org/2000/svg" version="1.1" id="svg2" width="341.314" height="341.314"><circle id="path18" cx="170.657" cy="170.657" r="170.657" opacity="1" fill="#13123d" fill-opacity="1" stroke="none" stroke-width="7.559" stroke-linecap="round" stroke-linejoin="round" stroke-miterlimit="4" stroke-dasharray="none" stroke-dashoffset="0" stroke-opacity="1" paint-order="stroke fill markers"/><g id="g12" transform="translate(-191.34 73.159) scale(1.93368)" fill="#fff"><path d="M131.678 83.385c-2.667-2.839-2.837-7.776-.346-10.03 2.737-2.477 8.706-2.158 10.615.567 2.229 3.183 1.921 7.086-.758 9.603-3.003 2.82-6.782 2.765-9.511-.14zm16.28-.14c-2.999-2.999-3.104-5.45-.382-8.91 1.503-1.912 2.994-2.636 5.427-2.636 3.672 0 7.5 3.666 7.5 7.18 0 2.755-4.47 6.82-7.5 6.82-1.424 0-3.695-1.104-5.045-2.454zm65.18.382c-5.248-4.129-2.168-11.928 4.71-11.928 4.128 0 6.655 2.579 6.655 6.79 0 3.626-3.257 7.21-6.553 7.21-1.197 0-3.362-.932-4.812-2.072zm17.594 1.403c-1.97-.793-4.288-5.997-3.57-8.017 1.24-3.486 3.634-5.314 6.958-5.314 3.879 0 7.383 3.196 7.383 6.734 0 4.692-6.148 8.457-10.77 6.597zM125.504 66.207c0-1.327 7.203-1.508 60.083-1.508 47.622 0 59.997.26 59.667 1.25-.326.978-13.424 1.307-60.084 1.508-52.623.228-59.666.08-59.666-1.25zm11.885-5.887c-5.91-2.112-9.558-5.322-12.3-10.824-4.662-9.356-2.786-18.791 5.16-25.955 3.173-2.861 5.479-4.361 13.144-5.102 3.832-.37 32.187-.475 35.065-.835 1.67-.208-1.636-3.38 10.669-3.293 10.532.075 6.686 1.546 8.777 3.58 6.107.08 25.745.4 28.783.558 6.075.316 7.371.856 9.317 1.903 7.891 4.247 11.5 10.315 11.5 19.337 0 9.916-6.065 18.546-14.723 20.95-5.849 1.624-90.75 1.34-95.392-.32zm88.533-24.228c2.215-.85 1.98-5.11-.353-6.358-1.212-.648-13.363-1.035-32.565-1.035-31.246 0-34.5.362-34.5 3.835 0 4.016 1.219 4.165 34.118 4.165 17.445 0 32.43-.273 33.3-.607z" id="path14" fill="#fff"/></g></svg>