<svg xmlns="http://www.w3.org/2000/svg" version="1.1" id="svg2" width="341.314" height="341.314"><circle id="path18" cx="170.657" cy="170.657" r="170.657" opacity="1" fill="#13123d" fill-opacity="1" stroke="none" stroke-width="7.559" stroke-linecap="round" stroke-linejoin="round" stroke-miterlimit="4" stroke-dasharray="none" stroke-dashoffset="0" stroke-opacity="1" paint-order="stroke fill markers"/><g id="g12" transform="translate(55.297 66.737)" fill="#fff"><path d="M184.922 217.726c-1.856-1.25-4.437-3.838-5.736-5.75-4.783-7.041-1.466-19.467 9.86-36.945l4.193-6.469 2.393 2.97c1.316 1.632 5.174 8.462 8.573 15.177 7.234 14.292 7.991 19.462 3.754 25.645-5.158 7.53-16.063 10.072-23.037 5.372zm-22.315-67.308c-.857-2.233-.727-13.68.171-15.094.412-.646 2.542-1.321 4.735-1.5l3.987-.324v-33h-16.486c-15.72 0-16.5.093-16.79 2-1.054 6.973-.467 6.604-10.003 6.289l-8.721-.289v-60l8.414-.293c9.268-.323 10.045.1 10.07 5.476l.016 3.183 29.75.317c28.253.301 29.951.426 33.75 2.475 4.261 2.3 8.062 5.99 11.12 10.795 1.7 2.671 1.928 5.824 2.38 33l.5 30.047 4.75.305 4.75.305V152h-30.893c-27.248 0-30.965-.187-31.5-1.582zm-75.04-43.63a86.66 86.66 0 01-.79-4.288c-.292-1.936-1.263-2.016-30.29-2.5-33.295-.555-32.71-.442-39.688-7.668C10.205 85.505 10 84.324 10 53.232c0-20.314-.324-28.156-1.2-29.032-.66-.66-2.91-1.2-5-1.2H0V5h30.893c27.248 0 30.965.187 31.5 1.582.857 2.233.727 13.68-.171 15.094-.412.646-2.542 1.321-4.735 1.5L53.5 23.5v33l16.75.274 16.75.274.015-3.274c.026-5.476.775-5.89 10.07-5.567l8.415.293v60l-8.721.289c-8.386.277-8.74.2-9.211-2z" id="path14" fill="#fff"/></g></svg>