<?xml version="1.0" encoding="UTF-8" standalone="no"?>
<!-- Created with Inkscape (http://www.inkscape.org/) -->

<svg
   xmlns:dc="http://purl.org/dc/elements/1.1/"
   xmlns:cc="http://creativecommons.org/ns#"
   xmlns:rdf="http://www.w3.org/1999/02/22-rdf-syntax-ns#"
   xmlns:svg="http://www.w3.org/2000/svg"
   xmlns="http://www.w3.org/2000/svg"
   xmlns:sodipodi="http://sodipodi.sourceforge.net/DTD/sodipodi-0.dtd"
   xmlns:inkscape="http://www.inkscape.org/namespaces/inkscape"
   version="1.1"
   id="svg2"
   width="404"
   height="404"
   viewBox="0 0 404 404"
   sodipodi:docname="calidad.svg"
   inkscape:version="0.92.1 r">
  <metadata
     id="metadata8">
    <rdf:RDF>
      <cc:Work
         rdf:about="">
        <dc:format>image/svg+xml</dc:format>
        <dc:type
           rdf:resource="http://purl.org/dc/dcmitype/StillImage" />
        <dc:title />
      </cc:Work>
    </rdf:RDF>
  </metadata>
  <defs
     id="defs6" />
  <sodipodi:namedview
     pagecolor="#ffffff"
     bordercolor="#666666"
     borderopacity="1"
     objecttolerance="10"
     gridtolerance="10"
     guidetolerance="10"
     inkscape:pageopacity="0"
     inkscape:pageshadow="2"
     inkscape:window-width="1364"
     inkscape:window-height="734"
     id="namedview4"
     showgrid="false"
     inkscape:snap-global="false"
     inkscape:zoom="0.58415841"
     inkscape:cx="-131.36079"
     inkscape:cy="253.61351"
     inkscape:window-x="0"
     inkscape:window-y="33"
     inkscape:window-maximized="0"
     inkscape:current-layer="svg2" />
  <rect
     style="opacity:1;fill:#ffffff;fill-opacity:1;stroke:none;stroke-width:9.31938553;stroke-linecap:round;stroke-linejoin:round;stroke-miterlimit:4;stroke-dasharray:none;stroke-dashoffset:0;stroke-opacity:1;paint-order:stroke fill markers"
     id="rect4491"
     width="514.45013"
     height="459.97891"
     x="-50.839779"
     y="-23.29624" />
  <g
     id="g4487"
     transform="translate(-1.7118597,-8.5593222)">
    <path
       style="fill:#ee9a3d"
       d="m 182.82126,302.57338 c -40.69838,-7.2235 -71.47611,-36.64777 -80.49787,-76.95795 -1.98742,-8.87996 -2.2215,-30.82499 -0.41725,-39.11543 1.85398,-8.51888 4.8275,-16.90359 8.86592,-25 5.01575,-10.0558 8.53731,-14.91389 17.65701,-24.35832 12.10173,-12.53266 23.31945,-19.68543 39.14745,-24.96167 26.55387,-8.85169 57.04741,-5.61486 80.92348,8.58987 7.39935,4.40214 18.5,13.1988 18.5,14.66024 C 267,136.796 199.84555,204 198.48067,204 197.92602,204 191.40972,197.925 184,190.5 176.59028,183.075 169.95904,177 169.26389,177 168.28326,177 168,181.98387 168,199.23789 v 22.2379 l 14.7375,14.7621 C 190.84312,244.35705 197.93258,251 198.49186,251 c 0.55927,0 20.36294,-19.35 44.00814,-43 23.6452,-23.65 43.58104,-43 44.30187,-43 1.72917,0 4.52328,6.51322 7.29284,17 2.95105,11.174 3.25594,33.67225 0.60675,44.77262 -3.70757,15.53505 -9.07769,26.56985 -19.48628,40.04138 -13.02278,16.85502 -31.26176,28.47578 -53.71518,34.22403 -10.36461,2.65342 -28.35568,3.36757 -38.67874,1.53535 z"
       id="path4491"
       inkscape:connector-curvature="0"
       sodipodi:nodetypes="sccssssssssscsssssssss" />
    <path
       style="fill:#6d6d6d"
       d="m 342.50916,294.75 c -0.23543,-0.6875 -0.60503,-24.875 -0.82133,-53.75 -0.37227,-49.69857 -0.51134,-53.03361 -2.60615,-62.5 C 324.43492,119.95048 279.52381,77.791982 226.68841,65.799277 212.14662,62.639993 184.09103,62.642475 169.39594,65.804377 139.69154,72.195732 116.21476,84.71289 95.954963,104.96105 73.026688,127.87612 60.094594,154.66429 56.350327,187 c -0.859767,7.425 -1.730383,14.07343 -1.934702,14.77428 -0.286071,0.98128 -4.227956,1.21121 -17.143557,1 L 20.5,202.5 20.199879,195.5556 c -0.362997,-8.39924 1.999903,-25.25678 5.344617,-38.12988 C 36.356963,115.8108 63.901248,78.435226 101.27396,54.666392 130.84792,35.857523 169.15235,25.809569 205.5,27.325994 298.83613,35.500666 368.54396,107.60641 376.9366,191.5 c 1.1027,12.68968 1.49088,100.22244 0.45641,102.91821 C 376.8726,295.77438 374.37197,296 359.86163,296 c -12.64455,0 -17.03265,-0.3161 -17.35247,-1.25 z M 89,102.15499 c -58.192094,206.93622 -29.096047,103.46811 0,0 z"
       id="path4489"
       inkscape:connector-curvature="0"
       sodipodi:nodetypes="cscccsscscssscccsccc" />
  </g>
  <g
     aria-label="l006 OSI"
     transform="rotate(-61.999686,193.16891,200.19612)"
     style="font-style:normal;font-variant:normal;font-weight:normal;font-stretch:normal;font-size:37.33333206px;line-height:25px;font-family:'Noto Color Emoji';-inkscape-font-specification:'Noto Color Emoji';text-align:start;letter-spacing:0px;word-spacing:0px;writing-mode:lr-tb;text-anchor:start;fill:#ee9a3d;fill-opacity:1;stroke:none;stroke-width:1px;stroke-linecap:butt;stroke-linejoin:miter;stroke-opacity:1"
     id="text4497">
    <path
       d="m 53.075739,190.13882 -26.620256,-2.352 0.450826,-5.10252 26.620256,2.352 z"
       style="font-style:normal;font-variant:normal;font-weight:bold;font-stretch:normal;font-size:37.33333206px;font-family:Arial;-inkscape-font-specification:'Arial Bold';fill:#ee9a3d;fill-opacity:1"
       id="path4533" />
    <path
       d="m 29.014124,167.47509 q 0.709563,-3.81742 3.833491,-5.46173 3.702369,-1.96324 11.175923,-0.5741 7.455633,1.38582 10.237767,4.57291 2.291907,2.63243 1.582343,6.44986 -0.712895,3.83535 -4.088533,5.63682 -3.393561,1.79815 -10.956726,0.39235 -7.419789,-1.37915 -10.201923,-4.56624 -2.291906,-2.63244 -1.582342,-6.44987 z m 4.175871,0.77619 q -0.169896,0.91404 0.288285,1.74086 0.440259,0.82349 1.872435,1.4976 1.856912,0.88286 6.480838,1.74233 4.623926,0.85947 6.448992,0.71663 1.807144,-0.14618 2.510574,-0.73854 0.706762,-0.61029 0.876658,-1.52432 0.169895,-0.91403 -0.270364,-1.73752 -0.458181,-0.82682 -1.890357,-1.50094 -1.838989,-0.87952 -6.462915,-1.73899 -4.623926,-0.85947 -6.43107,-0.7133 -1.825067,0.14284 -2.531828,0.75313 -0.721353,0.58903 -0.891248,1.50306 z"
       style="font-style:normal;font-variant:normal;font-weight:bold;font-stretch:normal;font-size:37.33333206px;font-family:Arial;-inkscape-font-specification:'Arial Bold';fill:#ee9a3d;fill-opacity:1"
       id="path4535" />
    <path
       d="m 34.846687,144.10489 q 1.175317,-3.70066 4.478311,-4.94681 3.916378,-1.49126 11.161327,0.80972 7.227574,2.29545 9.595058,5.80156 1.949464,2.8952 0.774147,6.59585 -1.180835,3.71803 -4.753014,5.08909 -3.589554,1.36553 -10.921372,-0.96303 -7.192826,-2.28442 -9.56031,-5.79053 -1.949464,-2.89519 -0.774147,-6.59585 z m 4.048136,1.28567 q -0.281413,0.88608 0.07121,1.76313 0.335251,0.87153 1.67327,1.71726 1.733744,1.1053 6.21623,2.52892 4.482486,1.42363 6.311228,1.50714 1.811368,0.078 2.582534,-0.42301 0.776684,-0.51839 1.058097,-1.40446 0.281414,-0.88608 -0.05384,-1.75761 -0.352625,-0.87705 -1.690644,-1.72278 -1.71637,-1.09978 -6.198856,-2.5234 -4.482486,-1.42363 -6.293854,-1.50162 -1.828742,-0.0835 -2.605426,0.43487 -0.78854,0.49549 -1.069954,1.38156 z"
       style="font-style:normal;font-variant:normal;font-weight:bold;font-stretch:normal;font-size:37.33333206px;font-family:Arial;-inkscape-font-specification:'Arial Bold';fill:#ee9a3d;fill-opacity:1"
       id="path4537" />
    <path
       d="m 53.385881,116.42039 -1.614188,4.72001 q -1.463353,-0.48637 -2.448936,-0.10363 -0.985584,0.38275 -1.50511,1.4881 -0.690116,1.4683 0.148949,3.11149 0.84682,1.62669 4.896688,3.85245 -1.23154,-2.69378 -0.0219,-5.26743 1.364725,-2.90361 4.54469,-3.92677 3.187719,-1.03967 6.685245,0.6042 3.711996,1.74468 4.932148,4.97694 1.220152,3.23227 -0.384951,6.64731 -1.721415,3.6625 -5.667869,4.68797 -3.962951,1.01772 -10.446572,-2.02965 -6.648597,-3.12491 -8.429835,-6.96331 -1.781238,-3.8384 0.06424,-7.76487 1.294938,-2.75512 3.690927,-3.82449 2.387245,-1.09362 5.55647,-0.20832 z m 5.173754,15.26235 q 2.260193,1.06231 3.986035,0.60451 1.709343,-0.46555 2.337427,-1.80187 0.604821,-1.28683 0.0017,-2.61771 -0.603149,-1.33089 -2.896338,-2.40871 -2.35918,-1.10884 -3.882263,-0.69674 -1.53958,0.40435 -2.190926,1.79016 -0.628084,1.33632 -0.0065,2.75646 0.605128,1.41238 2.650851,2.3739 z"
       style="font-style:normal;font-variant:normal;font-weight:bold;font-stretch:normal;font-size:37.33333206px;font-family:Arial;-inkscape-font-specification:'Arial Bold';fill:#ee9a3d;fill-opacity:1"
       id="path4539" />
    <path
       d="m 68.388158,104.45748 q -3.136581,-2.61447 -4.482968,-5.326753 -0.984703,-2.007366 -1.227163,-4.250375 -0.230789,-2.257012 0.36929,-4.201165 0.78688,-2.595317 2.876124,-5.101782 3.781648,-4.53684 8.860489,-4.907322 5.090514,-0.384483 10.103443,3.794004 4.970921,4.143473 5.532795,9.191996 0.54787,5.036852 -3.222106,9.559687 -3.816663,4.57885 -8.855828,4.95867 -5.053167,0.36815 -9.954076,-3.71696 z m 3.419859,-4.38751 q 3.486646,2.90627 6.635233,2.80163 3.134583,-0.11632 5.200484,-2.59478 2.0659,-2.478458 1.606479,-5.543063 -0.461753,-3.090281 -4.032415,-6.066578 -3.528654,-2.941282 -6.56054,-2.834291 -3.020215,0.09299 -5.156145,2.655463 -2.135931,2.562475 -1.678841,5.601407 0.443088,3.02726 3.985745,5.980212 z"
       style="font-style:normal;font-variant:normal;font-weight:bold;font-stretch:normal;font-size:37.33333206px;font-family:Arial;-inkscape-font-specification:'Arial Bold';fill:#ee9a3d;fill-opacity:1"
       id="path4541" />
    <path
       d="m 92.000569,84.23639 3.83018,-3.626671 q 1.997179,1.795151 3.894974,1.889191 1.912177,0.08285 3.854497,-1.42832 2.05742,-1.600717 2.42169,-3.269923 0.36746,-1.694788 -0.53923,-2.860178 -0.58208,-0.748151 -1.43107,-0.919093 -0.8458,-0.196524 -2.24149,0.265743 -0.94964,0.323104 -4.126244,1.732135 -4.084667,1.815265 -6.428538,1.652545 -3.296768,-0.229724 -5.244493,-2.733154 -1.253708,-1.611402 -1.433094,-3.712203 -0.176193,-2.126382 0.965037,-4.19221 1.155618,-2.077023 3.58711,-3.968779 3.970956,-3.089494 7.325275,-2.904545 3.368705,0.173755 5.730567,3.001678 l -4.113184,3.500409 q -1.538265,-1.413107 -2.993177,-1.412885 -1.451717,-0.02536 -3.250158,1.373868 -1.85599,1.444003 -2.313007,3.023691 -0.295624,1.015285 0.342424,1.835374 0.582079,0.748152 1.629301,0.787962 1.331811,0.04936 5.010401,-1.634742 3.67859,-1.684102 5.77617,-2.045752 2.10076,-0.387231 3.99865,0.330342 1.90109,0.691992 3.45703,2.691858 1.41042,1.812828 1.63461,4.179023 0.2242,2.366195 -1.01294,4.575931 -1.24833,2.195348 -3.99635,4.333367 -3.99973,3.111883 -7.576279,2.938159 Q 95.171487,87.4511 92.000569,84.23639 Z"
       style="font-style:normal;font-variant:normal;font-weight:bold;font-stretch:normal;font-size:37.33333206px;font-family:Arial;-inkscape-font-specification:'Arial Bold';fill:#ee9a3d;fill-opacity:1"
       id="path4543" />
    <path
       d="m 118.48602,75.762161 -13.29213,-23.183814 4.68104,-2.683813 13.29213,23.183815 z"
       style="font-style:normal;font-variant:normal;font-weight:bold;font-stretch:normal;font-size:37.33333206px;font-family:Arial;-inkscape-font-specification:'Arial Bold';fill:#ee9a3d;fill-opacity:1"
       id="path4545" />
  </g>
  <path
     style="fill:none;fill-rule:evenodd;stroke:none;stroke-width:1px;stroke-linecap:butt;stroke-linejoin:miter;stroke-opacity:1"
     d="M 52.927971,192.81356 C 55.280746,148.53301 81.343709,57.987144 197.38019,54.882979"
     id="path4502"
     inkscape:connector-curvature="0"
     sodipodi:nodetypes="cc" />
  <path
     style="fill:none;fill-rule:evenodd;stroke:none;stroke-width:1px;stroke-linecap:butt;stroke-linejoin:miter;stroke-opacity:1"
     d="M 65.970666,168.56341 C 50.853648,16.079124 331.34353,-66.313185 362.53604,150.40634"
     id="path4507"
     inkscape:connector-curvature="0"
     sodipodi:nodetypes="cc" />
  <g
     aria-label="SYSTEM CERTIFICATION"
     transform="rotate(36.952751,167.57709,153.0543)"
     style="font-style:normal;font-variant:normal;font-weight:bold;font-stretch:normal;font-size:24px;line-height:25px;font-family:Arial;-inkscape-font-specification:'Arial Bold';text-align:start;letter-spacing:0px;word-spacing:0px;writing-mode:lr-tb;text-anchor:start;fill:#ffffff;fill-opacity:1;stroke:none;stroke-width:1px;stroke-linecap:butt;stroke-linejoin:miter;stroke-opacity:1"
     id="text4511">
    <path
       d="m 60.086672,167.89003 -0.436468,-3.36271 q 1.688544,-0.35916 2.455242,-1.31009 0.766321,-0.96263 0.715455,-2.54385 -0.05388,-1.67491 -0.783768,-2.49562 -0.74198,-0.83204 -1.690708,-0.80152 -0.609059,0.0196 -1.019036,0.39625 -0.422066,0.36532 -0.709674,1.26566 -0.191236,0.61584 -0.660316,2.80002 -0.601375,2.80985 -1.572496,3.96667 -1.36637,1.62681 -3.404378,1.69236 -1.311822,0.0422 -2.47169,-0.65915 -1.171958,-0.71269 -1.814142,-2.08728 -0.64256,-1.38631 -0.706236,-3.36575 -0.103991,-3.23271 1.260872,-4.90636 1.364487,-1.68537 3.727813,-1.84347 l 0.263792,3.46206 q -1.316376,0.26512 -1.86656,1.02148 -0.562275,0.74503 -0.515177,2.20911 0.0486,1.51094 0.696882,2.346 0.41594,0.53768 1.083563,0.51621 0.60906,-0.0196 1.025852,-0.54889 0.529396,-0.67362 1.045359,-3.22278 0.515963,-2.54916 1.121353,-3.77629 0.593301,-1.23846 1.684153,-1.95359 1.078763,-0.72647 2.706827,-0.77884 1.475799,-0.0475 2.79057,0.73097 1.31477,0.77844 1.995484,2.25732 0.669,1.47925 0.740965,3.71638 0.104744,3.25613 -1.33834,5.04954 -1.454797,1.7938 -4.325193,2.22616 z"
       style="font-style:normal;font-variant:normal;font-weight:bold;font-stretch:normal;font-size:24px;font-family:Arial;-inkscape-font-specification:'Arial Bold';fill:#ffffff"
       id="path4493" />
    <path
       d="m 65.833033,146.30572 -7.190812,-0.75625 -10.55284,5.21785 0.425311,-4.0441 7.182455,-3.3099 -6.345317,-4.65011 0.417957,-3.97417 9.257318,7.32481 7.167503,0.75379 z"
       style="font-style:normal;font-variant:normal;font-weight:bold;font-stretch:normal;font-size:24px;font-family:Arial;-inkscape-font-specification:'Arial Bold';fill:#ffffff"
       id="path4495" />
    <path
       d="m 61.645208,134.37158 0.495239,-3.35456 q 1.722553,0.11397 2.719121,-0.59238 0.999393,-0.71773 1.380808,-2.25309 0.404017,-1.62635 -0.07495,-2.61473 -0.487511,-1.00258 -1.40873,-1.23143 -0.591399,-0.14691 -1.088414,0.10394 -0.505563,0.23666 -1.027358,1.02473 -0.351631,0.54054 -1.397473,2.5146 -1.343432,2.5401 -2.592744,3.38894 -1.757557,1.1935 -3.736472,0.7019 -1.273784,-0.31643 -2.198979,-1.30699 -0.933742,-1.00476 -1.177558,-2.50224 -0.240991,-1.50886 0.236484,-3.43091 0.779782,-3.13897 2.54864,-4.37796 1.771683,-1.25037 4.088821,-0.75928 l -0.688438,3.40316 q -1.338838,-0.10317 -2.074112,0.4749 -0.743822,0.56386 -1.096984,1.9855 -0.364463,1.46712 0.03206,2.4471 0.253895,0.63059 0.90216,0.79163 0.5914,0.14692 1.136517,-0.24896 0.692751,-0.5041 1.883042,-2.8166 1.190291,-2.31249 2.106816,-3.32852 0.907976,-1.03024 2.152286,-1.42147 1.235761,-0.40544 2.816618,-0.0127 1.433007,0.35599 2.486275,1.46288 1.053267,1.1069 1.305775,2.71522 0.241135,1.6055 -0.298497,3.77775 -0.785432,3.16172 -2.662155,4.49467 -1.888096,1.33012 -4.767805,0.96492 z"
       style="font-style:normal;font-variant:normal;font-weight:bold;font-stretch:normal;font-size:24px;font-family:Arial;-inkscape-font-specification:'Arial Bold';fill:#ffffff"
       id="path4497" />
    <path
       d="m 72.831992,115.77202 -13.288486,-5.21029 -1.860819,4.74589 -2.705702,-1.06088 4.983575,-12.71026 2.705701,1.06089 -1.856542,4.73497 13.288486,5.2103 z"
       style="font-style:normal;font-variant:normal;font-weight:bold;font-stretch:normal;font-size:24px;font-family:Arial;-inkscape-font-specification:'Arial Bold';fill:#ffffff"
       id="path4499" />
    <path
       d="M 76.954883,105.77445 61.8612,97.569433 l 6.083805,-11.191565 2.553366,1.388025 -4.42713,8.144 3.346144,1.818985 4.119301,-7.577729 2.54307,1.382429 -4.119302,7.577729 4.108036,2.233153 4.583842,-8.432282 2.543069,1.382428 z"
       style="font-style:normal;font-variant:normal;font-weight:bold;font-stretch:normal;font-size:24px;font-family:Arial;-inkscape-font-specification:'Arial Bold';fill:#ffffff"
       id="path4501" />
    <path
       d="M 84.705613,91.77211 70.86398,81.596116 l 3.07501,-4.182703 11.288164,4.429822 -7.616199,-9.424518 3.081952,-4.192146 13.841633,10.175994 -1.908866,2.596487 -10.895802,-8.010298 8.875874,10.757853 -1.97828,2.690904 -12.908788,-5.272185 10.895801,8.010298 z"
       style="font-style:normal;font-variant:normal;font-weight:bold;font-stretch:normal;font-size:24px;font-family:Arial;-inkscape-font-specification:'Arial Bold';fill:#ffffff"
       id="path4503" />
    <path
       d="m 104.93766,58.726268 3.16733,-1.554646 q 1.38555,2.566829 1.02949,4.805135 -0.35569,2.221738 -2.35395,4.133717 -2.47241,2.365667 -5.67646,2.203799 -3.212151,-0.170334 -6.015306,-3.099979 -2.965186,-3.098988 -3.001412,-6.340561 -0.04433,-3.250041 2.563563,-5.745334 2.277672,-2.179331 4.988313,-2.194118 1.608272,-0.01425 3.457512,1.070898 l -1.91377,2.966472 q -1.14373,-0.754617 -2.381215,-0.641018 -1.229015,0.105498 -2.228142,1.061487 -1.380151,1.320561 -1.295916,3.137584 0.0927,1.808922 2.215322,4.027323 2.252246,2.353877 4.054951,2.542844 1.80271,0.188967 3.15746,-1.107289 0.99912,-0.955989 1.11122,-2.279664 0.11209,-1.323675 -0.87899,-2.98665 z"
       style="font-style:normal;font-variant:normal;font-weight:bold;font-stretch:normal;font-size:24px;font-family:Arial;-inkscape-font-specification:'Arial Bold';fill:#ffffff"
       id="path4505" />
    <path
       d="m 114.05564,59.063679 -10.51965,-13.582292 10.07091,-7.800039 1.77958,2.297686 -7.32851,5.676018 2.33212,3.011081 6.81894,-5.281351 1.77241,2.288421 -6.81894,5.281352 2.86313,3.696681 7.58792,-5.876939 1.77241,2.288422 z"
       style="font-style:normal;font-variant:normal;font-weight:bold;font-stretch:normal;font-size:24px;font-family:Arial;-inkscape-font-specification:'Arial Bold';fill:#ffffff"
       id="path4508" />
    <path
       d="m 126.83663,49.355969 -9.13401,-14.55031 6.18339,-3.881643 q 2.33241,-1.464183 3.63371,-1.727616 1.30498,-0.279588 2.56948,0.324098 1.2645,0.603687 2.07447,1.89396 1.02805,1.637655 0.7382,3.313939 -0.29607,1.666359 -2.03717,3.146763 1.30173,-0.04232 2.33454,0.236367 1.04273,0.272461 3.16023,1.309227 l 3.55855,1.723329 -3.51352,2.205621 -4.11154,-1.832791 q -2.19689,-0.986921 -2.8879,-1.161945 -0.69723,-0.184949 -1.2634,-0.05091 -0.5724,0.124108 -1.58477,0.759626 l -0.59551,0.373834 3.8131,6.074209 z m -2.3332,-10.240948 2.17361,-1.364494 q 2.11406,-1.32711 2.52795,-1.835983 0.41388,-0.508873 0.43749,-1.132498 0.0236,-0.623625 -0.38761,-1.278687 -0.46106,-0.734463 -1.13844,-0.931873 -0.67369,-0.213566 -1.46307,0.115932 -0.38846,0.174675 -2.17499,1.296177 l -2.29272,1.43926 z"
       style="font-style:normal;font-variant:normal;font-weight:bold;font-stretch:normal;font-size:24px;font-family:Arial;-inkscape-font-specification:'Arial Bold';fill:#ffffff"
       id="path4510" />
    <path
       d="m 145.0846,38.580338 -6.46146,-12.727157 -4.54541,2.307664 -1.31564,-2.591408 12.17335,-6.180297 1.31564,2.591408 -4.53497,2.30236 6.46146,12.727158 z"
       style="font-style:normal;font-variant:normal;font-weight:bold;font-stretch:normal;font-size:24px;font-family:Arial;-inkscape-font-specification:'Arial Bold';fill:#ffffff"
       id="path4512" />
    <path
       d="m 154.7201,33.931952 -6.85508,-15.752764 3.18064,-1.384109 6.85508,15.752764 z"
       style="font-style:normal;font-variant:normal;font-weight:bold;font-stretch:normal;font-size:24px;font-family:Arial;-inkscape-font-specification:'Arial Bold';fill:#ffffff"
       id="path4514" />
    <path
       d="m 160.9395,31.210544 -5.91489,-16.129344 11.05729,-4.054887 1.00061,2.728566 -7.80062,2.860612 1.40005,3.817791 6.73339,-2.469244 1.00061,2.728565 -6.73339,2.469245 2.51362,6.854421 z"
       style="font-style:normal;font-variant:normal;font-weight:bold;font-stretch:normal;font-size:24px;font-family:Arial;-inkscape-font-specification:'Arial Bold';fill:#ffffff"
       id="path4516" />
    <path
       d="M 174.66435,26.406313 169.7126,9.9557239 173.03414,8.955917 177.98589,25.406506 Z"
       style="font-style:normal;font-variant:normal;font-weight:bold;font-stretch:normal;font-size:24px;font-family:Arial;-inkscape-font-specification:'Arial Bold';fill:#ffffff"
       id="path4518" />
    <path
       d="m 190.43354,15.784837 3.51641,0.289382 q -0.12665,2.914159 -1.58006,4.653238 -1.4446,1.72504 -4.14055,2.341896 -3.33567,0.763228 -6.00344,-1.018662 -2.67039,-1.793314 -3.57476,-5.745858 -0.95665,-4.181014 0.67441,-6.9825753 1.62845,-2.8129851 5.1469,-3.6180339 3.07293,-0.7031108 5.40768,0.6741139 1.38805,0.812433 2.41925,2.6922856 l -3.16413,1.5654897 q -0.59498,-1.2343248 -1.71565,-1.7713332 -1.10924,-0.5396222 -2.45721,-0.2311944 -1.86204,0.4260485 -2.72143,2.0292096 -0.84796,1.600547 -0.16315,4.593513 0.72664,3.175743 2.17742,4.262341 1.45078,1.086598 3.27855,0.668391 1.34797,-0.308428 2.12294,-1.387366 0.77497,-1.078938 0.77682,-3.014837 z"
       style="font-style:normal;font-variant:normal;font-weight:bold;font-stretch:normal;font-size:24px;font-family:Arial;-inkscape-font-specification:'Arial Bold';fill:#ffffff"
       id="path4520" />
    <path
       d="m 213.4462,18.736495 -3.74288,0.479223 -1.98345,-3.680247 -6.81158,0.872127 -0.91089,4.050826 -3.6499,0.467317 4.45542,-17.890383 3.63827,-0.4658286 z m -7.1982,-5.930732 -3.15764,-6.0227498 -1.4919,6.6180578 z"
       style="font-style:normal;font-variant:normal;font-weight:bold;font-stretch:normal;font-size:24px;font-family:Arial;-inkscape-font-specification:'Arial Bold';fill:#ffffff"
       id="path4522" />
    <path
       d="m 217.40183,18.717473 -0.51432,-14.2641682 -5.09435,0.1836842 -0.10472,-2.9043627 13.64348,-0.4919359 0.10472,2.9043627 -5.08263,0.183262 0.51431,14.2641679 z"
       style="font-style:normal;font-variant:normal;font-weight:bold;font-stretch:normal;font-size:24px;font-family:Arial;-inkscape-font-specification:'Arial Bold';fill:#ffffff"
       id="path4524" />
    <path
       d="m 228.09851,18.549056 0.48751,-17.1727693 3.46736,0.098434 -0.48752,17.1727688 z"
       style="font-style:normal;font-variant:normal;font-weight:bold;font-stretch:normal;font-size:24px;font-family:Arial;-inkscape-font-specification:'Arial Bold';fill:#ffffff"
       id="path4526" />
    <path
       d="m 235.1259,10.119256 q 0.29445,-2.6084338 1.27445,-4.2903712 0.72946,-1.2384921 1.8479,-2.1618321 1.13009,-0.9220255 2.38603,-1.2873586 1.67158,-0.4953122 3.75599,-0.2600176 3.77292,0.4258963 5.76779,3.0215117 2.00652,2.5969299 1.53594,6.7657658 -0.46665,4.133902 -2.97831,6.220807 -2.51034,2.075262 -6.27161,1.65068 -3.80785,-0.42984 -5.79371,-3.000851 -1.98454,-2.582657 -1.52447,-6.658334 z m 3.56481,0.284473 q -0.32731,2.899553 0.84227,4.552899 1.17089,1.6417 3.23202,1.874366 2.06113,0.232665 3.54393,-1.097686 1.49576,-1.340681 1.83096,-4.310103 0.33125,-2.9344878 -0.79832,-4.5243511 -1.11793,-1.5885488 -3.24893,-1.8291013 -2.131,-0.2405526 -3.60084,1.0794679 -1.46853,1.3083757 -1.80109,4.2545085 z"
       style="font-style:normal;font-variant:normal;font-weight:bold;font-stretch:normal;font-size:24px;font-family:Arial;-inkscape-font-specification:'Arial Bold';fill:#ffffff"
       id="path4528" />
    <path
       d="m 253.42707,20.972115 4.06967,-16.6906988 3.27894,0.7994989 4.11337,12.8117309 2.71774,-11.1461082 3.13093,0.7634104 -4.06967,16.6906988 -3.3814,-0.824483 -4.07476,-12.524887 -2.65389,10.884249 z"
       style="font-style:normal;font-variant:normal;font-weight:bold;font-stretch:normal;font-size:24px;font-family:Arial;-inkscape-font-specification:'Arial Bold';fill:#ffffff"
       id="path4530" />
  </g>
  <g
     transform="translate(-97.576265,-3.423729)"
     id="g4552">
    <path
       sodipodi:nodetypes="ssssssccssssssscccsccssccscscscsscccscccscsccccccccscccssccssssssssssssssssscscssccss"
       inkscape:connector-curvature="0"
       id="path4548"
       d="m 375,393.2 c 0,-2.64 -0.54,-5.34 -1.2,-6 -0.91316,-0.91316 -20.15556,-1.2 -80.5,-1.2 -52.2,0 -79.3,-0.34174 -79.3,-1 0,-0.63218 7.11111,-1 19.33333,-1 10.63334,0 19.59494,-0.2616 19.91467,-0.58133 0.31974,-0.31974 -0.49336,-2.165 -1.80689,-4.10058 -2.48342,-3.65954 -3.88334,-8.78327 -3.26997,-11.96823 0.29897,-1.55244 1.31215,-1.84986 6.30156,-1.84986 5.94465,0 5.94539,3.7e-4 6.63263,3.36061 0.9102,4.45038 3.09818,6.47272 7.00288,6.47272 4.1408,0 7.29162,-3.59085 6.37919,-7.2701 -0.90494,-3.64906 -3.82421,-6.4413 -11.505,-11.00438 -7.3023,-4.33822 -12.58826,-9.6403 -13.58997,-13.63142 -1.04291,-4.15528 0.18873,-12.38532 2.28247,-15.25192 3.3239,-4.55085 8.86117,-6.67806 17.3251,-6.65566 11.88832,0.0315 17.33561,4.20072 17.44479,13.3519 L 286.5,339.5 l -4.88951,0.31049 c -5.4436,0.34567 -6.53375,-0.33871 -8.05975,-5.05975 -0.87122,-2.69536 -1.62198,-3.30547 -4.39428,-3.57107 -4.02937,-0.38605 -7.15646,2.05786 -7.15646,5.59296 0,3.23159 5.79486,8.72481 13.9537,13.22737 8.78704,4.84924 11.54749,9.17378 11.54265,18.0828 -0.003,6.08176 -0.31225,7.10464 -3.25,10.76028 -1.78549,2.2218 -3.24635,4.29103 -3.24635,4.59828 0,0.91772 16.83696,0.63147 17.41016,-0.296 0.29051,-0.47005 -0.59106,-1.90613 -1.95905,-3.19129 -4.07868,-3.83172 -5.45176,-10.61089 -5.44553,-26.88557 0.006,-16.10647 0.82629,-20.5268 4.65197,-25.07336 4.09671,-4.86867 7.92387,-6.37667 16.34245,-6.43932 6.12442,-0.0456 8.25787,0.37848 11.63211,2.31207 4.88008,2.7965 8.36789,8.45092 8.36789,13.56598 v 3.66156 l -6.21269,-0.29771 c -6.12226,-0.29339 -6.2223,-0.34494 -6.87244,-3.54156 C 318.00439,332.77953 316.26841,331 312.81181,331 c -7.42702,0 -8.81234,3.52204 -8.81026,22.39922 10e-4,11.42523 0.33332,14.76285 1.75,17.59006 2.06657,4.12413 5.96108,5.84955 9.99845,4.42968 2.61676,-0.92026 2.75,-1.28042 2.75,-7.43322 0,-6.40241 -0.0295,-6.47122 -3,-6.98574 -2.74528,-0.47552 -3,-0.85843 -3,-4.50982 V 352.5 l 9.72442,-0.2859 9.72443,-0.28591 0.27557,15.78591 0.27558,15.7859 4.25,0.3075 c 4.77363,0.34538 5.64372,-1.23623 2.32991,-4.23518 -2.11423,-1.91336 -4.61694,-10.73047 -3.71382,-13.08394 0.41807,-1.08947 2.18253,-1.48838 6.58347,-1.48838 5.74964,0 6.03804,0.12016 6.6006,2.75 1.09196,5.10473 2.27942,6.99041 4.80046,7.62315 3.63558,0.91248 7.48857,-0.88427 8.22986,-3.83778 1.31889,-5.25486 -0.21141,-7.26995 -10.85001,-14.28726 -12.2268,-8.0649 -15.23753,-12.39033 -14.33499,-20.59462 1.1778,-10.70653 7.09858,-15.154 20.10452,-15.10178 8.09723,0.0325 12.59943,1.45332 15.43614,4.87134 2.24293,2.70257 3.06386,0.69784 3.06386,-7.48207 0,-4.62732 0.41729,-7.94098 1,-7.94098 0.64778,0 1,12.43333 1,35.3 0,26.12222 0.31199,35.61199 1.2,36.5 0.77007,0.77007 4.71111,1.2 11,1.2 5.86667,0 9.8,0.40136 9.8,1 0,0.59864 -3.93333,1 -9.8,1 -6.28889,0 -10.22993,0.42993 -11,1.2 -0.66,0.66 -1.2,3.36 -1.2,6 0,2.64 -0.45,4.8 -1,4.8 -0.55,0 -1,-2.16 -1,-4.8 z m -1.2,-10.4 c 1.45314,-1.45314 1.59259,-4.8 0.2,-4.8 -0.55,0 -1.9,0.9 -3,2 -1.1,1.1 -2,2.45 -2,3 0,1.39259 3.34686,1.25314 4.8,-0.2 z M 374.79486,348.40514 374.5,340.5 368.56669,340 c -5.48899,-0.46256 -5.98926,-0.71072 -6.68061,-3.31393 C 360.7734,332.49634 359.11325,331 355.57756,331 351.44824,331 350,332.56459 350,337.02569 c 0,4.34779 1.7021,6.08607 11.5,11.74443 3.85,2.22341 8.09654,5.21566 9.43676,6.64946 1.35587,1.45055 2.81739,2.22627 3.29485,1.74881 0.47196,-0.47196 0.72542,-4.41542 0.56325,-8.76325 z"
       style="fill:#ee9a3d" />
    <path
       sodipodi:nodetypes="sscccsssssscccsccsscssssscsscccscccscscccscssccscccsscccscsssscsc"
       inkscape:connector-curvature="0"
       id="path4550"
       d="M 255,382.73186 C 251.62306,381.05871 247.85714,373.43538 248.21646,369 L 248.5,365.5 h 5.959 5.95901 l 0.68732,3.36061 c 0.9102,4.45038 3.09818,6.47272 7.00288,6.47272 4.1408,0 7.29162,-3.59085 6.37919,-7.2701 -0.90494,-3.64906 -3.82421,-6.4413 -11.505,-11.00438 -7.3023,-4.33822 -12.58826,-9.6403 -13.58997,-13.63142 -1.04291,-4.15528 0.18873,-12.38532 2.28247,-15.25192 3.3239,-4.55085 8.86117,-6.67806 17.3251,-6.65566 11.88832,0.0315 17.33561,4.20072 17.44479,13.3519 L 286.5,339.5 l -4.88951,0.31049 c -5.4436,0.34567 -6.53375,-0.33871 -8.05975,-5.05975 -0.87122,-2.69536 -1.62198,-3.30547 -4.39428,-3.57107 -4.02937,-0.38605 -7.15646,2.05786 -7.15646,5.59296 0,3.23159 5.79486,8.72481 13.9537,13.22737 8.73487,4.82045 11.54712,9.18873 11.54382,17.93108 -0.003,7.39108 -2.3274,11.89535 -7.5267,14.58401 -3.62511,1.87462 -21.31483,2.02818 -24.97082,0.21677 z m 43.89788,-0.99506 c -6.17506,-4.11296 -7.35418,-8.12732 -7.7311,-26.32087 -0.36682,-17.70548 0.43271,-22.59806 4.47864,-27.40638 4.10909,-4.88338 7.92967,-6.39103 16.35458,-6.45373 6.12442,-0.0456 8.25787,0.37848 11.63211,2.31207 4.88008,2.7965 8.36789,8.45092 8.36789,13.56598 v 3.66156 l -6.21269,-0.29771 c -6.12226,-0.29339 -6.2223,-0.34494 -6.87244,-3.54156 C 318.00439,332.77953 316.26841,331 312.81181,331 c -7.42702,0 -8.81234,3.52204 -8.81026,22.39922 10e-4,11.42523 0.33332,14.76285 1.75,17.59006 2.06657,4.12413 5.96108,5.84955 9.99845,4.42968 2.61676,-0.92026 2.75,-1.28042 2.75,-7.43322 0,-6.40241 -0.0295,-6.47122 -3,-6.98574 -2.74528,-0.47552 -3,-0.85843 -3,-4.50982 V 352.5 l 9.75,-0.28621 9.75,-0.28621 v 15.42922 c 0,13.14694 -0.23398,15.51901 -1.58179,16.03621 C 329.54823,383.72686 322.86478,384 315.5661,384 c -12.11718,0 -13.5656,-0.19667 -16.66822,-2.2632 z m 41.73179,-0.75709 c -2.4463,-2.14788 -3.78579,-4.46204 -4.63733,-8.01163 -1.7283,-7.20435 -1.15731,-7.96808 5.95722,-7.96808 5.74964,0 6.03804,0.12016 6.6006,2.75 1.09196,5.10473 2.27942,6.99041 4.80046,7.62315 3.63558,0.91248 7.48857,-0.88427 8.22986,-3.83778 1.31889,-5.25486 -0.21141,-7.26995 -10.85001,-14.28726 -12.2268,-8.0649 -15.23753,-12.39033 -14.33499,-20.59462 1.1778,-10.70653 7.09858,-15.154 20.10452,-15.10178 12.45858,0.05 17.83408,4.04015 17.94479,13.32004 L 374.5,339.5 h -5.92805 c -5.65466,0 -5.96276,-0.12978 -6.68062,-2.81393 C 360.77008,332.49355 359.11165,331 355.57756,331 351.44824,331 350,332.56459 350,337.02569 c 0,4.34779 1.7021,6.08607 11.5,11.74443 10.91817,6.30533 13.5,9.89369 13.5,18.76301 0,6.95059 -2.16798,11.78954 -6.4745,14.45111 -2.73289,1.68902 -4.9793,2.01576 -13.85874,2.01576 -10.3645,0 -10.67269,-0.0663 -14.03709,-3.02029 z"
       style="fill:#6d6d6d" />
  </g>
</svg>
