<?xml version="1.0" encoding="UTF-8" standalone="no"?>
<!-- Created with Inkscape (http://www.inkscape.org/) -->

<svg
   xmlns:dc="http://purl.org/dc/elements/1.1/"
   xmlns:cc="http://creativecommons.org/ns#"
   xmlns:rdf="http://www.w3.org/1999/02/22-rdf-syntax-ns#"
   xmlns:svg="http://www.w3.org/2000/svg"
   xmlns="http://www.w3.org/2000/svg"
   xmlns:sodipodi="http://sodipodi.sourceforge.net/DTD/sodipodi-0.dtd"
   xmlns:inkscape="http://www.inkscape.org/namespaces/inkscape"
   version="1.1"
   id="svg2"
   width="38.231815"
   height="29.41316"
   viewBox="0 0 38.231819 29.41316"
   sodipodi:docname="logo_square.svg"
   inkscape:version="0.92.2 5c3e80d, 2017-08-06">
  <metadata
     id="metadata8">
    <rdf:RDF>
      <cc:Work
         rdf:about="">
        <dc:format>image/svg+xml</dc:format>
        <dc:type
           rdf:resource="http://purl.org/dc/dcmitype/StillImage" />
        <dc:title />
      </cc:Work>
    </rdf:RDF>
  </metadata>
  <defs
     id="defs6" />
  <sodipodi:namedview
     pagecolor="#ffffff"
     bordercolor="#666666"
     borderopacity="1"
     objecttolerance="10"
     gridtolerance="10"
     guidetolerance="10"
     inkscape:pageopacity="0"
     inkscape:pageshadow="2"
     inkscape:window-width="681"
     inkscape:window-height="749"
     id="namedview4"
     showgrid="false"
     fit-margin-top="0"
     fit-margin-left="0"
     fit-margin-right="0"
     fit-margin-bottom="0"
     inkscape:zoom="15.671233"
     inkscape:cx="18.009775"
     inkscape:cy="14.097915"
     inkscape:window-x="683"
     inkscape:window-y="17"
     inkscape:window-maximized="0"
     inkscape:current-layer="svg2" />
  <g
     id="g4487"
     transform="matrix(0.16986538,0,0,0.16986538,-9.7624209,-0.14341559)"
     style="fill:#000000">
    <path
       style="fill:#000000;stroke-width:0.81539488"
       d="m 148.37726,166.40088 c -7.71375,-8.83891 -4.68251,-8.50358 -26.24542,-2.90338 -15.97629,4.14928 -20.74816,4.21211 -29.061071,0.38266 C 82.013092,158.78629 71.061216,146.60062 65.032479,132.6832 55.752938,111.26125 54.927954,79.913123 63.03924,56.943122 71.871146,31.932426 89.837652,13.947666 111.49394,8.4391947 c 3.91114,-0.994833 6.82259,-2.2933075 7.64599,-3.41002 0.90198,-1.2232838 2.93384,-2.0188904 6.31625,-2.4732224 2.74259,-0.368389 6.0526,-0.816586 7.35558,-0.9959933 1.89887,-0.2614545 2.49268,0.097169 2.99191,1.8069229 0.61159,2.0945722 1.03032,2.1470104 23.17223,2.9019153 l 22.54939,0.7687972 1.54637,-2.1850038 c 2.55177,-3.605626 13.21009,-5.44767427 15.34429,-2.6519125 0.8812,1.1543627 3.48924,1.6822948 10.48127,2.1216776 20.71312,1.3016226 35.15237,9.1202723 45.5872,24.6848473 8.10017,12.08218 11.25909,24.103871 11.25909,42.847953 v 10.434958 l 3.58436,-5.098671 c 3.80638,-5.414463 5.50544,-6.534791 9.12236,-6.015122 5.25609,0.755179 1.873,10.39406 -5.0423,14.366244 -3.13036,1.79809 -3.70479,3.345693 -2.02168,5.446658 1.32832,1.658074 3.86094,0.59255 7.47099,-3.143197 5.17885,-5.359167 4.78933,-1.206364 -0.47375,5.050854 -5.71964,6.80001 -9.632,7.24668 -12.53586,1.431209 L 264.43548,91.5 l -0.4291,2.2975 c -1.31217,7.02584 -5.11967,16.50093 -9.0109,22.42392 -4.76349,7.25068 -9.56531,11.69749 -16.64055,15.41027 -2.67166,1.40197 -5.19327,2.9657 -5.60359,3.47494 -0.41031,0.50924 -1.73444,4.40608 -2.94251,8.65963 -1.20806,4.25356 -2.61459,8.48054 -3.12559,9.39329 -0.97139,1.73508 -12.21579,5.39132 -13.78865,4.48353 -0.47069,-0.27166 -3.40413,-3.45249 -6.51876,-7.06851 -3.96635,-4.60485 -6.22969,-6.5687 -7.5546,-6.55496 -2.32661,0.0241 -23.1759,5.56119 -24.07017,6.39247 -0.35521,0.33018 -1.76037,4.64463 -3.1226,9.58766 -1.36221,4.94303 -2.80893,9.37747 -3.21493,9.85431 C 167.85726,170.5074 156.77914,174 155.26309,174 c -0.13971,0 -3.23834,-3.41961 -6.88583,-7.59912 z m 17.72181,0.51346 c 0.97107,-0.76685 7.89254,-23.71731 7.89254,-26.17039 0,-1.18403 -4.83775,-0.20166 -6.80495,1.38183 -1.04826,0.84379 -9.1519,24.33007 -9.1519,26.52439 0,0.7548 6.75035,-0.6982 8.06431,-1.73583 z m -8.73493,-5.89646 c 1.23516,-3.84017 2.05005,-7.27648 1.81085,-7.63624 -0.2392,-0.35976 -1.86516,0.26831 -3.61326,1.39572 -1.7481,1.12741 -4.30363,2.36473 -5.67896,2.7496 -1.37533,0.38487 -2.64333,1.04712 -2.81778,1.47165 -0.34942,0.85035 6.22605,8.85043 7.35076,8.94334 0.38645,0.0319 1.71323,-3.08391 2.94839,-6.92407 z m -52.18646,-0.87261 c 13.85194,-9.90713 22.71128,-32.11042 24.04587,-60.263807 l 0.40856,-8.618537 -2.57474,-2.631463 C 125.64127,87.184158 124.29679,86 124.06965,86 c -0.22714,0 -1.79933,3.135781 -3.49376,6.968402 -3.13865,7.099268 -5.81083,10.718198 -7.05811,9.558778 -1.37078,-1.27423 -0.63575,-4.287816 2.94981,-12.093973 2.275,-4.952917 3.64875,-8.991004 3.65678,-10.748948 0.0169,-3.706633 1.07396,-6.602044 3.57794,-9.800737 1.87293,-2.392568 1.97922,-2.844246 1.24192,-5.278064 -0.44345,-1.463873 -1.22582,-2.903729 -1.73859,-3.19968 -0.51277,-0.29595 -3.05101,1.066679 -5.64054,3.028065 C 114.97558,66.395229 112.42078,68 111.88777,68 c -2.83301,0 -1.51655,-10.244759 1.94806,-15.159875 1.27171,-1.804119 2.31219,-3.750906 2.31219,-4.326195 0,-1.680236 -6.60937,-7.726168 -11.30277,-10.339227 C 92.842882,31.492362 75.880595,36.309685 69.376544,48.247885 66.11574,54.233099 61.818182,68.13304 60.641609,76.5 c -1.265242,8.997511 -1.263056,24.24377 0.0046,32.33164 1.348435,8.60301 4.787631,19.38243 8.595485,26.94071 5.762002,11.43711 16.740523,22.25468 26.007115,25.62584 5.408521,1.9676 5.429721,1.96493 9.928841,-1.25292 z M 84.861718,103.8947 c -0.412017,-1.15791 -0.56729,-3.5631 -0.345051,-5.344854 C 85.130138,93.63146 90.30826,79.025371 95.224726,68.34529 101.45053,54.820915 101.47539,55.555021 94.81808,56.333812 91.739594,56.693942 87.129932,57.77866 84.574387,58.744297 80.377049,60.3303 79.927203,60.741641 79.920305,63 c -0.0066,2.159282 -0.343599,2.541955 -2.472746,2.807841 -1.35581,0.169313 -3.111736,-0.212658 -3.902057,-0.848824 -1.214103,-0.977287 -1.388236,-1.806669 -1.122847,-5.348011 0.465472,-6.211243 2.295076,-11.235992 4.715698,-12.951006 5.453119,-3.863541 21.075606,-6.121347 25.368737,-3.666361 2.08332,1.191332 3.94278,7.189136 3.4283,11.058202 -0.19678,1.479851 -2.51103,8.020829 -5.14277,14.535506 -5.51287,13.64671 -7.899288,20.949882 -7.908514,24.202491 C 92.869784,97.839152 88.886837,106 86.436813,106 c -0.454286,0 -1.163078,-0.94738 -1.575095,-2.1053 z m 45.823032,54.02902 c 13.66693,-3.52097 20.07845,-5.58441 20.9261,-6.7347 2.25127,-3.05507 8.52119,-16.2257 8.26805,-17.36791 -0.17299,-0.78057 -3.11301,-1.06178 -9.53123,-0.91166 -6.47893,0.15155 -10.78451,-0.26599 -14.26059,-1.38291 -2.73873,-0.88 -5.78358,-1.85909 -6.76633,-2.17576 -1.60864,-0.51835 -1.97331,-0.0579 -3.65678,4.61671 -3.34129,9.27808 -8.03229,17.72485 -12.81327,23.07203 -2.57461,2.87951 -4.68111,5.3986 -4.68111,5.59798 0,0.89101 4.05488,0.0421 22.51516,-4.71378 z m 93.43137,-6.51991 c 0.91894,-0.53038 7.75524,-23.75348 7.73179,-26.2651 -0.0123,-1.31499 -2.55713,-1.11256 -6.18337,0.49184 -1.2362,0.54694 -9.12133,23.00841 -9.12133,25.9829 0,1.39536 0.50438,1.54358 3.33244,0.97932 1.83285,-0.36569 3.74106,-0.90072 4.24047,-1.18896 z m -8.68376,-6.67035 c 1.08647,-3.72156 1.82681,-6.98995 1.64521,-7.26309 -0.1816,-0.27314 -1.49809,0.24901 -2.92553,1.16034 -1.42744,0.91134 -3.9417,2.18415 -5.58725,2.82848 -1.64555,0.64432 -2.99191,1.66511 -2.99191,2.2684 0,1.56456 5.79644,8.23963 6.93395,7.98501 0.52258,-0.11696 1.83906,-3.25758 2.92553,-6.97914 z m -53.70901,-1.06194 c 3.26221,-5.06574 3.70355,-5.41058 8.9505,-6.99342 6.76439,-2.04061 7.79429,-1.36807 6.27578,4.09814 -0.54666,1.96782 -0.75031,3.94429 -0.45254,4.39214 0.29776,0.44786 5.61527,-0.54646 11.81668,-2.20959 6.20141,-1.66313 13.79681,-3.70048 16.87867,-4.52746 6.8449,-1.83672 12.47604,-6.12968 15.62713,-11.9135 2.14055,-3.92899 2.63946,-4.30364 7.34211,-5.51352 4.52705,-1.16471 6.33625,-2.33274 5.51845,-3.56276 -0.50171,-0.7546 -16.58597,2.41067 -38.23914,7.52518 -11.61432,2.74333 -23.25908,5.28393 -25.87725,5.64578 -2.61817,0.36185 -5.01891,0.93457 -5.33498,1.2727 -0.64372,0.68865 -7.52374,15.90915 -7.52374,16.64458 0,1.71849 2.07946,-0.29465 5.01833,-4.85827 z m 0.20167,-15.59187 c 0.6523,-0.52507 1.97077,-4.02029 2.92993,-7.76716 5.07055,-19.80769 5.47521,-36.755507 1.3291,-55.664719 -2.56577,-11.701725 -9.67999,-27.19932 -14.57451,-31.74906 l -2.1923,-2.037866 -5.83049,2.167936 c -6.9871,2.597994 -14.31111,6.844762 -18.24323,10.578189 -3.45917,3.284378 -2.57428,4.076714 2.1809,1.952781 5.04052,-2.251379 6.90471,-2.016183 8.52141,1.075108 1.61994,3.097489 1.76063,6.221985 0.40183,8.924011 -2.51265,4.99652 -1.01228,4.540659 6.77634,-2.05887 6.92884,-5.87101 8.82694,-6.65263 8.82694,-3.634859 0,2.743235 -2.30291,6.674847 -4.79777,8.19093 -3.31434,2.014068 -16.39197,12.925465 -16.86173,14.06868 -0.22714,0.552761 -0.22909,2.438321 -0.005,4.190134 0.32279,2.515975 1.38707,4.218332 5.066,8.103244 6.51148,6.875729 10.61434,13.667582 10.61434,17.570411 0,5.09127 -1.59414,4.78722 -7.64464,-1.45807 -3.0568,-3.155208 -5.83362,-5.480366 -6.17071,-5.167021 -0.33709,0.313345 -0.80554,3.997448 -1.04099,8.186891 -0.23545,4.18945 -0.89638,10.33522 -1.46871,13.65726 -0.57234,3.32204 -0.90047,6.5894 -0.72917,7.26079 0.35072,1.37468 4.47945,3.29722 9.81973,4.57253 4.41407,1.05413 21.47069,0.34411 23.09239,-0.96127 z m -5.22,-28.476058 c 0,-1.486658 0.88325,-3.562808 2.3266,-5.468868 3.92387,-5.181782 6.01981,-1.322797 2.60081,4.788551 -2.17073,3.880115 -4.92741,4.260715 -4.92741,0.680317 z m 86.43295,25.174658 c 4.21827,-3.06262 6.75188,-5.77362 9.99114,-10.69068 4.17865,-6.34301 8.04133,-15.299043 7.16613,-16.6154 -0.23201,-0.348965 -2.16778,1.507027 -4.3017,4.12443 -2.13391,2.6174 -6.42297,6.49263 -9.53123,8.61162 -3.10826,2.11899 -6.39936,4.41688 -7.31356,5.10642 -1.74298,1.31466 -3.75714,6.69012 -4.44498,11.86292 -0.3778,2.84116 -0.29604,3.00473 1.18855,2.37744 0.87684,-0.3705 4.13738,-2.52004 7.24565,-4.77675 z m -66.81932,1.17218 c 2.92542,-0.58758 12.64949,-2.82789 21.60903,-4.97847 8.95954,-2.15058 21.06717,-4.82211 26.90584,-5.93673 8.00315,-1.52783 10.88824,-2.45834 11.72289,-3.78091 1.26381,-2.00262 4.58695,-14.209459 4.58695,-16.849189 0,-1.55054 -0.17831,-1.501807 -1.53881,0.420555 -2.42567,3.427445 -3.65591,2.802002 -4.50876,-2.292216 l -0.74777,-4.46653 -3.0848,3.854418 c -6.09296,7.613073 -9.78597,8.701752 -13.19209,3.888943 -2.56215,-3.620284 -1.60595,-9.481236 2.5021,-15.336338 1.14762,-1.63568 2.9803,-4.911922 4.07262,-7.280539 3.12561,-6.777671 4.97733,-4.680101 5.12598,5.806576 0.0413,2.915581 -0.41614,5.684011 -1.2993,7.86278 -0.74969,1.849529 -1.19686,3.612776 -0.99371,3.918327 0.20315,0.305551 1.64043,-0.804577 3.19396,-2.466952 1.55352,-1.662374 3.16463,-3.200622 3.58025,-3.418327 0.41561,-0.217705 1.76799,-2.402676 3.00528,-4.85549 1.23729,-2.452815 2.99158,-4.72061 3.89842,-5.039547 2.16749,-0.762305 2.38397,-3.856336 1.00274,-14.331517 -1.22023,-9.254253 -5.73252,-23.889532 -9.28226,-30.106392 l -2.24805,-3.937118 -5.87945,0.217248 c -3.2337,0.119486 -19.64224,1.102908 -36.46342,2.185381 -16.82118,1.082473 -31.10755,1.968914 -31.74749,1.96987 -1.90164,0.0028 -1.36055,1.859703 2.32866,7.991297 6.96111,11.569619 11.47132,28.350134 12.23213,45.51044 0.48295,10.893133 -0.46788,20.87981 -3.12272,32.79822 -1.08003,4.84856 -1.96369,9.24529 -1.96369,9.77049 0,0.52613 1.11958,0.72931 2.49326,0.45248 1.37129,-0.27634 4.88679,-0.98319 7.81221,-1.57076 z m 5.24688,-25.37229 c -0.56374,-2.209595 0.73601,-4.995134 4.71856,-10.112535 C 189.84085,85.895322 190.90677,83 189.03256,83 c -0.50374,0 -1.26889,-0.639738 -1.70034,-1.421639 -1.72936,-3.134073 3.19729,-9.253573 6.62074,-8.223763 1.71685,0.516449 2.64845,-0.559926 9.92186,-11.46379 8.2975,-12.439145 10.14193,-13.961091 10.54718,-8.703115 0.11322,1.468825 -0.54086,6.327625 -1.4535,10.797332 -1.37883,6.752921 -1.49793,8.201819 -0.70449,8.570858 0.52517,0.244264 1.40364,0.654994 1.95216,0.912732 2.47248,1.161773 0.0571,7.229241 -3.73875,9.391846 -1.90052,1.08278 -3.12206,5.720485 -1.96509,7.460644 0.47145,0.709088 1.47028,0.192544 3.19342,-1.651477 3.7943,-4.060477 3.59533,-1.146753 -0.3037,4.447454 -3.68429,5.286109 -6.25443,6.84187 -7.90309,4.783914 -1.05545,-1.317461 -1.01655,-4.795621 0.13589,-12.150996 L 204.06572,83 h -4.1324 c -4.51871,0 -4.76811,0.255468 -10.48023,10.735595 C 187.39132,97.518345 183.54991,102 182.36934,102 c -0.24257,0 -0.60429,-0.63984 -0.80381,-1.42186 z m 25.92222,-32.358593 c 0.69199,-2.904249 1.06092,-5.577119 0.81985,-5.939711 -0.5799,-0.872199 -7.05637,8.758421 -7.05637,10.492937 0,0.945847 0.74255,1.255372 2.48918,1.037592 2.34765,-0.292718 2.56072,-0.61061 3.74734,-5.590818 z m 37.28932,39.795323 c 1.69349,-1.09182 4.41309,-3.36558 6.04354,-5.0528 2.63006,-2.72163 2.88096,-3.302364 2.22418,-5.14813 -0.4343,-1.220545 -0.56063,-3.78201 -0.30564,-6.197195 L 253.17379,87.5 l -3.3227,4.913458 c -1.82748,2.702401 -4.01075,4.985103 -4.85169,5.072671 -1.54941,0.161338 -3.27915,4.208591 -4.22746,9.891431 -0.52875,3.16865 -0.0414,3.24619 4.00513,0.63731 z M 224.15151,87.777494 c 1.20432,-2.586097 1.35823,-6.358994 0.29955,-7.343098 -0.40449,-0.376 -1.6584,0.704541 -2.78646,2.401203 -2.0088,3.021357 -2.02575,3.126816 -0.82368,5.12462 1.55623,2.586385 2.03329,2.560054 3.31059,-0.182725 z M 261.59298,87.75 c 3.16616,-5.08767 2.55362,-28.959016 -1.01862,-39.69648 -1.67621,-5.038394 -2.26032,-5.807123 -7.7958,-10.259779 -5.65007,-4.544839 -16.63015,-10.614385 -17.32132,-9.574839 -0.17473,0.2628 1.01161,3.808556 2.63629,7.879458 3.81691,9.563898 6.41019,21.291495 6.82241,30.853056 0.45634,10.584785 0.4626,10.601098 3.12075,8.130187 3.91799,-3.641996 5.8249,-2.181105 4.41798,3.384637 -0.39084,1.546125 -0.56565,3.029178 -0.38846,3.295674 0.17719,0.266495 1.73652,-1.387977 3.46519,-3.676604 3.25147,-4.304695 4.59253,-4.756989 5.76945,-1.945834 0.52783,1.260782 0.19874,2.782405 -1.4247,6.587548 -1.16109,2.721439 -2.11107,5.471174 -2.11107,6.110523 0,1.958874 2.34703,1.29206 3.8279,-1.087547 z m 13.92027,-9.218399 c 1.2697,-1.680079 1.54112,-2.478491 0.84988,-2.5 -1.24197,-0.03864 -3.97094,2.727547 -3.97094,4.025103 0,1.618776 1.18138,1.041498 3.12106,-1.525103 z M 130.11755,60.75 c 1.68549,-4.157812 1.65898,-4.75 -0.21264,-4.75 -2.53431,0 -4.04715,2.28604 -3.5368,5.344409 0.59915,3.590493 2.15282,3.344186 3.74944,-0.594409 z m -3.33163,-22.176222 c 3.59568,-2.782932 7.62261,-4.9214 19.22616,-10.209892 1.32523,-0.603995 0.3868,-1.741198 -4.33771,-5.256489 C 137.17571,19.760148 128.84328,16 125.92449,16 c -2.34775,0 -4.63544,-1.757998 -4.072,-3.129179 0.8015,-1.950551 11.70458,1.253899 18.23081,5.358093 1.64555,1.034849 4.95292,3.655132 7.34971,5.822852 l 4.3578,3.941308 37.40279,-2.390143 c 20.57153,-1.314578 37.55075,-2.612682 37.73159,-2.884677 0.58925,-0.886259 -5.41387,-7.620257 -9.99447,-11.211298 C 212.70545,8.1944826 212.09632,8 205.94667,8 c -5.60882,0 -6.75678,-0.2911137 -8.28702,-2.1015261 -1.39885,-1.6549677 -2.33622,-1.9737064 -4.41131,-1.5 -1.44926,0.3308393 -3.83718,0.8745677 -5.3065,1.2082851 -1.59254,0.3617038 -3.05421,1.4285711 -3.61909,2.6415734 -0.93433,2.0063126 -1.29038,2.0248006 -25.41922,1.3199195 C 134.83465,8.8651222 134.41331,8.8175346 133.30164,6.6766785 132.17649,4.5098614 132.16688,4.5090609 131.18131,6.5 c -0.84506,1.7070958 -1.18941,1.8169349 -2.35127,0.75 -2.34588,-2.1542251 -6.60103,-1.5507644 -8.81406,1.25 -1.32175,1.672783 -2.78348,2.500428 -4.41762,2.501295 -3.8076,0.002 -15.15688,4.488383 -21.391011,8.455857 -5.672858,3.610271 -14.689041,12.061421 -15.119027,14.171537 -0.163075,0.800274 0.890683,0.732076 3.62152,-0.234379 5.103108,-1.806012 14.9423,-1.75861 19.673268,0.09478 4.22958,1.656968 10.24481,6.006375 13.71583,9.917447 l 2.27797,2.566762 2.04368,-2.027355 c 1.12403,-1.115045 3.98843,-3.53252 6.36533,-5.372166 z M 250.78396,28.363367 C 244.60675,19.774795 229.60358,9.92175 222.87283,10.033269 l -2.00797,0.03327 1.43451,1.71673 c 9.57306,11.45644 9.24538,11.170916 15.60975,13.601613 3.42438,1.307851 8.17089,3.742582 10.5478,5.410513 6.27178,4.401065 6.82545,3.822417 2.32704,-2.432028 z"
       id="path4489"
       inkscape:connector-curvature="0"
       sodipodi:nodetypes="csssssssssscssssscssscsscccssssccsccccsccscscccssccccscssscsssccsssssssssscccsssscssssssssscsccccscssscccssccsccscccsssscsscsscsccssscsssscssscccssccccccsssssscsssscscsscssccssssccssccssccsscsssscccssssscsssscsscscssscccssccscscsccccssscscscsccccscssssssssscsssssssscscssssscscccssssssscsssscssss" />
  </g>
</svg>
